<?xml version="1.0" encoding="utf-8"?>
<!-- Generator: Adobe Illustrator 23.0.1, SVG Export Plug-In . SVG Version: 6.00 Build 0)  -->
<svg version="1.1" id="Layer_1" xmlns="http://www.w3.org/2000/svg" xmlns:xlink="http://www.w3.org/1999/xlink" x="0px" y="0px"
	 viewBox="0 0 27 27" style="enable-background:new 0 0 27 27;" xml:space="preserve">
<style type="text/css">
	.st0{fill-rule:evenodd;clip-rule:evenodd;fill:#FFFFFF;}
</style>
<title>Group</title>
<g id="Page-1">
	<g id="Profile-Day" transform="translate(-933.000000, -493.000000)">
		<g id="Group" transform="translate(933.615170, 493.289950)">
			<path id="Fill-3" class="st0" d="M12.9,0.1C5.6,0.1-0.3,5.9-0.3,13.2c0,5.6,3.5,10.3,8.4,12.2c-0.1-1-0.2-2.6,0-3.8
				c0.2-1,1.5-6.5,1.5-6.5s-0.4-0.8-0.4-1.9c0-1.8,1.1-3.2,2.4-3.2c1.1,0,1.7,0.8,1.7,1.8c0,1.1-0.7,2.8-1.1,4.4
				c-0.3,1.3,0.7,2.4,1.9,2.4c2.3,0,4.1-2.5,4.1-6c0-3.1-2.3-5.3-5.5-5.3c-3.7,0-5.9,2.8-5.9,5.7c0,1.1,0.4,2.3,1,3
				C8,16.1,8,16.2,7.9,16.3c-0.1,0.4-0.3,1.3-0.4,1.5c-0.1,0.2-0.2,0.3-0.4,0.2c-1.6-0.8-2.7-3.2-2.7-5.1c0-4.1,3-7.9,8.7-7.9
				c4.6,0,8.1,3.2,8.1,7.6c0,4.5-2.9,8.2-6.8,8.2c-1.3,0-2.6-0.7-3-1.5c0,0-0.7,2.5-0.8,3.1c-0.3,1.1-1.1,2.6-1.6,3.4
				c1.2,0.4,2.5,0.6,3.9,0.6c7.3,0,13.2-5.9,13.2-13.1C26.1,5.9,20.2,0.1,12.9,0.1"/>
		</g>
	</g>
</g>
</svg>
