<?xml version="1.0" encoding="utf-8"?>
<!-- Generator: Adobe Illustrator 23.0.1, SVG Export Plug-In . SVG Version: 6.00 Build 0)  -->
<svg version="1.1" id="Layer_1" xmlns="http://www.w3.org/2000/svg" xmlns:xlink="http://www.w3.org/1999/xlink" x="0px" y="0px"
	 viewBox="0 0 22 19" style="enable-background:new 0 0 22 19;" xml:space="preserve">
<style type="text/css">
	.st0{fill-rule:evenodd;clip-rule:evenodd;fill:#FFFFFF;}
</style>
<title>Group 5</title>
<g id="Page-1">
	<g id="Profile-Day" transform="translate(-716.000000, -493.000000)">
		<g id="Group-5" transform="translate(716.615170, 493.289950)">
			<path id="Fill-1" class="st0" d="M18.3,2.9c0.9-0.6,1.6-1.5,1.9-2.6c-0.8,0.5-1.7,0.9-2.7,1.1C16.7,0.6,15.6,0,14.4,0
				c-2.3,0-4.3,2.1-4.3,4.6c0,0.4,0,0.7,0.1,1c-3.5-0.2-6.7-2-8.8-4.8C1.1,1.5,0.9,2.3,0.9,3.2c0,1.6,0.7,3,1.9,3.8
				C2.1,7,1.4,6.8,0.9,6.4v0.1c0,2.2,1.5,4.1,3.4,4.5c-0.4,0.1-0.7,0.2-1.1,0.2c-0.3,0-0.5,0-0.8-0.1c0.5,1.8,2.1,3.2,4,3.2
				c-1.5,1.2-3.3,2-5.3,2c-0.3,0-0.7,0-1-0.1c1.9,1.3,4.1,2.1,6.5,2.1c7.8,0,12.1-7,12.1-13.1c0-0.2,0-0.4,0-0.6
				c0.8-0.7,1.6-1.5,2.1-2.4C20,2.5,19.2,2.8,18.3,2.9z"/>
		</g>
	</g>
</g>
</svg>
