<?xml version="1.0" encoding="utf-8"?>
<!-- Generator: Adobe Illustrator 23.0.1, SVG Export Plug-In . SVG Version: 6.00 Build 0)  -->
<svg version="1.1" id="Layer_1" xmlns="http://www.w3.org/2000/svg" xmlns:xlink="http://www.w3.org/1999/xlink" x="0px" y="0px"
	 viewBox="0 0 22 19" style="enable-background:new 0 0 22 19;" xml:space="preserve">
<style type="text/css">
	.st0{fill-rule:evenodd;clip-rule:evenodd;fill:#FFFFFF;}
</style>
<title>Group 4</title>
<g id="Page-1">
	<g id="Profile-Day" transform="translate(-789.000000, -493.000000)">
		<g id="Group-4" transform="translate(789.615170, 493.289950)">
			<g id="Group-14" transform="translate(13.119048, 13.119048)">
				<polygon id="Fill-1" class="st0" points="-13.3,5.4 -8.3,5.4 -8.3,-7.3 -13.3,-7.3 				"/>
				<path id="Fill-2" class="st0" d="M-1.6-5.2v-2h-4.7c0.1,1.1,0,12.6,0,12.6h4.7v-6.8c0-0.4,0-0.8,0.1-1C-1.2-3.2-0.5-4,0.8-4
					c1.6,0,2.4,1.2,2.4,2.9v6.5h4.7v-7c0-3.9-2.3-5.7-5.3-5.7C0.2-7.3-1.3-6.1-1.6-5.2z"/>
				<path id="Fill-4" class="st0" d="M-10.8-13.2c-1.5,0-2.5,1.1-2.5,2.5c0,1.4,1,2.4,2.5,2.4h0c1.6,0,2.5-1.1,2.5-2.5
					C-8.3-12.2-9.2-13.2-10.8-13.2"/>
			</g>
		</g>
	</g>
</g>
</svg>
