<?xml version="1.0" encoding="utf-8"?>
<!-- Generator: Adobe Illustrator 23.0.1, SVG Export Plug-In . SVG Version: 6.00 Build 0)  -->
<svg version="1.1" id="Layer_1" xmlns="http://www.w3.org/2000/svg" xmlns:xlink="http://www.w3.org/1999/xlink" x="0px" y="0px"
	 viewBox="0 0 22 22" style="enable-background:new 0 0 22 22;" xml:space="preserve">
<style type="text/css">
	.st0{fill-rule:evenodd;clip-rule:evenodd;fill:#FFFFFF;}
</style>
<title>Group 2</title>
<g id="Page-1">
	<g id="Profile-Day" transform="translate(-860.000000, -493.000000)">
		<g id="Group-2" transform="translate(860.615170, 493.289950)">
			<g id="Group-15" transform="translate(13.119048, 13.119048)">
				<path id="Fill-1" class="st0" d="M-2.7-13C-5.6-13-6-13-7.1-13c-1.1,0.1-1.9,0.2-2.6,0.5c-0.7,0.3-1.3,0.6-1.9,1.2
					c-0.6,0.6-1,1.2-1.2,1.9c-0.3,0.7-0.4,1.4-0.5,2.6c-0.1,1.1-0.1,1.5-0.1,4.4c0,2.9,0,3.2,0.1,4.4c0.1,1.1,0.2,1.9,0.5,2.6
					c0.3,0.7,0.6,1.3,1.2,1.9c0.6,0.6,1.2,1,1.9,1.2C-9,7.9-8.2,8.1-7.1,8.2C-6,8.2-5.6,8.2-2.7,8.2s3.2,0,4.4-0.1
					c1.1-0.1,1.9-0.2,2.6-0.5C4.9,7.4,5.5,7,6.1,6.4c0.6-0.6,1-1.2,1.2-1.9C7.6,3.9,7.8,3.1,7.8,2c0.1-1.1,0.1-1.5,0.1-4.4
					c0-2.9,0-3.2-0.1-4.4C7.8-7.9,7.6-8.7,7.3-9.4c-0.3-0.7-0.6-1.3-1.2-1.9c-0.6-0.6-1.2-1-1.9-1.2c-0.7-0.3-1.4-0.4-2.6-0.5
					C0.5-13,0.2-13-2.7-13 M-2.7-11.1c2.8,0,3.2,0,4.3,0.1c1,0,1.6,0.2,2,0.4c0.5,0.2,0.8,0.4,1.2,0.8c0.4,0.4,0.6,0.7,0.8,1.2
					c0.1,0.4,0.3,0.9,0.4,2C6-5.6,6-5.2,6-2.4c0,2.8,0,3.2-0.1,4.3c0,1-0.2,1.6-0.4,2C5.4,4.4,5.1,4.7,4.8,5.1S4,5.7,3.5,5.9
					C3.2,6,2.6,6.2,1.6,6.2C0.4,6.3,0.1,6.3-2.7,6.3c-2.8,0-3.2,0-4.3-0.1c-1,0-1.6-0.2-2-0.4c-0.5-0.2-0.8-0.4-1.2-0.8
					c-0.4-0.4-0.6-0.7-0.8-1.2c-0.1-0.4-0.3-0.9-0.4-2c0-1.1-0.1-1.5-0.1-4.3c0-2.8,0-3.2,0.1-4.3c0-1,0.2-1.6,0.4-2
					c0.2-0.5,0.4-0.9,0.8-1.2c0.4-0.4,0.7-0.6,1.2-0.8c0.4-0.1,0.9-0.3,2-0.4C-5.9-11.1-5.6-11.1-2.7-11.1"/>
				<path id="Fill-4" class="st0" d="M-2.7,1.2c-2,0-3.6-1.6-3.6-3.6S-4.7-6-2.7-6s3.6,1.6,3.6,3.6S-0.7,1.2-2.7,1.2 M-2.7-8
					c-3.1,0-5.6,2.5-5.6,5.6c0,3.1,2.5,5.6,5.6,5.6s5.6-2.5,5.6-5.6C2.8-5.5,0.3-8-2.7-8"/>
			</g>
		</g>
	</g>
</g>
</svg>
