<?xml version="1.0" encoding="UTF-8"?>
<svg width="71px" height="71px" viewBox="0 0 71 71" version="1.1" xmlns="http://www.w3.org/2000/svg" xmlns:xlink="http://www.w3.org/1999/xlink">
    <title>Group 2 Copy</title>
    <g id="Page-1" stroke="none" stroke-width="1" fill="none" fill-rule="evenodd">
        <g id="Profile-Edit-Day" transform="translate(-865.000000, -514.000000)">
            <g id="Group-2-Copy" transform="translate(865.717153, 514.275040)">
                <g id="Group-Copy-2" transform="translate(-0.000000, 0.000000)">
                    <circle id="Oval-Copy-6" fill="#A478F9" cx="35" cy="35" r="35"></circle>
                    <path d="M44.1025384,25.1477922 C43.0857045,24.1309583 41.4431267,24.1309583 40.4260321,25.1477922 L27.0510163,38.496996 C26.998871,38.5488806 26.9727983,38.575214 26.9467257,38.6273593 C26.9467257,38.6273593 26.9467257,38.653432 26.920653,38.653432 C26.8945804,38.7055773 26.8685077,38.73165 26.8685077,38.7837953 L26.8685077,38.8096073 L25.0955666,44.5979993 C25.0173486,44.8847986 25.0955666,45.1715979 25.2780752,45.3801792 C25.4345112,45.5366152 25.6170198,45.6148332 25.8256011,45.6148332 C25.9038191,45.6148332 25.9820371,45.6148332 26.0602551,45.5884998 L31.8223138,43.8158194 L31.8483865,43.8158194 C31.9005318,43.7897467 31.9526771,43.7897467 31.9787498,43.7634133 C31.9787498,43.7634133 32.0048224,43.7634133 32.0048224,43.7376014 C32.0569678,43.7115287 32.1091131,43.6854561 32.1351858,43.63305 L45.4843895,30.284107 C46.5012234,29.2672731 46.5012234,27.6246953 45.4843895,26.6078614 L44.1025384,25.1477922 Z" id="Fill-1" fill="#FFFFFF"></path>
                </g>
            </g>
        </g>
    </g>
</svg>