<?xml version="1.0" encoding="UTF-8"?>
<svg width="38px" height="38px" viewBox="0 0 38 38" version="1.1" xmlns="http://www.w3.org/2000/svg" xmlns:xlink="http://www.w3.org/1999/xlink">
    <title>Group 4</title>
    <g id="Symbols" stroke="none" stroke-width="1" fill="none" fill-rule="evenodd">
        <g id="Header" transform="translate(-1463.000000, -68.000000)">
            <g id="Group-4" transform="translate(1462.998519, 68.293796)">
                <rect id="Rectangle-Copy-10" fill="#A478F9" x="-7.10542736e-15" y="0" width="37.3055556" height="37" rx="18.5"></rect>
                <g id="Group-3" transform="translate(8.824166, 10.706204)" fill="#C80000">
                    <path d="M0.669061648,0 C0.299516598,0 0,0.299546912 0,0.669091963 C0,1.03863701 0.299516598,1.33815361 0.669061648,1.33815361 L2.11250436,1.33815361 L4.41251528,12.1894415 C4.50350767,12.5980151 4.77113233,12.9378984 5.1094545,12.9352222 L16.260482,12.9352222 C16.6139695,12.9401286 16.9391335,12.6196481 16.9391335,12.2661605 C16.9391335,11.912673 16.6139695,11.5921924 16.260482,11.5970989 L5.65295558,11.5970989 L5.36726626,10.2589756 L17.1525642,10.2589756 C17.4520808,10.2567454 17.7350938,10.0285954 17.8006619,9.73621542 L19.6434268,4.43844341 C19.7304048,4.05016463 19.3931977,3.62597954 18.9953291,3.62308028 L3.95526927,3.62308028 L3.31123981,0.529704119 C3.24812499,0.232640748 2.95998244,-0.000192706057 2.65622846,0 L0.669061648,0 Z" id="Path"></path>
                    <circle id="Oval" cx="7.32423135" cy="16.2039909" r="1.7960091"></circle>
                    <circle id="Oval-Copy" cx="13.994506" cy="16.2039909" r="1.7960091"></circle>
                </g>
            </g>
        </g>
    </g>
</svg>