<svg height="100%" style="fill-rule:evenodd;clip-rule:evenodd;stroke-linejoin:round;stroke-miterlimit:2;" version="1.1" viewBox="0 0 32 32" width="100%" xml:space="preserve" xmlns="http://www.w3.org/2000/svg" xmlns:serif="http://www.serif.com/" xmlns:xlink="http://www.w3.org/1999/xlink"><path d="M9,26.971l0,1.006c-0,0.795 0.316,1.558 0.879,2.121c0.562,0.563 1.325,0.879 2.121,0.879c3.076,-0 8.936,-0 12.012,-0c0.796,-0 1.559,-0.316 2.122,-0.879c0.562,-0.563 0.878,-1.326 0.878,-2.121l0,-19.977c0,-0.796 -0.316,-1.559 -0.878,-2.121c-0.563,-0.563 -1.326,-0.879 -2.122,-0.879l-1.012,0l-0,-1.005c0,-0.796 -0.316,-1.559 -0.879,-2.122c-0.562,-0.562 -1.325,-0.878 -2.121,-0.878c-3.076,-0 -8.936,-0 -12.012,-0c-0.796,-0 -1.559,0.316 -2.122,0.878c-0.562,0.563 -0.878,1.326 -0.878,2.122c-0,4.516 -0,15.46 -0,19.976c-0,0.796 0.316,1.559 0.878,2.122c0.563,0.562 1.326,0.878 2.122,0.878l1.012,0Zm16.012,-18.971l0,19.977c0,0.265 -0.105,0.519 -0.293,0.707c-0.187,0.187 -0.441,0.293 -0.707,0.293l-12.012,-0c-0.265,-0 -0.52,-0.106 -0.707,-0.293c-0.188,-0.188 -0.293,-0.442 -0.293,-0.707l-0,-19.977c-0,-0.265 0.105,-0.52 0.293,-0.707c0.187,-0.188 0.442,-0.293 0.707,-0.293l12.012,0c0.266,-0 0.52,0.105 0.707,0.293c0.188,0.187 0.293,0.442 0.293,0.707Zm-4.012,-3l0,-1.005c0,-0.266 -0.105,-0.52 -0.293,-0.708c-0.187,-0.187 -0.442,-0.292 -0.707,-0.292l-12.012,-0c-0.266,-0 -0.52,0.105 -0.707,0.292c-0.188,0.188 -0.293,0.442 -0.293,0.708l-0,19.976c-0,0.266 0.105,0.52 0.293,0.707c0.187,0.188 0.441,0.293 0.707,0.293l1.012,0l-0,-16.971c-0,-0.796 0.316,-1.559 0.879,-2.121c0.562,-0.563 1.325,-0.879 2.121,-0.879l9,0Z" fill="#a36e13"/><path d="M14,10.997l7.995,-0c0.551,-0 1,-0.448 1,-1c-0,-0.552 -0.449,-1 -1,-1l-7.995,-0c-0.552,-0 -1,0.448 -1,1c0,0.552 0.448,1 1,1Z" fill="#a36e13"/><path d="M14,15l7.995,0c0.551,0 1,-0.448 1,-1c-0,-0.552 -0.449,-1 -1,-1l-7.995,0c-0.552,0 -1,0.448 -1,1c0,0.552 0.448,1 1,1Z" fill="#a36e13"/><path d="M14,19.003l7.995,0c0.551,0 1,-0.448 1,-1c-0,-0.552 -0.449,-1 -1,-1l-7.995,0c-0.552,0 -1,0.448 -1,1c0,0.552 0.448,1 1,1Z" fill="#a36e13"/><path d="M14,23.006l7.995,0c0.551,0 1,-0.448 1,-1c-0,-0.552 -0.449,-1 -1,-1l-7.995,0c-0.552,0 -1,0.448 -1,1c-0,0.552 0.448,1 1,1Z" fill="#a36e13"/><path d="M14,27.009l7.995,0c0.551,0 1,-0.448 1,-1c-0,-0.552 -0.449,-1 -1,-1l-7.995,0c-0.552,0 -1,0.448 -1,1c-0,0.552 0.448,1 1,1Z" fill="#a36e13"/><g id="Icon"/></svg>