<?xml version="1.0" encoding="UTF-8"?>
<svg width="306px" height="65px" viewBox="0 0 306 65" version="1.1" xmlns="http://www.w3.org/2000/svg" xmlns:xlink="http://www.w3.org/1999/xlink">
    <title>Group</title>
    <defs>
        <polygon id="path-1" points="-7.87756891e-16 0 33.9827699 0 33.9827699 40.4354839 -7.87756891e-16 40.4354839"></polygon>
        <polygon id="path-3" points="3.10255022e-14 -3.87818777e-15 22.6746008 -3.87818777e-15 22.6746008 21.1947544 3.10255022e-14 21.1947544"></polygon>
        <polygon id="path-5" points="0 0 63.9999222 0 63.9999222 64 0 64"></polygon>
        <polygon id="path-7" points="2.76532935e-15 0 69.9593603 0 69.9593603 52.0806549 2.76532935e-15 52.0806549"></polygon>
    </defs>
    <g id="Symbols" stroke="none" stroke-width="1" fill="none" fill-rule="evenodd">
        <g id="Header" transform="translate(-20.000000, -56.000000)">
            <g id="Group" transform="translate(20.522985, 56.076054)">
                <g id="Group-11" transform="translate(87.354588, 11.782258)">
                    <g id="Group-3" transform="translate(0.000000, 0.000000)">
                        <mask id="mask-2" fill="white">
                            <use xlink:href="#path-1"></use>
                        </mask>
                        <g id="Clip-2"></g>
                        <path d="M31.5341723,3.91383066 C31.4119117,3.81121906 31.2678188,3.73043971 31.1390085,3.63546939 C31.0538627,3.43461264 30.9370601,3.24358039 30.7776847,3.07765525 C29.2810835,1.51664893 26.8828101,-0.283420601 23.9703872,0.0375135654 C23.4726117,0.092094206 23.015226,0.351898055 22.7095744,0.747061893 C22.6451692,0.83111608 22.5873137,0.919536718 22.5370995,1.01232381 C21.0175745,0.812558662 18.7644857,0.69903093 16.9556832,1.36273152 C16.3640291,1.57996247 15.9241091,2.08319598 15.7887491,2.69995721 C15.7450846,2.90845526 15.7363517,3.11804492 15.7625504,3.32326813 C14.196086,4.12669516 12.6754694,5.52177633 12.2475572,7.74430002 C12.0783572,8.62523156 12.5673997,9.47778116 13.3697351,9.79980694 C13.3610022,10.3718121 13.4024835,10.9580081 13.50837,11.5649449 C13.6732035,12.7537112 14.0116035,13.8431408 14.5235699,14.8332336 C15.0344447,15.8233264 15.6206408,16.7566554 16.2821581,17.6321289 C16.9414923,18.5065107 17.6433993,19.3568771 18.3867876,20.1821364 C19.1290843,21.0063041 19.8550069,21.8239221 20.5656468,22.6328072 C21.2751951,23.4427839 21.9094222,24.2833257 22.4716028,25.1587992 C23.0326918,26.0331811 23.4627872,26.9654184 23.7586143,27.9555112 C23.9245394,28.7163654 24.0064104,29.4095395 24.0064104,30.0372169 C24.0402504,30.9618129 23.8743252,31.8023548 23.5108182,32.5621173 C23.1473111,33.3207882 22.6277034,33.9659314 21.9519951,34.4931804 C21.2751951,35.0204294 20.4815926,35.4341506 19.5744624,35.7310693 C18.6662405,36.027988 17.683789,36.1764473 16.6281994,36.1764473 C15.3411879,36.1764473 14.0781919,35.9952396 12.8392113,35.6317325 C11.6013224,35.2682255 10.494427,34.7660836 9.52179998,34.1209404 C8.54698974,33.4779805 7.73155497,32.7345921 7.0700376,31.8929586 C6.41070347,31.0502336 6.0133564,30.1529278 5.88127125,29.1944918 C5.7830261,28.4347293 5.87472158,27.7753951 6.15417446,27.2132145 C6.43362734,26.6532172 6.8309744,26.1739991 7.34294081,25.7766521 C7.8538156,25.3814882 8.45747749,25.0671037 9.15065162,24.8356818 C9.84382576,24.6053515 10.5533741,24.440518 11.2803882,24.3400896 C12.0390591,24.2101877 12.6983933,24.02898 13.2605739,23.7964664 C13.8216628,23.5650445 14.0530848,23.1196665 13.9548396,22.4592407 C13.8216628,21.6994782 13.4341403,21.1067325 12.7900887,20.676637 C12.1460372,20.2476332 11.4441301,19.9518061 10.6854592,19.7858809 C10.223707,19.7203842 9.7532219,19.6789029 9.27400387,19.6614371 C8.79478585,19.6450629 8.37451492,19.67017 8.01209946,19.7356668 C6.65849957,19.8677519 5.45226742,20.2563661 4.39776944,20.899326 C3.33890501,21.5433776 2.46561476,22.3358885 1.77244063,23.2768587 C1.07926649,24.217829 0.583674275,25.258136 0.28675559,26.3966881 C-0.0112547073,27.5352403 -0.0767514761,28.6661512 0.0891736714,29.7894208 C0.28675559,31.175769 0.807454902,32.5042618 1.64799677,33.7748991 C2.49072186,35.0455364 3.59543402,36.1764473 4.9654081,37.1676318 C6.3364738,38.156633 7.96297689,38.9491439 9.84382576,39.5440728 C11.7257662,40.1379102 13.838037,40.4359205 16.1817297,40.4359205 C19.1869398,40.4359205 21.7609628,40.0636805 23.9081652,39.3213838 C26.0531844,38.5790871 27.7779327,37.5879027 29.08241,36.3500138 C30.3868873,35.1110332 31.2863762,33.6755624 31.7819684,32.041418 C32.2775607,30.4072736 32.3910884,28.6988996 32.1280097,26.9162958 C31.8638394,25.398954 31.0800614,23.8051993 29.7755841,22.1383066 C28.4711068,20.4703222 26.7299844,18.4661211 24.5511252,16.1213367 C22.933355,14.304893 21.7696957,12.8694222 21.061239,11.812741 C20.3495075,10.7560598 19.9292365,9.83146372 19.7971514,9.04004443 C19.7316546,8.57829221 19.7971514,8.15583805 19.9958249,7.7770484 C20.1934068,7.39716714 20.4750429,7.06750008 20.8374584,6.78586397 C21.1998738,6.50641109 21.6288777,6.29027175 22.1244699,6.14290402 C22.6200621,5.99444468 23.1309369,5.92021501 23.6603691,5.92021501 C24.9146322,5.92021501 25.8468696,6.14290402 26.4581728,6.58828205 C27.0694759,7.03366008 27.4395327,7.48777101 27.5716178,7.94952323 C27.3074475,8.41236706 27.0356359,8.78460703 26.7550914,9.06515152 C26.474547,9.3446044 26.2180179,9.59240051 25.9876876,9.80744823 C25.7562657,10.0214043 25.5488593,10.2200779 25.3687432,10.4012856 C25.1875354,10.5824933 25.0630916,10.772434 24.9965032,10.9711075 C25.0292516,11.3007746 25.2355664,11.6391745 25.6165393,11.9852158 C25.9953289,12.3323487 26.440707,12.6380003 26.953765,12.9032622 C27.4646398,13.1663409 27.994072,13.3890299 28.5376952,13.5713292 C29.08241,13.7525369 29.5190551,13.8431408 29.8509054,13.8431408 C30.2788176,13.8431408 30.7667685,13.7034144 31.3114833,13.4217783 C31.8551065,13.1412338 32.3430574,12.7460699 32.7720613,12.2330119 C33.1999735,11.7221371 33.5318238,11.1031926 33.7621541,10.3761785 C33.993576,9.6513476 34.0426986,8.84246251 33.9106134,7.94952323 C33.6464431,6.36559304 32.8550238,5.02072605 31.5341723,3.91383066" id="Fill-1" fill="#FFFFFF" mask="url(#mask-2)"></path>
                    </g>
                    <path d="M103.460868,24.267279 C103.181415,25.505168 102.908512,26.7670724 102.644342,28.0551755 C102.479508,28.6490129 102.322316,29.2188347 102.173857,29.7646411 C102.024306,30.3082643 101.826724,30.7874824 101.578928,31.200112 C101.331131,31.6138333 101.001464,31.9435003 100.588835,32.1912964 C100.175113,32.4369093 99.6227574,32.578819 98.9295832,32.6115674 C98.433991,32.6115674 98.0388272,32.4871235 97.7408169,32.2393274 C97.4449898,31.9915313 97.2463163,31.538512 97.1480711,30.8780862 C97.0476427,30.0855753 97.1393382,29.1282309 97.4198827,28.0060529 C97.7004272,26.8849666 98.1130568,25.7769795 98.65668,24.68755 C99.2024864,23.599212 99.8629122,22.6407759 100.637957,21.8155167 C101.414094,20.9902574 102.246995,20.4793826 103.139934,20.2818006 C103.733771,20.2152123 104.112561,20.2970832 104.278486,20.5285051 C104.013224,21.7838599 103.740321,23.0293901 103.460868,24.267279 M78.4782172,24.0194829 C78.7423875,23.2444378 79.0644133,22.5676379 79.4442945,21.9879915 C79.8230842,21.4116199 80.2368054,20.9586006 80.6821835,20.6267503 C81.1275615,20.2970832 81.5805808,20.1322497 82.0434246,20.1322497 C82.5051769,20.1322497 82.8435768,20.2632432 83.0586246,20.5285051 C83.2725807,20.7926754 83.4133987,21.1223425 83.4799871,21.518598 C83.5793239,22.1135269 83.4865368,22.7313798 83.2070839,23.376523 C82.927631,24.0194829 82.530284,24.5882132 82.0183175,25.0838054 C81.5074427,25.578306 80.8961396,25.9669202 80.1865912,26.2474647 C79.4759513,26.5280092 78.7423875,26.6197046 77.982625,26.5192763 C78.0492134,25.6285202 78.2140469,24.794528 78.4782172,24.0194829 M192.348716,9.08949449 C191.968835,7.83523137 191.53219,6.73597726 191.036597,5.79500702 C190.542097,4.85403678 189.987558,4.11174006 189.378438,3.56811688 C188.767134,3.02231048 188.147098,2.75049889 187.521604,2.75049889 C187.05876,2.78433888 186.555527,2.84110275 186.010812,2.92297371 C185.465006,3.0070279 184.970505,3.15439563 184.524035,3.37053496 C184.078657,3.58449108 183.723883,3.88140976 183.460805,4.26129102 C183.195543,4.64117228 183.113672,5.12693998 183.213008,5.72186896 C183.244665,6.4150431 183.41059,7.09184304 183.708601,7.75226879 C184.004428,8.41269454 184.334095,9.13861706 184.697602,9.93112797 C185.061109,10.7236389 185.415883,11.6231278 185.763016,12.6306864 C186.109057,13.6371535 186.365586,14.8324695 186.53042,16.221001 C186.729093,18.3976769 186.729093,20.5110393 186.53042,22.558905 C186.332838,24.605679 185.985705,26.429764 185.490113,28.0300684 C184.994521,29.632556 184.376668,30.9119262 183.633279,31.868179 C182.890983,32.8266151 182.073365,33.3047415 181.181517,33.3047415 C180.620428,33.3047415 180.075713,33.0569454 179.547373,32.5613532 C179.019032,32.0668526 178.689365,31.538512 178.55728,30.977423 C178.325858,29.4917379 178.334591,28.0890155 178.582387,26.7670724 C178.830183,25.4484041 179.23408,24.2760119 179.795169,23.2520791 C180.356258,22.2292379 181.049432,21.3788715 181.874691,20.7020716 C182.69995,20.0252716 183.575424,19.5547865 184.50002,19.2906162 C185.061109,19.0930343 185.275065,18.645473 185.14298,17.9522989 C185.077483,17.5243867 184.863527,17.2023609 184.50002,16.9873132 C184.136513,16.7733571 183.691135,16.666379 183.162794,16.666379 C181.611612,16.666379 180.109553,16.9873132 178.656617,17.6313647 C177.20368,18.2754163 175.939592,19.240402 174.86872,20.5285051 C173.794573,21.8155167 173.019528,23.4332868 172.54031,25.3807241 C172.215009,26.7081253 172.108031,28.20036 172.187719,29.8323211 C171.621172,30.4610901 171.058991,31.0527443 170.511002,31.5712604 C169.601688,32.429268 168.801536,32.8593635 168.108362,32.8593635 C167.415188,32.8593635 167.069147,32.6279416 167.069147,32.1661893 C167.134643,31.7688423 167.20014,31.3736784 167.26782,30.977423 C167.333317,30.5800759 167.399905,30.2023779 167.465402,29.8377792 C167.695732,28.7166928 167.943528,27.7255084 168.20879,26.8664091 C168.471869,26.0084015 168.728398,25.2333564 168.976194,24.5401822 C169.22399,23.8470081 169.446679,23.2193307 169.644261,22.6582417 C169.841843,22.0971528 170.006677,21.5360638 170.139853,20.9749748 L170.139853,20.4542755 C170.139853,20.2719761 170.106013,20.0656613 170.040517,19.8342394 C170.040517,19.8025826 170.055799,19.7862084 170.089639,19.7862084 L170.040517,19.7862084 C170.17151,19.4565414 170.156228,19.0428201 169.990302,18.5472279 C169.824377,18.1837208 169.488161,17.8453209 168.976194,17.532028 C168.463136,17.2187351 167.629144,17.0615429 166.474218,17.0615429 C165.748295,17.0615429 165.112976,17.2765906 164.568262,17.7045028 C164.023547,18.1345982 163.553062,18.6956872 163.156806,19.3888614 C162.761642,20.0820355 162.429792,20.8745464 162.166713,21.7653025 C161.902543,22.6582417 161.679854,23.5413565 161.497555,24.4157384 C161.316347,25.2901202 161.175529,26.1328453 161.077284,26.9417304 C160.977947,27.7506155 160.896076,28.4350567 160.829488,28.9961457 C160.664654,29.2614076 160.515103,29.5081121 160.38411,29.7395341 C160.250933,29.970956 160.102474,30.1685379 159.938732,30.3322798 C159.112381,31.3911442 158.337336,32.1498151 157.610322,32.6115674 C156.884399,33.0744112 156.240347,33.3047415 155.679258,33.3047415 C155.184758,33.3047415 154.772128,33.2141376 154.442461,33.0318383 C154.110611,32.8506306 153.913029,32.544979 153.847532,32.1159751 C153.813692,31.98389 153.789677,31.8430719 153.772211,31.6957042 C153.755837,31.5461533 153.780944,31.3736784 153.847532,31.1750049 C153.913029,30.5484191 154.02874,29.7962979 154.194665,28.9219161 C154.358407,28.0486258 154.564722,27.1142052 154.812518,26.1241124 C155.060314,25.132928 155.339767,24.1100868 155.655243,23.0534056 C155.967444,21.997816 156.305844,20.9411348 156.669351,19.8844536 C156.999018,19.8517052 157.354884,19.8342394 157.734765,19.8342394 C158.114647,19.8342394 158.469421,19.8178652 158.799088,19.7862084 C159.261932,19.7523684 159.755341,19.6704975 160.284773,19.5384123 C160.812022,19.4063272 161.282507,19.2087453 161.696228,18.9434833 C162.108858,18.679313 162.438525,18.3245389 162.686321,17.8791609 C162.934117,17.4337828 163.009439,16.8814267 162.90901,16.221001 C162.776925,15.9568307 162.554236,15.6500875 162.240943,15.3029546 C161.92765,14.9569134 161.58925,14.7844385 161.225743,14.7844385 L158.799088,14.7844385 C159.162595,14.0257676 159.526102,13.3642503 159.888517,12.8031613 C160.250933,12.2420723 160.598066,11.7148233 160.927733,11.2192311 C161.225743,10.9550608 161.406951,10.7072647 161.473539,10.4758428 C161.539036,10.2444208 161.539036,9.99662473 161.473539,9.73354605 C161.375294,9.07202868 160.994321,8.46945841 160.334987,7.92474362 C159.67347,7.38112044 158.963921,6.97613208 158.205251,6.7130534 C157.610322,6.48163148 156.967362,6.36592052 156.274187,6.36592052 C155.018833,6.63118243 153.913029,7.56232816 152.955685,9.16263255 C151.997248,10.7651202 151.173081,12.6710761 150.479907,14.8826837 C149.192895,14.8826837 148.177695,15.0071275 147.434307,15.2549237 C146.690919,15.5027198 146.402733,16.1380384 146.568658,17.1608796 C146.634155,17.7230602 146.922341,18.1749879 147.434307,18.5232124 C147.946273,18.8681621 148.564126,19.1410653 149.29114,19.3408304 C148.995313,20.6267503 148.730051,21.8995708 148.499721,23.1516507 C148.268299,24.4080971 148.077267,25.5881305 147.929899,26.6939343 C147.861128,27.2037175 147.798906,27.6916684 147.74105,28.16652 C146.695285,29.6729457 145.708467,30.895552 144.784963,31.8190565 C143.827618,32.7774925 143.002359,33.2545273 142.309185,33.2545273 C141.945678,33.2545273 141.69024,33.1977634 141.541781,33.0820525 C141.393322,32.9663415 141.285252,32.7774925 141.219755,32.5122306 C141.08767,31.6203829 141.219755,30.605183 141.616011,29.4666309 C142.012266,28.3280787 142.448911,27.1644194 142.928129,25.9756531 C143.407347,24.7879783 143.787229,23.6243191 144.066681,22.4835837 C144.348318,21.3450315 144.306836,20.2970832 143.943329,19.3408304 C143.678067,18.6138163 143.225048,18.0363531 142.582088,17.6073493 C141.936945,17.1772538 141.12151,16.9622061 140.130326,16.9622061 C139.106393,16.9622061 138.050803,17.2765906 136.960282,17.9042679 C135.871944,18.5319453 134.765049,19.356113 133.642871,20.3789542 C133.642871,19.356113 133.288096,18.5319453 132.57964,17.9042679 C131.867908,17.2765906 130.886548,16.9622061 129.632285,16.9622061 C128.542856,16.9622061 127.304967,17.3682861 125.918618,18.1749879 C124.53227,18.9860562 123.276915,20.0656613 122.155829,21.4203528 C122.220234,20.9247606 122.335945,20.4881155 122.50187,20.1071426 C122.666704,19.728353 122.823896,19.3888614 122.971264,19.0930343 C123.119723,18.795024 123.251808,18.5319453 123.367519,18.3005234 C123.48323,18.0701931 123.524711,17.8540538 123.491963,17.6564718 C123.424283,17.2929648 123.195044,16.9873132 122.798789,16.7395171 C122.401442,16.491721 121.93969,16.3028719 121.412441,16.1707868 C120.983437,16.0387016 120.544609,15.9480978 120.09923,15.8978836 C119.653852,15.848761 119.249956,15.8236539 118.886449,15.8236539 C118.32536,15.8574939 117.771912,16.2275507 117.227197,16.9381906 C116.682482,17.6477389 116.187982,18.5472279 115.741512,19.6366575 C115.296134,20.7271787 114.916253,21.9563347 114.60296,23.3263088 C114.288575,24.6962829 114.065886,26.057524 113.934893,27.4122155 C113.868305,28.0388013 113.802808,28.7232425 113.736219,29.4666309 C113.728578,29.5605096 113.728578,29.6598463 113.720937,29.753725 C112.948075,30.6466643 112.215603,31.4053352 111.532253,32.0166384 C110.757208,32.7098125 110.005087,33.0569454 109.280256,33.0569454 C108.587082,33.0569454 108.223575,32.7774925 108.189735,32.2142203 C108.32182,31.2252191 108.519402,30.2187521 108.784664,29.1937276 C109.643763,25.6951086 110.261616,23.071963 110.641497,21.3199244 C111.021378,19.5700691 111.227693,18.4817311 111.261533,18.0527273 C111.128356,17.6564718 110.88056,17.2929648 110.518145,16.9622061 C110.154638,16.6336306 109.742008,16.3519945 109.280256,16.1205726 C108.817412,15.8913339 108.32182,15.7090346 107.794571,15.5758578 C107.265139,15.4448643 106.787012,15.3782759 106.358008,15.3782759 C106.093838,15.3782759 105.813294,15.4448643 105.516375,15.5758578 C105.219456,15.7090346 105.038249,15.8727765 104.97166,16.07145 L104.526282,17.4086757 C104.26102,17.309339 103.972834,17.2187351 103.65845,17.1368641 C103.345157,17.0539016 103.006757,17.0124203 102.644342,17.0124203 C101.158657,17.0124203 99.6151161,17.5003712 98.0137201,18.4729982 C96.4123241,19.4478085 94.9692119,20.6944303 93.6800172,22.2117721 C92.3940973,23.7312971 91.3854471,25.4058312 90.6606162,27.2375575 C90.3855297,27.9318232 90.204322,28.6162645 90.0711453,29.2930644 C89.2720847,30.1576218 88.4086189,30.9403081 87.4654655,31.6203829 C85.8651611,32.7774925 84.0749161,33.3866125 82.0936388,33.4521092 C80.7072906,33.3549557 79.7324803,32.9499673 79.1713913,32.2393274 C78.6103023,31.5297791 78.2806353,30.6139159 78.1802069,29.4917379 C79.6986403,29.4917379 81.1439357,29.2614076 82.5139098,28.7985638 C83.8838838,28.3368116 85.0726502,27.7167755 86.0791172,26.9417304 C87.0855842,26.1666853 87.8540796,25.2573718 88.3824202,24.2170648 C88.9107608,23.1767578 89.0919686,22.0633128 88.927135,20.8745464 C88.6946215,19.5864433 88.0767686,18.5559608 87.0703016,17.7798241 C86.062743,17.004779 84.6185393,16.6161648 82.7365988,16.6161648 C81.4157473,16.6161648 80.2116983,16.7569829 79.1233604,17.0364358 C78.0328392,17.3180719 77.0667618,17.6979531 76.22622,18.1749879 C75.3834949,18.6542059 74.6564807,19.2087453 74.0462692,19.8342394 C73.4360576,20.4630084 72.9328241,21.1223425 72.535477,21.8155167 C71.7768061,23.1363682 71.2899468,24.6220532 71.0748991,26.2714801 C70.9449972,27.2724891 70.914432,28.2451161 70.9602798,29.1959109 C70.8576682,29.3269044 70.7561482,29.4546231 70.6546282,29.5899831 C69.8948657,30.6477559 69.0772477,31.4893894 68.2039574,32.1159751 C67.3273923,32.7436525 66.5938285,33.0744112 65.9999911,33.1071596 C65.272977,33.1071596 64.9094699,32.8593635 64.9094699,32.3637713 C64.8112248,31.868179 64.8930957,31.2252191 65.157266,30.4327082 C65.4214363,29.6391057 65.7434621,28.7734567 66.1233434,27.8324865 C66.502133,26.8915162 66.8569072,25.9418131 67.1887575,24.9855603 C67.5184246,24.0282158 67.7160065,23.1363682 67.7815032,22.3111089 C67.9135884,21.0568457 67.6745252,20.1497155 67.0643136,19.5864433 C66.4530105,19.0264459 65.6866983,18.6138163 64.7621022,18.349646 C64.2981668,18.4162344 63.821132,18.5068382 63.3255397,18.6225492 C62.8299475,18.7382601 62.3026985,18.795024 61.7416096,18.795024 C61.2121773,18.795024 60.5779503,18.7382601 59.834562,18.6225492 C59.0922653,18.5068382 58.5541001,18.267775 58.2255247,17.9042679 C58.3903582,17.343179 58.5792072,16.8388538 58.794255,16.3934758 C59.0082111,15.9480978 59.2483659,15.5431094 59.5125362,15.1796024 C60.0397852,14.6523534 60.1238394,14.1480283 59.7603323,13.6688102 C59.3968252,13.1917754 58.8444692,12.8118942 58.1010808,12.5302581 C57.3576925,12.2508052 56.5739145,12.0772388 55.7486552,12.0106504 C54.9244875,11.944062 54.3295586,12.0281162 53.9660515,12.2584465 C53.1069522,12.5553652 52.3821213,13.1983251 51.7882839,14.1895095 C51.193355,15.1796024 50.995773,16.4840797 51.193355,18.1018499 C51.2250117,18.3660202 51.3090659,18.645473 51.4411511,18.9434833 C51.5721446,19.240402 51.7206039,19.5220381 51.8865291,19.7862084 C52.0513626,20.0492871 52.2085549,20.2818006 52.3570142,20.4793826 C52.5065652,20.6769645 52.6288258,20.7926754 52.7292542,20.8254238 C52.3319071,22.443194 51.8450478,24.0031087 51.2675846,25.505168 C50.6890298,27.0072272 50.0122299,28.3444529 49.2371848,29.516845 C48.4610481,30.6892372 47.6095901,31.6203829 46.6871773,32.3135571 C45.7625812,33.0067312 44.7550226,33.3549557 43.6666846,33.3549557 C43.2376808,33.3549557 42.8981892,33.2719931 42.6514847,33.1071596 C42.4036886,32.9412344 42.2213893,32.7185454 42.1056783,32.4369093 C41.9899673,32.1574564 41.9244706,31.8365223 41.9080964,31.4730152 C41.8906306,31.1095081 41.9157377,30.7460011 41.982326,30.382494 C42.1471596,29.3258128 42.3862228,28.1304968 42.7006073,26.7921795 C43.0149918,25.4560454 43.4014227,24.04459 43.8642665,22.558905 L45.6468703,22.558905 C46.7362998,22.558905 47.6281475,22.2565282 48.3213216,21.6517747 C49.0144958,21.0459296 49.2775745,20.1715478 49.1138325,19.0264459 C49.0461526,18.6345569 48.7819823,18.2590421 48.3213216,17.8988099 C47.8573862,17.5396693 46.984096,17.3595532 45.6959928,17.3595532 C46.0594999,16.4305906 46.4797708,15.5682165 46.9589889,14.7724308 C47.4371153,13.976645 47.874852,13.2725548 48.2711075,12.6579768 C48.6684545,12.045582 48.9893887,11.498684 49.2371848,11.0172827 C49.4838893,10.5358815 49.5908673,10.1298015 49.5592106,9.7979512 C49.4598738,9.36785575 49.2459177,8.93776031 48.9162506,8.50548163 C48.5844003,8.07429457 48.1728623,7.6933217 47.6772701,7.36037979 C47.1816779,7.02962111 46.6533373,6.7643592 46.0922483,6.56459405 C45.5311593,6.36701213 44.9853529,6.26549214 44.4581039,6.26549214 C44.0945968,6.26549214 43.7965865,6.33317214 43.5673478,6.46525729 C42.9396705,6.76108436 42.3534744,7.22392819 41.8087596,7.85160556 C41.2651364,8.47819131 40.7444371,9.24668673 40.2488449,10.153817 C39.7543443,11.0620388 39.2991418,12.0772388 38.8876037,13.1983251 C38.4749741,14.3215947 38.1027341,15.4939869 37.773067,16.7155016 C37.2785664,16.7155016 36.7993484,16.74825 36.3365046,16.8137467 C35.8747524,16.8814267 35.4795885,16.9960461 35.1477382,17.1608796 C34.8202544,17.3268048 34.5637254,17.565868 34.381426,17.8791609 C34.2002183,18.1935453 34.158737,18.6138163 34.2569822,19.1410653 C34.3890673,19.8342394 34.6619705,20.3472974 35.0746002,20.6769645 C35.4883214,21.0066316 36.0570517,21.2544277 36.7829742,21.4203528 C36.5843007,22.4104456 36.4107343,23.4081797 36.2633665,24.4157384 C36.1138156,25.423297 35.9817304,26.3893743 35.8660195,27.3128788 C35.7514001,28.2374748 35.6607963,29.0867496 35.5952995,29.8617947 C35.5287111,30.639023 35.4795885,31.3234642 35.4457485,31.9183932 C35.4457485,32.8429893 35.5952995,33.6999053 35.8911266,34.4935079 C36.3201304,35.5818458 36.9314336,36.4245709 37.7239445,37.0184083 C38.5153638,37.6133373 39.4727082,37.910256 40.5959778,37.910256 C42.6089118,37.910256 44.3762329,37.504176 45.8935748,36.6974741 C47.4120082,35.888589 48.7415926,34.8384575 49.8812364,33.5525376 C51.0197885,32.2644345 52.010973,30.827872 52.8515148,29.2439418 C53.6942399,27.6600116 54.4452695,26.1077382 55.1056953,24.5882132 L56.1449107,21.963976 C56.4418294,22.0633128 56.8129777,22.1462753 57.2594474,22.2117721 C57.705917,22.2783605 58.1578447,22.3536818 58.6217801,22.4355527 C59.0835324,22.5174237 59.5201775,22.5992947 59.9328071,22.6811656 C60.3465284,22.7652198 60.6849284,22.8721979 60.948007,23.004283 C60.8825103,23.2018649 60.8082806,23.3830726 60.725318,23.5489978 C60.6434471,23.7149229 60.5528432,23.9125049 60.4535064,24.1428352 C60.1554961,24.8032609 59.8422033,25.5542905 59.5125362,26.3970156 C59.1828691,27.2375575 58.8935917,28.113031 58.6457956,29.0212528 C58.3990911,29.9294747 58.2167918,30.827872 58.1010808,31.7208113 C57.9853699,32.6115674 57.9777286,33.4204525 58.0759737,34.1452834 C58.7036511,36.5228161 60.4371322,37.7115824 63.2753256,37.7115824 C64.2981668,37.7115824 65.388688,37.456145 66.5447059,36.9452702 C67.6996323,36.4333038 68.7726877,35.7728781 69.7627805,34.963993 C70.5236346,34.3417737 71.1633197,33.6442331 71.7385997,32.9063028 C71.887059,33.2337867 72.0475261,33.551446 72.2385584,33.8494563 C72.766899,34.6747156 73.4262331,35.3842639 74.2198356,35.9791929 C75.0123465,36.5730303 75.9282097,37.0271412 76.9685167,37.3404341 C78.0077321,37.6537269 79.1233604,37.8109192 80.3110351,37.8109192 C81.9615537,37.8109192 83.5454839,37.538016 85.0650089,36.9933012 C86.5823507,36.449678 87.9446835,35.7390381 89.149824,34.8635646 C89.5591788,34.5666459 89.9357853,34.2544446 90.2960175,33.9356937 C90.6846317,35.1288265 91.306851,36.0523309 92.1714083,36.6974741 C93.3416172,37.5707644 94.7366984,38.0085011 96.3544686,38.0085011 C97.311813,37.9430043 98.3521201,37.6133373 99.4753896,37.0184083 C100.597568,36.4245709 101.55382,35.4999749 102.347423,34.2457117 C102.610502,35.5993116 103.147575,36.5228161 103.95646,37.0184083 C104.765345,37.5129089 105.813294,37.760705 107.101397,37.760705 C108.05765,37.760705 109.130705,37.4310379 110.320563,36.7706122 C111.509329,36.111278 112.605309,35.3089426 113.613959,34.369064 C113.673997,34.3123001 113.727487,34.2544446 113.786434,34.1976808 C113.894503,34.8100756 114.066978,35.36134 114.330057,35.8296419 C114.626975,36.3252341 114.98175,36.6974741 115.395471,36.9452702 C115.807009,37.1919747 116.211997,37.3568083 116.608253,37.4386792 C117.004508,37.5205502 117.359282,37.5543902 117.672575,37.538016 C117.985868,37.5205502 118.208557,37.5129089 118.342825,37.5129089 C118.441071,37.4801605 118.540407,37.456145 118.638653,37.4386792 C118.737989,37.422305 118.81986,37.3819154 118.886449,37.315327 C119.315452,37.151585 119.579623,36.8044522 119.67896,36.27502 C119.777205,35.747771 119.876541,35.2521788 119.975878,34.7904265 C120.140712,33.9313273 120.338294,32.8997531 120.569716,31.6957042 C120.801138,30.4905637 121.115522,29.3181715 121.510686,28.1785277 C121.908033,27.0399756 122.401442,26.0171344 122.996371,25.1089125 C123.590208,24.2017823 124.317222,23.599212 125.17523,23.3012017 C125.47324,23.2357049 125.769067,23.2105978 126.067078,23.226972 C126.363996,23.2444378 126.594327,23.2859191 126.760252,23.3514159 C126.825749,23.8786649 126.710038,24.5969461 126.414211,25.505168 C126.1162,26.4122982 125.785442,27.4198568 125.423026,28.5256606 C125.059519,29.632556 124.712386,30.7962153 124.382719,32.0166384 C124.053052,33.2392447 123.903501,34.4269195 123.937341,35.5818458 C124.201511,36.5064419 124.746226,37.1101038 125.571486,37.3906483 C126.396745,37.6701011 127.287501,37.8109192 128.245937,37.8109192 C128.905271,37.8109192 129.400863,37.7039411 129.731622,37.4888934 C130.061289,37.2749373 130.258871,36.8535748 130.325459,36.226989 C130.457544,35.2358046 130.638752,34.0721453 130.870174,32.7349196 C131.100504,31.3976939 131.42253,30.1030411 131.836251,28.8476864 C132.247789,27.5934233 132.768489,26.4625124 133.395075,25.4560454 C134.022752,24.4484868 134.815263,23.7804197 135.772607,23.449661 C136.035686,23.3514159 136.292215,23.260812 136.540011,23.1767578 C136.787807,23.0948869 136.99303,23.1516507 137.158956,23.3514159 C137.357629,23.7465797 137.308506,24.38299 137.010496,25.2573718 C136.713577,26.1328453 136.367536,27.1076556 135.970189,28.1785277 C135.575025,29.2526747 135.211518,30.3410127 134.881851,31.4479081 C134.552184,32.5548035 134.451756,33.5361634 134.583841,34.3930795 C134.781423,35.5501891 135.376352,36.4081967 136.367536,36.9681941 C137.357629,37.5292831 138.579144,37.8109192 140.030989,37.8109192 C141.08767,37.8109192 142.193474,37.4976263 143.3484,36.8699489 C144.504418,36.2433632 145.577474,35.4672265 146.568658,34.5426304 C146.905966,34.2271543 147.19961,33.9029453 147.500895,33.5798279 C147.536919,33.7523028 147.57185,33.9204111 147.606782,34.0972524 C148.004129,35.2521788 148.65473,36.1767748 149.564044,36.8699489 C150.471174,37.5631231 151.436159,37.910256 152.461184,37.910256 C153.186015,37.910256 153.938136,37.8021863 154.713181,37.5882302 C155.489318,37.3731824 156.24908,37.0762638 156.991377,36.6974741 C157.734765,36.3175929 158.435581,35.8722148 159.096007,35.3591568 C159.755341,34.848282 160.334987,34.2948343 160.829488,33.6999053 C160.994321,35.186682 161.390577,36.2499129 162.018254,36.895056 C162.643748,37.538016 163.702613,37.8611334 165.186114,37.8611334 C165.945877,37.8611334 166.763495,37.678834 167.637877,37.315327 C168.51335,36.9518199 169.37245,36.4813348 170.212991,35.9038716 C171.055717,35.3264084 171.839495,34.6747156 172.566509,33.9477014 C172.663662,33.8505479 172.738984,33.7512111 172.830679,33.6540576 C173.171262,34.5306227 173.658122,35.2969349 174.324005,35.9289787 C175.330472,36.8863231 176.559628,37.4976263 178.012565,37.760705 C178.475409,37.8272934 178.945894,37.8676831 179.425112,37.8851489 C179.902147,37.9015231 180.372632,37.876416 180.836567,37.8109192 C182.84841,37.644994 184.581891,37.1341192 186.035919,36.27502 C187.487764,35.4181039 188.691813,34.3363156 189.650249,33.0318383 C190.607594,31.727361 191.366265,30.2591418 191.928445,28.6249974 C192.489534,26.9897614 192.884698,25.2901202 193.11612,23.5238907 C193.34645,21.7587528 193.45452,19.9761491 193.440658,18.1749879 C193.421771,16.3771016 193.330076,14.6851018 193.166334,13.1011716 C193.000409,11.6809833 192.727506,10.3437576 192.348716,9.08949449" id="Fill-4" fill="#FFFFFF"></path>
                    <g id="Group-8" transform="translate(194.482108, 16.616383)">
                        <mask id="mask-4" fill="white">
                            <use xlink:href="#path-3"></use>
                        </mask>
                        <g id="Clip-7"></g>
                        <path d="M7.54703043,7.40331809 C7.81120074,6.628273 8.13322652,5.95147305 8.51310777,5.37182665 C8.89189742,4.79436347 9.30561868,4.34243577 9.7509967,4.01058547 C10.1963747,3.6809184 10.649394,3.51499326 11.1122379,3.51499326 C11.5739901,3.51499326 11.9123901,3.64707841 12.1274378,3.91234032 C12.3413939,4.17651062 12.482212,4.50617769 12.5488003,4.90134153 C12.6481371,5.49627051 12.5564416,6.11521497 12.2758971,6.76035815 C11.9964443,7.40331809 11.5990972,7.97204837 11.0871308,8.46764058 C10.576256,8.96214119 9.96495281,9.35075535 9.25540449,9.63129984 C8.54476455,9.91184433 7.81120074,10.0024482 7.05143822,9.90311143 C7.1180266,9.01235538 7.28286013,8.17836319 7.54703043,7.40331809 M22.4289879,10.9936326 C22.2128486,10.6639656 21.8242344,10.4980404 21.2653286,10.4980404 C21.0000667,10.4980404 20.8177674,10.5799114 20.7195222,10.7458365 C19.5318475,12.4301951 18.1367663,13.8492917 16.5342787,15.0042181 C14.9339743,16.1602361 13.1437293,16.7704476 11.1624521,16.8359444 C9.7761038,16.7376992 8.80129356,16.3338025 8.24020457,15.6231626 C7.67911559,14.9136142 7.34944852,13.9977511 7.24902014,12.8755731 C8.76745356,12.8755731 10.2127489,12.6452428 11.582723,12.182399 C12.9526971,11.7206468 14.1414634,11.1006107 15.1479304,10.3255656 C16.1554891,9.55052049 16.9228929,8.64120702 17.4523251,7.60090001 C17.9795741,6.560593 18.1607818,5.44714793 17.9959483,4.25838158 C17.7645264,2.97027846 17.1455819,1.93979597 16.1391149,1.16365926 C15.1315563,0.388614161 13.6873525,0 11.805412,0 C10.4856521,0 9.28051158,0.140818053 8.19217361,0.420270933 C7.10165241,0.701907038 6.13557507,1.0817883 5.2950332,1.5588231 C4.45230811,2.03804112 3.72529398,2.59258043 3.11508242,3.21807457 C2.50487086,3.84684355 2.00163735,4.50617769 1.60429029,5.19935182 C0.845619381,6.51911171 0.358760067,8.00588836 0.143712343,9.65531532 C-0.0702437679,11.3069255 -0.0451366733,12.8908557 0.217942014,14.4092891 C0.416615546,15.4681535 0.780122613,16.4080322 1.3073716,17.2332915 C1.8357122,18.0585508 2.49613795,18.7680991 3.28864885,19.3630281 C4.08115976,19.9557738 4.99702291,20.4109764 6.03732992,20.7242692 C7.07654531,21.0375621 8.19217361,21.1947544 9.37984835,21.1947544 C11.0303669,21.1947544 12.6142971,20.9218512 14.1338221,20.3771364 C15.651164,19.8335132 17.0134967,19.1228732 18.2186373,18.2473998 C19.4226862,17.3741095 20.4138707,16.4080322 21.1900074,15.3502594 C21.9650525,14.2957614 22.4530034,13.2390802 22.6516769,12.182399 C22.7171737,11.7206468 22.642944,11.3232997 22.4289879,10.9936326" id="Fill-6" fill="#FFFFFF" mask="url(#mask-4)"></path>
                    </g>
                    <path d="M170.596912,11.8771461 C173.062865,10.8444804 174.586757,8.87302767 174.00056,7.47358004 C173.415456,6.07413242 170.94077,5.77721373 168.474816,6.80987945 C166.008863,7.84254517 164.484972,9.81399791 165.070076,11.2134455 C165.656272,12.6128932 168.130958,12.9098118 170.596912,11.8771461" id="Fill-9" fill="#FFFFFF"></path>
                </g>
                <g id="Group-27" transform="translate(-0.000000, 0.000000)">
                    <path d="M59.1622685,30.6010338 C59.1622685,38.5248507 50.7286185,44.9479683 40.3241332,44.9479683 C29.9204262,44.9479683 21.4867762,38.5248507 21.4867762,30.6010338 C21.4867762,22.6772168 29.9204262,16.2540992 40.3241332,16.2540992 C50.7286185,16.2540992 59.1622685,22.6772168 59.1622685,30.6010338" id="Fill-1" fill="#FFFFFF"></path>
                    <g id="Group-5">
                        <mask id="mask-6" fill="white">
                            <use xlink:href="#path-5"></use>
                        </mask>
                        <g id="Clip-4"></g>
                        <path d="M41.7104898,57.9567274 C41.0527663,57.9567274 40.3810321,57.9030198 39.7100763,57.7893777 L39.0142126,57.6718436 C36.0307165,57.1713511 34.6693456,56.9432884 32.6619267,55.73837 C32.0501271,55.3709789 31.2989991,54.917967 30.5953517,54.2820379 C30.5899031,54.2820379 30.5844545,54.2835946 30.5782275,54.284373 C30.3112462,54.2921567 30.0458217,54.2968269 29.7858458,54.2968269 C23.4024251,54.2968269 19.0964767,51.7663428 17.1092955,50.2749839 C17.0875011,50.3115673 17.0649283,50.3497075 17.0439123,50.3847342 C16.8555465,50.7100933 16.535636,50.9373776 16.1666882,51.0097661 C16.0826241,51.0268903 15.99856,51.0338956 15.9152743,51.0338956 C15.6288338,51.0338956 15.3478418,50.9404911 15.117444,50.7622441 C13.5708208,49.5697797 12.7496394,47.3739951 12.3254272,45.6693626 C12.1035915,45.7837831 11.846729,45.8320421 11.5960936,45.8040208 C11.2100215,45.7635455 10.8628681,45.5541637 10.6472593,45.2319181 C9.55053452,43.5926687 9.59256656,41.2902473 9.78171071,39.7786507 C9.70387361,39.7903263 9.62992837,39.804337 9.56298846,39.8183477 C9.22128358,39.8930713 8.86245454,39.8245746 8.56900867,39.6315386 C8.27711954,39.4385026 8.07318633,39.1357163 8.0070248,38.7908979 C7.43258699,35.8424285 9.31780159,32.2992837 10.8348467,30.3471291 C10.2137066,30.0902667 9.87900709,29.40063 10.0876105,28.7491335 C10.8877759,26.241222 12.8905245,24.5747297 14.4060129,23.6235603 C14.1919609,23.4056164 14.0573027,23.1176192 14.0339516,22.8070491 C14.0043735,22.3999611 14.1647179,22.0029919 14.4706177,21.7321188 C14.8582465,21.3888571 15.3828685,21.0899627 15.9682035,20.8253165 C15.522197,19.9395303 14.662097,19.0755385 14.3071598,18.7727521 C13.9514442,18.4699658 13.8152293,17.9803705 13.9638982,17.5359206 C14.1117887,17.0922491 14.5142065,16.7832358 14.9812291,16.7559928 C15.3641876,16.7318633 18.0596865,16.6143293 20.074889,17.503229 C20.2632548,16.1675444 20.0460893,14.7127689 19.9067609,14.1313258 C19.8047943,13.7086703 19.951128,13.2626637 20.2858276,12.9832285 C20.6189704,12.7037933 21.0844362,12.6384102 21.4814054,12.8127653 C21.891607,12.9941257 25.0479014,14.4559065 26.0379894,16.9482505 C26.0714593,16.9046617 26.1080428,16.8649648 26.1469613,16.8268246 C26.112713,15.7269864 25.7772351,14.5913431 25.6059935,14.1445581 C25.451876,13.7444754 25.5351617,13.2906851 25.8208239,12.9723313 C26.1072644,12.6524209 26.5478224,12.5200978 26.9626941,12.6282914 C27.1705192,12.6835557 28.2516765,12.9941257 29.2978072,13.6938813 C29.0261557,12.8976077 28.6984615,12.1301339 28.4221398,11.5852742 C28.1411479,11.0341875 28.261017,10.3632317 28.7148073,9.94368972 C29.1678192,9.52181263 29.8434453,9.45331598 30.3735159,9.77478321 C30.7883877,10.0269754 33.6940467,11.842915 35.5636939,14.169466 C35.9295282,13.089087 36.1007699,11.8016613 36.1202291,10.9540153 C36.1342398,10.3710154 36.5109714,9.85806891 37.0643932,9.67359498 C37.6139231,9.48600756 38.2257227,9.66736801 38.5884436,10.1250502 C38.9200297,10.5438138 41.1601815,13.4595916 41.9712441,16.4057259 C42.0202814,16.4197366 42.0693188,16.429077 42.1183562,16.4430877 C42.3853374,15.5720905 42.5114335,14.582781 42.5161038,13.9196089 C42.520774,13.3467278 42.8780463,12.835338 43.4135655,12.63374 C43.9521983,12.4329202 44.5554358,12.5815891 44.9352809,13.0104715 C45.4225411,13.5600015 47.2906316,15.7931479 48.0472082,18.1749632 C48.1771962,18.2372329 48.3180813,18.2862703 48.4402856,18.357102 C49.6646632,17.5623852 50.6897778,16.435304 51.0812984,15.9169089 C51.3988738,15.4973669 51.9297228,15.2957688 52.4426693,15.3899517 C52.9602861,15.4880265 53.3767145,15.8686499 53.5191564,16.3745911 C53.6662686,16.8960996 54.707729,20.9023752 53.28331,23.7084028 C55.754638,27.1884996 55.9461173,30.7946925 55.6806928,33.3563115 C57.0405069,34.4833927 57.8453425,35.9599625 57.9908979,37.6786057 C58.8120793,38.7768872 59.5421914,39.4883184 61.5916422,41.3750897 C61.8773044,41.6389575 62.130275,41.8646851 62.3723484,42.0756236 C63.4231492,38.9060968 63.9999222,35.5217397 63.9999222,31.9996108 C63.9999222,14.3266969 49.6732253,0 32.0003113,0 C14.3266191,0 -7.78371015e-05,14.3266969 -7.78371015e-05,31.9996108 C-7.78371015e-05,49.6733031 14.3266191,64 32.0003113,64 C37.4979458,64 42.671778,62.6121645 47.1910001,60.1696362 C45.3579363,59.5819661 43.676655,58.8246111 42.1642801,57.9458302 C42.0132761,57.9520572 41.8630505,57.9567274 41.7104898,57.9567274" id="Fill-3" fill="#A478F9" mask="url(#mask-6)"></path>
                    </g>
                    <path d="M17.4430609,33.6945137 C16.9768167,33.6205685 16.5230264,33.9428141 16.446746,34.4176204 C16.3766927,34.8651837 15.7898009,38.8512217 17.1356044,41.0493414 C17.2827165,41.2883013 17.5356871,41.4431972 17.8159007,41.4626564 C18.0961142,41.4758887 18.3693225,41.3669168 18.5483478,41.151308 L18.7764105,40.8749863 C19.2504384,42.2472544 20.0809603,44.1550418 21.2851003,45.2081778 C21.4501149,45.3521764 21.6548265,45.4230082 21.8587597,45.4230082 C22.1000547,45.4230082 22.3413497,45.3225983 22.5141481,45.1264488 C22.8309451,44.7637279 22.7935833,44.214198 22.4316408,43.897401 C21.1387665,42.7672063 20.2319643,39.8817849 19.992226,38.8660107 C19.9159457,38.5437651 19.6637535,38.2923513 19.3407295,38.2176277 C19.0177055,38.1413473 18.6822276,38.2573246 18.4712891,38.5126303 L18.1708378,38.8761296 C17.8750569,37.3855491 18.0424066,35.4769833 18.166946,34.6908286 C18.2416696,34.2160223 17.9178673,33.7700157 17.4430609,33.6945137" id="Fill-6" fill="#A478F9"></path>
                    <path d="M37.876779,54.8263527 C34.8886127,52.1487564 32.9932793,49.2096275 32.279513,47.1523929 C31.9129003,47.0107294 31.5820926,46.8254771 31.2652956,46.6168736 C30.1779113,51.1812413 32.2631672,52.4538779 34.0059399,53.4984518 C35.260674,54.2511365 36.1347847,54.5103341 37.876779,54.8263527" id="Fill-8" fill="#A478F9"></path>
                    <path d="M62.9157292,52.0537952 C61.8431339,52.5029152 60.7658684,52.3737057 60.5113411,51.7650195 C60.2560354,51.1563334 60.9192075,50.2985685 61.9925812,49.8494485 C63.0651764,49.39955 64.1416635,49.5287596 64.3969692,50.1374457 C64.6514965,50.7469102 63.9883244,51.6046751 62.9157292,52.0537952 M56.019362,53.131839 C55.8948226,53.1240553 55.7710616,53.1178283 55.6426304,53.1014826 C54.0321808,52.8959926 52.8031329,52.126962 52.8980942,51.3836177 C52.9930555,50.6402734 54.3762208,50.2043856 55.9866704,50.4098756 C56.6856476,50.4986099 57.3036742,50.6978729 57.781594,50.9516218 C58.4050691,51.2816511 58.7849142,51.7074201 58.7312066,52.1277404 C58.644029,52.8119285 57.4624618,53.2291354 56.019362,53.131839 M75.1408243,52.7216375 C75.0466415,52.5503959 74.5959646,51.9183586 72.7387714,50.9936538 C72.0374591,50.6426085 71.3766221,50.3172494 70.7368011,50.0027875 C68.7472848,49.0243752 66.8667404,48.0996704 64.7425659,46.8698442 C63.3103633,46.0408791 62.4331391,45.4999112 61.3924571,44.6616056 C60.9238777,44.2840957 60.4249419,43.8520998 59.8217044,43.2963429 C59.3212118,42.8355472 58.9001131,42.444805 58.5218248,42.0875327 C58.415188,42.0501709 58.3101079,42.0026902 58.2128115,41.934972 C57.7006434,41.5815915 56.984542,41.2274327 56.1330041,40.9254248 C55.5858093,40.730832 54.9817934,40.558812 54.3349671,40.4218187 C53.3892463,40.2225557 52.3571264,40.0980164 51.2837527,40.0980164 C49.5075101,40.0980164 47.942206,40.441278 46.4773117,41.1449254 C45.8452744,41.4484901 45.2303613,41.8119893 44.6279022,42.2548825 C44.3943909,42.4276808 44.1235178,42.5094098 43.8542014,42.5094098 C43.4533403,42.5094098 43.0579278,42.3257142 42.8018438,41.9793391 C42.3745181,41.3986743 42.4975007,40.579828 43.0781655,40.1532807 C45.5152451,38.3583572 48.1990684,37.4865816 51.2837527,37.4865816 C52.5851891,37.4865816 53.7986695,37.6445909 54.9078482,37.8843292 C55.0674142,37.9185775 55.2308721,37.9497124 55.385768,37.9870742 C55.3577466,37.5434027 55.2511098,37.1339795 55.0845384,36.7517994 C54.6867908,35.8395485 53.9037496,35.1008745 52.7206256,34.5567931 C49.2654367,32.9665811 46.524014,28.6053683 46.4080367,28.420116 C44.707296,25.8740644 43.4167569,25.6273208 42.2741082,25.7541953 C40.265911,25.9698041 39.0018365,27.0976637 38.8088005,28.8505552 L38.7582063,29.0902935 C38.7262931,29.2078275 38.6764774,29.6273695 38.6414507,29.9332693 C38.5145762,31.0066429 38.3573453,32.3431059 37.8202693,33.2070978 C36.4736874,35.3826448 34.4732739,36.793053 33.9144035,37.1612225 C33.5804823,37.4819114 33.1695025,37.734882 32.7375065,38.0010849 C31.5769554,38.7156294 30.8048113,39.2713864 30.6327913,40.4366078 C30.5642947,40.9036304 30.5533975,41.240665 30.6211157,41.5566837 C30.7020663,41.9326369 30.9036644,42.287574 31.2500395,42.7857315 C31.3987084,42.9997835 31.5660582,43.2325164 31.7738832,43.5174002 C31.8921956,43.6800798 32.010508,43.8162947 32.1288204,43.9455043 C32.5771621,44.4327646 33.0472982,44.7051944 33.703465,44.8655388 L34.6733153,45.1013853 L34.6997799,46.0992569 C34.7005582,46.1397322 34.7098987,46.1856561 34.7278012,46.2393637 C35.480486,48.4904127 37.9432519,52.030444 42.0040135,54.7850991 C42.2538706,54.9547839 42.5161816,55.1182419 42.7784926,55.2816998 C43.3202389,55.6187344 43.8798876,55.9440935 44.4730063,56.2476582 C45.0022986,56.5185313 45.554942,56.7715019 46.125488,57.0081267 C46.9778043,57.3630639 47.8698174,57.6814176 48.8116464,57.944507 C49.2592097,58.0690464 49.7371295,58.1834669 50.2384004,58.288547 C57.5932282,59.8211595 70.2643299,59.121404 74.2200114,55.0847719 C74.7111635,54.583501 75.5354584,53.4447442 75.1408243,52.7216375" id="Fill-10" fill="#A478F9"></path>
                    <g id="Group-14" transform="translate(7.901092, 9.573413)">
                        <mask id="mask-8" fill="white">
                            <use xlink:href="#path-7"></use>
                        </mask>
                        <g id="Clip-13"></g>
                        <path d="M23.3638919,37.0433053 C23.6806889,37.2519087 24.012275,37.4379394 24.3781093,37.5788245 C25.0918756,39.6368375 26.9879874,42.5751881 29.9753753,45.2527844 C28.233381,44.9367657 27.3592703,44.6775682 26.1045362,43.9256618 C24.3625419,42.8803095 22.2765076,41.6076729 23.3638919,37.0433053 M44.752749,19.0341351 C44.6873659,18.8247533 44.5924046,18.618485 44.4585248,18.4262273 C43.8786384,17.592592 42.8690912,17.3302809 42.203584,17.8393356 C41.9031327,18.068955 41.7311128,18.419222 41.6789619,18.8084075 C41.467245,18.5336425 41.2851062,18.2845638 41.1372157,18.0759604 C41.1045241,18.0292581 41.0772811,17.9895612 41.047703,17.9467508 C41.0469246,17.9366319 41.047703,17.9265131 41.0469246,17.9156159 C41.0111196,17.2890273 41.2236149,16.6974653 41.6859672,16.3440849 C42.4752354,15.7400689 43.6731484,16.0514174 44.36045,17.0399485 C44.7971162,17.6673156 44.9208772,18.4153301 44.752749,19.0341351 M19.8884653,16.6608819 C21.0233303,15.7922198 22.7458653,16.2405615 23.7343965,17.6610886 C24.3625419,18.563999 24.5400105,19.6397077 24.2987155,20.5293858 C24.2045326,20.2281562 24.0675393,19.9315969 23.8752817,19.6552752 C23.0416463,18.4573622 21.5899844,18.0790738 20.632588,18.811521 C19.9616322,19.3244675 19.7226723,20.2468371 19.9196002,21.1653149 C19.8176336,21.0508944 19.7148886,20.9372522 19.6238192,20.8064859 C18.6345096,19.3851804 18.752822,17.5295439 19.8884653,16.6608819 M9.23490123,31.4756174 C7.88831938,29.278276 8.47521112,25.2914597 8.54604288,24.8438963 C8.62154487,24.36909 9.07533517,24.0476228 9.54235778,24.1207897 C10.0163857,24.19707 10.3409664,24.6422982 10.2662428,25.1171046 C10.1417035,25.9032593 9.9743537,27.8126034 10.2701347,29.3031839 L10.5705859,28.9396846 C10.7807461,28.6836006 11.1170023,28.5676233 11.4400263,28.644682 C11.7622719,28.7194056 12.0152425,28.9708195 12.0907445,29.2922867 C12.3304828,30.3088392 13.237285,33.1942606 14.5309376,34.3236769 C14.8921018,34.6404739 14.9294636,35.1900039 14.6126666,35.5527248 C14.4406466,35.7488743 14.1993516,35.8500625 13.9572782,35.8500625 C13.7541233,35.8500625 13.5494118,35.7792307 13.3843971,35.6344537 C12.1802572,34.5813177 11.3489569,32.6735304 10.8757073,31.3012623 L10.6468663,31.577584 C10.4686193,31.7939711 10.1954111,31.9029431 9.9151975,31.8889324 C9.63420556,31.8694731 9.38201335,31.7145773 9.23490123,31.4756174 M42.3374638,48.7149786 C41.8361928,48.6106769 41.358273,48.495478 40.9107097,48.3709387 C39.9688808,48.1078492 39.0768676,47.7894955 38.2245513,47.4353367 C37.6540054,47.1979335 37.101362,46.944963 36.5720697,46.6740898 C35.978951,46.3713035 35.4185238,46.0451661 34.877556,45.7081314 C34.6144666,45.5446735 34.3529339,45.3812156 34.1022984,45.2115307 C30.0423152,42.4568757 27.5795493,38.9168443 26.8260862,36.6657953 C26.808962,36.6120877 26.7996216,36.5661638 26.7980648,36.5256885 L26.7723786,35.5278169 L25.8025283,35.2919705 C25.1463615,35.1316261 24.6762254,34.8591962 24.2278837,34.3719359 C24.108793,34.2427264 23.9912589,34.1072898 23.8721682,33.9438319 C23.6651215,33.6589481 23.4977717,33.4262152 23.3491029,33.2129415 C23.0027278,32.7140057 22.8003513,32.3590685 22.7201791,31.9831153 C22.6524608,31.6670967 22.663358,31.3308404 22.7318546,30.8630394 C22.9030963,29.697818 23.6760187,29.1420611 24.8365699,28.4275165 C25.2685658,28.1613136 25.6795457,27.908343 26.0134668,27.5884325 C26.5723372,27.2194847 28.5727507,25.8090764 29.9193326,23.6343078 C30.4564086,22.7695376 30.6136395,21.4330746 30.740514,20.3604793 C30.7755407,20.0538011 30.8253565,19.6342591 30.8572697,19.5167251 L30.9070854,19.2769868 C31.1008998,17.5248737 32.3649743,16.3962357 34.3731715,16.1806269 C35.5158202,16.0537525 36.805581,16.3012744 38.5071,18.8465477 C38.6222989,19.0318 41.3645,23.3930128 44.8189106,24.9832248 C46.0020345,25.5273061 46.7850758,26.2659802 47.1836017,27.178231 C47.3501731,27.5604112 47.4560316,27.9698343 47.4848313,28.4135058 C47.3299355,28.376144 47.1656992,28.3450092 47.0069115,28.3107608 C45.8977328,28.0710226 44.6842524,27.9130133 43.382816,27.9130133 C40.2981317,27.9130133 37.6143085,28.7847888 35.1772288,30.5797124 C34.596564,31.0062597 34.472803,31.825106 34.9009071,32.4057708 C35.1562128,32.7521459 35.5524036,32.9366198 35.9532647,32.9366198 C36.2225811,32.9366198 36.4934542,32.8541125 36.7269655,32.6820925 C37.3294247,32.238421 37.9443378,31.8749217 38.5755967,31.571357 C40.0412693,30.8677096 41.6065734,30.524448 43.382816,30.524448 C44.4561897,30.524448 45.4883096,30.6489874 46.4340304,30.8490287 C47.0808567,30.9852437 47.6848727,31.1572636 48.2320675,31.3518564 C49.0836054,31.6546427 49.7997067,32.0080232 50.3118748,32.362182 C50.4091712,32.4299003 50.5142513,32.4766025 50.6208881,32.5147427 C50.9991764,32.8712366 51.4202752,33.2619789 51.9207677,33.7227745 C52.5240053,34.2785314 53.0229411,34.7105273 53.4915204,35.0880373 C54.5322025,35.9263429 55.4086482,36.4673107 56.8416293,37.2962758 C58.9658038,38.526102 60.8455698,39.4508068 62.8358645,40.4292192 C63.4756854,40.7436811 64.1365224,41.0690402 64.8378347,41.4200855 C66.6942496,42.3447903 67.1457048,42.9768275 67.2398877,43.1480691 C67.6345218,43.8711758 66.8102269,45.0099326 66.3182964,45.5112035 C62.3633933,49.5478356 49.6922915,50.2475912 42.3374638,48.7149786 M69.5314119,41.8956702 C68.9974494,40.9188146 67.8423468,39.9980016 66.000721,39.081859 C65.2994087,38.7300353 64.6339015,38.4031194 63.9886319,38.0863224 C61.9555268,37.0861157 60.1979651,36.2213455 58.1508493,35.0366648 C56.5505185,34.1111816 55.7604719,33.6270349 54.4714895,32.5015104 C54.2294161,32.2913502 53.9764456,32.0656226 53.6907834,31.8017548 C51.6413325,29.9149835 50.9112205,29.2035524 50.0892607,28.1052709 C49.9444837,26.3858493 49.1388697,24.9100579 47.7798339,23.7829766 C48.0452584,21.2213576 47.8537792,17.6151647 45.3816728,14.1350679 C46.8068701,11.3290404 45.7654097,7.32276478 45.6182976,6.8012562 C45.4758557,6.29531504 45.0594272,5.91469162 44.5418105,5.81661687 C44.028864,5.72243398 43.498015,5.92403207 43.1804396,6.34357405 C42.788919,6.86196914 41.7638043,7.98905037 40.5394267,8.78376718 C40.4172225,8.71293542 40.2763373,8.66389804 40.1463494,8.60162836 C39.3897727,6.21981305 37.5216823,3.98588824 37.034422,3.43713667 C36.654577,3.00825425 36.0505611,2.85958538 35.5127067,3.0604051 C34.9771875,3.26122483 34.6199152,3.77339295 34.6152449,4.34627402 C34.6105747,5.00944613 34.4844786,5.99875569 34.216719,6.86975285 C34.16846,6.85574217 34.1186442,6.84640172 34.0703852,6.83239104 C33.2593226,3.88625675 31.0191708,0.970478927 30.6868064,0.551715321 C30.3248639,0.0932547925 29.7130643,-0.087327283 29.1635343,0.100260132 C28.6101125,0.284734062 28.2326026,0.797680561 28.2193703,1.38068045 C28.199911,2.22832649 28.0286694,3.51497378 27.662835,4.59613112 C25.7931878,2.26880178 22.8875288,0.453640573 22.4726571,0.201448364 C21.9425864,-0.120018866 21.266182,-0.0515222163 20.8139485,0.369576503 C20.3593798,0.789896851 20.240289,1.46085267 20.5205026,2.01193935 C20.7976027,2.55679906 21.1252969,3.32427288 21.3969483,4.12054643 C20.3508177,3.42079088 19.2696604,3.11022085 19.0610569,3.05495651 C18.6469636,2.94676294 18.2064056,3.07908601 17.919965,3.39899649 C17.6343029,3.71735024 17.5510172,4.17114054 17.7051346,4.57122324 C17.8763762,5.01800821 18.2118542,6.15365152 18.2453241,7.25271139 C18.2071839,7.29162994 18.1706005,7.33132686 18.1363522,7.37491564 C17.1470426,4.88257165 13.9907481,3.42079088 13.5805466,3.23943044 C13.1835774,3.06507533 12.7181115,3.13045849 12.3849687,3.40989369 C12.0502692,3.68932888 11.9039354,4.13533548 12.005902,4.55799094 C12.1452305,5.13943409 12.362396,6.59420951 12.1740302,7.92989418 C10.1588276,7.04099448 7.46255043,7.1585285 7.08037026,7.182658 C6.61256928,7.20990099 6.21092984,7.51891428 6.06226097,7.96258576 C5.91359211,8.40703561 6.04980704,8.89663098 6.40630096,9.1994173 C6.76123815,9.50220363 7.62133812,10.3661955 8.06734471,11.2519817 C7.48200971,11.5166278 6.95660927,11.8155223 6.5689805,12.1587839 C6.26385907,12.429657 6.10273627,12.8266262 6.13309274,13.2337143 C6.15644387,13.5442843 6.29110205,13.8322816 6.50515408,14.0502255 C4.98888734,15.0013949 2.98691709,16.6678872 2.18597332,19.1757986 C1.97814826,19.8272951 2.31206942,20.5169319 2.93398786,20.7737943 C1.41694275,22.7259488 -0.468271846,26.2690937 0.105387592,29.2175631 C0.1723275,29.5623814 0.375482335,29.8651678 0.667371466,30.0582038 C0.961595709,30.2512398 1.31964638,30.3197364 1.66135125,30.2450128 C1.72906953,30.2302238 1.80301478,30.2169915 1.88085188,30.2053159 C1.69170772,31.7169124 1.64889732,34.0193339 2.74640045,35.6585832 C2.96200922,35.9808288 3.30916269,36.1902106 3.69523472,36.2306859 C3.94587018,36.2587073 4.20195425,36.2104483 4.42456836,36.0960277 C4.84800219,37.8006603 5.66996198,39.9964449 7.21658519,41.1881309 C7.44698301,41.3671563 7.72719658,41.4605608 8.01441548,41.4605608 C8.09692281,41.4605608 8.18098688,41.4535554 8.26582932,41.4364313 C8.63399881,41.3640428 8.9539093,41.1367584 9.14305345,40.8113994 C9.1632911,40.7763727 9.18664223,40.7382325 9.20765825,40.701649 C11.1956178,42.1930079 15.5015663,44.7227137 21.8842086,44.7227137 C22.1449629,44.7227137 22.4103874,44.7188218 22.6765903,44.7102598 C22.6828173,44.7102598 22.6882659,44.708703 22.6944928,44.7079247 C23.3981402,45.3446321 24.1492683,45.7976441 24.7602895,46.1650352 C26.7684867,47.3699535 28.1298576,47.5980162 31.1133537,48.0985088 L31.8092174,48.2160428 C32.4801732,48.329685 33.1519074,48.3833926 33.8096309,48.3833926 C33.9614133,48.3833926 34.1124173,48.3787224 34.2626429,48.3724954 C35.7757961,49.2512763 37.4570775,50.0086313 39.2901413,50.5963014 C39.5952627,50.6943761 39.8941572,50.7986778 40.208619,50.8866338 C42.960939,51.6541076 46.6473041,52.0806549 50.4854516,52.0806549 C57.4518722,52.0806549 64.9164502,50.6733601 68.1840517,47.3395971 C69.5259633,45.9704424 70.5845479,43.8213601 69.5314119,41.8956702" id="Fill-12" fill="#3B1D56" mask="url(#mask-8)"></path>
                    </g>
                    <path d="M61.9923476,49.8490593 C60.9197524,50.2981793 60.2565803,51.1559442 60.5111076,51.7654087 C60.7664133,52.3740948 61.8429004,52.5033044 62.9154957,52.053406 C63.9888693,51.6042859 64.6520414,50.746521 64.3967357,50.1378349 C64.1422084,49.5291488 63.0657213,49.3999392 61.9923476,49.8490593" id="Fill-15" fill="#3B1D56"></path>
                    <path d="M57.7815161,50.9512326 C57.3035963,50.698262 56.6855697,50.4989991 55.9865926,50.4094864 C54.3761429,50.2039964 52.9929776,50.6398842 52.8987947,51.3832285 C52.8038335,52.1265729 54.0321029,52.8963818 55.6433309,53.1018717 C55.7709838,53.1182175 55.8947448,53.1236661 56.0200625,53.1322282 C57.462384,53.2295246 58.6439512,52.8123177 58.7311288,52.1281296 C58.7848364,51.7070309 58.4049913,51.2820403 57.7815161,50.9512326" id="Fill-17" fill="#3B1D56"></path>
                    <path d="M29.7465381,22.2063802 C26.5489899,22.2063802 23.947674,24.9478029 23.947674,28.3189278 C23.947674,31.6892743 26.5489899,34.430697 29.7465381,34.430697 C32.9440862,34.430697 35.5454021,31.6892743 35.5454021,28.3189278 C35.5454021,24.9478029 32.9440862,22.2063802 29.7465381,22.2063802 M29.7465381,35.987439 C25.6904467,35.987439 22.390932,32.5470391 22.390932,28.3189278 C22.390932,24.0900381 25.6904467,20.6496382 29.7465381,20.6496382 C33.8026294,20.6496382 37.1021442,24.0900381 37.1021442,28.3189278 C37.1021442,32.5470391 33.8026294,35.987439 29.7465381,35.987439" id="Fill-19" fill="#FBD888"></path>
                    <path d="M51.6656215,30.5910706 C53.2496066,29.9177797 54.3455529,28.1197427 54.3455529,26.6369459 C54.3455529,24.3641025 52.610564,22.514693 50.477049,22.514693 C48.5194459,22.514693 47.2561497,23.7600866 46.7688895,24.8256765 C46.5898641,25.2171971 46.1275118,25.3876604 45.7375479,25.2101918 C45.3460273,25.0319448 45.1740073,24.5695924 45.3530326,24.1788502 C46.2473809,22.2220255 48.2586916,20.9579509 50.477049,20.9579509 C53.4683288,20.9579509 55.902295,23.5055593 55.902295,26.6369459 C55.902295,28.6622672 54.8600562,30.5490386 53.1818883,31.5609209" id="Fill-21" fill="#FBD888"></path>
                    <path d="M12.747927,37.5835666 C12.4093356,37.5835666 12.1049925,37.3344879 12.0302689,36.9694319 C11.2176496,32.9833939 13.6835289,31.2888802 15.1017209,30.9495105 L22.8270533,28.6424188 C23.2154604,28.5256631 23.6233268,28.7669582 23.7330771,29.1810515 C23.8428274,29.5943665 23.6155431,30.0248057 23.2248008,30.140783 L15.4621067,32.4579935 C15.1562069,32.536609 12.7743916,33.245705 13.4671418,36.6409593 C13.5527626,37.0612797 13.3005704,37.4753731 12.9036012,37.5664425 C12.8514503,37.578118 12.7992995,37.5835666 12.747927,37.5835666" id="Fill-23" fill="#FBD888"></path>
                    <path d="M36.4280749,25.7425197 L35.3523661,24.6169952 C37.3294285,22.7286672 42.1716746,20.0736436 46.3491918,23.538173 L45.4330491,24.962592 C43.7221897,23.3568126 41.6104691,23.0189996 39.3773226,23.9047858 C37.6415553,24.5936441 36.4397504,25.7308442 36.4280749,25.7425197" id="Fill-25" fill="#FBD888"></path>
                </g>
            </g>
        </g>
    </g>
</svg>