<?xml version="1.0" encoding="UTF-8" standalone="no"?>
<!DOCTYPE svg PUBLIC "-//W3C//DTD SVG 1.1//EN" "http://www.w3.org/Graphics/SVG/1.1/DTD/svg11.dtd">
<svg width="100%" height="100%" viewBox="0 0 306 65" version="1.1" xmlns="http://www.w3.org/2000/svg" xmlns:xlink="http://www.w3.org/1999/xlink" xml:space="preserve" xmlns:serif="http://www.serif.com/" style="fill-rule:evenodd;clip-rule:evenodd;stroke-linejoin:round;stroke-miterlimit:2;">
    <g transform="matrix(1.51163,0,0,1.51163,153,32.5)">
        <g id="logo-mobile_1.svg" transform="matrix(1,0,0,1,-89,-21.5)">
            <g transform="matrix(1,0,0,1,0.832296,0.057003)">
                <g id="Page-1">
                    <g id="Home-Night-Mobile">
                        <g id="Mobile-Header">
                            <g id="Group-4">
                                <g id="Group-27">
                                    <path id="Fill-1" d="M39.512,20.437C39.512,25.729 33.88,30.019 26.931,30.019C19.983,30.019 14.35,25.729 14.35,20.437C14.35,15.145 19.983,10.855 26.931,10.855C33.88,10.855 39.512,15.145 39.512,20.437" style="fill:white;"/>
                                    <g id="Group-5">
                                        <path id="Fill-3" d="M27.857,38.707C27.418,38.707 26.969,38.671 26.521,38.595L26.056,38.517C24.064,38.183 23.154,38.03 21.814,37.226C21.405,36.98 20.903,36.678 20.433,36.253C20.43,36.253 20.426,36.254 20.422,36.254C20.244,36.26 20.066,36.263 19.893,36.263C15.63,36.263 12.754,34.573 11.427,33.577C11.412,33.601 11.397,33.627 11.383,33.65C11.257,33.867 11.044,34.019 10.797,34.067C10.741,34.079 10.685,34.084 10.629,34.084C10.438,34.084 10.25,34.021 10.096,33.902C9.063,33.106 8.515,31.639 8.232,30.501C8.084,30.577 7.912,30.609 7.745,30.591C7.487,30.564 7.255,30.424 7.111,30.209C6.378,29.114 6.407,27.576 6.533,26.567C6.481,26.574 6.431,26.584 6.387,26.593C6.159,26.643 5.919,26.597 5.723,26.468C5.528,26.339 5.392,26.137 5.348,25.907C4.964,23.938 6.223,21.571 7.236,20.268C6.821,20.096 6.598,19.636 6.737,19.2C7.272,17.526 8.609,16.413 9.621,15.777C9.478,15.632 9.388,15.439 9.373,15.232C9.353,14.96 9.46,14.695 9.664,14.514C9.923,14.285 10.274,14.085 10.665,13.908C10.367,13.317 9.792,12.74 9.555,12.538C9.318,12.335 9.227,12.008 9.326,11.712C9.425,11.415 9.693,11.209 10.005,11.191C10.261,11.175 12.061,11.096 13.407,11.69C13.533,10.798 13.388,9.826 13.295,9.438C13.227,9.155 13.325,8.858 13.548,8.671C13.771,8.484 14.081,8.441 14.347,8.557C14.621,8.678 16.729,9.655 17.39,11.319C17.412,11.29 17.437,11.263 17.463,11.238C17.44,10.503 17.216,9.745 17.101,9.447C16.998,9.179 17.054,8.876 17.245,8.664C17.436,8.45 17.73,8.362 18.007,8.434C18.146,8.471 18.868,8.678 19.567,9.146C19.385,8.614 19.167,8.101 18.982,7.737C18.794,7.369 18.874,6.921 19.178,6.641C19.48,6.359 19.931,6.314 20.285,6.528C20.562,6.697 22.503,7.909 23.752,9.463C23.996,8.742 24.11,7.882 24.123,7.316C24.133,6.926 24.384,6.584 24.754,6.461C25.121,6.335 25.529,6.456 25.772,6.762C25.993,7.042 27.489,8.989 28.031,10.957C28.064,10.966 28.096,10.972 28.129,10.982C28.308,10.4 28.392,9.739 28.395,9.296C28.398,8.914 28.637,8.572 28.994,8.438C29.354,8.303 29.757,8.403 30.011,8.689C30.336,9.056 31.584,10.548 32.089,12.138C32.176,12.18 32.27,12.213 32.351,12.26C33.169,11.729 33.854,10.977 34.115,10.63C34.327,10.35 34.682,10.215 35.024,10.278C35.37,10.344 35.648,10.598 35.743,10.936C35.842,11.284 36.537,13.96 35.586,15.834C37.236,18.158 37.364,20.567 37.187,22.277C38.095,23.03 38.633,24.016 38.73,25.164C39.278,25.898 39.766,26.373 41.135,27.633C41.325,27.809 41.494,27.96 41.656,28.101C42.358,25.984 42.743,23.724 42.743,21.371C42.743,9.568 33.175,0 21.372,0C9.568,0 -0,9.568 -0,21.371C-0,33.175 9.568,42.743 21.372,42.743C25.043,42.743 28.499,41.816 31.517,40.185C30.293,39.793 29.17,39.287 28.16,38.7C28.059,38.704 27.959,38.707 27.857,38.707" style="fill:rgb(164,120,249);"/>
                                    </g>
                                    <path id="Fill-6" d="M11.65,22.503C11.338,22.454 11.035,22.669 10.984,22.986C10.937,23.285 10.545,25.947 11.444,27.415C11.542,27.575 11.711,27.678 11.899,27.691C12.086,27.7 12.268,27.627 12.388,27.483L12.54,27.299C12.857,28.215 13.411,29.489 14.215,30.193C14.326,30.289 14.462,30.336 14.599,30.336C14.76,30.336 14.921,30.269 15.036,30.138C15.248,29.896 15.223,29.529 14.981,29.317C14.118,28.563 13.512,26.636 13.352,25.957C13.301,25.742 13.133,25.574 12.917,25.524C12.701,25.473 12.477,25.551 12.336,25.721L12.136,25.964C11.938,24.968 12.05,23.694 12.133,23.169C12.183,22.852 11.967,22.554 11.65,22.503" style="fill:rgb(164,120,249);"/>
                                    <path id="Fill-8" d="M25.296,36.616C23.301,34.828 22.035,32.865 21.558,31.491C21.313,31.397 21.092,31.273 20.881,31.134C20.155,34.182 21.547,35.032 22.711,35.73C23.549,36.232 24.133,36.405 25.296,36.616" style="fill:rgb(164,120,249);"/>
                                    <path id="Fill-10" d="M42.019,34.765C41.303,35.065 40.583,34.978 40.413,34.572C40.243,34.165 40.686,33.592 41.402,33.293C42.119,32.992 42.838,33.078 43.008,33.485C43.178,33.892 42.735,34.465 42.019,34.765M37.413,35.485C37.33,35.48 37.247,35.475 37.162,35.464C36.086,35.327 35.265,34.814 35.329,34.317C35.392,33.821 36.316,33.53 37.391,33.667C37.858,33.726 38.271,33.859 38.59,34.029C39.006,34.249 39.26,34.533 39.224,34.814C39.166,35.271 38.377,35.55 37.413,35.485M50.184,35.211C50.121,35.096 49.82,34.674 48.579,34.057C48.111,33.822 47.67,33.605 47.242,33.395C45.914,32.741 44.658,32.124 43.239,31.303C42.283,30.749 41.697,30.388 41.002,29.828C40.689,29.576 40.355,29.287 39.953,28.916C39.618,28.608 39.337,28.347 39.084,28.109C39.013,28.084 38.943,28.052 38.878,28.007C38.536,27.771 38.058,27.534 37.489,27.333C37.124,27.203 36.72,27.088 36.288,26.996C35.657,26.863 34.967,26.78 34.25,26.78C33.064,26.78 32.019,27.009 31.04,27.479C30.618,27.682 30.208,27.925 29.805,28.22C29.649,28.336 29.468,28.39 29.289,28.39C29.021,28.39 28.757,28.268 28.586,28.036C28.3,27.649 28.382,27.102 28.77,26.817C30.398,25.618 32.19,25.036 34.25,25.036C35.12,25.036 35.93,25.141 36.671,25.301C36.777,25.324 36.887,25.345 36.99,25.37C36.971,25.074 36.9,24.8 36.789,24.545C36.523,23.936 36,23.443 35.21,23.079C32.902,22.017 31.072,19.104 30.994,18.981C29.858,17.28 28.996,17.116 28.233,17.2C26.892,17.344 26.048,18.097 25.919,19.268L25.885,19.428C25.864,19.507 25.831,19.787 25.807,19.991C25.722,20.708 25.617,21.601 25.259,22.178C24.359,23.631 23.023,24.573 22.65,24.819C22.427,25.033 22.153,25.202 21.864,25.379C21.089,25.857 20.573,26.228 20.458,27.006C20.413,27.318 20.405,27.543 20.451,27.754C20.505,28.005 20.639,28.242 20.871,28.575C20.97,28.718 21.082,28.873 21.221,29.064C21.3,29.172 21.379,29.263 21.458,29.35C21.757,29.675 22.071,29.857 22.509,29.964L23.157,30.121L23.175,30.788C23.175,30.815 23.181,30.846 23.193,30.881C23.696,32.385 25.341,34.749 28.053,36.589C28.22,36.702 28.395,36.811 28.57,36.921C28.932,37.146 29.306,37.363 29.702,37.566C30.055,37.747 30.424,37.916 30.805,38.074C31.375,38.311 31.97,38.523 32.599,38.699C32.898,38.782 33.218,38.858 33.552,38.929C38.464,39.952 46.927,39.485 49.569,36.789C49.897,36.454 50.447,35.694 50.184,35.211" style="fill:rgb(164,120,249);"/>
                                    <g id="Group-14" transform="matrix(1,0,0,1,5.27684,6.39371)">
                                        <path id="Fill-12" d="M15.604,24.74C15.815,24.879 16.037,25.003 16.281,25.097C16.758,26.472 18.024,28.434 20.019,30.223C18.856,30.012 18.272,29.838 17.434,29.336C16.271,28.638 14.878,27.788 15.604,24.74M29.889,12.712C29.845,12.572 29.782,12.435 29.692,12.306C29.305,11.749 28.631,11.574 28.186,11.914C27.985,12.068 27.871,12.301 27.836,12.561C27.694,12.378 27.573,12.212 27.474,12.072C27.452,12.041 27.434,12.015 27.414,11.986C27.414,11.979 27.414,11.972 27.414,11.965C27.39,11.547 27.532,11.152 27.84,10.916C28.368,10.512 29.168,10.72 29.627,11.38C29.918,11.799 30.001,12.299 29.889,12.712M13.283,11.127C14.041,10.547 15.191,10.846 15.851,11.795C16.271,12.398 16.389,13.117 16.228,13.711C16.165,13.51 16.074,13.312 15.945,13.127C15.389,12.327 14.419,12.074 13.78,12.563C13.332,12.906 13.172,13.522 13.304,14.135C13.235,14.059 13.167,13.983 13.106,13.896C12.445,12.947 12.524,11.707 13.283,11.127M6.168,21.021C5.268,19.554 5.66,16.891 5.708,16.592C5.758,16.275 6.061,16.06 6.373,16.109C6.69,16.16 6.906,16.458 6.856,16.775C6.773,17.3 6.661,18.575 6.859,19.57L7.06,19.328C7.2,19.157 7.425,19.079 7.64,19.131C7.856,19.181 8.025,19.348 8.075,19.563C8.235,20.242 8.841,22.169 9.705,22.923C9.946,23.135 9.971,23.502 9.759,23.744C9.644,23.875 9.483,23.943 9.322,23.943C9.186,23.943 9.049,23.896 8.939,23.799C8.135,23.096 7.58,21.821 7.263,20.905L7.111,21.089C6.992,21.234 6.809,21.307 6.622,21.297C6.434,21.284 6.266,21.181 6.168,21.021M28.276,32.535C27.941,32.465 27.622,32.388 27.323,32.305C26.694,32.129 26.098,31.917 25.529,31.68C25.148,31.522 24.779,31.353 24.425,31.172C24.029,30.97 23.655,30.752 23.293,30.527C23.118,30.418 22.943,30.308 22.776,30.195C20.064,28.355 18.419,25.991 17.916,24.488C17.905,24.452 17.898,24.421 17.897,24.394L17.88,23.728L17.233,23.57C16.794,23.463 16.48,23.281 16.181,22.956C16.101,22.869 16.023,22.779 15.943,22.67C15.805,22.48 15.693,22.324 15.594,22.182C15.363,21.848 15.227,21.611 15.174,21.36C15.129,21.149 15.136,20.925 15.182,20.612C15.296,19.834 15.812,19.463 16.587,18.986C16.876,18.808 17.15,18.639 17.373,18.425C17.747,18.179 19.083,17.237 19.982,15.784C20.341,15.207 20.446,14.314 20.53,13.598C20.554,13.393 20.587,13.113 20.608,13.034L20.642,12.874C20.771,11.704 21.615,10.95 22.957,10.806C23.72,10.722 24.581,10.887 25.717,12.587C25.794,12.711 27.626,15.623 29.933,16.685C30.723,17.049 31.246,17.542 31.512,18.151C31.623,18.407 31.694,18.68 31.713,18.976C31.61,18.951 31.5,18.931 31.394,18.908C30.653,18.748 29.843,18.642 28.974,18.642C26.914,18.642 25.121,19.224 23.494,20.423C23.106,20.708 23.023,21.255 23.309,21.643C23.479,21.874 23.744,21.997 24.012,21.997C24.192,21.997 24.373,21.942 24.529,21.827C24.931,21.531 25.342,21.288 25.763,21.085C26.742,20.615 27.787,20.386 28.974,20.386C29.691,20.386 30.38,20.469 31.012,20.603C31.443,20.694 31.847,20.809 32.212,20.939C32.781,21.141 33.259,21.377 33.601,21.613C33.666,21.659 33.737,21.69 33.808,21.715C34.06,21.953 34.342,22.214 34.676,22.522C35.079,22.893 35.412,23.182 35.725,23.434C36.42,23.994 37.005,24.355 37.962,24.909C39.381,25.73 40.636,26.348 41.966,27.001C42.393,27.211 42.834,27.428 43.303,27.663C44.543,28.28 44.844,28.703 44.907,28.817C45.17,29.3 44.62,30.06 44.291,30.395C41.65,33.091 33.188,33.558 28.276,32.535M46.437,27.981C46.081,27.328 45.309,26.713 44.079,26.101C43.611,25.866 43.166,25.648 42.736,25.436C41.378,24.768 40.204,24.191 38.837,23.4C37.768,22.782 37.24,22.458 36.379,21.707C36.218,21.566 36.049,21.415 35.858,21.239C34.489,19.979 34.002,19.504 33.453,18.77C33.356,17.622 32.818,16.636 31.91,15.884C32.088,14.173 31.96,11.764 30.309,9.44C31.261,7.566 30.565,4.891 30.467,4.542C30.372,4.204 30.093,3.95 29.748,3.885C29.405,3.822 29.051,3.956 28.839,4.237C28.577,4.583 27.892,5.336 27.075,5.866C26.993,5.819 26.899,5.786 26.812,5.745C26.307,4.154 25.059,2.662 24.734,2.296C24.48,2.009 24.077,1.91 23.718,2.044C23.36,2.178 23.121,2.52 23.118,2.903C23.115,3.346 23.031,4.006 22.852,4.588C22.82,4.579 22.787,4.572 22.754,4.563C22.213,2.595 20.717,0.648 20.495,0.368C20.253,0.062 19.844,-0.058 19.477,0.067C19.108,0.19 18.855,0.533 18.847,0.922C18.834,1.488 18.719,2.348 18.475,3.07C17.226,1.515 15.286,0.303 15.009,0.135C14.655,-0.08 14.203,-0.034 13.901,0.247C13.597,0.528 13.518,0.976 13.705,1.344C13.89,1.708 14.109,2.22 14.29,2.752C13.592,2.285 12.869,2.077 12.73,2.04C12.454,1.968 12.159,2.056 11.968,2.27C11.777,2.483 11.722,2.786 11.825,3.053C11.939,3.351 12.163,4.11 12.185,4.844C12.16,4.87 12.135,4.896 12.113,4.925C11.452,3.261 9.344,2.285 9.07,2.163C8.805,2.047 8.494,2.091 8.271,2.277C8.048,2.464 7.95,2.762 8.018,3.044C8.111,3.432 8.256,4.404 8.131,5.296C6.785,4.702 4.984,4.781 4.729,4.797C4.416,4.815 4.148,5.022 4.049,5.318C3.949,5.615 4.04,5.942 4.279,6.144C4.516,6.346 5.09,6.923 5.388,7.515C4.997,7.692 4.646,7.891 4.387,8.12C4.183,8.301 4.076,8.566 4.096,8.838C4.112,9.046 4.202,9.238 4.345,9.384C3.332,10.019 1.995,11.132 1.46,12.807C1.321,13.242 1.544,13.702 1.959,13.874C0.946,15.178 -0.313,17.544 0.07,19.513C0.115,19.744 0.251,19.946 0.446,20.075C0.642,20.204 0.881,20.249 1.11,20.199C1.155,20.19 1.204,20.181 1.256,20.173C1.13,21.183 1.101,22.72 1.834,23.815C1.978,24.03 2.21,24.17 2.468,24.197C2.635,24.216 2.806,24.184 2.955,24.107C3.238,25.246 3.787,26.712 4.82,27.508C4.974,27.628 5.161,27.69 5.353,27.69C5.408,27.69 5.464,27.685 5.52,27.674C5.766,27.625 5.98,27.474 6.106,27.256C6.12,27.233 6.135,27.207 6.149,27.183C7.477,28.179 10.353,29.869 14.616,29.869C14.79,29.869 14.967,29.866 15.145,29.86C15.149,29.86 15.153,29.859 15.157,29.859C15.627,30.284 16.128,30.586 16.536,30.832C17.878,31.637 18.787,31.789 20.779,32.123L21.244,32.202C21.692,32.278 22.141,32.313 22.58,32.313C22.682,32.313 22.782,32.31 22.883,32.306C23.893,32.893 25.016,33.399 26.24,33.791C26.444,33.857 26.644,33.926 26.854,33.985C28.692,34.498 31.154,34.783 33.717,34.783C38.37,34.783 43.355,33.843 45.538,31.616C46.434,30.702 47.141,29.267 46.437,27.981" style="fill:rgb(59,29,86);"/>
                                    </g>
                                    <path id="Fill-15" d="M41.402,33.292C40.686,33.592 40.243,34.165 40.413,34.572C40.584,34.979 41.302,35.065 42.019,34.764C42.736,34.465 43.179,33.892 43.008,33.485C42.838,33.079 42.119,32.992 41.402,33.292" style="fill:rgb(59,29,86);"/>
                                    <path id="Fill-17" d="M38.59,34.028C38.271,33.859 37.858,33.726 37.391,33.667C36.316,33.529 35.392,33.82 35.329,34.317C35.266,34.813 36.086,35.327 37.162,35.465C37.247,35.476 37.33,35.479 37.414,35.485C38.377,35.55 39.166,35.271 39.224,34.814C39.26,34.533 39.006,34.249 38.59,34.028" style="fill:rgb(59,29,86);"/>
                                    <path id="Fill-19" d="M19.867,14.831C17.731,14.831 15.994,16.662 15.994,18.913C15.994,21.164 17.731,22.995 19.867,22.995C22.002,22.995 23.739,21.164 23.739,18.913C23.739,16.662 22.002,14.831 19.867,14.831M19.867,24.035C17.158,24.035 14.954,21.737 14.954,18.913C14.954,16.089 17.158,13.791 19.867,13.791C22.575,13.791 24.779,16.089 24.779,18.913C24.779,21.737 22.575,24.035 19.867,24.035" style="fill:rgb(251,216,136);"/>
                                    <path id="Fill-21" d="M34.505,20.431C35.563,19.981 36.295,18.78 36.295,17.79C36.295,16.272 35.137,15.037 33.712,15.037C32.404,15.037 31.561,15.868 31.235,16.58C31.116,16.842 30.807,16.955 30.546,16.837C30.285,16.718 30.17,16.409 30.29,16.148C30.887,14.841 32.23,13.997 33.712,13.997C35.709,13.997 37.335,15.698 37.335,17.79C37.335,19.142 36.639,20.403 35.518,21.078" style="fill:rgb(251,216,136);"/>
                                    <path id="Fill-23" d="M8.514,25.101C8.288,25.101 8.084,24.934 8.035,24.69C7.492,22.028 9.139,20.897 10.086,20.67L15.245,19.129C15.505,19.051 15.777,19.212 15.85,19.489C15.924,19.765 15.772,20.052 15.511,20.13L10.327,21.677C10.122,21.73 8.532,22.204 8.994,24.471C9.051,24.752 8.883,25.028 8.618,25.089C8.583,25.097 8.548,25.101 8.514,25.101" style="fill:rgb(251,216,136);"/>
                                    <path id="Fill-25" d="M24.329,17.192L23.61,16.441C24.931,15.18 28.165,13.406 30.955,15.72L30.343,16.672C29.2,15.599 27.79,15.374 26.299,15.965C25.139,16.425 24.337,17.185 24.329,17.192" style="fill:rgb(251,216,136);"/>
                                </g>
                                <g id="Group-11" transform="matrix(1,0,0,1,52.9572,9.87157)">
                                    <g id="Group-3">
                                        <path id="Fill-11" serif:id="Fill-1" d="M17.937,2.226C17.867,2.168 17.785,2.122 17.712,2.068C17.664,1.954 17.597,1.845 17.507,1.751C16.655,0.863 15.291,-0.161 13.635,0.021C13.351,0.052 13.091,0.2 12.917,0.425C12.881,0.473 12.848,0.523 12.819,0.576C11.955,0.462 10.673,0.398 9.645,0.775C9.308,0.899 9.058,1.185 8.981,1.536C8.956,1.654 8.951,1.774 8.966,1.89C8.075,2.347 7.21,3.141 6.967,4.405C6.87,4.906 7.148,5.391 7.605,5.574C7.6,5.9 7.623,6.233 7.684,6.578C7.777,7.254 7.97,7.874 8.261,8.437C8.552,9 8.885,9.531 9.261,10.029C9.636,10.527 10.036,11.01 10.459,11.48C10.881,11.949 11.294,12.414 11.698,12.874C12.101,13.334 12.462,13.813 12.782,14.311C13.101,14.808 13.346,15.338 13.514,15.901C13.608,16.334 13.655,16.728 13.655,17.085C13.674,17.611 13.58,18.089 13.373,18.522C13.166,18.953 12.871,19.32 12.486,19.62C12.101,19.92 11.65,20.155 11.134,20.324C10.617,20.493 10.059,20.577 9.458,20.577C8.726,20.577 8.008,20.474 7.303,20.268C6.599,20.061 5.969,19.775 5.416,19.408C4.862,19.043 4.398,18.62 4.021,18.141C3.646,17.662 3.42,17.151 3.345,16.606C3.289,16.174 3.342,15.799 3.501,15.479C3.659,15.161 3.886,14.888 4.177,14.662C4.467,14.437 4.811,14.258 5.205,14.127C5.599,13.996 6.003,13.902 6.416,13.845C6.848,13.771 7.223,13.668 7.543,13.536C7.862,13.404 7.993,13.151 7.938,12.775C7.862,12.343 7.641,12.006 7.275,11.761C6.909,11.517 6.51,11.349 6.078,11.254C5.815,11.217 5.548,11.194 5.275,11.184C5.003,11.174 4.763,11.189 4.557,11.226C3.787,11.301 3.101,11.522 2.501,11.888C1.899,12.254 1.402,12.705 1.008,13.24C0.614,13.775 0.332,14.367 0.163,15.015C-0.006,15.662 -0.044,16.306 0.051,16.944C0.163,17.733 0.459,18.489 0.937,19.211C1.417,19.934 2.045,20.577 2.824,21.141C3.604,21.704 4.529,22.155 5.599,22.493C6.67,22.831 7.871,23 9.204,23C10.914,23 12.378,22.789 13.599,22.366C14.819,21.944 15.8,21.38 16.542,20.676C17.284,19.971 17.796,19.155 18.078,18.225C18.36,17.296 18.424,16.324 18.275,15.31C18.124,14.447 17.679,13.541 16.937,12.592C16.195,11.644 15.204,10.504 13.965,9.17C13.045,8.137 12.383,7.32 11.98,6.719C11.575,6.118 11.336,5.592 11.261,5.142C11.224,4.879 11.261,4.639 11.374,4.424C11.486,4.208 11.646,4.02 11.852,3.86C12.059,3.701 12.303,3.578 12.585,3.494C12.866,3.41 13.157,3.367 13.458,3.367C14.172,3.367 14.702,3.494 15.05,3.747C15.397,4.001 15.608,4.259 15.683,4.522C15.533,4.785 15.378,4.997 15.218,5.156C15.059,5.315 14.913,5.456 14.782,5.579C14.65,5.7 14.532,5.813 14.43,5.916C14.327,6.019 14.256,6.127 14.218,6.24C14.237,6.428 14.354,6.62 14.571,6.817C14.786,7.015 15.04,7.189 15.331,7.339C15.622,7.489 15.923,7.616 16.232,7.719C16.542,7.823 16.791,7.874 16.979,7.874C17.223,7.874 17.5,7.795 17.81,7.634C18.119,7.475 18.397,7.25 18.641,6.958C18.884,6.668 19.073,6.316 19.204,5.902C19.336,5.49 19.364,5.03 19.289,4.522C19.138,3.621 18.688,2.856 17.937,2.226" style="fill:white;"/>
                                    </g>
                                    <path id="Fill-4" d="M58.849,13.803C58.69,14.508 58.535,15.225 58.385,15.958C58.291,16.296 58.202,16.62 58.117,16.93C58.032,17.24 57.92,17.512 57.779,17.747C57.638,17.982 57.45,18.17 57.216,18.311C56.98,18.45 56.666,18.531 56.272,18.55C55.99,18.55 55.765,18.479 55.596,18.338C55.427,18.197 55.314,17.939 55.259,17.564C55.201,17.113 55.254,16.568 55.413,15.93C55.573,15.292 55.807,14.662 56.117,14.042C56.427,13.423 56.803,12.878 57.244,12.409C57.685,11.939 58.159,11.649 58.667,11.536C59.005,11.499 59.22,11.545 59.314,11.677C59.163,12.391 59.008,13.099 58.849,13.803M44.639,13.662C44.789,13.222 44.972,12.837 45.188,12.507C45.404,12.179 45.639,11.921 45.893,11.733C46.146,11.545 46.404,11.451 46.667,11.451C46.93,11.451 47.122,11.526 47.244,11.677C47.366,11.827 47.446,12.015 47.484,12.24C47.541,12.578 47.488,12.93 47.329,13.297C47.17,13.662 46.944,13.986 46.653,14.268C46.362,14.549 46.014,14.77 45.611,14.93C45.207,15.089 44.789,15.141 44.357,15.084C44.395,14.578 44.489,14.103 44.639,13.662M109.409,5.17C109.193,4.457 108.945,3.831 108.663,3.296C108.382,2.761 108.066,2.339 107.72,2.03C107.372,1.719 107.019,1.565 106.664,1.565C106.4,1.584 106.114,1.616 105.804,1.663C105.494,1.71 105.213,1.794 104.959,1.917C104.705,2.039 104.503,2.208 104.354,2.424C104.203,2.64 104.156,2.916 104.213,3.255C104.231,3.649 104.325,4.034 104.495,4.41C104.663,4.785 104.851,5.198 105.057,5.649C105.264,6.1 105.466,6.611 105.663,7.184C105.86,7.757 106.006,8.437 106.1,9.227C106.213,10.465 106.213,11.667 106.1,12.832C105.987,13.996 105.79,15.033 105.508,15.944C105.226,16.855 104.875,17.583 104.452,18.127C104.03,18.672 103.565,18.944 103.057,18.944C102.738,18.944 102.428,18.803 102.128,18.521C101.827,18.24 101.64,17.939 101.565,17.62C101.433,16.775 101.438,15.977 101.579,15.225C101.72,14.475 101.95,13.808 102.269,13.226C102.588,12.644 102.982,12.16 103.452,11.775C103.921,11.391 104.419,11.123 104.945,10.973C105.264,10.86 105.386,10.606 105.311,10.211C105.273,9.968 105.152,9.785 104.945,9.663C104.738,9.541 104.485,9.48 104.184,9.48C103.302,9.48 102.448,9.663 101.621,10.029C100.795,10.395 100.076,10.944 99.467,11.677C98.856,12.409 98.415,13.329 98.142,14.437C97.957,15.192 97.896,16.041 97.942,16.969C97.619,17.326 97.3,17.663 96.988,17.958C96.471,18.446 96.016,18.691 95.621,18.691C95.227,18.691 95.03,18.559 95.03,18.296C95.067,18.07 95.105,17.846 95.143,17.62C95.18,17.394 95.218,17.179 95.256,16.972C95.387,16.334 95.528,15.77 95.678,15.282C95.828,14.794 95.974,14.353 96.115,13.959C96.256,13.564 96.383,13.207 96.495,12.888C96.607,12.569 96.701,12.25 96.777,11.931L96.777,11.635C96.777,11.531 96.758,11.413 96.72,11.282C96.72,11.264 96.729,11.255 96.748,11.255L96.72,11.255C96.795,11.067 96.786,10.832 96.692,10.55C96.597,10.343 96.406,10.151 96.115,9.972C95.823,9.794 95.349,9.705 94.692,9.705C94.279,9.705 93.917,9.827 93.608,10.07C93.298,10.315 93.03,10.634 92.805,11.029C92.58,11.423 92.391,11.874 92.242,12.38C92.091,12.888 91.965,13.39 91.861,13.888C91.758,14.385 91.678,14.865 91.622,15.325C91.565,15.785 91.519,16.174 91.481,16.493C91.387,16.644 91.302,16.784 91.228,16.916C91.152,17.048 91.067,17.16 90.974,17.253C90.504,17.856 90.063,18.287 89.65,18.55C89.237,18.813 88.871,18.944 88.552,18.944C88.27,18.944 88.036,18.892 87.848,18.789C87.659,18.686 87.547,18.512 87.51,18.268C87.49,18.193 87.477,18.113 87.467,18.029C87.457,17.944 87.472,17.846 87.51,17.733C87.547,17.376 87.613,16.948 87.707,16.451C87.8,15.954 87.918,15.423 88.058,14.86C88.199,14.296 88.358,13.714 88.538,13.113C88.715,12.513 88.908,11.911 89.115,11.31C89.302,11.292 89.505,11.282 89.721,11.282C89.937,11.282 90.139,11.273 90.326,11.255C90.589,11.235 90.87,11.189 91.171,11.114C91.471,11.038 91.739,10.926 91.974,10.775C92.209,10.625 92.396,10.423 92.537,10.17C92.678,9.916 92.721,9.602 92.664,9.227C92.589,9.076 92.462,8.902 92.284,8.704C92.106,8.508 91.913,8.409 91.706,8.409L90.326,8.409C90.533,7.978 90.74,7.602 90.946,7.283C91.152,6.963 91.349,6.663 91.537,6.382C91.706,6.231 91.809,6.09 91.847,5.959C91.885,5.827 91.885,5.686 91.847,5.537C91.791,5.16 91.575,4.817 91.2,4.508C90.823,4.198 90.42,3.968 89.988,3.818C89.65,3.687 89.284,3.621 88.89,3.621C88.176,3.772 87.547,4.302 87.002,5.212C86.457,6.123 85.988,7.207 85.594,8.465C84.862,8.465 84.285,8.536 83.862,8.677C83.439,8.818 83.275,9.179 83.369,9.761C83.407,10.081 83.571,10.338 83.862,10.536C84.153,10.732 84.504,10.888 84.918,11.001C84.75,11.733 84.599,12.457 84.468,13.169C84.336,13.884 84.227,14.555 84.144,15.184C84.104,15.474 84.069,15.751 84.036,16.021C83.441,16.878 82.88,17.574 82.355,18.099C81.81,18.644 81.341,18.915 80.947,18.915C80.74,18.915 80.594,18.883 80.51,18.817C80.426,18.751 80.364,18.644 80.327,18.493C80.252,17.986 80.327,17.408 80.552,16.761C80.778,16.113 81.026,15.451 81.299,14.775C81.571,14.1 81.787,13.438 81.946,12.789C82.106,12.141 82.083,11.545 81.876,11.001C81.725,10.588 81.467,10.259 81.102,10.015C80.735,9.771 80.271,9.648 79.707,9.648C79.125,9.648 78.524,9.827 77.904,10.184C77.285,10.541 76.655,11.01 76.017,11.592C76.017,11.01 75.815,10.541 75.412,10.184C75.007,9.827 74.449,9.648 73.736,9.648C73.116,9.648 72.412,9.879 71.623,10.338C70.835,10.799 70.121,11.413 69.483,12.184C69.52,11.902 69.586,11.654 69.68,11.437C69.774,11.222 69.863,11.029 69.947,10.86C70.031,10.691 70.107,10.541 70.172,10.409C70.238,10.278 70.262,10.156 70.243,10.043C70.205,9.836 70.074,9.663 69.849,9.522C69.623,9.381 69.36,9.273 69.06,9.198C68.816,9.123 68.567,9.071 68.313,9.043C68.06,9.015 67.83,9.001 67.623,9.001C67.304,9.02 66.99,9.23 66.68,9.635C66.37,10.038 66.089,10.55 65.835,11.169C65.581,11.79 65.365,12.489 65.187,13.268C65.008,14.047 64.882,14.822 64.807,15.592C64.769,15.949 64.732,16.338 64.694,16.761C64.69,16.814 64.69,16.871 64.685,16.924C64.246,17.432 63.829,17.864 63.44,18.211C63,18.606 62.572,18.803 62.159,18.803C61.765,18.803 61.558,18.644 61.539,18.324C61.614,17.761 61.727,17.189 61.878,16.606C62.366,14.616 62.718,13.124 62.934,12.127C63.15,11.132 63.267,10.513 63.286,10.269C63.211,10.043 63.07,9.836 62.864,9.648C62.657,9.461 62.422,9.301 62.159,9.17C61.896,9.039 61.614,8.935 61.314,8.86C61.013,8.785 60.741,8.747 60.497,8.747C60.347,8.747 60.187,8.785 60.018,8.86C59.85,8.935 59.747,9.029 59.709,9.142L59.455,9.902C59.304,9.846 59.141,9.794 58.962,9.748C58.783,9.7 58.591,9.677 58.385,9.677C57.54,9.677 56.662,9.954 55.751,10.508C54.84,11.062 54.019,11.771 53.286,12.634C52.554,13.499 51.981,14.451 51.568,15.493C51.412,15.888 51.309,16.277 51.233,16.662C50.779,17.154 50.287,17.599 49.751,17.986C48.841,18.644 47.822,18.991 46.695,19.028C45.907,18.973 45.352,18.742 45.033,18.338C44.714,17.934 44.527,17.413 44.469,16.775C45.333,16.775 46.155,16.644 46.935,16.381C47.714,16.118 48.39,15.766 48.962,15.325C49.535,14.884 49.972,14.367 50.273,13.775C50.573,13.183 50.676,12.55 50.582,11.874C50.45,11.141 50.099,10.555 49.526,10.113C48.953,9.672 48.132,9.451 47.061,9.451C46.31,9.451 45.625,9.531 45.006,9.69C44.386,9.851 43.836,10.067 43.358,10.338C42.879,10.611 42.465,10.926 42.118,11.282C41.771,11.64 41.485,12.015 41.259,12.409C40.827,13.16 40.55,14.005 40.428,14.943C40.354,15.513 40.337,16.066 40.363,16.607C40.304,16.681 40.247,16.754 40.189,16.831C39.757,17.433 39.292,17.911 38.795,18.268C38.296,18.625 37.879,18.813 37.541,18.832C37.128,18.832 36.921,18.691 36.921,18.409C36.865,18.127 36.912,17.761 37.062,17.31C37.212,16.859 37.395,16.367 37.611,15.831C37.827,15.296 38.029,14.756 38.217,14.212C38.405,13.667 38.517,13.16 38.555,12.691C38.63,11.977 38.494,11.461 38.147,11.141C37.799,10.822 37.363,10.588 36.837,10.437C36.573,10.475 36.302,10.527 36.02,10.593C35.738,10.658 35.438,10.691 35.119,10.691C34.818,10.691 34.457,10.658 34.034,10.593C33.612,10.527 33.306,10.391 33.119,10.184C33.213,9.865 33.32,9.578 33.443,9.325C33.564,9.071 33.701,8.841 33.851,8.634C34.151,8.334 34.199,8.048 33.992,7.775C33.785,7.504 33.471,7.287 33.048,7.127C32.625,6.968 32.18,6.87 31.71,6.832C31.241,6.794 30.903,6.842 30.696,6.973C30.208,7.142 29.795,7.507 29.458,8.071C29.119,8.634 29.007,9.376 29.119,10.296C29.137,10.447 29.185,10.606 29.26,10.775C29.335,10.944 29.419,11.104 29.513,11.255C29.607,11.404 29.697,11.536 29.781,11.649C29.866,11.761 29.936,11.827 29.993,11.846C29.767,12.766 29.49,13.653 29.161,14.508C28.832,15.362 28.447,16.123 28.006,16.789C27.565,17.456 27.081,17.986 26.556,18.38C26.03,18.774 25.457,18.973 24.838,18.973C24.594,18.973 24.401,18.925 24.26,18.832C24.12,18.737 24.016,18.611 23.95,18.45C23.884,18.291 23.847,18.109 23.838,17.902C23.828,17.695 23.842,17.489 23.88,17.282C23.974,16.681 24.11,16.001 24.288,15.24C24.467,14.48 24.687,13.677 24.95,12.832L25.964,12.832C26.584,12.832 27.091,12.66 27.486,12.316C27.88,11.971 28.029,11.474 27.936,10.822C27.898,10.599 27.748,10.386 27.486,10.181C27.222,9.977 26.725,9.874 25.992,9.874C26.199,9.346 26.438,8.855 26.711,8.403C26.983,7.95 27.232,7.55 27.457,7.2C27.683,6.852 27.866,6.541 28.006,6.267C28.147,5.993 28.208,5.762 28.19,5.573C28.133,5.329 28.011,5.084 27.824,4.838C27.635,4.593 27.401,4.376 27.119,4.187C26.837,3.999 26.537,3.848 26.218,3.734C25.898,3.622 25.588,3.564 25.288,3.564C25.081,3.564 24.912,3.602 24.781,3.677C24.424,3.846 24.091,4.109 23.781,4.466C23.472,4.822 23.176,5.26 22.894,5.776C22.613,6.292 22.354,6.87 22.12,7.507C21.885,8.146 21.673,8.813 21.486,9.508C21.204,9.508 20.932,9.527 20.668,9.564C20.406,9.602 20.181,9.667 19.992,9.761C19.806,9.856 19.66,9.992 19.556,10.17C19.453,10.349 19.43,10.588 19.486,10.888C19.561,11.282 19.716,11.574 19.951,11.761C20.186,11.949 20.51,12.09 20.922,12.184C20.809,12.747 20.711,13.315 20.627,13.888C20.542,14.461 20.467,15.01 20.401,15.536C20.336,16.062 20.284,16.545 20.247,16.986C20.209,17.428 20.181,17.817 20.162,18.155C20.162,18.681 20.247,19.169 20.415,19.62C20.659,20.239 21.007,20.719 21.458,21.056C21.908,21.395 22.452,21.564 23.091,21.564C24.236,21.564 25.242,21.333 26.105,20.874C26.968,20.414 27.725,19.816 28.373,19.085C29.02,18.352 29.584,17.535 30.062,16.634C30.542,15.733 30.969,14.85 31.345,13.986L31.936,12.493C32.105,12.55 32.316,12.597 32.57,12.634C32.824,12.672 33.081,12.715 33.344,12.762C33.607,12.808 33.856,12.855 34.09,12.901C34.326,12.949 34.518,13.01 34.668,13.085C34.63,13.197 34.588,13.3 34.541,13.395C34.494,13.489 34.443,13.602 34.386,13.733C34.217,14.108 34.039,14.535 33.851,15.015C33.664,15.493 33.499,15.991 33.358,16.508C33.218,17.024 33.114,17.535 33.048,18.043C32.983,18.55 32.978,19.01 33.034,19.422C33.391,20.774 34.377,21.451 35.991,21.451C36.573,21.451 37.194,21.305 37.851,21.015C38.508,20.724 39.118,20.348 39.682,19.888C40.114,19.534 40.478,19.137 40.805,18.717C40.89,18.904 40.981,19.084 41.09,19.254C41.39,19.723 41.765,20.127 42.217,20.465C42.668,20.803 43.189,21.061 43.78,21.24C44.371,21.418 45.006,21.507 45.682,21.507C46.62,21.507 47.521,21.352 48.386,21.042C49.249,20.733 50.024,20.329 50.709,19.831C50.942,19.662 51.156,19.484 51.361,19.303C51.582,19.982 51.936,20.507 52.428,20.874C53.093,21.371 53.887,21.62 54.807,21.62C55.352,21.582 55.943,21.395 56.582,21.056C57.221,20.719 57.765,20.193 58.216,19.479C58.366,20.249 58.671,20.774 59.131,21.056C59.591,21.338 60.187,21.479 60.92,21.479C61.464,21.479 62.074,21.291 62.751,20.915C63.427,20.54 64.051,20.084 64.624,19.549C64.659,19.517 64.689,19.484 64.723,19.452C64.784,19.8 64.882,20.114 65.032,20.38C65.201,20.662 65.402,20.874 65.638,21.015C65.872,21.155 66.102,21.249 66.328,21.295C66.553,21.342 66.755,21.361 66.933,21.352C67.111,21.342 67.238,21.338 67.314,21.338C67.37,21.319 67.427,21.305 67.483,21.295C67.539,21.286 67.586,21.263 67.623,21.225C67.868,21.132 68.018,20.935 68.074,20.633C68.13,20.334 68.187,20.052 68.243,19.789C68.337,19.3 68.449,18.714 68.581,18.029C68.713,17.343 68.891,16.676 69.116,16.028C69.342,15.381 69.623,14.799 69.961,14.282C70.299,13.766 70.713,13.423 71.201,13.254C71.37,13.217 71.538,13.202 71.708,13.212C71.877,13.222 72.008,13.245 72.102,13.282C72.139,13.582 72.074,13.991 71.905,14.508C71.736,15.024 71.548,15.597 71.342,16.226C71.135,16.855 70.937,17.517 70.75,18.211C70.562,18.907 70.477,19.582 70.496,20.239C70.647,20.765 70.957,21.108 71.426,21.268C71.895,21.427 72.402,21.507 72.947,21.507C73.322,21.507 73.604,21.446 73.792,21.324C73.98,21.202 74.092,20.963 74.13,20.606C74.205,20.042 74.308,19.38 74.44,18.62C74.571,17.859 74.754,17.123 74.989,16.409C75.224,15.695 75.52,15.052 75.876,14.48C76.233,13.906 76.684,13.526 77.228,13.338C77.378,13.282 77.524,13.231 77.665,13.183C77.806,13.137 77.923,13.169 78.017,13.282C78.13,13.507 78.102,13.869 77.933,14.367C77.764,14.865 77.567,15.419 77.341,16.028C77.116,16.639 76.909,17.258 76.722,17.888C76.534,18.517 76.477,19.076 76.552,19.563C76.665,20.221 77.003,20.709 77.567,21.028C78.13,21.347 78.825,21.507 79.651,21.507C80.252,21.507 80.881,21.329 81.538,20.972C82.195,20.615 82.806,20.174 83.369,19.648C83.561,19.469 83.728,19.284 83.9,19.1C83.92,19.199 83.94,19.294 83.96,19.395C84.186,20.052 84.556,20.578 85.073,20.972C85.589,21.366 86.138,21.564 86.721,21.564C87.133,21.564 87.561,21.502 88.002,21.38C88.443,21.258 88.876,21.089 89.298,20.874C89.721,20.658 90.119,20.404 90.495,20.113C90.87,19.822 91.2,19.507 91.481,19.169C91.575,20.014 91.8,20.619 92.157,20.986C92.513,21.352 93.115,21.536 93.959,21.536C94.391,21.536 94.856,21.432 95.354,21.225C95.852,21.018 96.34,20.751 96.818,20.422C97.298,20.094 97.744,19.723 98.157,19.31C98.212,19.254 98.255,19.198 98.307,19.143C98.501,19.641 98.778,20.077 99.157,20.437C99.729,20.981 100.428,21.329 101.255,21.479C101.518,21.516 101.786,21.539 102.058,21.549C102.33,21.559 102.597,21.544 102.861,21.507C104.006,21.413 104.992,21.122 105.819,20.633C106.644,20.146 107.329,19.531 107.874,18.789C108.419,18.047 108.851,17.212 109.17,16.282C109.489,15.352 109.714,14.385 109.846,13.381C109.977,12.377 110.038,11.363 110.03,10.338C110.02,9.315 109.968,8.353 109.874,7.452C109.78,6.644 109.625,5.884 109.409,5.17" style="fill:white;"/>
                                    <g id="Group-8" transform="matrix(1,0,0,1,110.623,9.45152)">
                                        <path id="Fill-61" serif:id="Fill-6" d="M4.293,4.211C4.443,3.77 4.626,3.385 4.842,3.056C5.058,2.727 5.293,2.47 5.546,2.281C5.8,2.094 6.057,1.999 6.321,1.999C6.583,1.999 6.776,2.074 6.898,2.225C7.02,2.376 7.1,2.563 7.138,2.788C7.194,3.126 7.142,3.478 6.983,3.845C6.824,4.211 6.598,4.535 6.306,4.816C6.016,5.098 5.668,5.319 5.265,5.478C4.86,5.638 4.443,5.689 4.011,5.633C4.049,5.126 4.143,4.652 4.293,4.211M12.758,6.253C12.635,6.066 12.414,5.971 12.096,5.971C11.945,5.971 11.841,6.018 11.785,6.112C11.11,7.07 10.316,7.878 9.405,8.535C8.495,9.192 7.476,9.539 6.349,9.576C5.561,9.521 5.006,9.291 4.687,8.887C4.368,8.483 4.18,7.962 4.123,7.324C4.987,7.324 5.809,7.193 6.588,6.929C7.368,6.667 8.044,6.314 8.616,5.873C9.189,5.432 9.626,4.915 9.927,4.323C10.227,3.732 10.33,3.098 10.236,2.422C10.105,1.69 9.753,1.103 9.18,0.662C8.607,0.221 7.785,0 6.715,0C5.964,0 5.279,0.08 4.66,0.239C4.039,0.399 3.49,0.615 3.012,0.887C2.533,1.159 2.119,1.475 1.772,1.83C1.425,2.188 1.139,2.563 0.913,2.957C0.481,3.708 0.204,4.554 0.082,5.492C-0.04,6.431 -0.026,7.332 0.124,8.196C0.237,8.798 0.444,9.333 0.744,9.802C1.044,10.272 1.42,10.675 1.871,11.014C2.321,11.351 2.842,11.61 3.434,11.788C4.025,11.966 4.66,12.056 5.335,12.056C6.274,12.056 7.175,11.901 8.039,11.591C8.902,11.281 9.677,10.877 10.363,10.379C11.048,9.883 11.612,9.333 12.053,8.731C12.494,8.132 12.771,7.53 12.884,6.929C12.922,6.667 12.879,6.441 12.758,6.253" style="fill:white;"/>
                                    </g>
                                    <path id="Fill-9" d="M97.037,6.756C98.439,6.168 99.306,5.047 98.973,4.251C98.64,3.455 97.232,3.286 95.83,3.874C94.427,4.461 93.56,5.582 93.893,6.378C94.227,7.174 95.634,7.343 97.037,6.756" style="fill:white;"/>
                                </g>
                            </g>
                        </g>
                    </g>
                </g>
            </g>
        </g>
        <g id="logo-mobile_1.svg1" serif:id="logo-mobile_1.svg">
        </g>
    </g>
</svg>
