<?xml version="1.0" encoding="UTF-8" standalone="no"?>
<!DOCTYPE svg PUBLIC "-//W3C//DTD SVG 1.1//EN" "http://www.w3.org/Graphics/SVG/1.1/DTD/svg11.dtd">
<svg width="100%" height="100%" viewBox="0 0 875 721" version="1.1" xmlns="http://www.w3.org/2000/svg" xmlns:xlink="http://www.w3.org/1999/xlink" xml:space="preserve" xmlns:serif="http://www.serif.com/" style="fill-rule:evenodd;clip-rule:evenodd;stroke-linejoin:round;stroke-miterlimit:2;">
    <g transform="matrix(4.16667,0,0,4.16667,437.5,360.417)">
        <g id="logo-icon.svg" transform="matrix(1,0,0,1,-105,-86.5)">
            <g transform="matrix(1,0,0,1,0.25043,0.139465)">
                <g id="Page-1">
                    <g id="UI-Kit">
                        <g id="Group-27-Copy-4">
                            <path id="Fill-1" d="M158.999,82.24C158.999,103.536 136.333,120.798 108.371,120.798C80.411,120.798 57.746,103.536 57.746,82.24C57.746,60.945 80.411,43.683 108.371,43.683C136.333,43.683 158.999,60.945 158.999,82.24" style="fill:white;"/>
                            <g id="Group-5">
                                <path id="Fill-3" d="M112.097,155.759C110.329,155.759 108.524,155.614 106.721,155.309L104.851,154.993C96.833,153.648 93.174,153.035 87.779,149.797C86.135,148.81 84.116,147.592 82.225,145.883C82.21,145.883 82.196,145.887 82.179,145.889C81.461,145.91 80.748,145.923 80.049,145.923C62.894,145.923 51.322,139.122 45.981,135.114C45.923,135.212 45.862,135.315 45.806,135.409C45.299,136.283 44.44,136.894 43.448,137.089C43.222,137.135 42.996,137.154 42.772,137.154C42.002,137.154 41.247,136.903 40.628,136.424C36.472,133.219 34.265,127.318 33.125,122.736C32.528,123.044 31.838,123.174 31.165,123.098C30.127,122.99 29.194,122.427 28.615,121.561C25.667,117.155 25.78,110.968 26.288,106.905C26.079,106.937 25.88,106.974 25.701,107.012C24.782,107.213 23.818,107.029 23.029,106.51C22.245,105.991 21.697,105.177 21.519,104.251C19.975,96.327 25.042,86.804 29.119,81.558C27.449,80.868 26.55,79.014 27.11,77.263C29.261,70.523 34.643,66.045 38.716,63.488C38.141,62.903 37.779,62.129 37.716,61.294C37.637,60.2 38.068,59.133 38.89,58.405C39.932,57.483 41.341,56.679 42.915,55.968C41.716,53.587 39.404,51.266 38.45,50.452C37.495,49.638 37.128,48.322 37.528,47.128C37.925,45.935 39.007,45.105 40.262,45.032C41.291,44.967 48.535,44.651 53.951,47.04C54.457,43.45 53.874,39.541 53.499,37.978C53.225,36.842 53.619,35.643 54.518,34.892C55.413,34.141 56.664,33.966 57.731,34.434C58.834,34.922 67.316,38.85 69.977,45.548C70.067,45.431 70.165,45.325 70.27,45.222C70.178,42.266 69.276,39.214 68.816,38.013C68.402,36.938 68.626,35.719 69.393,34.863C70.163,34.003 71.347,33.648 72.462,33.939C73.021,34.087 75.926,34.922 78.738,36.802C78.008,34.662 77.127,32.6 76.385,31.135C75.629,29.654 75.951,27.851 77.171,26.724C78.389,25.59 80.204,25.406 81.629,26.27C82.744,26.947 90.553,31.828 95.577,38.08C96.561,35.177 97.021,31.717 97.073,29.439C97.111,27.872 98.123,26.494 99.611,25.998C101.087,25.494 102.732,25.981 103.706,27.211C104.598,28.336 110.618,36.173 112.798,44.09C112.93,44.128 113.061,44.153 113.193,44.191C113.911,41.85 114.249,39.191 114.262,37.409C114.275,35.869 115.235,34.495 116.674,33.953C118.122,33.413 119.743,33.813 120.764,34.966C122.073,36.443 127.094,42.444 129.127,48.845C129.476,49.013 129.855,49.144 130.183,49.335C133.474,47.199 136.229,44.17 137.281,42.777C138.134,41.649 139.561,41.107 140.94,41.36C142.331,41.624 143.45,42.647 143.833,44.007C144.228,45.408 147.027,56.175 143.199,63.716C149.841,73.069 150.355,82.761 149.642,89.645C153.296,92.674 155.459,96.642 155.851,101.261C158.057,104.213 160.02,106.125 165.528,111.196C166.295,111.905 166.975,112.511 167.626,113.078C170.45,104.56 172,95.465 172,85.999C172,38.503 133.497,0 86.001,0C38.503,0 -0,38.503 -0,85.999C-0,133.497 38.503,172 86.001,172C100.776,172 114.68,168.27 126.826,161.706C121.899,160.127 117.381,158.091 113.317,155.729C112.911,155.746 112.507,155.759 112.097,155.759" style="fill:rgb(164,120,249);"/>
                            </g>
                            <path id="Fill-6" d="M46.878,90.554C45.625,90.355 44.406,91.221 44.201,92.497C44.012,93.7 42.435,104.413 46.052,110.32C46.447,110.962 47.127,111.379 47.88,111.431C48.633,111.466 49.368,111.174 49.849,110.594L50.462,109.852C51.736,113.539 53.968,118.667 57.204,121.497C57.647,121.884 58.197,122.074 58.745,122.074C59.394,122.074 60.042,121.804 60.507,121.277C61.358,120.303 61.258,118.826 60.285,117.974C56.81,114.937 54.373,107.182 53.729,104.452C53.524,103.586 52.846,102.911 51.978,102.71C51.11,102.505 50.208,102.817 49.642,103.503L48.834,104.48C48.039,100.474 48.489,95.344 48.824,93.232C49.024,91.956 48.154,90.757 46.878,90.554" style="fill:rgb(164,120,249);"/>
                            <path id="Fill-8" d="M101.794,147.346C93.763,140.15 88.669,132.251 86.751,126.722C85.766,126.341 84.877,125.843 84.025,125.283C81.103,137.55 86.707,140.97 91.391,143.777C94.763,145.8 97.112,146.497 101.794,147.346" style="fill:rgb(164,120,249);"/>
                            <path id="Fill-10" d="M169.086,139.895C166.203,141.102 163.308,140.754 162.624,139.118C161.938,137.483 163.72,135.177 166.605,133.97C169.488,132.761 172.381,133.109 173.067,134.744C173.751,136.382 171.969,138.688 169.086,139.895M150.552,142.792C150.217,142.771 149.885,142.754 149.54,142.71C145.211,142.158 141.908,140.091 142.164,138.093C142.419,136.096 146.136,134.924 150.464,135.477C152.343,135.715 154.004,136.251 155.288,136.932C156.964,137.819 157.984,138.964 157.84,140.093C157.606,141.932 154.43,143.053 150.552,142.792M201.941,141.689C201.688,141.229 200.477,139.531 195.485,137.045C193.601,136.102 191.825,135.228 190.105,134.382C184.758,131.753 179.704,129.268 173.996,125.963C170.147,123.735 167.789,122.281 164.992,120.028C163.733,119.014 162.392,117.853 160.771,116.359C159.426,115.121 158.294,114.07 157.277,113.11C156.991,113.01 156.708,112.882 156.447,112.7C155.07,111.751 153.146,110.799 150.857,109.987C149.387,109.464 147.764,109.002 146.025,108.634C143.484,108.098 140.71,107.763 137.825,107.763C133.051,107.763 128.845,108.686 124.908,110.577C123.209,111.393 121.557,112.37 119.937,113.56C119.31,114.024 118.582,114.244 117.858,114.244C116.781,114.244 115.718,113.75 115.03,112.819C113.882,111.259 114.212,109.058 115.773,107.912C122.322,103.088 129.535,100.745 137.825,100.745C141.323,100.745 144.584,101.17 147.565,101.814C147.994,101.906 148.433,101.99 148.849,102.09C148.774,100.898 148.487,99.798 148.04,98.77C146.971,96.319 144.866,94.334 141.687,92.871C132.401,88.598 125.033,76.877 124.722,76.379C120.151,69.537 116.683,68.873 113.612,69.214C108.215,69.794 104.817,72.825 104.299,77.536L104.163,78.18C104.077,78.496 103.943,79.624 103.849,80.446C103.508,83.33 103.085,86.922 101.642,89.244C98.023,95.091 92.647,98.881 91.145,99.871C90.248,100.733 89.143,101.412 87.982,102.128C84.863,104.048 82.788,105.542 82.326,108.673C82.142,109.929 82.112,110.834 82.294,111.684C82.512,112.694 83.054,113.648 83.984,114.987C84.384,115.562 84.834,116.187 85.392,116.953C85.71,117.39 86.028,117.756 86.346,118.104C87.551,119.413 88.815,120.145 90.578,120.576L93.185,121.21L93.256,123.892C93.258,124.001 93.283,124.124 93.331,124.268C95.354,130.318 101.972,139.832 112.886,147.235C113.557,147.691 114.262,148.13 114.967,148.57C116.423,149.475 117.927,150.35 119.521,151.166C120.944,151.894 122.429,152.573 123.962,153.209C126.253,154.163 128.65,155.019 131.181,155.726C132.384,156.061 133.669,156.368 135.016,156.65C154.782,160.769 188.835,158.889 199.466,148.04C200.786,146.693 203.002,143.633 201.941,141.689" style="fill:rgb(164,120,249);"/>
                            <g id="Group-14" transform="matrix(1,0,0,1,21.2342,25.7285)">
                                <path id="Fill-12" d="M62.79,99.554C63.642,100.115 64.533,100.614 65.516,100.993C67.434,106.524 72.53,114.421 80.559,121.617C75.877,120.768 73.528,120.071 70.156,118.05C65.474,115.241 59.868,111.821 62.79,99.554M120.273,51.154C120.097,50.592 119.842,50.037 119.482,49.52C117.924,47.28 115.211,46.575 113.422,47.943C112.615,48.56 112.152,49.502 112.012,50.548C111.443,49.809 110.954,49.14 110.556,48.579C110.468,48.454 110.395,48.347 110.316,48.232C110.314,48.205 110.316,48.178 110.314,48.148C110.217,46.464 110.788,44.874 112.031,43.925C114.152,42.301 117.372,43.138 119.219,45.795C120.392,47.481 120.725,49.491 120.273,51.154M53.45,44.776C56.5,42.442 61.13,43.647 63.786,47.464C65.474,49.891 65.951,52.782 65.303,55.173C65.05,54.363 64.682,53.566 64.165,52.824C61.924,49.604 58.023,48.588 55.45,50.556C53.647,51.935 53.005,54.413 53.534,56.882C53.26,56.574 52.984,56.269 52.739,55.917C50.08,52.098 50.398,47.111 53.45,44.776M24.819,84.591C21.2,78.685 22.777,67.971 22.967,66.768C23.17,65.492 24.39,64.628 25.645,64.825C26.919,65.03 27.791,66.226 27.591,67.502C27.256,69.615 26.806,74.746 27.601,78.752L28.408,77.775C28.973,77.087 29.877,76.775 30.745,76.983C31.611,77.183 32.291,77.859 32.494,78.723C33.138,81.455 35.575,89.21 39.052,92.245C40.023,93.096 40.123,94.573 39.272,95.548C38.809,96.075 38.161,96.347 37.51,96.347C36.964,96.347 36.414,96.157 35.971,95.768C32.734,92.937 30.5,87.81 29.228,84.122L28.613,84.865C28.134,85.446 27.4,85.739 26.647,85.702C25.892,85.649 25.214,85.233 24.819,84.591M113.782,130.922C112.435,130.641 111.15,130.332 109.948,129.997C107.416,129.29 105.019,128.434 102.728,127.482C101.195,126.844 99.71,126.165 98.287,125.437C96.693,124.623 95.187,123.746 93.733,122.841C93.026,122.401 92.324,121.962 91.65,121.506C80.739,114.103 74.12,104.589 72.095,98.539C72.049,98.395 72.024,98.272 72.02,98.163L71.951,95.481L69.344,94.847C67.581,94.416 66.317,93.684 65.112,92.375C64.792,92.027 64.477,91.663 64.156,91.224C63.6,90.458 63.15,89.833 62.751,89.26C61.82,87.919 61.276,86.965 61.06,85.955C60.878,85.105 60.908,84.202 61.092,82.944C61.552,79.813 63.629,78.319 66.748,76.399C67.909,75.684 69.014,75.004 69.911,74.144C71.413,73.152 76.789,69.362 80.408,63.517C81.852,61.193 82.274,57.601 82.615,54.719C82.709,53.895 82.843,52.767 82.929,52.451L83.063,51.807C83.584,47.098 86.981,44.065 92.378,43.485C95.449,43.144 98.915,43.81 103.488,50.65C103.797,51.148 111.167,62.869 120.451,67.142C123.63,68.605 125.735,70.59 126.806,73.041C127.254,74.069 127.538,75.169 127.615,76.361C127.199,76.261 126.758,76.177 126.331,76.085C123.35,75.441 120.089,75.016 116.591,75.016C108.301,75.016 101.088,77.359 94.539,82.183C92.978,83.329 92.646,85.53 93.796,87.091C94.482,88.021 95.547,88.517 96.624,88.517C97.348,88.517 98.076,88.295 98.704,87.833C100.323,86.641 101.975,85.664 103.672,84.848C107.611,82.957 111.818,82.034 116.591,82.034C119.476,82.034 122.25,82.369 124.791,82.907C126.53,83.273 128.153,83.735 129.624,84.258C131.912,85.072 133.837,86.022 135.213,86.973C135.475,87.155 135.757,87.281 136.044,87.383C137.06,88.341 138.192,89.392 139.537,90.63C141.158,92.124 142.499,93.285 143.758,94.299C146.555,96.552 148.911,98.006 152.762,100.234C158.471,103.539 163.522,106.024 168.871,108.654C170.591,109.499 172.367,110.373 174.252,111.316C179.241,113.802 180.454,115.5 180.707,115.96C181.768,117.904 179.552,120.964 178.23,122.311C167.602,133.16 133.548,135.04 113.782,130.922M186.866,112.595C185.431,109.969 182.326,107.495 177.377,105.032C175.492,104.087 173.704,103.208 171.969,102.357C166.505,99.669 161.782,97.345 156.28,94.161C151.98,91.674 149.856,90.373 146.392,87.348C145.742,86.783 145.062,86.176 144.294,85.467C138.786,80.397 136.824,78.485 134.615,75.533C134.226,70.912 132.061,66.946 128.408,63.917C129.122,57.032 128.607,47.341 121.963,37.988C125.793,30.447 122.995,19.68 122.599,18.278C122.216,16.919 121.097,15.896 119.706,15.632C118.328,15.379 116.901,15.921 116.047,17.048C114.995,18.442 112.24,21.471 108.95,23.606C108.621,23.416 108.243,23.284 107.893,23.117C105.86,16.716 100.84,10.712 99.53,9.237C98.509,8.085 96.886,7.685 95.44,8.225C94.001,8.765 93.041,10.141 93.028,11.681C93.016,13.463 92.677,16.122 91.957,18.462C91.828,18.425 91.694,18.4 91.564,18.362C89.384,10.444 83.364,2.608 82.471,1.483C81.498,0.251 79.854,-0.235 78.377,0.269C76.89,0.765 75.875,2.144 75.84,3.711C75.787,5.989 75.327,9.446 74.344,12.352C69.319,6.097 61.51,1.219 60.395,0.541C58.971,-0.323 57.153,-0.138 55.937,0.993C54.716,2.123 54.396,3.926 55.149,5.407C55.894,6.871 56.774,8.934 57.504,11.074C54.693,9.193 51.787,8.359 51.227,8.21C50.114,7.919 48.93,8.275 48.16,9.135C47.392,9.99 47.168,11.21 47.583,12.285C48.043,13.486 48.944,16.538 49.034,19.492C48.932,19.596 48.833,19.703 48.741,19.82C46.083,13.122 37.6,9.193 36.498,8.706C35.431,8.237 34.18,8.413 33.285,9.164C32.385,9.915 31.992,11.114 32.266,12.25C32.64,13.812 33.224,17.722 32.718,21.312C27.302,18.923 20.056,19.239 19.028,19.303C17.771,19.377 16.692,20.207 16.292,21.399C15.893,22.594 16.259,23.91 17.217,24.723C18.171,25.537 20.482,27.859 21.681,30.24C20.108,30.951 18.696,31.754 17.654,32.677C16.834,33.405 16.401,34.472 16.483,35.566C16.545,36.4 16.907,37.174 17.483,37.76C13.408,40.316 8.027,44.795 5.875,51.535C5.316,53.286 6.214,55.139 7.885,55.83C3.808,61.076 -1.258,70.598 0.283,78.522C0.463,79.449 1.009,80.263 1.794,80.781C2.584,81.3 3.547,81.484 4.465,81.283C4.647,81.244 4.846,81.208 5.055,81.177C4.546,85.239 4.431,91.427 7.381,95.832C7.96,96.698 8.893,97.261 9.931,97.37C10.605,97.445 11.293,97.316 11.891,97.008C13.029,101.589 15.238,107.49 19.395,110.693C20.014,111.174 20.767,111.425 21.539,111.425C21.76,111.425 21.986,111.406 22.214,111.36C23.204,111.166 24.064,110.555 24.572,109.681C24.626,109.587 24.689,109.484 24.746,109.386C30.088,113.394 41.66,120.192 58.814,120.192C59.515,120.192 60.228,120.182 60.943,120.159C60.96,120.159 60.975,120.155 60.991,120.153C62.883,121.864 64.901,123.081 66.543,124.069C71.94,127.307 75.599,127.92 83.617,129.265L85.487,129.581C87.29,129.886 89.096,130.03 90.863,130.03C91.271,130.03 91.677,130.018 92.081,130.001C96.147,132.363 100.666,134.398 105.592,135.978C106.412,136.241 107.216,136.521 108.061,136.758C115.458,138.82 125.365,139.967 135.68,139.967C154.402,139.967 174.463,136.185 183.245,127.225C186.851,123.546 189.696,117.77 186.866,112.595" style="fill:rgb(59,29,86);"/>
                            </g>
                            <path id="Fill-15" d="M166.604,133.969C163.722,135.176 161.94,137.482 162.624,139.12C163.31,140.755 166.203,141.103 169.085,139.894C171.97,138.687 173.752,136.381 173.066,134.745C172.382,133.11 169.489,132.762 166.604,133.969" style="fill:rgb(59,29,86);"/>
                            <path id="Fill-17" d="M155.288,136.931C154.003,136.252 152.342,135.716 150.464,135.475C146.136,134.923 142.419,136.095 142.166,138.092C141.91,140.09 145.211,142.159 149.541,142.711C149.885,142.755 150.217,142.77 150.554,142.793C154.43,143.054 157.606,141.933 157.84,140.094C157.984,138.963 156.963,137.82 155.288,136.931" style="fill:rgb(59,29,86);"/>
                        </g>
                    </g>
                </g>
            </g>
        </g>
        <g id="logo-icon.svg1" serif:id="logo-icon.svg">
        </g>
    </g>
</svg>
