<?xml version="1.0" encoding="UTF-8"?>
<svg width="178px" height="43px" viewBox="0 0 178 43" version="1.1" xmlns="http://www.w3.org/2000/svg" xmlns:xlink="http://www.w3.org/1999/xlink">
    <title>Group 4</title>
    <defs>
        <polygon id="path-1" points="0 0 42.7430851 0 42.7430851 42.7431371 0 42.7431371"></polygon>
        <polygon id="path-3" points="0 0 46.7231645 0 46.7231645 34.7826652 0 34.7826652"></polygon>
        <polygon id="path-5" points="-4.48081901e-16 0 19.3296489 0 19.3296489 23 -4.48081901e-16 23"></polygon>
        <polygon id="path-7" points="1.76475333e-14 -2.20594167e-15 12.8974793 -2.20594167e-15 12.8974793 12.0557318 1.76475333e-14 12.0557318"></polygon>
    </defs>
    <g id="Page-1" stroke="none" stroke-width="1" fill="none" fill-rule="evenodd">
        <g id="Home-Night-Mobile" transform="translate(-7.000000, -9.000000)">
            <g id="Mobile-Header" transform="translate(0.000000, 0.499983)">
                <g id="Group-4" transform="translate(7.832296, 8.557020)">
                    <g id="Group-27">
                        <path d="M39.5122023,20.4372528 C39.5122023,25.7292652 33.8796921,30.0190183 26.9309367,30.0190183 C19.9827012,30.0190183 14.3501909,25.7292652 14.3501909,20.4372528 C14.3501909,15.1452404 19.9827012,10.8554874 26.9309367,10.8554874 C33.8796921,10.8554874 39.5122023,15.1452404 39.5122023,20.4372528" id="Fill-1" fill="#FFFFFF"></path>
                        <g id="Group-5">
                            <mask id="mask-2" fill="white">
                                <use xlink:href="#path-1"></use>
                            </mask>
                            <g id="Clip-4"></g>
                            <path d="M27.856831,38.7070679 C27.4175627,38.7070679 26.9689373,38.6711986 26.5208318,38.5953014 L26.0560912,38.516805 C24.0635289,38.1825452 23.1543217,38.0302309 21.8136439,37.2255123 C21.4050465,36.980146 20.903397,36.6775967 20.433458,36.2528841 C20.4298191,36.2528841 20.4261801,36.2539238 20.4220214,36.2544437 C20.2437149,36.2596421 20.0664481,36.2627612 19.8928202,36.2627612 C15.6295791,36.2627612 12.7538019,34.5727482 11.42664,33.576727 C11.4120844,33.6011597 11.3970089,33.626632 11.3829731,33.650025 C11.2571708,33.8673198 11.0435149,34.0191143 10.7971089,34.0674598 C10.7409657,34.0788963 10.6848226,34.0835749 10.6291992,34.0835749 C10.4378966,34.0835749 10.2502329,34.0211936 10.0963591,33.9021494 C9.06342897,33.1057483 8.5149935,31.6392682 8.2316785,30.5008098 C8.08352294,30.5772268 7.91197441,30.6094572 7.74458462,30.5907428 C7.48674198,30.5637109 7.25489153,30.4238728 7.11089473,30.2086574 C6.37843447,29.1138658 6.40650605,27.5761671 6.53282815,26.56663 C6.48084375,26.5744277 6.43145856,26.5837849 6.38675197,26.5931421 C6.15854044,26.6430471 5.91889233,26.5973008 5.72291113,26.4683795 C5.52796961,26.3394582 5.39177047,26.1372388 5.34758372,25.9069479 C4.96393882,23.9377787 6.2230011,21.5714486 7.23617715,20.2676797 C6.8213416,20.0961312 6.59780866,19.6355493 6.73712686,19.2004399 C7.27152654,17.5255023 8.60908527,16.4125162 9.62122163,15.7772668 C9.47826452,15.6317105 9.3883315,15.4393682 9.37273618,15.2319504 C9.35298211,14.960072 9.46006998,14.6949515 9.66436869,14.5140458 C9.92325102,14.2847946 10.2736259,14.0851744 10.6645486,13.9084275 C10.366678,13.3168449 9.79225032,12.7398181 9.55520144,12.5375987 C9.31763271,12.3353794 9.22666,12.0083975 9.32595021,11.7115665 C9.42472058,11.4152554 9.69347996,11.2088773 10.0053864,11.1906828 C10.2611497,11.1745676 12.0613696,11.0960712 13.4072458,11.6897331 C13.5330481,10.7976807 13.3880116,9.82609217 13.2949595,9.43776867 C13.2268599,9.15549335 13.3245906,8.85762271 13.5481236,8.6709987 C13.7706168,8.48437469 14.0814836,8.44070779 14.346604,8.55715285 C14.6205618,8.67827652 16.7285294,9.65454364 17.3897711,11.3190843 C17.4121244,11.289973 17.436557,11.263461 17.4625492,11.2379886 C17.4396761,10.503449 17.2156233,9.7449965 17.1012576,9.44660602 C16.9983285,9.17940618 17.0539518,8.8763371 17.2447346,8.66372088 C17.4360372,8.45006498 17.7302689,8.36169149 18.0073458,8.43394982 C18.1461442,8.47085874 18.8682075,8.67827652 19.5668779,9.14561632 C19.3854524,8.61381586 19.166598,8.10124963 18.9820534,7.73735879 C18.7943897,7.36930921 18.8744457,6.92120364 19.1775147,6.6410077 C19.480064,6.35925222 19.9312886,6.31350595 20.2853024,6.52820154 C20.5623793,6.69663101 22.5029571,7.90942717 23.7516225,9.46324103 C23.9959492,8.74169749 24.1103149,7.88187544 24.123311,7.31576527 C24.1326682,6.92640208 24.3842727,6.58382485 24.7538818,6.46062181 C25.1208917,6.3353394 25.5294892,6.45646306 25.7717365,6.76213136 C25.99319,7.04180746 27.4893012,8.98914326 28.0309787,10.956753 C28.0637289,10.9661102 28.0964791,10.9723483 28.1292292,10.9817055 C28.3075357,10.4 28.3917505,9.73927822 28.3948695,9.29637109 C28.3979886,8.91376587 28.636597,8.57222833 28.9942497,8.43758872 C29.3539818,8.30346896 29.7568609,8.40275917 30.0105448,8.68919324 C30.3359672,9.05620314 31.5835929,10.5476357 32.0888813,12.1383585 C32.1756953,12.179946 32.2697871,12.2126962 32.3514026,12.260002 C33.1691173,11.7292412 33.8537519,10.976507 34.1152334,10.6302909 C34.3273298,10.350095 34.6818634,10.2154554 35.0244407,10.2783565 C35.370137,10.3438568 35.6482535,10.5980606 35.743385,10.9359592 C35.8416355,11.2842547 36.5371868,13.959892 35.5858722,15.8339298 C37.2363771,18.1581526 37.3642587,20.56659 37.1869919,22.2773968 C38.0951595,23.030131 38.6326782,24.0162751 38.729889,25.1640908 C39.2783245,25.8975907 39.7659382,26.3727282 41.1346876,27.6328302 C41.3254704,27.8090573 41.4944197,27.9598121 41.6560912,28.1006898 C42.3578806,25.9838848 42.7430851,23.7236029 42.7430851,21.3713086 C42.7430851,9.56824953 33.1748355,0 21.3717765,0 C9.56819754,0 -5.19844047e-05,9.56824953 -5.19844047e-05,21.3713086 C-5.19844047e-05,33.1748875 9.56819754,42.7431371 21.3717765,42.7431371 C25.043435,42.7431371 28.4988383,41.8162551 31.5170529,40.1849845 C30.2928202,39.7925022 29.169957,39.286694 28.1599,38.6997901 C28.0590503,38.7039488 27.9587204,38.7070679 27.856831,38.7070679" id="Fill-3" fill="#A478F9" mask="url(#mask-2)"></path>
                        </g>
                        <path d="M11.6495491,22.503269 C11.3381626,22.4538838 11.0350935,22.6690993 10.9841488,22.9862041 C10.9373628,23.2851145 10.5454004,25.9472358 11.4442107,27.4152754 C11.5424613,27.5748675 11.7114106,27.6783165 11.8985544,27.6913126 C12.0856983,27.70015 12.2681636,27.6273718 12.3877277,27.483375 L12.540042,27.2988304 C12.856627,28.2153154 13.4113006,29.4894532 14.2154994,30.1928022 C14.3257063,30.2889733 14.4624253,30.3362791 14.5986244,30.3362791 C14.7597761,30.3362791 14.9209277,30.2692192 15.0363331,30.1382185 C15.2479096,29.8959712 15.2229571,29.5289613 14.9812296,29.3173848 C14.1177687,28.5625712 13.5121504,26.6355093 13.3520384,25.9571129 C13.3010937,25.7418974 13.1326642,25.5739878 12.9169289,25.5240828 C12.7011936,25.4731381 12.4771409,25.5505948 12.3362631,25.7211037 L12.1356033,25.9638708 C11.9380626,24.9683695 12.0498291,23.6937119 12.1330041,23.1686694 C12.1829091,22.8515645 11.966654,22.5536939 11.6495491,22.503269" id="Fill-6" fill="#A478F9"></path>
                        <path d="M25.2964431,36.6164111 C23.3007618,34.8281476 22.0349415,32.8652164 21.5582445,31.4912686 C21.313398,31.396657 21.0924643,31.2729341 20.8808877,31.1336159 C20.1546656,34.1819814 21.5473278,35.0319264 22.7112586,35.7295571 C23.5492472,36.2322463 24.1330321,36.4053544 25.2964431,36.6164111" id="Fill-8" fill="#A478F9"></path>
                        <path d="M42.0189943,34.7647266 C41.3026492,35.0646766 40.583185,34.9783825 40.413196,34.5718644 C40.2426872,34.1653464 40.6855943,33.5924783 41.4024593,33.2925282 C42.1188044,32.9920584 42.8377487,33.0783525 43.0082575,33.4848705 C43.1782465,33.8919084 42.7353394,34.4647766 42.0189943,34.7647266 M37.413176,35.4847106 C37.330001,35.4795121 37.2473458,35.4753534 37.1615715,35.4644367 C36.0860142,35.3271978 35.2651804,34.8135919 35.3286014,34.3171409 C35.3920224,33.8206898 36.3157853,33.5295771 37.3913426,33.666816 C37.8581626,33.7260782 38.2709187,33.8591583 38.590103,34.0286274 C39.0064981,34.2490413 39.2601819,34.533396 39.2243127,34.8141118 C39.1660902,35.2710547 38.3769669,35.5496911 37.413176,35.4847106 M50.1836649,35.2107528 C50.1207638,35.0963871 49.8197741,34.6742737 48.5794262,34.056699 C48.1110467,33.8222493 47.6696991,33.6049545 47.2423873,33.3949375 C45.9136659,32.7414936 44.6577227,32.1239188 43.2390683,31.3025652 C42.2825552,30.7489313 41.696691,30.3876397 41.0016595,29.8277677 C40.6887134,29.5756433 40.3554934,29.2871299 39.9526142,28.9159612 C39.6183545,28.6082135 39.3371189,28.3472518 39.0844747,28.1086434 C39.013256,28.0836909 38.9430771,28.0519804 38.8780966,28.006754 C38.5360392,27.7707448 38.0577827,27.5342157 37.4890733,27.3325162 C37.1236229,27.2025552 36.7202239,27.0876697 36.2882335,26.9961771 C35.656623,26.8630971 34.9673098,26.779922 34.2504449,26.779922 C33.0641608,26.779922 32.0187544,27.0091732 31.0404079,27.4791123 C30.6182945,27.6818514 30.2076177,27.9246186 29.8052584,28.2204099 C29.6493052,28.3358153 29.4683995,28.3903989 29.2885334,28.3903989 C29.0208138,28.3903989 28.756733,28.2677157 28.5857043,28.0363851 C28.3003099,27.6485814 28.3824453,27.1017055 28.7702489,26.816831 C30.3978806,25.6180706 32.1903029,25.0358452 34.2504449,25.0358452 C35.1196241,25.0358452 35.930061,25.1413736 36.6708387,25.3014856 C36.7774068,25.3243587 36.886574,25.3451525 36.990023,25.370105 C36.9713086,25.0737939 36.90009,24.8003559 36.7888433,24.5451125 C36.523203,23.9358552 36.0002399,23.4425232 35.210077,23.0791523 C32.9024893,22.0171109 31.0715985,19.1044247 30.9941418,18.9807018 C29.8582825,17.2802919 28.9963811,17.1155013 28.23325,17.2002359 C26.8920524,17.3442327 26.0478257,18.0974868 25.9189043,19.2681755 L25.8851145,19.4282875 C25.8638009,19.506784 25.8305308,19.7869799 25.8071379,19.9912786 C25.7224033,20.7081436 25.6173948,21.6007158 25.2587024,22.1777427 C24.3593722,23.6307068 23.023373,24.5726642 22.650125,24.8185504 C22.4271119,25.0327262 22.1526342,25.2016755 21.8641208,25.3794622 C21.0890333,25.856679 20.573348,26.2278476 20.4584625,27.0060542 C20.4127162,27.3179606 20.4054384,27.5430531 20.4506648,27.7541098 C20.5047286,28.0051944 20.6393682,28.2422433 20.8706988,28.5749435 C20.969989,28.7179006 21.0817555,28.873334 21.2205538,29.0635969 C21.2995701,29.1722443 21.3785864,29.263217 21.4576027,29.3495111 C21.7570329,29.6749335 22.0710187,29.8568789 22.5092472,29.9639668 L23.1569729,30.1214796 L23.1746476,30.7879196 C23.1751674,30.8149515 23.1814056,30.8456223 23.193362,30.8814916 C23.6960512,32.3848805 25.3408377,34.7491313 28.0528641,36.5888593 C28.2197341,36.7021853 28.3949215,36.8113526 28.570109,36.9205198 C28.9319204,37.1456123 29.3056883,37.3629071 29.7018095,37.5656463 C30.0553034,37.746552 30.4243927,37.9155013 30.8054384,38.0735339 C31.3746676,38.3105828 31.9704089,38.523199 32.5994202,38.6989063 C32.8983305,38.7820814 33.2175147,38.8584985 33.5522943,38.9286774 C38.4643007,39.9522503 46.9268419,39.4849105 49.5686894,36.7889993 C49.896711,36.4542197 50.4472258,35.6936879 50.1836649,35.2107528" id="Fill-10" fill="#A478F9"></path>
                        <g id="Group-14" transform="translate(5.276836, 6.393714)">
                            <mask id="mask-4" fill="white">
                                <use xlink:href="#path-3"></use>
                            </mask>
                            <g id="Clip-13"></g>
                            <path d="M15.6038443,24.739798 C15.8154208,24.8791162 16.0368744,25.003359 16.2812011,25.0974507 C16.7578981,26.4719184 18.0242382,28.4343297 20.0193996,30.2225932 C18.8559886,30.0115365 18.2722038,29.8384284 17.4342152,29.3362591 C16.2708042,28.6381085 14.8776221,27.7881635 15.6038443,24.739798 M29.8886388,12.7121663 C29.8449719,12.5723283 29.781551,12.4345696 29.6921378,12.3061681 C29.304854,11.7494151 28.6306162,11.5742277 28.1861496,11.9142057 C27.9854898,12.0675597 27.8706043,12.3014895 27.8357747,12.5614115 C27.6943771,12.3779066 27.5727336,12.2115565 27.4739632,12.0722383 C27.4521298,12.0410477 27.4339353,12.0145356 27.4141812,11.9859442 C27.4136613,11.9791862 27.4141812,11.9724282 27.4136613,11.9651504 C27.3897485,11.546676 27.5316659,11.1515945 27.8404533,10.9155853 C28.3675752,10.5121863 29.1676151,10.7201239 29.6266374,11.3803259 C29.91827,11.7993202 30.0009252,12.2988903 29.8886388,12.7121663 M13.2827406,11.1271618 C14.0406732,10.5470159 15.1910881,10.846446 15.85129,11.7951614 C16.2708042,12.3981805 16.3893286,13.116605 16.228177,13.7107867 C16.1652758,13.5096071 16.0737833,13.3115465 15.9453818,13.1270019 C15.3886288,12.3269619 14.4191197,12.0743177 13.7797115,12.5634909 C13.331606,12.9060682 13.1720138,13.5220833 13.3035344,14.1354993 C13.2354348,14.0590822 13.1668154,13.983185 13.1059936,13.8958512 C12.4452719,12.946616 12.5242881,11.7073078 13.2827406,11.1271618 M6.16763514,21.0213536 C5.26830494,19.5538338 5.66026735,16.8911926 5.70757316,16.5922823 C5.75799803,16.2751774 6.06106711,16.0604818 6.37297354,16.1093472 C6.68955857,16.1602919 6.90633353,16.4576427 6.8564285,16.7747475 C6.77325346,17.29979 6.66148699,18.5749675 6.85902772,19.5704688 L7.05968753,19.3277017 C7.20004542,19.156673 7.42461805,19.0792162 7.64035333,19.1306808 C7.85556876,19.1805858 8.02451808,19.3484954 8.07494295,19.563191 C8.23505492,20.2421073 8.84067323,22.1691692 9.70465404,22.9234629 C9.94586167,23.1350395 9.97081419,23.5020494 9.75923766,23.7442967 C9.64435213,23.8752974 9.48320047,23.9428771 9.32152897,23.9428771 C9.18584968,23.9428771 9.04913069,23.8955713 8.93892376,23.7988803 C8.13472502,23.0955313 7.57953157,21.8213936 7.26346639,20.9049085 L7.11063224,21.0894531 C6.99158796,21.2339698 6.8091227,21.3067479 6.62197884,21.2973908 C6.43431514,21.2843947 6.26588567,21.1809457 6.16763514,21.0213536 M28.2755628,32.5348595 C27.9407832,32.4652004 27.621599,32.3882635 27.3226886,32.3050884 C26.6936773,32.1293812 26.0979361,31.9167649 25.5287068,31.6802359 C25.1476611,31.5216835 24.7785719,31.3527342 24.4250779,31.1718284 C24.0289567,30.9696091 23.654669,30.7517944 23.2933774,30.526702 C23.1176701,30.4175347 22.9430025,30.3083675 22.7756127,30.1950415 C20.0641062,28.3553134 18.4193196,25.9910627 17.9161106,24.4876737 C17.904674,24.4518044 17.8984359,24.4211336 17.8973962,24.3941017 L17.8802414,23.7276617 L17.2325157,23.5701489 C16.7942871,23.4630611 16.4803013,23.2811156 16.1808712,22.9556933 C16.101335,22.8693992 16.0228386,22.7789463 15.9433024,22.669779 C15.8050239,22.4795161 15.6932575,22.3240827 15.5939672,22.1816455 C15.3626366,21.8484254 15.2274772,21.6113766 15.1739333,21.3602919 C15.1287068,21.1492352 15.1359846,20.9246626 15.1817309,20.6122363 C15.2960966,19.8340298 15.8123017,19.4628611 16.5873892,18.9856443 C16.8759027,18.8078576 17.1503803,18.6389083 17.3733934,18.4252524 C17.7466414,18.1788463 19.0826406,17.2368889 19.9819708,15.7844446 C20.3406632,15.2068979 20.4456717,14.3143257 20.5304063,13.5979806 C20.5537993,13.393162 20.5870693,13.1129661 20.6083829,13.0344696 L20.6416529,12.8743577 C20.7710941,11.7041887 21.6153208,10.9504148 22.9565185,10.806418 C23.7196495,10.7216835 24.5810311,10.8869939 25.7174102,12.5868839 C25.7943471,12.7106068 27.6257577,15.623293 29.9328256,16.6853344 C30.7229885,17.0487054 31.2459516,17.5420374 31.5121118,18.1512946 C31.6233584,18.406538 31.6940572,18.679976 31.7132914,18.9762871 C31.6098425,18.9513346 31.5001554,18.9305408 31.3941072,18.9076677 C30.6533294,18.7475557 29.8428926,18.6420274 28.9737133,18.6420274 C26.9135714,18.6420274 25.1211491,19.2242527 23.4935174,20.4230131 C23.1057137,20.7078876 23.0230585,21.2547635 23.3089727,21.6425672 C23.4794816,21.8738978 23.7440822,21.9971008 24.0118019,21.9971008 C24.1916679,21.9971008 24.3725737,21.9419974 24.5285269,21.8271118 C24.9308862,21.5308007 25.341563,21.2880336 25.7631565,21.0852944 C26.7420228,20.6153554 27.7874292,20.3861041 28.9737133,20.3861041 C29.6905783,20.3861041 30.3798915,20.4692792 31.011502,20.6028791 C31.4434924,20.6938518 31.8468914,20.8087374 32.2123417,20.9386984 C32.7810511,21.1409177 33.2593076,21.3769269 33.601365,21.6134559 C33.6663455,21.6586824 33.7365245,21.689873 33.8077431,21.7153454 C34.0603873,21.9534339 34.3416229,22.2143957 34.6758827,22.5221433 C35.0787618,22.893312 35.4119818,23.1818254 35.724928,23.4339498 C36.4199594,23.9938218 37.0053038,24.3551134 37.9623367,24.9087473 C39.3809911,25.7301009 40.6364145,26.3476757 41.9656557,27.0011196 C42.3929675,27.2111366 42.8343151,27.4284314 43.3026946,27.6628811 C44.5425227,28.2804558 44.8440322,28.7025692 44.9069334,28.8169349 C45.1704943,29.29987 44.6199794,30.0604019 44.291438,30.3951814 C41.6501104,33.0910926 33.1875692,33.5584324 28.2755628,32.5348595 M46.4373542,27.9805058 C46.0807412,27.3281015 45.3092926,26.713126 44.0793416,26.1012696 C43.6109621,25.8663001 43.1664955,25.6479656 42.7355448,25.4363891 C41.3777121,24.7683895 40.2039043,24.1908427 38.8367144,23.3996401 C37.7679151,22.7815455 37.2402734,22.4582025 36.3794116,21.706508 C36.2177401,21.5661501 36.0487908,21.4153954 35.858008,21.2391682 C34.4892587,19.9790663 34.0016449,19.5039288 33.4526896,18.7704288 C33.3559986,17.6220933 32.81796,16.636469 31.9103123,15.8837349 C32.0875792,14.1729281 31.9596975,11.7644906 30.3086728,9.44026789 C31.2605073,7.5662301 30.5649559,4.89059279 30.4667054,4.54229728 C30.371574,4.20439865 30.0934574,3.95019491 29.7477611,3.88469456 C29.4051839,3.82179343 29.0506502,3.95643304 28.8385539,4.23662898 C28.5770723,4.58284512 27.8924377,5.3355793 27.074723,5.86634007 C26.9931075,5.81903426 26.8990157,5.78628409 26.8122018,5.74469656 C26.3069134,4.15397378 25.0592876,2.66202137 24.7338653,2.29553131 C24.4801814,2.00909724 24.0767824,1.90980703 23.7175702,2.04392679 C23.3599175,2.17804656 23.121309,2.52010394 23.11819,2.90270916 C23.1150709,3.34561629 23.0308562,4.00633807 22.8520298,4.58804356 C22.8197995,4.57868637 22.7865295,4.57244824 22.7542991,4.56309104 C22.2126216,2.59548133 20.7165105,0.648145528 20.4945371,0.368469431 C20.2528096,0.0622812872 19.8442122,-0.0583225317 19.4772023,0.0669598836 C19.1075932,0.190162923 18.8554688,0.53274015 18.8466314,0.922103341 C18.8336353,1.48821351 18.7192697,2.34751572 18.4749429,3.0695791 C17.2262775,1.5152454 15.2856997,0.302969081 15.0086228,0.13453961 C14.654609,-0.0801559817 14.2028646,-0.0344097055 13.9008352,0.246825924 C13.5972463,0.527541709 13.5177101,0.975647277 13.704854,1.34369686 C13.8899185,1.7075877 14.1087728,2.22015393 14.2901984,2.75195439 C13.591528,2.28461459 12.8694646,2.07719681 12.7301464,2.04028789 C12.4535894,1.96802956 12.1593576,2.05640305 11.968055,2.27005895 C11.7772723,2.48267517 11.7216489,2.78574425 11.8245781,3.05294409 C11.9389437,3.35133457 12.1629965,4.10978704 12.1853498,4.84380683 C12.1598775,4.86979903 12.1354448,4.89631108 12.1125717,4.92542234 C11.4518499,3.26088171 9.34388227,2.28461459 9.06992446,2.16349092 C8.80480399,2.04704586 8.49393725,2.09071276 8.271444,2.27733677 C8.04791106,2.46396078 7.95018038,2.76183142 8.01827995,3.04410674 C8.11133203,3.43243024 8.25636852,4.40401877 8.13056626,5.29607115 C6.78469003,4.70240925 4.98395025,4.7809057 4.72870682,4.79702087 C4.41628055,4.81521541 4.14804102,5.02159349 4.04875081,5.3179046 C3.94946059,5.61473555 4.0404333,5.94171746 4.27852188,6.14393679 C4.51557076,6.34615612 5.08999843,6.92318302 5.38786907,7.51476554 C4.99694635,7.69151252 4.64605162,7.89113263 4.38716928,8.12038386 C4.18339042,8.30128958 4.0757827,8.56641005 4.09605662,8.83828849 C4.11165194,9.04570626 4.20158496,9.23804856 4.34454207,9.38360489 C3.33188587,10.0188543 1.99484698,11.1318404 1.45992745,12.8067779 C1.32112909,13.2418874 1.54414219,13.7024692 1.95949758,13.8740178 C0.946321536,15.1777866 -0.312740745,17.5441167 0.0703843173,19.513286 C0.115090905,19.7435769 0.250770202,19.9457962 0.445711719,20.0747176 C0.642212769,20.2036389 0.88134103,20.2493852 1.10955257,20.1994801 C1.154779,20.1896031 1.20416418,20.1807657 1.25614859,20.1729681 C1.12982648,21.1825052 1.10123506,22.7202039 1.83421517,23.8149955 C1.97821197,24.0302109 2.21006241,24.170049 2.46790506,24.1970808 C2.63529484,24.2157952 2.80632354,24.1835649 2.95499893,24.1071478 C3.23779409,25.2456063 3.78674941,26.7120863 4.81967953,27.5079676 C4.97355337,27.6275317 5.16069722,27.689913 5.35251968,27.689913 C5.40762315,27.689913 5.4637663,27.6852344 5.5204293,27.6737978 C5.76631554,27.6254523 5.97997144,27.4736579 6.10629354,27.2563631 C6.11980949,27.2329701 6.13540481,27.2074977 6.1494406,27.1830651 C7.4771223,28.1790862 10.3528996,29.8685794 14.6156207,29.8685794 C14.7897685,29.8685794 14.9670353,29.8659802 15.144822,29.8602619 C15.1489807,29.8602619 15.1526196,29.8592222 15.1567784,29.8587024 C15.6267174,30.2839348 16.1283669,30.586484 16.5364445,30.8318504 C17.8776421,31.636569 18.7868494,31.7888833 20.7794116,32.123143 L21.2441522,32.2016395 C21.6922578,32.2775367 22.1408832,32.3134059 22.5801514,32.3134059 C22.681521,32.3134059 22.7823707,32.3102869 22.8827006,32.3061281 C23.8932774,32.8930321 25.0161406,33.3988403 26.2403733,33.7913226 C26.4441522,33.8568229 26.6437723,33.926482 26.8537893,33.9852244 C28.6919578,34.4977906 31.1539393,34.7826652 33.7172902,34.7826652 C38.3698945,34.7826652 43.3551989,33.8427871 45.5375042,31.6162951 C46.4337153,30.7018894 47.1407032,29.2666 46.4373542,27.9805058" id="Fill-12" fill="#3B1D56" mask="url(#mask-4)"></path>
                        </g>
                        <path d="M41.4023033,33.2922683 C40.6859582,33.5922183 40.2430511,34.1650865 40.4130401,34.5721244 C40.5835489,34.9786424 41.3024933,35.0649365 42.0188383,34.7644667 C42.7357033,34.4645166 43.1786104,33.8916485 43.0081016,33.4851305 C42.8381126,33.0786124 42.1191682,32.9923183 41.4023033,33.2922683" id="Fill-15" fill="#3B1D56"></path>
                        <path d="M38.590051,34.0283675 C38.2708667,33.8594182 37.8581106,33.7263381 37.3912906,33.666556 C36.3157333,33.5293172 35.3919704,33.8204299 35.3290693,34.3168809 C35.2656483,34.813332 36.0859622,35.3274578 37.1620394,35.4646966 C37.2472938,35.4756133 37.329949,35.4792522 37.4136439,35.4849705 C38.3769149,35.549951 39.1660382,35.2713146 39.2242607,34.8143717 C39.26013,34.5331361 39.0064461,34.2493012 38.590051,34.0283675" id="Fill-17" fill="#3B1D56"></path>
                        <path d="M19.866568,14.8307868 C17.7310487,14.8307868 15.9937299,16.6616775 15.9937299,18.9131221 C15.9937299,21.1640468 17.7310487,22.9949375 19.866568,22.9949375 C22.0020874,22.9949375 23.7394062,21.1640468 23.7394062,18.9131221 C23.7394062,16.6616775 22.0020874,14.8307868 19.866568,14.8307868 M19.866568,24.0346256 C17.1576607,24.0346256 14.9540418,21.7369149 14.9540418,18.9131221 C14.9540418,16.0888094 17.1576607,13.7910987 19.866568,13.7910987 C22.5754754,13.7910987 24.7790943,16.0888094 24.7790943,18.9131221 C24.7790943,21.7369149 22.5754754,24.0346256 19.866568,24.0346256" id="Fill-19" fill="#FBD888"></path>
                        <path d="M34.5054804,20.4305988 C35.563363,19.9809337 36.2953034,18.780094 36.2953034,17.7897911 C36.2953034,16.2718464 35.136571,15.036697 33.7116785,15.036697 C32.4042707,15.036697 31.5605638,15.8684475 31.2351415,16.580114 C31.1155773,16.8415955 30.80679,16.9554414 30.5463481,16.8369169 C30.2848665,16.7178726 30.169981,16.4090853 30.2895451,16.1481236 C30.8868459,14.8412356 32.230123,13.9970089 33.7116785,13.9970089 C35.7094392,13.9970089 37.3349915,15.6984585 37.3349915,17.7897911 C37.3349915,19.1424253 36.6389203,20.4025272 35.5181366,21.0783245" id="Fill-21" fill="#FBD888"></path>
                        <path d="M8.51384985,25.1006178 C8.28771768,25.1006178 8.08445866,24.9342677 8.03455363,24.6904609 C7.49183645,22.0283395 9.13870239,20.896639 10.0858582,20.669987 L15.2453104,19.1291692 C15.5047126,19.0511926 15.7771109,19.2123443 15.8504089,19.4889013 C15.9237069,19.7649385 15.7719124,20.0524123 15.5109507,20.129869 L10.326546,21.6774448 C10.1222473,21.729949 8.53152454,22.2035269 8.99418574,24.4710867 C9.05136859,24.7518025 8.88293912,25.0283595 8.61781865,25.0891812 C8.5829891,25.0969789 8.54815955,25.1006178 8.51384985,25.1006178" id="Fill-23" fill="#FBD888"></path>
                        <path d="M24.3289093,17.1924383 L23.6104849,16.4407438 C24.9308887,15.1796021 28.1648385,13.4064141 30.9548415,15.7202399 L30.3429851,16.6715545 C29.2003679,15.5991163 27.790031,15.3735039 26.2985984,15.9650865 C25.1393462,16.4251485 24.336707,17.1846406 24.3289093,17.1924383" id="Fill-25" fill="#FBD888"></path>
                    </g>
                    <g id="Group-11" transform="translate(52.957191, 9.871569)">
                        <g id="Group-3">
                            <mask id="mask-6" fill="white">
                                <use xlink:href="#path-5"></use>
                            </mask>
                            <g id="Clip-2"></g>
                            <path d="M17.9368687,2.22621561 C17.8673259,2.16784937 17.7853648,2.12190149 17.7120966,2.06788167 C17.663665,1.95363288 17.5972269,1.84497233 17.5065729,1.75059289 C16.6552952,0.86268104 15.2911397,-0.161211718 13.6345321,0.0213379914 C13.3513938,0.0523838603 13.0912294,0.200162197 12.9173726,0.424934288 C12.8807384,0.472744926 12.8478298,0.523039234 12.8192676,0.575817211 C11.9549506,0.462189331 10.6733772,0.397613923 9.64451707,0.77513169 C9.30797985,0.898694248 9.05775014,1.18493716 8.98075639,1.53575548 C8.95591969,1.6543507 8.95095235,1.77356684 8.96585437,1.8902993 C8.07483793,2.34729449 7.20990002,3.14082691 6.96650041,4.40501469 C6.87025822,4.90609501 7.1484292,5.39103149 7.60480348,5.57420212 C7.59983614,5.89956282 7.623431,6.23299545 7.68365998,6.57822552 C7.77741851,7.25440454 7.9699029,7.87408009 8.26111315,8.43725215 C8.55170248,9.00042421 8.88513511,9.53130857 9.26141104,10.0292843 C9.63644514,10.5266391 10.035695,11.0103338 10.4585398,11.4797473 C10.8807636,11.9485399 11.2936736,12.413607 11.6978908,12.8737068 C12.1014871,13.3344275 12.4622401,13.8125339 12.7820126,14.3105096 C13.1011641,14.8078645 13.3458056,15.3381279 13.5140742,15.9013 C13.6084536,16.3340794 13.6550224,16.7283619 13.6550224,17.0853894 C13.6742709,17.6113064 13.5798914,18.0894128 13.3731259,18.5215713 C13.1663604,18.9531089 12.8708038,19.3200711 12.4864559,19.6199742 C12.1014871,19.9198772 11.6500802,20.1552049 11.1340979,20.3240945 C10.6174946,20.492984 10.058669,20.5774288 9.45824185,20.5774288 C8.72618026,20.5774288 8.00777886,20.4743565 7.30303763,20.267591 C6.59891732,20.0608255 5.9693071,19.7752035 5.41606971,19.4082413 C4.86159049,19.042521 4.39776521,18.6196763 4.02148928,18.140949 C3.64645518,17.6616007 3.42044126,17.1512067 3.34531025,16.6060412 C3.28942769,16.1738827 3.34158475,15.7988486 3.5005396,15.4790762 C3.65949445,15.1605455 3.88550837,14.8879628 4.17671862,14.6619489 C4.46730796,14.4371768 4.81067527,14.2583526 5.2049578,14.1267181 C5.59924034,13.9957045 6.00283664,13.901946 6.41636761,13.8448216 C6.84790519,13.7709324 7.22293929,13.6678602 7.54271174,13.5356048 C7.86186327,13.4039703 7.99349776,13.150636 7.93761519,12.774981 C7.86186327,12.3428225 7.6414376,12.0056643 7.27509635,11.7610229 C6.90875509,11.5170024 6.50950522,11.3487337 6.07796764,11.2543543 C5.81531959,11.2170993 5.5477042,11.1935044 5.27512147,11.1835697 C5.00253874,11.174256 4.76348555,11.1885371 4.55734098,11.2257921 C3.78740343,11.3009231 3.10128972,11.5219697 2.50148354,11.88769 C1.89919368,12.2540313 1.40245977,12.7048173 1.00817724,13.2400481 C0.613894702,13.7752789 0.331998212,14.3670131 0.163108684,15.01463 C-0.00640176014,15.6622468 -0.0436568029,16.3055172 0.0507226388,16.9444412 C0.163108684,17.7330062 0.459286274,18.4886627 0.937392657,19.2114105 C1.41674087,19.9341583 2.04510926,20.5774288 2.82436057,21.1412217 C3.6042328,21.7037729 4.5293997,22.1545589 5.59924034,22.4929589 C6.6697019,22.8307379 7.87117703,23.0002484 9.20428665,23.0002484 C10.9136722,23.0002484 12.3777954,22.7885155 13.5991399,22.3662917 C14.8192425,21.9440679 15.800292,21.3802749 16.5422882,20.6761546 C17.2842845,19.9714134 17.7959204,19.154907 18.0778169,18.2253937 C18.3597134,17.2958804 18.4242888,16.3241447 18.2746477,15.3101866 C18.1243857,14.4471115 17.678567,13.5405721 16.9365708,12.5924313 C16.1945745,11.6436695 15.2042113,10.5036652 13.9648602,9.16993466 C13.0446606,8.13672814 12.3827627,7.32022179 11.9797873,6.71917376 C11.5749492,6.11812574 11.335896,5.59220872 11.260765,5.14204362 C11.22351,4.87939557 11.260765,4.63910054 11.373772,4.42364221 C11.486158,4.20756296 11.6463547,4.02004591 11.8524993,3.85984923 C12.0586438,3.70089438 12.3026644,3.57795274 12.5845609,3.49412889 C12.8664573,3.40968413 13.1570467,3.36746175 13.4581916,3.36746175 C14.1716257,3.36746175 14.7018891,3.49412889 15.0496029,3.74746318 C15.3973166,4.00079748 15.6078076,4.25909911 15.6829386,4.52174716 C15.5326766,4.78501613 15.3780681,4.99674895 15.2184924,5.15632472 C15.0589166,5.31527957 14.913001,5.45622781 14.7819875,5.57854854 C14.650353,5.70024834 14.5323787,5.81325531 14.4299273,5.91632759 C14.326855,6.01939988 14.2560704,6.1274395 14.2181945,6.24044646 C14.236822,6.42796351 14.3541754,6.6204479 14.5708756,6.81727871 C14.7863339,7.01473044 15.0396682,7.1885873 15.3314993,7.33947022 C15.6220887,7.48911131 15.9232336,7.61577846 16.2324505,7.71947166 C16.5422882,7.82254395 16.7906552,7.87408009 16.9794141,7.87408009 C17.2228137,7.87408009 17.5003638,7.79460266 17.8102015,7.63440598 C18.1194184,7.47483021 18.3969684,7.25005812 18.640989,6.95822695 C18.8843886,6.66763762 19.0731475,6.31557747 19.204161,5.90204649 C19.3357955,5.48975735 19.3637368,5.02965757 19.2886058,4.52174716 C19.1383438,3.62079604 18.6881787,2.85582583 17.9368687,2.22621561" id="Fill-1" fill="#FFFFFF" mask="url(#mask-6)"></path>
                        </g>
                        <path d="M58.8493011,13.8034064 C58.6903462,14.5075267 58.5351169,15.2253072 58.3848549,15.9579897 C58.2910963,16.2957688 58.2016842,16.6198877 58.1172395,16.9303463 C58.0321738,17.2395632 57.9197878,17.5121459 57.7788395,17.7468527 C57.6378913,17.9821804 57.4503742,18.1696974 57.2156674,18.3106457 C56.9803398,18.4503521 56.6661556,18.5310713 56.271873,18.5496989 C55.9899765,18.5496989 55.7652044,18.4789143 55.595694,18.337966 C55.4274254,18.1970178 55.3144184,17.9393371 55.2585359,17.5636821 C55.2014115,17.1128961 55.2535685,16.5683515 55.4131443,15.9300484 C55.5727201,15.2923663 55.8074268,14.6621352 56.1166437,14.0424596 C56.4271024,13.423405 56.8027574,12.8782395 57.2436087,12.408826 C57.685081,11.9394124 58.1588409,11.6488231 58.6667514,11.5364371 C59.0045304,11.4985611 59.2199887,11.5451299 59.3143682,11.6767644 C59.1634853,12.3908194 59.0082559,13.0992861 58.8493011,13.8034064 M44.6389859,13.6624582 C44.7892479,13.2216068 44.9724186,12.8366381 45.1884978,12.5069309 C45.4039561,12.1790866 45.6392838,11.9214058 45.8926181,11.732647 C46.1459524,11.5451299 46.4036331,11.4513714 46.6669021,11.4513714 C46.9295501,11.4513714 47.1220345,11.5258815 47.2443553,11.6767644 C47.3660551,11.8270264 47.4461534,12.0145434 47.4840294,12.2399365 C47.5405328,12.5783364 47.4877549,12.9297757 47.3288,13.2967378 C47.1698452,13.6624582 46.9438312,13.9859561 46.652621,14.2678526 C46.3620317,14.5491282 46.0143179,14.7701748 45.6107216,14.9297505 C45.2065044,15.0893263 44.7892479,15.1414834 44.3570894,15.084359 C44.3949654,14.5776904 44.4887239,14.1033095 44.6389859,13.6624582 M109.409361,5.17017118 C109.193282,4.45673711 108.944915,3.83147331 108.663019,3.29624253 C108.381743,2.76101174 108.066317,2.33878793 107.719845,2.02957107 C107.372132,1.71911238 107.01945,1.56450395 106.663665,1.56450395 C106.400396,1.58375239 106.114153,1.6160401 105.804315,1.6626089 C105.493856,1.71041954 105.212581,1.79424338 104.958626,1.91718503 C104.705291,2.03888483 104.503493,2.20777436 104.353852,2.42385361 C104.202969,2.63993286 104.1564,2.91624109 104.212904,3.25464106 C104.23091,3.6489236 104.32529,4.03389237 104.4948,4.40954739 C104.663069,4.7852024 104.850586,5.19811246 105.057352,5.64889848 C105.264117,6.09968449 105.465915,6.61132041 105.663367,7.18442715 C105.860198,7.75691298 106.006113,8.43681751 106.099872,9.22662442 C106.212879,10.4647337 106.212879,11.6668297 106.099872,12.8316707 C105.987486,13.9958908 105.790034,15.0334437 105.508138,15.9437086 C105.226241,16.8552153 104.874802,17.5829305 104.451957,18.1268541 C104.029733,18.6720196 103.564666,18.9439814 103.057377,18.9439814 C102.738225,18.9439814 102.428387,18.8030332 102.127863,18.5211367 C101.827339,18.2398611 101.639822,17.9393371 101.564691,17.6201855 C101.433057,16.775117 101.438024,15.9772382 101.578972,15.2253072 C101.719921,14.475239 101.94966,13.8083738 102.268812,13.2259533 C102.587963,12.6441537 102.982246,12.160459 103.451659,11.7754903 C103.921073,11.3905215 104.419048,11.1229061 104.944965,10.9726441 C105.264117,10.860258 105.385817,10.6056819 105.310686,10.2113994 C105.273431,9.96799977 105.151731,9.78482914 104.944965,9.66250842 C104.7382,9.54080861 104.484866,9.47995871 104.184342,9.47995871 C103.302018,9.47995871 102.447636,9.66250842 101.621195,10.0288497 C100.794754,10.3951909 100.075731,10.9440819 99.4666114,11.6767644 C98.8556287,12.408826 98.4147774,13.3290255 98.1421947,14.4367421 C97.9571613,15.1917777 97.8963114,16.0405717 97.9416384,16.9688432 C97.6193822,17.3264916 97.2996098,17.6630288 96.9879093,17.9579646 C96.4706851,18.4460057 96.0155526,18.6906471 95.6212701,18.6906471 C95.2269876,18.6906471 95.0301568,18.5590126 95.0301568,18.2963646 C95.0674118,18.0703506 95.1046669,17.8455786 95.1431637,17.6201855 C95.1804188,17.3941716 95.2182947,17.1793342 95.2555498,16.9719478 C95.3865633,16.3342657 95.5275116,15.7704727 95.6783945,15.2818107 C95.8280356,14.7937696 95.9739512,14.3529183 96.1148994,13.9586358 C96.2558477,13.5643532 96.3825148,13.2073257 96.4949009,12.8881742 C96.6072869,12.5690227 96.7010454,12.2498711 96.7767974,11.9307196 L96.7767974,11.634542 C96.7767974,11.5308488 96.7575489,11.4134954 96.7202939,11.2818609 C96.7202939,11.2638543 96.7289867,11.2545406 96.7482352,11.2545406 L96.7202939,11.2545406 C96.794804,11.0670235 96.7861111,10.8316958 96.6917317,10.5497994 C96.5973522,10.3430339 96.4061097,10.1505495 96.1148994,9.97234619 C95.8230683,9.7941429 95.3486874,9.7047308 94.6917568,9.7047308 C94.2788467,9.7047308 93.9174728,9.82705152 93.6076351,10.0704511 C93.2977973,10.3150926 93.0301819,10.6342441 92.8047889,11.0285267 C92.5800168,11.4228092 92.3912579,11.8735952 92.2416168,12.3802638 C92.0913548,12.8881742 91.9646877,13.3904964 91.8609945,13.8878512 C91.7579222,14.385206 91.6778238,14.8645542 91.6219413,15.324654 C91.5654378,15.7847538 91.518869,16.174069 91.480993,16.4932205 C91.3872345,16.6441034 91.3021688,16.7844308 91.2276587,16.9160652 C91.1519068,17.0476997 91.0674621,17.1600858 90.9743244,17.2532234 C90.50429,17.8555132 90.0634386,18.2870508 89.6499077,18.5496989 C89.2369976,18.8129678 88.8706564,18.9439814 88.5515048,18.9439814 C88.2702293,18.9439814 88.0355225,18.8924453 87.8480054,18.7887521 C87.6592466,18.6856798 87.5468605,18.5118229 87.5096055,18.2678024 C87.490357,18.1926714 87.4766968,18.112573 87.4667622,18.0287492 C87.4574484,17.9436835 87.4717295,17.8455786 87.5096055,17.7325716 C87.5468605,17.376165 87.6126778,16.9483529 87.7070572,16.4509981 C87.8001948,15.9542642 87.9175482,15.4227589 88.0584964,14.8595869 C88.1994447,14.2957939 88.3583995,13.7139943 88.5378446,13.1129463 C88.715427,12.5125192 88.9079114,11.9114712 89.1146769,11.3104231 C89.3021939,11.2917956 89.504613,11.2818609 89.7206923,11.2818609 C89.9367715,11.2818609 90.1385697,11.2725472 90.3260867,11.2545406 C90.5893557,11.2352921 90.8700103,11.1887233 91.1711553,11.1135923 C91.4710583,11.0384613 91.7386737,10.9260753 91.9740014,10.7751924 C92.2087082,10.6249304 92.3962252,10.4231322 92.5371735,10.1697979 C92.6781217,9.91646362 92.720965,9.60227943 92.6638406,9.22662442 C92.5887096,9.07636241 92.4620425,8.90188463 92.2838392,8.7044329 C92.1056359,8.50760209 91.9131515,8.40949714 91.706386,8.40949714 L90.3260867,8.40949714 C90.5328522,7.97795957 90.7396177,7.60168363 90.9457622,7.2825321 C91.1519068,6.96338057 91.3493585,6.66347747 91.5368756,6.38158098 C91.706386,6.23131898 91.8094583,6.09037073 91.8473343,5.95873625 C91.8845893,5.82710176 91.8845893,5.68615352 91.8473343,5.53651243 C91.7914517,5.1602365 91.5747515,4.8174901 91.1997175,4.50765233 C90.8234415,4.19843548 90.4198452,3.96807513 89.9883076,3.81843404 C89.6499077,3.68679956 89.2841873,3.62098231 88.8899048,3.62098231 C88.1758498,3.77186524 87.5468605,4.30150776 87.002316,5.21177264 C86.4571505,6.12327935 85.9883579,7.2074011 85.5940754,8.46537971 C84.8620138,8.46537971 84.2845606,8.53616429 83.8617159,8.67711253 C83.4388711,8.81806078 83.2749489,9.17943469 83.3693284,9.76123428 C83.4065834,10.0810067 83.5705056,10.3380665 83.8617159,10.5361392 C84.1529261,10.7323491 84.5043654,10.8875784 84.9178963,11.0012063 C84.7496277,11.732647 84.5987448,12.4566366 84.4677312,13.1688289 C84.3360967,13.8835048 84.2274362,14.5547164 84.1436124,15.1837058 C84.1044946,15.4736742 84.0691023,15.7512242 84.0361936,16.0213233 C83.4413548,16.8781893 82.8800455,17.5736167 82.3547494,18.0989128 C81.8102048,18.6440783 81.3407913,18.9154192 80.9465088,18.9154192 C80.7397433,18.9154192 80.5944486,18.8831315 80.5100038,18.8173143 C80.4255591,18.751497 80.3640883,18.6440783 80.3268332,18.4931954 C80.2517022,17.9859059 80.3268332,17.4084527 80.5522262,16.7608359 C80.7776192,16.1132191 81.0259862,15.4513211 81.2985689,14.7751421 C81.5711517,14.099584 81.7872309,13.4376861 81.9461857,12.7888274 C82.1063824,12.1412106 82.0827876,11.5451299 81.8760221,11.0012063 C81.7251392,10.5876753 81.4674584,10.25921 81.1017381,10.0151895 C80.7347759,9.77054804 80.2709507,9.64822732 79.7071577,9.64822732 C79.1247372,9.64822732 78.5243101,9.82705152 77.9040136,10.184079 C77.284959,10.5411065 76.6553488,11.0098991 76.0170457,11.5916987 C76.0170457,11.0098991 75.8152475,10.5411065 75.4122722,10.184079 C75.007434,9.82705152 74.4492293,9.64822732 73.7357952,9.64822732 C73.1161197,9.64822732 72.4119994,9.87920858 71.6234343,10.3380665 C70.8348692,10.7994081 70.1208143,11.4134954 69.4831321,12.1840539 C69.5197662,11.9021574 69.5855835,11.6537905 69.6799629,11.4370903 C69.7737214,11.221632 69.8631335,11.0285267 69.9469574,10.860258 C70.0314022,10.6907476 70.1065332,10.5411065 70.1723504,10.409472 C70.2381676,10.2784585 70.2617625,10.1555168 70.243135,10.0431308 C70.2046381,9.83636528 70.0742455,9.66250842 69.8488524,9.52156017 C69.6228385,9.38061193 69.3601905,9.27319322 69.0602874,9.19806222 C68.8162668,9.12293121 68.5666581,9.07139507 68.3133238,9.04283287 C68.0599895,9.01489159 67.83025,9.00061049 67.6234846,9.00061049 C67.304333,9.01985893 66.9895279,9.23034992 66.6796901,9.63456713 C66.3698524,10.0381634 66.0885768,10.5497994 65.8346216,11.1694749 C65.5812873,11.7897714 65.365208,12.4889243 65.1870048,13.2681756 C65.0081806,14.0474269 64.8815134,14.8217109 64.8070033,15.5922694 C64.7691274,15.948676 64.7318723,16.3379912 64.6939964,16.7608359 C64.6896499,16.8142348 64.6896499,16.8707383 64.6853035,16.9241372 C64.245694,17.4320476 63.8290585,17.8635852 63.4403642,18.2112989 C62.9995128,18.6055814 62.5717008,18.8030332 62.1594116,18.8030332 C61.7651291,18.8030332 61.5583636,18.6440783 61.5391152,18.3236849 C61.6142462,17.7611338 61.7266322,17.188648 61.8775151,16.6056066 C62.3661771,14.6155664 62.7176163,13.1235019 62.9336956,12.1269295 C63.1497748,11.1315989 63.2671282,10.5125443 63.2863767,10.2685238 C63.2106247,10.0431308 63.0696765,9.83636528 62.8635319,9.64822732 C62.6567664,9.46133119 62.4220597,9.3011345 62.1594116,9.16950002 C61.8961427,9.03910737 61.6142462,8.93541416 61.3143431,8.85966224 C61.0131981,8.78515216 60.7412363,8.7472762 60.4972158,8.7472762 C60.3469538,8.7472762 60.187378,8.78515216 60.0184885,8.85966224 C59.849599,8.93541416 59.7465267,9.02855177 59.7086507,9.14155873 L59.4553164,9.90218252 C59.3044335,9.84567904 59.1405113,9.7941429 58.9616871,9.7475741 C58.7834838,9.70038438 58.5909994,9.67678952 58.3848549,9.67678952 C57.5397863,9.67678952 56.6618091,9.95433958 55.7509233,10.507577 C54.8400376,11.0620562 54.0191848,11.7711438 53.2858814,12.634219 C52.5544407,13.498536 51.980713,14.4510232 51.5684239,15.4929226 C51.4119527,15.8878261 51.3088804,16.2771413 51.2331285,16.66211 C50.778617,17.1538766 50.2874713,17.5990744 49.7509987,17.9859059 C48.8407338,18.6440783 47.8224293,18.9905502 46.6954643,19.0278052 C45.9068992,18.9725436 45.35242,18.7421833 45.0332685,18.337966 C44.7141169,17.9343697 44.5265999,17.4134201 44.4694755,16.775117 C45.3331716,16.775117 46.1552662,16.6441034 46.9345175,16.3808345 C47.7137688,16.1181864 48.3899478,15.7655053 48.9624336,15.324654 C49.5349195,14.8838027 49.9720453,14.3665785 50.2725693,13.7748442 C50.5730933,13.18311 50.6761656,12.5497742 50.5824071,11.8735952 C50.4501517,11.1409127 50.0987124,10.5547667 49.5262266,10.1132944 C48.9531199,9.67244309 48.1316462,9.45139651 47.0611846,9.45139651 C46.3098746,9.45139651 45.6250027,9.53149485 45.0059481,9.6904497 C44.3856516,9.85064638 43.8361398,10.0667256 43.3580334,10.3380665 C42.8786852,10.6106493 42.4651542,10.9260753 42.1180614,11.2818609 C41.7709686,11.6395094 41.4847256,12.0145434 41.2587117,12.408826 C40.8271741,13.160136 40.550245,14.0052046 40.4279243,14.9434107 C40.3540351,15.512792 40.3366494,16.0660293 40.3627279,16.6068484 C40.3043617,16.6813585 40.2466164,16.7540058 40.1888711,16.8309996 C39.7567126,17.4326685 39.2916455,17.9113958 38.7949116,18.2678024 C38.2963149,18.6248299 37.8790584,18.8129678 37.5412794,18.8315954 C37.1277484,18.8315954 36.9209829,18.6906471 36.9209829,18.4087506 C36.8651003,18.1268541 36.9116691,17.7611338 37.0619311,17.3103478 C37.2121932,16.8589408 37.3953638,16.3665534 37.611443,15.8313226 C37.8269014,15.2960918 38.0286995,14.7558937 38.2174584,14.2119701 C38.4049754,13.6674255 38.5173615,13.160136 38.5546165,12.6907225 C38.6297475,11.9772884 38.4937666,11.4613061 38.1466738,11.1409127 C37.7989601,10.8223821 37.3630761,10.5876753 36.8371591,10.4374133 C36.5732692,10.4752893 36.3019283,10.5268254 36.0200318,10.5926427 C35.7381353,10.6584599 35.4382322,10.6907476 35.1190807,10.6907476 C34.8179357,10.6907476 34.4571827,10.6584599 34.034338,10.5926427 C33.6121142,10.5268254 33.3060019,10.3908445 33.1191058,10.184079 C33.2128643,9.86492748 33.320283,9.57806365 33.4426037,9.32472936 C33.5643035,9.07139507 33.7009054,8.84103472 33.8511674,8.63426924 C34.1510705,8.33436614 34.1988811,8.04750231 33.9921156,7.77491958 C33.7853501,7.50357869 33.4711659,7.28749944 33.0483212,7.12730276 C32.6254765,6.96834791 32.1796578,6.86962204 31.7102443,6.83174608 C31.2414516,6.79387012 30.9030517,6.84168076 30.6962862,6.97269433 C30.2076242,7.14158386 29.7953351,7.50730419 29.457556,8.07109717 C29.119156,8.63426924 29.00677,9.3762655 29.119156,10.2964651 C29.1371626,10.4467271 29.1849733,10.6056819 29.2601043,10.7751924 C29.3346144,10.9440819 29.4190591,11.1042786 29.5134386,11.2545406 C29.6071971,11.4041817 29.6966092,11.5364371 29.781054,11.6488231 C29.8661196,11.7612092 29.9356624,11.8270264 29.9927868,11.8456539 C29.7667729,12.7658535 29.4898437,13.6531444 29.1613784,14.5075267 C28.8322922,15.361909 28.4473234,16.1225328 28.0064721,16.7893981 C27.5649998,17.4562634 27.0806843,17.9859059 26.5560091,18.3801884 C26.0300921,18.774471 25.4569853,18.9725436 24.8379307,18.9725436 C24.5939102,18.9725436 24.4008049,18.9253539 24.2604775,18.8315954 C24.1195293,18.7372159 24.0158361,18.6105488 23.9500188,18.4503521 C23.8842016,18.2913972 23.8469466,18.1088475 23.8376328,17.902082 C23.8276981,17.6953166 23.8419792,17.4885511 23.8798552,17.2817856 C23.9736137,16.6807376 24.1095946,16.000833 24.2884188,15.2395883 C24.467243,14.4795854 24.6870478,13.6767393 24.9503167,12.8316707 L25.9642748,12.8316707 C26.5839504,12.8316707 27.0912399,12.6596766 27.4855224,12.3156884 C27.8798049,11.9710792 28.029446,11.4737244 27.9363084,10.8223821 C27.8978115,10.5994727 27.7475495,10.3858772 27.4855224,10.1809744 C27.2216325,9.97669261 26.7248986,9.87424124 25.9922161,9.87424124 C26.1989816,9.34584055 26.4380348,8.85531582 26.7106175,8.40266705 C26.9825793,7.95001828 27.2315672,7.54952657 27.4569602,7.19995009 C27.6829741,6.85161544 27.8655238,6.54053583 28.0064721,6.26671127 C28.1467994,5.9928867 28.2076493,5.76190544 28.1896427,5.57314656 C28.1331392,5.32850511 28.0114394,5.08386366 27.8239224,4.83798038 C27.6351635,4.59271801 27.4010776,4.37601785 27.1191812,4.18663805 C26.8372847,3.99850008 26.5367606,3.84761716 26.2176091,3.73398928 C25.8984576,3.62160323 25.5879989,3.56385792 25.2880958,3.56385792 C25.0813303,3.56385792 24.9118199,3.60235479 24.7814272,3.6774858 C24.4243997,3.84575441 24.0909671,4.10902337 23.7811293,4.46605087 C23.4719125,4.82245744 23.1757349,5.25958328 22.8938384,5.77556562 C22.6125628,6.29216888 22.3536403,6.86962204 22.1195544,7.50730419 C21.8848476,8.14622818 21.6731148,8.81309344 21.4855978,9.50789999 C21.2043222,9.50789999 20.9317395,9.52652751 20.6684705,9.56378255 C20.4058224,9.60227943 20.1810504,9.66747576 19.9922915,9.76123428 C19.8060163,9.85561372 19.6601007,9.99159463 19.5564075,10.1697979 C19.4533352,10.3486221 19.4297403,10.5876753 19.4856229,10.8875784 C19.5607539,11.2818609 19.7159832,11.5736921 19.95069,11.7612092 C20.1860177,11.9487262 20.5095156,12.0896745 20.9224257,12.1840539 C20.8094187,12.747226 20.7106929,13.3147444 20.626869,13.8878512 C20.5418034,14.4609579 20.4666723,15.0104698 20.4008551,15.5357659 C20.3356588,16.0616829 20.2841226,16.5447566 20.2468676,16.985608 C20.2089916,17.4277012 20.1810504,17.8170164 20.1618019,18.1554163 C20.1618019,18.6813334 20.2468676,19.1687535 20.4151362,19.6201604 C20.6591567,20.2392151 21.0068705,20.7185633 21.4576565,21.0563423 C21.9078216,21.3947423 22.4523661,21.5636318 23.0912901,21.5636318 C24.2362618,21.5636318 25.241527,21.3326506 26.1046022,20.8737926 C26.9682982,20.4136928 27.7245756,19.8163703 28.3728133,19.0849296 C29.0204302,18.3522471 29.5842231,17.5351199 30.0623295,16.6341688 C30.5416777,15.7332176 30.9688689,14.8502731 31.3445239,13.9859561 L31.9356373,12.4932707 C32.1045268,12.5497742 32.3156387,12.596964 32.5695939,12.634219 C32.8235491,12.672095 33.0806089,12.7149383 33.3444988,12.7615071 C33.6071468,12.8080759 33.8555138,12.8546447 34.0902206,12.9012135 C34.3255483,12.9490241 34.5180326,13.009874 34.6676737,13.085005 C34.6304187,13.1973911 34.5881963,13.3004633 34.5410066,13.3948428 C34.4944378,13.4892222 34.4429016,13.6016083 34.3863982,13.7326218 C34.2168877,14.1082769 34.0386844,14.535468 33.8511674,15.0148162 C33.6636503,15.4929226 33.4991072,15.9908983 33.358159,16.5075016 C33.2178317,17.0241049 33.1141384,17.5351199 33.0483212,18.0430303 C32.982504,18.5496989 32.9781575,19.0097986 33.0340401,19.4220878 C33.3910676,20.7744458 34.3770844,21.4506249 35.9914696,21.4506249 C36.5732692,21.4506249 37.1935656,21.3053302 37.8511171,21.0147409 C38.5080477,20.7235306 39.1184095,20.3478756 39.6815816,19.8877758 C40.114361,19.5338529 40.4782186,19.1370867 40.805442,18.7173466 C40.8898868,18.9036218 40.9811616,19.0843087 41.0898222,19.2538192 C41.3903462,19.7232327 41.7653803,20.126829 42.2167872,20.465229 C42.6675732,20.803008 43.1885229,21.0613097 43.7802572,21.239513 C44.3713705,21.4177162 45.0059481,21.5071283 45.6815062,21.5071283 C46.6203333,21.5071283 47.5212844,21.351899 48.3856014,21.0420612 C49.2486766,20.7328444 50.0235814,20.3286272 50.7090742,19.8306514 C50.9419182,19.6617619 51.1561347,19.4841795 51.3610375,19.3028716 C51.5820841,19.9815343 51.936007,20.5068304 52.4277735,20.8737926 C53.093397,21.3705265 53.8869294,21.6195144 54.8071289,21.6195144 C55.3516735,21.5822593 55.9434077,21.3947423 56.5823317,21.0563423 C57.2206348,20.7185633 57.7645584,20.1926463 58.2159653,19.4792122 C58.3656064,20.2491497 58.6710978,20.7744458 59.1311976,21.0563423 C59.5912973,21.3376179 60.187378,21.4785661 60.9200605,21.4785661 C61.4639842,21.4785661 62.0743459,21.2910491 62.7511459,20.9153941 C63.4273249,20.54036 64.050726,20.0839857 64.6244536,19.5493758 C64.6586041,19.5170881 64.689029,19.4841795 64.7225586,19.4518918 C64.7840294,19.8002265 64.8821343,20.1137897 65.0317754,20.3801633 C65.2006649,20.6620598 65.4024631,20.8737926 65.6377908,21.0147409 C65.8718766,21.1550682 66.102237,21.2488267 66.32763,21.2953955 C66.553023,21.3419643 66.7548211,21.3612128 66.9330244,21.351899 C67.1112277,21.3419643 67.2378949,21.3376179 67.3142677,21.3376179 C67.3701503,21.3189904 67.4266537,21.3053302 67.4825363,21.2953955 C67.5390398,21.2860818 67.5856086,21.2631078 67.6234846,21.2252319 C67.8675051,21.1320942 68.0177671,20.9346425 68.0742706,20.6334976 C68.1301531,20.3335945 68.1866566,20.051698 68.2431601,19.78905 C68.3369186,19.300388 68.4493047,18.7136211 68.5809392,18.0287492 C68.7125736,17.3432564 68.8913978,16.6763911 69.1161699,16.0281534 C69.3421839,15.3805366 69.6228385,14.798737 69.9612385,14.2821337 C70.2990175,13.7661514 70.7125485,13.423405 71.2005896,13.2538945 C71.3701,13.2166395 71.5383686,13.2023584 71.7078791,13.2116722 C71.8767686,13.2216068 72.0077822,13.2452017 72.1021616,13.2824567 C72.1394167,13.5823598 72.0735994,13.9909235 71.9053308,14.5075267 C71.7358204,15.0235091 71.5476824,15.5966158 71.3415378,16.2256051 C71.1347723,16.8552153 70.9373206,17.5171133 70.7498036,18.2112989 C70.5622865,18.9067264 70.4772208,19.5822845 70.4964693,20.2392151 C70.6467313,20.7651321 70.9565691,21.1084994 71.4259826,21.2680752 C71.8953961,21.42703 72.4020647,21.5071283 72.9472302,21.5071283 C73.3222643,21.5071283 73.6041608,21.4462784 73.7922987,21.3239577 C73.9798158,21.2022579 74.0922018,20.9625838 74.1300778,20.6061772 C74.2052088,20.0423842 74.3082811,19.3804863 74.4399155,18.6198625 C74.5709291,17.8592387 74.7540997,17.1228307 74.9894274,16.4087757 C75.2235133,15.6953417 75.5196909,15.0520713 75.8760974,14.4795854 C76.2331249,13.9064787 76.683911,13.5264773 77.2284555,13.3383393 C77.3780966,13.2824567 77.5240122,13.2309206 77.6649604,13.18311 C77.8059087,13.1365412 77.9226411,13.1688289 78.0170206,13.2824567 C78.1300275,13.5072288 78.1020863,13.8692237 77.9325758,14.3665785 C77.7636863,14.8645542 77.5668555,15.4190334 77.3408415,16.0281534 C77.1160695,16.6391361 76.909304,17.2581907 76.7217869,17.8878009 C76.5342699,18.5174112 76.4771455,19.0756159 76.5522765,19.563036 C76.6646625,20.2212085 77.0030625,20.7092495 77.5668555,21.0277801 C78.1300275,21.3469317 78.8248341,21.5071283 79.6506542,21.5071283 C80.2517022,21.5071283 80.8806915,21.3289251 81.5376221,20.9718976 C82.1951736,20.615491 82.8055354,20.1740187 83.3693284,19.6481017 C83.5611919,19.4686566 83.7282186,19.2842441 83.8995918,19.1004526 C83.9200821,19.1985575 83.9399515,19.2941788 83.9598208,19.3947674 C84.1858347,20.051698 84.5559015,20.577615 85.0731257,20.9718976 C85.589108,21.3661801 86.137999,21.5636318 86.7210404,21.5636318 C87.1333295,21.5636318 87.5611416,21.502161 88.0019929,21.3804612 C88.4434652,21.2581405 88.8756237,21.0892509 89.2978475,20.8737926 C89.7206923,20.6577134 90.1193212,20.4043791 90.4949762,20.1125479 C90.8700103,19.8219586 91.1997175,19.5071535 91.480993,19.1687535 C91.5747515,20.014443 91.8001446,20.6192165 92.1571721,20.9861787 C92.5129577,21.351899 93.1152476,21.5356905 93.9590743,21.5356905 C94.3912328,21.5356905 94.8562999,21.4319973 95.3536547,21.2252319 C95.8516305,21.0184664 96.3402924,20.750851 96.8183988,20.4223857 C97.297747,20.0939204 97.7435657,19.7232327 98.1570967,19.3097017 C98.2123583,19.2544401 98.2552016,19.1979366 98.3073587,19.142675 C98.5010849,19.6412716 98.7780141,20.0771556 99.1567737,20.4366668 C99.7292595,20.9812113 100.428412,21.3289251 101.254853,21.4785661 C101.518122,21.5164421 101.785738,21.539416 102.058321,21.5493507 C102.329661,21.5586645 102.597277,21.5443834 102.861167,21.5071283 C104.005517,21.4127489 104.991534,21.1221596 105.818596,20.6334976 C106.644416,20.1460774 107.329288,19.5307483 107.874454,18.7887521 C108.418998,18.0467558 108.850536,17.2116219 109.170308,16.2821086 C109.48946,15.3519744 109.714232,14.385206 109.845866,13.3805617 C109.97688,12.3765383 110.038351,11.3625802 110.030466,10.3380665 C110.019723,9.3154156 109.967566,8.35299366 109.874429,7.45204255 C109.780049,6.64422903 109.62482,5.88360525 109.409361,5.17017118" id="Fill-4" fill="#FFFFFF"></path>
                        <g id="Group-8" transform="translate(110.622850, 9.451521)">
                            <mask id="mask-8" fill="white">
                                <use xlink:href="#path-7"></use>
                            </mask>
                            <g id="Clip-7"></g>
                            <path d="M4.2928063,4.21106167 C4.44306831,3.77021033 4.62623894,3.38524155 4.84231818,3.05553442 C5.05777651,2.72706913 5.2931042,2.47000934 5.54643849,2.28125045 C5.79977278,2.0937334 6.05745349,1.99935396 6.32072246,1.99935396 C6.58337051,1.99935396 6.7758549,2.07448496 6.89817563,2.22536789 C7.01987543,2.37562989 7.09997377,2.56314694 7.13784973,2.78791903 C7.19435322,3.12631901 7.14219616,3.47837916 6.98262039,3.84534133 C6.82366554,4.21106167 6.59765161,4.53455962 6.30644136,4.81645611 C6.01585203,5.09773168 5.6681383,5.31877827 5.264542,5.47835404 C4.86032479,5.6379298 4.44306831,5.68946595 4.01090981,5.63296247 C4.04878577,5.12629388 4.1425443,4.65191301 4.2928063,4.21106167 M12.7577729,6.25325893 C12.6348313,6.06574188 12.4137847,5.97136244 12.095875,5.97136244 C11.9449921,5.97136244 11.8412989,6.01793124 11.7854163,6.11231068 C11.1098582,7.0703862 10.3163258,7.87757879 9.40481909,8.53450938 C8.49455421,9.19206088 7.47624971,9.5391537 6.34928466,9.57640874 C5.56071959,9.52052618 5.00624037,9.29078675 4.68708884,8.88656953 C4.36793731,8.48297324 4.18042026,7.96202356 4.12329586,7.32372049 C4.98699193,7.32372049 5.80908654,7.19270692 6.58833785,6.92943795 C7.36758917,6.6667899 8.04376819,6.31410883 8.61625401,5.87325749 C9.18936076,5.43240615 9.62586567,4.91518198 9.9270106,4.32344771 C10.2269137,3.73171345 10.329986,3.09837772 10.2362275,2.4221987 C10.104593,1.68951619 9.75253282,1.10337018 9.180047,0.661897926 C8.60694025,0.221046587 7.78546656,0 6.715005,0 C5.96431589,0 5.2788231,0.0800983419 4.65976847,0.239053191 C4.03947201,0.399249875 3.48996013,0.615329123 3.01185375,0.886670018 C2.53250553,1.15925275 2.11897456,1.47467878 1.77188174,1.83046443 C1.42478893,2.18811284 1.13854602,2.56314694 0.912532089,2.95742948 C0.480994511,3.70811859 0.204065359,4.55380806 0.0817446356,5.49201422 C-0.0399551708,6.43146222 -0.025674071,7.33241333 0.123967017,8.19610941 C0.23697398,8.79839927 0.443739468,9.33300913 0.743642562,9.80242267 C1.04416657,10.2718362 1.41982159,10.6754325 1.87060761,11.0138325 C2.32139362,11.3509906 2.8423433,11.6099132 3.43407757,11.7881164 C4.02519091,11.9663197 4.65976847,12.0557318 5.33532658,12.0557318 C6.27415366,12.0557318 7.17510478,11.9005025 8.03942177,11.5906647 C8.90249693,11.2814479 9.67740182,10.8772307 10.3628946,10.3792549 C11.0477665,9.88252101 11.6115595,9.33300913 12.0530317,8.73134019 C12.493883,8.131534 12.7714331,7.53048598 12.8844401,6.92943795 C12.9216951,6.6667899 12.8794727,6.44077598 12.7577729,6.25325893" id="Fill-6" fill="#FFFFFF" mask="url(#mask-8)"></path>
                        </g>
                        <path d="M97.0367755,6.75580789 C98.4394278,6.16842005 99.3062285,5.04704326 98.9727958,4.25102718 C98.6399841,3.4550111 97.2323644,3.28612157 95.8297121,3.87350941 C94.4270597,4.46089725 93.5602591,5.58227404 93.8930708,6.37829012 C94.2265034,7.1743062 95.6341231,7.34319573 97.0367755,6.75580789" id="Fill-9" fill="#FFFFFF"></path>
                    </g>
                </g>
            </g>
        </g>
    </g>
</svg>