<?xml version="1.0" encoding="UTF-8" standalone="no"?>
<!DOCTYPE svg PUBLIC "-//W3C//DTD SVG 1.1//EN" "http://www.w3.org/Graphics/SVG/1.1/DTD/svg11.dtd">
<svg width="100%" height="100%" viewBox="0 0 306 65" version="1.1" xmlns="http://www.w3.org/2000/svg" xmlns:xlink="http://www.w3.org/1999/xlink" xml:space="preserve" xmlns:serif="http://www.serif.com/" style="fill-rule:evenodd;clip-rule:evenodd;stroke-linejoin:round;stroke-miterlimit:2;">
    <g transform="matrix(0.790533,0,0,0.790533,141.202,46.0497)">
        <path d="M0,-29.612C-0.112,-29.706 -0.244,-29.78 -0.362,-29.867C-0.44,-30.051 -0.547,-30.226 -0.693,-30.378C-2.064,-31.808 -4.261,-33.457 -6.929,-33.163C-7.385,-33.113 -7.804,-32.875 -8.084,-32.513C-8.143,-32.436 -8.196,-32.355 -8.242,-32.27C-9.634,-32.453 -11.698,-32.557 -13.355,-31.949C-13.897,-31.75 -14.3,-31.289 -14.424,-30.724C-14.464,-30.533 -14.472,-30.341 -14.448,-30.153C-15.883,-29.417 -17.276,-28.139 -17.668,-26.103C-17.823,-25.296 -17.375,-24.515 -16.64,-24.22C-16.648,-23.696 -16.61,-23.159 -16.513,-22.603C-16.362,-21.514 -16.052,-20.516 -15.583,-19.609C-15.115,-18.702 -14.578,-17.847 -13.972,-17.045C-13.368,-16.244 -12.725,-15.465 -12.044,-14.709C-11.364,-13.954 -10.699,-13.205 -10.048,-12.464C-9.398,-11.722 -8.817,-10.952 -8.302,-10.15C-7.788,-9.349 -7.394,-8.495 -7.123,-7.588C-6.971,-6.891 -6.896,-6.256 -6.896,-5.681C-6.865,-4.834 -7.017,-4.064 -7.35,-3.368C-7.683,-2.673 -8.159,-2.082 -8.778,-1.599C-9.398,-1.116 -10.125,-0.737 -10.956,-0.465C-11.788,-0.193 -12.688,-0.057 -13.655,-0.057C-14.834,-0.057 -15.991,-0.223 -17.126,-0.556C-18.26,-0.889 -19.274,-1.349 -20.165,-1.94C-21.058,-2.529 -21.805,-3.21 -22.411,-3.981C-23.015,-4.753 -23.379,-5.575 -23.5,-6.453C-23.59,-7.149 -23.506,-7.753 -23.25,-8.268C-22.994,-8.781 -22.63,-9.22 -22.161,-9.584C-21.693,-9.946 -21.14,-10.234 -20.505,-10.446C-19.87,-10.657 -19.22,-10.808 -18.554,-10.9C-17.859,-11.019 -17.255,-11.185 -16.74,-11.398C-16.226,-11.61 -16.014,-12.018 -16.104,-12.623C-16.226,-13.319 -16.581,-13.862 -17.171,-14.256C-17.761,-14.649 -18.404,-14.92 -19.099,-15.072C-19.522,-15.132 -19.953,-15.17 -20.392,-15.186C-20.831,-15.201 -21.216,-15.178 -21.548,-15.118C-22.788,-14.997 -23.893,-14.641 -24.859,-14.052C-25.829,-13.462 -26.629,-12.736 -27.264,-11.874C-27.899,-11.012 -28.353,-10.059 -28.625,-9.016C-28.898,-7.973 -28.958,-6.937 -28.806,-5.908C-28.625,-4.638 -28.148,-3.421 -27.378,-2.257C-26.606,-1.093 -25.594,-0.057 -24.339,0.851C-23.083,1.757 -21.593,2.483 -19.87,3.028C-18.146,3.572 -16.211,3.845 -14.064,3.845C-11.311,3.845 -8.953,3.504 -6.986,2.824C-5.021,2.144 -3.441,1.236 -2.246,0.102C-1.051,-1.033 -0.227,-2.348 0.227,-3.845C0.681,-5.342 0.785,-6.907 0.544,-8.54C0.302,-9.93 -0.416,-11.39 -1.611,-12.917C-2.806,-14.445 -4.401,-16.281 -6.397,-18.429C-7.879,-20.093 -8.945,-21.408 -9.594,-22.376C-10.246,-23.344 -10.631,-24.191 -10.752,-24.916C-10.812,-25.339 -10.752,-25.726 -10.57,-26.073C-10.389,-26.421 -10.131,-26.723 -9.799,-26.981C-9.467,-27.237 -9.074,-27.435 -8.62,-27.57C-8.166,-27.706 -7.698,-27.774 -7.213,-27.774C-6.064,-27.774 -5.21,-27.57 -4.65,-27.162C-4.09,-26.754 -3.751,-26.338 -3.63,-25.915C-3.872,-25.491 -4.121,-25.15 -4.378,-24.893C-4.635,-24.637 -4.87,-24.41 -5.081,-24.213C-5.293,-24.017 -5.483,-23.835 -5.648,-23.669C-5.814,-23.503 -5.928,-23.329 -5.989,-23.147C-5.959,-22.845 -5.77,-22.535 -5.421,-22.218C-5.074,-21.9 -4.666,-21.62 -4.196,-21.377C-3.728,-21.136 -3.243,-20.932 -2.745,-20.765C-2.246,-20.599 -1.846,-20.516 -1.542,-20.516C-1.15,-20.516 -0.703,-20.644 -0.204,-20.902C0.294,-21.159 0.741,-21.521 1.134,-21.991C1.526,-22.459 1.83,-23.026 2.041,-23.692C2.253,-24.356 2.298,-25.097 2.177,-25.915C1.935,-27.366 1.21,-28.598 0,-29.612" style="fill:white;fill-rule:nonzero;"/>
    </g>
    <g transform="matrix(0.790533,0,0,0.790533,193.29,31.7492)">
        <path d="M0,7.123C-0.256,8.257 -0.506,9.413 -0.748,10.593C-0.899,11.137 -1.043,11.659 -1.179,12.159C-1.316,12.657 -1.497,13.096 -1.724,13.474C-1.951,13.853 -2.253,14.155 -2.631,14.382C-3.01,14.607 -3.516,14.737 -4.151,14.767C-4.605,14.767 -4.967,14.653 -5.24,14.426C-5.511,14.199 -5.693,13.784 -5.783,13.179C-5.875,12.453 -5.791,11.576 -5.534,10.548C-5.277,9.521 -4.899,8.506 -4.401,7.508C-3.901,6.511 -3.296,5.633 -2.586,4.877C-1.875,4.121 -1.112,3.653 -0.294,3.472C0.25,3.411 0.597,3.486 0.749,3.698C0.506,4.848 0.256,5.989 0,7.123M-22.886,6.896C-22.644,6.186 -22.349,5.566 -22.001,5.035C-21.654,4.507 -21.275,4.092 -20.867,3.788C-20.459,3.486 -20.044,3.335 -19.62,3.335C-19.197,3.335 -18.887,3.455 -18.69,3.698C-18.494,3.94 -18.365,4.242 -18.304,4.605C-18.213,5.15 -18.298,5.716 -18.554,6.307C-18.81,6.896 -19.174,7.417 -19.643,7.871C-20.111,8.324 -20.671,8.68 -21.321,8.937C-21.972,9.194 -22.644,9.278 -23.34,9.186C-23.279,8.37 -23.128,7.606 -22.886,6.896M81.428,-6.781C81.08,-7.93 80.68,-8.937 80.226,-9.799C79.773,-10.661 79.265,-11.341 78.707,-11.839C78.147,-12.339 77.579,-12.588 77.006,-12.588C76.582,-12.557 76.121,-12.505 75.622,-12.43C75.122,-12.353 74.669,-12.218 74.26,-12.02C73.852,-11.824 73.527,-11.552 73.286,-11.204C73.043,-10.856 72.968,-10.411 73.059,-9.866C73.089,-9.231 73.24,-8.611 73.513,-8.006C73.784,-7.401 74.086,-6.736 74.419,-6.01C74.752,-5.284 75.077,-4.46 75.395,-3.537C75.712,-2.615 75.947,-1.52 76.098,-0.248C76.28,1.746 76.28,3.682 76.098,5.558C75.917,7.433 75.599,9.104 75.145,10.57C74.691,12.038 74.125,13.21 73.444,14.086C72.764,14.964 72.015,15.402 71.198,15.402C70.684,15.402 70.185,15.175 69.701,14.721C69.217,14.268 68.915,13.784 68.794,13.27C68.582,11.909 68.59,10.624 68.817,9.413C69.044,8.205 69.414,7.131 69.928,6.193C70.443,5.256 71.078,4.477 71.833,3.857C72.589,3.237 73.391,2.806 74.238,2.564C74.752,2.383 74.948,1.973 74.827,1.338C74.767,0.946 74.571,0.651 74.238,0.454C73.905,0.258 73.497,0.16 73.013,0.16C71.592,0.16 70.216,0.454 68.885,1.044C67.554,1.634 66.396,2.518 65.415,3.698C64.431,4.877 63.721,6.359 63.282,8.143C62.984,9.359 62.886,10.726 62.959,12.221C62.44,12.797 61.925,13.339 61.423,13.814C60.59,14.6 59.857,14.994 59.222,14.994C58.587,14.994 58.271,14.782 58.271,14.359C58.33,13.995 58.39,13.633 58.452,13.27C58.512,12.906 58.573,12.56 58.633,12.226C58.844,11.199 59.071,10.291 59.314,9.504C59.555,8.718 59.79,8.008 60.017,7.373C60.244,6.738 60.448,6.163 60.629,5.649C60.81,5.135 60.961,4.621 61.083,4.107L61.083,3.63C61.083,3.463 61.052,3.274 60.992,3.062C60.992,3.033 61.006,3.018 61.037,3.018L60.992,3.018C61.112,2.716 61.098,2.337 60.946,1.883C60.794,1.55 60.486,1.24 60.017,0.953C59.547,0.666 58.783,0.522 57.725,0.522C57.06,0.522 56.478,0.719 55.979,1.111C55.48,1.505 55.049,2.019 54.686,2.654C54.324,3.289 54.02,4.015 53.779,4.831C53.537,5.649 53.333,6.458 53.167,7.259C53,8.06 52.871,8.832 52.781,9.573C52.69,10.314 52.615,10.941 52.554,11.455C52.403,11.698 52.266,11.924 52.146,12.136C52.024,12.348 51.888,12.529 51.738,12.679C50.981,13.649 50.271,14.344 49.605,14.767C48.94,15.191 48.35,15.402 47.836,15.402C47.383,15.402 47.005,15.319 46.703,15.152C46.399,14.986 46.218,14.706 46.158,14.313C46.127,14.192 46.105,14.063 46.089,13.928C46.074,13.791 46.097,13.633 46.158,13.451C46.218,12.877 46.324,12.188 46.476,11.387C46.626,10.587 46.815,9.731 47.042,8.824C47.269,7.916 47.526,6.979 47.814,6.011C48.1,5.044 48.41,4.076 48.743,3.108C49.045,3.078 49.371,3.062 49.719,3.062C50.067,3.062 50.392,3.047 50.694,3.018C51.118,2.987 51.57,2.912 52.055,2.791C52.538,2.67 52.969,2.489 53.348,2.246C53.726,2.004 54.028,1.679 54.255,1.271C54.482,0.863 54.551,0.357 54.459,-0.248C54.339,-0.49 54.134,-0.771 53.847,-1.089C53.56,-1.406 53.25,-1.564 52.917,-1.564L50.694,-1.564C51.027,-2.259 51.36,-2.865 51.693,-3.379C52.024,-3.893 52.342,-4.376 52.644,-4.83C52.917,-5.072 53.083,-5.299 53.144,-5.511C53.204,-5.723 53.204,-5.95 53.144,-6.191C53.054,-6.797 52.705,-7.349 52.101,-7.848C51.495,-8.346 50.845,-8.717 50.15,-8.958C49.605,-9.17 49.016,-9.276 48.381,-9.276C47.232,-9.033 46.218,-8.18 45.341,-6.714C44.463,-5.246 43.708,-3.5 43.073,-1.474C41.894,-1.474 40.964,-1.36 40.283,-1.133C39.602,-0.906 39.338,-0.324 39.49,0.613C39.55,1.128 39.814,1.542 40.283,1.861C40.752,2.177 41.318,2.427 41.984,2.61C41.713,3.788 41.47,4.954 41.259,6.101C41.047,7.252 40.872,8.333 40.737,9.346C40.674,9.813 40.617,10.26 40.564,10.695C39.606,12.075 38.703,13.195 37.856,14.041C36.979,14.919 36.223,15.356 35.588,15.356C35.255,15.356 35.021,15.304 34.885,15.198C34.749,15.092 34.65,14.919 34.59,14.676C34.469,13.859 34.59,12.929 34.953,11.886C35.316,10.843 35.716,9.777 36.155,8.688C36.594,7.6 36.942,6.534 37.198,5.489C37.456,4.446 37.418,3.486 37.085,2.61C36.842,1.944 36.427,1.415 35.838,1.022C35.247,0.628 34.5,0.431 33.592,0.431C32.654,0.431 31.687,0.719 30.688,1.294C29.691,1.869 28.677,2.624 27.649,3.561C27.649,2.624 27.324,1.869 26.675,1.294C26.023,0.719 25.124,0.431 23.975,0.431C22.977,0.431 21.843,0.803 20.573,1.542C19.303,2.285 18.153,3.274 17.126,4.515C17.185,4.061 17.291,3.661 17.443,3.312C17.594,2.965 17.738,2.654 17.873,2.383C18.009,2.11 18.13,1.869 18.236,1.657C18.342,1.446 18.38,1.248 18.35,1.067C18.288,0.734 18.078,0.454 17.715,0.227C17.351,0 16.928,-0.173 16.445,-0.294C16.052,-0.415 15.65,-0.498 15.242,-0.544C14.834,-0.589 14.464,-0.612 14.131,-0.612C13.617,-0.581 13.11,-0.242 12.611,0.409C12.112,1.059 11.659,1.883 11.25,2.881C10.842,3.88 10.494,5.006 10.207,6.261C9.919,7.516 9.715,8.763 9.595,10.004C9.534,10.578 9.474,11.205 9.413,11.886C9.406,11.972 9.406,12.063 9.399,12.149C8.691,12.967 8.02,13.662 7.394,14.222C6.684,14.857 5.995,15.175 5.331,15.175C4.696,15.175 4.363,14.919 4.332,14.403C4.453,13.497 4.634,12.575 4.877,11.636C5.664,8.431 6.23,6.028 6.578,4.423C6.926,2.82 7.115,1.823 7.146,1.43C7.024,1.067 6.797,0.734 6.465,0.431C6.132,0.13 5.754,-0.128 5.331,-0.34C4.907,-0.55 4.453,-0.717 3.97,-0.839C3.485,-0.959 3.047,-1.02 2.654,-1.02C2.412,-1.02 2.155,-0.959 1.883,-0.839C1.611,-0.717 1.445,-0.567 1.384,-0.385L0.976,0.84C0.733,0.749 0.469,0.666 0.181,0.591C-0.106,0.515 -0.416,0.477 -0.748,0.477C-2.109,0.477 -3.523,0.924 -4.99,1.815C-6.457,2.708 -7.779,3.85 -8.96,5.24C-10.138,6.632 -11.062,8.166 -11.726,9.844C-11.978,10.48 -12.144,11.107 -12.266,11.727C-12.998,12.519 -13.789,13.236 -14.653,13.859C-16.119,14.919 -17.759,15.477 -19.574,15.537C-20.844,15.448 -21.737,15.077 -22.251,14.426C-22.765,13.776 -23.067,12.937 -23.159,11.909C-21.768,11.909 -20.444,11.698 -19.189,11.274C-17.934,10.851 -16.845,10.283 -15.923,9.573C-15.001,8.863 -14.297,8.03 -13.813,7.077C-13.329,6.124 -13.163,5.104 -13.314,4.015C-13.527,2.835 -14.093,1.891 -15.015,1.18C-15.938,0.47 -17.261,0.114 -18.985,0.114C-20.195,0.114 -21.298,0.243 -22.295,0.499C-23.294,0.757 -24.179,1.105 -24.949,1.542C-25.721,1.981 -26.387,2.489 -26.946,3.062C-27.505,3.638 -27.966,4.242 -28.33,4.877C-29.025,6.087 -29.471,7.448 -29.668,8.959C-29.787,9.876 -29.815,10.767 -29.773,11.638C-29.867,11.758 -29.96,11.875 -30.053,11.999C-30.749,12.968 -31.498,13.739 -32.298,14.313C-33.101,14.888 -33.773,15.191 -34.317,15.221C-34.983,15.221 -35.316,14.994 -35.316,14.54C-35.406,14.086 -35.331,13.497 -35.089,12.771C-34.847,12.044 -34.552,11.251 -34.204,10.389C-33.857,9.527 -33.532,8.657 -33.228,7.781C-32.926,6.904 -32.745,6.087 -32.685,5.331C-32.564,4.182 -32.783,3.351 -33.342,2.835C-33.902,2.322 -34.604,1.944 -35.451,1.702C-35.876,1.763 -36.313,1.846 -36.767,1.952C-37.221,2.058 -37.704,2.11 -38.218,2.11C-38.703,2.11 -39.284,2.058 -39.965,1.952C-40.645,1.846 -41.138,1.627 -41.439,1.294C-41.288,0.78 -41.115,0.318 -40.918,-0.09C-40.722,-0.498 -40.502,-0.869 -40.26,-1.202C-39.777,-1.685 -39.7,-2.147 -40.033,-2.586C-40.366,-3.023 -40.872,-3.371 -41.553,-3.629C-42.234,-3.885 -42.952,-4.044 -43.708,-4.105C-44.463,-4.166 -45.008,-4.089 -45.341,-3.878C-46.128,-3.606 -46.792,-3.017 -47.336,-2.109C-47.881,-1.202 -48.062,-0.007 -47.881,1.475C-47.852,1.717 -47.775,1.973 -47.654,2.246C-47.534,2.518 -47.398,2.776 -47.246,3.018C-47.095,3.259 -46.951,3.472 -46.815,3.653C-46.678,3.834 -46.566,3.94 -46.474,3.97C-46.838,5.452 -47.284,6.881 -47.813,8.257C-48.343,9.633 -48.963,10.858 -49.673,11.932C-50.384,13.006 -51.164,13.859 -52.009,14.494C-52.856,15.129 -53.779,15.448 -54.776,15.448C-55.169,15.448 -55.48,15.372 -55.706,15.221C-55.933,15.069 -56.1,14.865 -56.206,14.607C-56.312,14.351 -56.372,14.057 -56.387,13.724C-56.403,13.391 -56.38,13.058 -56.319,12.725C-56.168,11.757 -55.949,10.662 -55.661,9.436C-55.373,8.212 -55.019,6.919 -54.595,5.558L-52.962,5.558C-51.964,5.558 -51.147,5.281 -50.512,4.727C-49.877,4.172 -49.636,3.371 -49.786,2.322C-49.848,1.963 -50.09,1.619 -50.512,1.289C-50.937,0.96 -51.737,0.795 -52.917,0.795C-52.584,-0.056 -52.199,-0.846 -51.76,-1.575C-51.322,-2.304 -50.921,-2.949 -50.558,-3.512C-50.194,-4.073 -49.9,-4.574 -49.673,-5.015C-49.447,-5.456 -49.349,-5.828 -49.378,-6.132C-49.469,-6.526 -49.665,-6.92 -49.967,-7.316C-50.271,-7.711 -50.648,-8.06 -51.102,-8.365C-51.556,-8.668 -52.04,-8.911 -52.554,-9.094C-53.068,-9.275 -53.568,-9.368 -54.051,-9.368C-54.384,-9.368 -54.657,-9.306 -54.867,-9.185C-55.442,-8.914 -55.979,-8.49 -56.478,-7.915C-56.976,-7.341 -57.453,-6.637 -57.907,-5.806C-58.36,-4.974 -58.777,-4.044 -59.154,-3.017C-59.532,-1.988 -59.873,-0.914 -60.175,0.205C-60.628,0.205 -61.067,0.235 -61.491,0.295C-61.914,0.357 -62.276,0.462 -62.58,0.613C-62.88,0.765 -63.115,0.984 -63.282,1.271C-63.448,1.559 -63.486,1.944 -63.396,2.427C-63.275,3.062 -63.025,3.532 -62.647,3.834C-62.268,4.136 -61.747,4.363 -61.082,4.515C-61.264,5.422 -61.423,6.336 -61.558,7.259C-61.695,8.182 -61.816,9.067 -61.922,9.913C-62.027,10.76 -62.11,11.538 -62.17,12.248C-62.231,12.96 -62.276,13.587 -62.307,14.132C-62.307,14.979 -62.17,15.764 -61.899,16.491C-61.506,17.488 -60.946,18.26 -60.22,18.804C-59.495,19.349 -58.618,19.621 -57.589,19.621C-55.745,19.621 -54.126,19.249 -52.736,18.51C-51.345,17.769 -50.127,16.807 -49.083,15.629C-48.04,14.449 -47.132,13.133 -46.362,11.682C-45.59,10.231 -44.902,8.809 -44.297,7.417L-43.345,5.013C-43.073,5.104 -42.733,5.18 -42.323,5.24C-41.915,5.301 -41.501,5.37 -41.076,5.445C-40.653,5.52 -40.253,5.595 -39.875,5.67C-39.496,5.747 -39.186,5.845 -38.945,5.966C-39.005,6.147 -39.073,6.313 -39.149,6.465C-39.224,6.617 -39.307,6.798 -39.398,7.009C-39.671,7.614 -39.958,8.302 -40.26,9.074C-40.562,9.844 -40.827,10.646 -41.054,11.478C-41.28,12.31 -41.447,13.133 -41.553,13.951C-41.659,14.767 -41.666,15.508 -41.576,16.172C-41.001,18.35 -39.413,19.439 -36.813,19.439C-35.876,19.439 -34.877,19.205 -33.818,18.737C-32.76,18.268 -31.777,17.663 -30.87,16.922C-30.173,16.352 -29.587,15.713 -29.06,15.037C-28.924,15.337 -28.777,15.628 -28.602,15.901C-28.118,16.657 -27.514,17.307 -26.787,17.852C-26.061,18.396 -25.222,18.812 -24.269,19.099C-23.317,19.386 -22.295,19.53 -21.207,19.53C-19.695,19.53 -18.244,19.28 -16.852,18.781C-15.462,18.283 -14.214,17.632 -13.11,16.83C-12.735,16.558 -12.39,16.272 -12.06,15.98C-11.704,17.073 -11.134,17.919 -10.342,18.51C-9.27,19.31 -7.992,19.711 -6.51,19.711C-5.633,19.651 -4.68,19.349 -3.651,18.804C-2.623,18.26 -1.747,17.413 -1.02,16.264C-0.779,17.504 -0.287,18.35 0.454,18.804C1.195,19.257 2.155,19.484 3.335,19.484C4.211,19.484 5.194,19.182 6.284,18.577C7.373,17.973 8.377,17.238 9.301,16.377C9.356,16.325 9.405,16.272 9.459,16.22C9.558,16.781 9.716,17.286 9.957,17.715C10.229,18.169 10.554,18.51 10.933,18.737C11.31,18.963 11.681,19.114 12.044,19.189C12.407,19.264 12.732,19.295 13.019,19.28C13.306,19.264 13.51,19.257 13.633,19.257C13.723,19.227 13.814,19.205 13.904,19.189C13.995,19.174 14.07,19.137 14.131,19.076C14.524,18.926 14.766,18.608 14.857,18.123C14.947,17.64 15.038,17.186 15.129,16.763C15.28,15.976 15.461,15.031 15.673,13.928C15.885,12.824 16.173,11.75 16.535,10.706C16.899,9.663 17.351,8.726 17.896,7.894C18.44,7.063 19.106,6.511 19.892,6.238C20.165,6.178 20.436,6.155 20.709,6.17C20.981,6.186 21.192,6.224 21.344,6.284C21.404,6.767 21.298,7.425 21.027,8.257C20.754,9.088 20.451,10.011 20.119,11.024C19.786,12.038 19.468,13.104 19.166,14.222C18.864,15.342 18.727,16.43 18.758,17.488C19,18.335 19.499,18.888 20.255,19.145C21.011,19.401 21.827,19.53 22.705,19.53C23.309,19.53 23.763,19.432 24.066,19.235C24.368,19.039 24.549,18.653 24.61,18.079C24.731,17.171 24.897,16.105 25.109,14.88C25.32,13.655 25.615,12.469 25.994,11.319C26.371,10.17 26.848,9.134 27.422,8.212C27.997,7.289 28.723,6.677 29.6,6.374C29.841,6.284 30.076,6.201 30.303,6.124C30.53,6.049 30.718,6.101 30.87,6.284C31.052,6.646 31.007,7.229 30.734,8.03C30.462,8.832 30.145,9.725 29.781,10.706C29.419,11.69 29.086,12.687 28.784,13.701C28.482,14.715 28.39,15.614 28.511,16.399C28.692,17.459 29.237,18.245 30.145,18.758C31.052,19.272 32.171,19.53 33.501,19.53C34.469,19.53 35.482,19.243 36.54,18.668C37.599,18.094 38.582,17.383 39.49,16.536C39.799,16.247 40.068,15.95 40.344,15.654C40.377,15.812 40.409,15.966 40.441,16.128C40.805,17.186 41.401,18.033 42.234,18.668C43.065,19.303 43.949,19.621 44.888,19.621C45.552,19.621 46.241,19.522 46.951,19.326C47.662,19.129 48.358,18.857 49.038,18.51C49.719,18.162 50.361,17.754 50.966,17.284C51.57,16.816 52.101,16.309 52.554,15.764C52.705,17.126 53.068,18.1 53.643,18.691C54.216,19.28 55.186,19.576 56.545,19.576C57.241,19.576 57.99,19.409 58.791,19.076C59.593,18.743 60.38,18.312 61.15,17.783C61.922,17.254 62.64,16.657 63.306,15.991C63.395,15.902 63.464,15.811 63.548,15.722C63.86,16.525 64.306,17.227 64.916,17.806C65.838,18.683 66.964,19.243 68.295,19.484C68.719,19.545 69.15,19.582 69.589,19.598C70.026,19.613 70.457,19.59 70.882,19.53C72.725,19.378 74.313,18.91 75.645,18.123C76.975,17.338 78.078,16.347 78.956,15.152C79.833,13.957 80.528,12.612 81.043,11.115C81.557,9.617 81.919,8.06 82.131,6.442C82.342,4.825 82.441,3.192 82.427,1.542C82.411,-0.105 82.327,-1.655 82.177,-3.106C82.025,-4.407 81.776,-5.632 81.428,-6.781" style="fill:white;fill-rule:nonzero;"/>
    </g>
    <g transform="matrix(0.790533,0,0,0.790533,264.672,41.8269)">
        <path d="M0,-5.852C0.242,-6.562 0.537,-7.182 0.885,-7.713C1.232,-8.242 1.611,-8.656 2.019,-8.96C2.427,-9.262 2.842,-9.414 3.266,-9.414C3.689,-9.414 3.999,-9.293 4.196,-9.05C4.392,-8.808 4.521,-8.506 4.582,-8.144C4.673,-7.599 4.589,-7.032 4.332,-6.441C4.076,-5.852 3.712,-5.331 3.243,-4.877C2.775,-4.424 2.215,-4.068 1.565,-3.811C0.914,-3.554 0.242,-3.471 -0.454,-3.562C-0.393,-4.378 -0.242,-5.142 0,-5.852M13.633,-2.563C13.435,-2.865 13.079,-3.017 12.567,-3.017C12.324,-3.017 12.157,-2.942 12.067,-2.79C10.979,-1.247 9.701,0.053 8.233,1.111C6.767,2.17 5.127,2.729 3.312,2.789C2.042,2.699 1.149,2.329 0.635,1.678C0.121,1.028 -0.181,0.189 -0.273,-0.839C1.118,-0.839 2.442,-1.05 3.697,-1.474C4.952,-1.897 6.041,-2.465 6.963,-3.175C7.886,-3.885 8.589,-4.718 9.074,-5.671C9.557,-6.624 9.723,-7.644 9.572,-8.733C9.36,-9.913 8.793,-10.857 7.871,-11.568C6.948,-12.278 5.625,-12.634 3.901,-12.634C2.692,-12.634 1.588,-12.505 0.591,-12.249C-0.408,-11.991 -1.293,-11.643 -2.063,-11.206C-2.835,-10.767 -3.501,-10.259 -4.06,-9.686C-4.619,-9.11 -5.08,-8.506 -5.444,-7.871C-6.139,-6.662 -6.585,-5.3 -6.782,-3.789C-6.978,-2.276 -6.955,-0.825 -6.714,0.566C-6.532,1.536 -6.199,2.397 -5.716,3.153C-5.232,3.909 -4.627,4.559 -3.901,5.104C-3.175,5.647 -2.336,6.064 -1.383,6.351C-0.431,6.638 0.591,6.782 1.679,6.782C3.191,6.782 4.642,6.532 6.034,6.033C7.424,5.535 8.672,4.884 9.776,4.082C10.879,3.282 11.787,2.397 12.498,1.428C13.208,0.462 13.655,-0.506 13.837,-1.474C13.897,-1.897 13.829,-2.261 13.633,-2.563" style="fill:white;fill-rule:nonzero;"/>
    </g>
    <g transform="matrix(0.729173,-0.305367,-0.305367,-0.729173,242.559,27.9681)">
        <path d="M-0.972,-0.195C1.477,-0.195 3.462,0.931 3.462,2.321C3.463,3.711 1.477,4.837 -0.972,4.837C-3.421,4.837 -5.406,3.711 -5.407,2.321C-5.407,0.931 -3.421,-0.195 -0.972,-0.195" style="fill:white;fill-rule:nonzero;"/>
    </g>
    <g transform="matrix(0,-0.790533,-0.790533,0,71.327,11.9471)">
        <path d="M-24.202,-24.202C-34.382,-24.202 -42.634,-13.366 -42.634,0C-42.634,13.367 -34.382,24.202 -24.202,24.202C-14.022,24.202 -5.77,13.367 -5.77,0C-5.77,-13.366 -14.022,-24.202 -24.202,-24.202" style="fill:white;fill-rule:nonzero;"/>
    </g>
    <g transform="matrix(0.790533,0,0,0.790533,72.7347,6.1377)">
        <path d="M0,66.695C-0.845,66.695 -1.708,66.626 -2.57,66.48L-3.464,66.329C-7.297,65.686 -9.046,65.393 -11.625,63.845C-12.411,63.373 -13.376,62.791 -14.28,61.974C-14.287,61.974 -14.294,61.976 -14.302,61.977C-14.645,61.987 -14.986,61.993 -15.32,61.993C-23.521,61.993 -29.053,58.742 -31.606,56.826C-31.634,56.873 -31.663,56.922 -31.69,56.967C-31.932,57.385 -32.343,57.677 -32.817,57.77C-32.925,57.792 -33.033,57.801 -33.14,57.801C-33.508,57.801 -33.869,57.681 -34.165,57.452C-36.152,55.92 -37.207,53.099 -37.752,50.909C-38.037,51.056 -38.367,51.118 -38.689,51.082C-39.185,51.03 -39.631,50.761 -39.908,50.347C-41.317,48.241 -41.263,45.283 -41.02,43.341C-41.12,43.356 -41.215,43.374 -41.301,43.392C-41.74,43.488 -42.201,43.4 -42.578,43.152C-42.953,42.904 -43.215,42.515 -43.3,42.072C-44.038,38.284 -41.616,33.732 -39.667,31.224C-40.465,30.894 -40.895,30.008 -40.627,29.171C-39.599,25.949 -37.026,23.808 -35.079,22.586C-35.354,22.306 -35.527,21.936 -35.557,21.537C-35.595,21.014 -35.389,20.504 -34.996,20.156C-34.498,19.715 -33.824,19.331 -33.072,18.991C-33.645,17.853 -34.75,16.743 -35.206,16.354C-35.663,15.965 -35.838,15.336 -35.647,14.765C-35.457,14.195 -34.94,13.798 -34.34,13.763C-33.848,13.732 -30.385,13.581 -27.796,14.723C-27.554,13.007 -27.833,11.138 -28.012,10.391C-28.143,9.848 -27.955,9.275 -27.525,8.916C-27.097,8.557 -26.499,8.473 -25.989,8.697C-25.462,8.93 -21.407,10.808 -20.135,14.01C-20.092,13.954 -20.045,13.903 -19.995,13.854C-20.039,12.441 -20.47,10.982 -20.69,10.408C-20.888,9.894 -20.781,9.311 -20.414,8.902C-20.046,8.491 -19.48,8.321 -18.947,8.46C-18.68,8.531 -17.291,8.93 -15.947,9.829C-16.296,8.806 -16.717,7.82 -17.072,7.12C-17.433,6.412 -17.279,5.55 -16.696,5.011C-16.114,4.469 -15.246,4.381 -14.565,4.794C-14.032,5.118 -10.299,7.451 -7.897,10.44C-7.427,9.052 -7.207,7.398 -7.182,6.309C-7.164,5.56 -6.68,4.901 -5.969,4.664C-5.263,4.423 -4.477,4.656 -4.011,5.244C-3.585,5.782 -0.707,9.528 0.335,13.313C0.398,13.331 0.461,13.343 0.524,13.361C0.867,12.242 1.029,10.971 1.035,10.119C1.041,9.383 1.5,8.726 2.188,8.467C2.88,8.209 3.655,8.4 4.143,8.951C4.769,9.657 7.169,12.526 8.141,15.586C8.308,15.666 8.489,15.729 8.646,15.82C10.219,14.799 11.536,13.351 12.039,12.685C12.447,12.146 13.129,11.887 13.788,12.008C14.453,12.134 14.988,12.623 15.171,13.273C15.36,13.943 16.698,19.09 14.868,22.695C18.043,27.166 18.289,31.799 17.948,35.09C19.695,36.538 20.729,38.435 20.916,40.643C21.971,42.054 22.909,42.968 25.542,45.392C25.909,45.731 26.234,46.021 26.545,46.292C27.895,42.22 28.636,37.872 28.636,33.347C28.636,10.642 10.23,-7.764 -12.475,-7.764C-35.181,-7.764 -53.587,10.642 -53.587,33.347C-53.587,56.053 -35.181,74.459 -12.475,74.459C-5.412,74.459 1.235,72.676 7.041,69.538C4.686,68.783 2.526,67.81 0.583,66.681C0.389,66.689 0.196,66.695 0,66.695" style="fill:rgb(164,120,249);fill-rule:nonzero;"/>
    </g>
    <g transform="matrix(0.790533,0,0,0.790533,48.088,46.0576)">
        <path d="M0,-14.973C-0.599,-15.068 -1.182,-14.654 -1.28,-14.044C-1.37,-13.469 -2.124,-8.348 -0.395,-5.524C-0.206,-5.217 0.119,-5.018 0.479,-4.993C0.839,-4.976 1.19,-5.116 1.42,-5.393L1.713,-5.748C2.322,-3.986 3.389,-1.534 4.936,-0.181C5.148,0.004 5.411,0.095 5.673,0.095C5.983,0.095 6.293,-0.034 6.515,-0.286C6.922,-0.752 6.874,-1.458 6.409,-1.865C4.748,-3.317 3.583,-7.024 3.275,-8.329C3.177,-8.743 2.853,-9.066 2.438,-9.162C2.023,-9.26 1.592,-9.111 1.321,-8.783L0.935,-8.316C0.555,-10.231 0.77,-12.683 0.93,-13.693C1.026,-14.303 0.61,-14.876 0,-14.973" style="fill:rgb(164,120,249);fill-rule:nonzero;"/>
    </g>
    <g transform="matrix(0.615693,-0.495847,-0.495847,-0.615693,70.5912,52.3087)">
        <path d="M-4.401,-1.936C-5.234,3.151 -4.762,7.62 -3.818,10.253C-4.072,10.69 -4.253,11.142 -4.401,11.606C-9.168,7.916 -8.107,4.962 -7.205,2.512C-6.556,0.748 -5.89,-0.216 -4.401,-1.936" style="fill:rgb(164,120,249);fill-rule:nonzero;"/>
    </g>
    <g transform="matrix(0.790533,0,0,0.790533,94.2712,33.9164)">
        <path d="M0,23.972C-1.378,24.549 -2.762,24.383 -3.089,23.601C-3.417,22.819 -2.565,21.717 -1.186,21.14C0.192,20.562 1.575,20.728 1.903,21.51C2.23,22.293 1.378,23.395 0,23.972M-8.86,25.358C-9.02,25.347 -9.179,25.339 -9.344,25.318C-11.413,25.054 -12.992,24.066 -12.87,23.111C-12.748,22.156 -10.971,21.596 -8.902,21.86C-8.004,21.974 -7.21,22.23 -6.596,22.556C-5.795,22.98 -5.307,23.527 -5.376,24.067C-5.488,24.946 -7.006,25.482 -8.86,25.358M15.706,24.83C15.585,24.61 15.006,23.798 12.62,22.61C11.719,22.159 10.87,21.741 10.048,21.337C7.492,20.08 5.076,18.892 2.347,17.312C0.507,16.247 -0.62,15.552 -1.957,14.475C-2.559,13.99 -3.2,13.435 -3.975,12.721C-4.618,12.129 -5.159,11.627 -5.645,11.168C-5.782,11.12 -5.917,11.059 -6.042,10.972C-6.7,10.518 -7.62,10.063 -8.714,9.675C-9.417,9.425 -10.193,9.204 -11.024,9.028C-12.239,8.772 -13.565,8.612 -14.944,8.612C-17.226,8.612 -19.237,9.053 -21.119,9.957C-21.931,10.347 -22.721,10.814 -23.495,11.383C-23.795,11.605 -24.143,11.71 -24.489,11.71C-25.004,11.71 -25.512,11.474 -25.841,11.029C-26.39,10.283 -26.232,9.231 -25.486,8.683C-22.355,6.377 -18.907,5.257 -14.944,5.257C-13.272,5.257 -11.713,5.46 -10.288,5.768C-10.083,5.812 -9.873,5.852 -9.674,5.9C-9.71,5.33 -9.847,4.804 -10.061,4.313C-10.572,3.141 -11.578,2.192 -13.098,1.493C-17.537,-0.55 -21.059,-6.153 -21.208,-6.391C-23.393,-9.662 -25.051,-9.979 -26.519,-9.816C-29.099,-9.539 -30.723,-8.09 -30.971,-5.838L-31.036,-5.53C-31.077,-5.379 -31.141,-4.84 -31.186,-4.447C-31.349,-3.068 -31.551,-1.351 -32.241,-0.241C-33.971,2.554 -36.541,4.366 -37.259,4.84C-37.688,5.251 -38.216,5.576 -38.771,5.918C-40.262,6.836 -41.254,7.55 -41.475,9.047C-41.563,9.648 -41.577,10.08 -41.49,10.486C-41.386,10.969 -41.127,11.425 -40.682,12.065C-40.491,12.34 -40.276,12.639 -40.009,13.005C-39.857,13.215 -39.705,13.389 -39.553,13.555C-38.977,14.181 -38.373,14.531 -37.53,14.737L-36.284,15.04L-36.25,16.322C-36.249,16.374 -36.237,16.433 -36.214,16.502C-35.247,19.394 -32.083,23.942 -26.866,27.481C-26.545,27.699 -26.208,27.909 -25.871,28.119C-25.175,28.552 -24.456,28.97 -23.694,29.36C-23.014,29.708 -22.304,30.033 -21.571,30.337C-20.476,30.793 -19.33,31.202 -18.12,31.54C-17.545,31.7 -16.931,31.847 -16.287,31.982C-6.838,33.951 9.441,33.052 14.523,27.866C15.154,27.222 16.213,25.759 15.706,24.83" style="fill:rgb(164,120,249);fill-rule:nonzero;"/>
    </g>
    <g transform="matrix(0.790533,0,0,0.790533,62.1259,24.8733)">
        <path d="M0,28.426C0.407,28.694 0.833,28.933 1.303,29.114C2.22,31.758 4.656,35.533 8.494,38.973C6.256,38.567 5.133,38.234 3.521,37.268C1.283,35.925 -1.397,34.29 0,28.426M27.479,5.289C27.395,5.02 27.273,4.755 27.101,4.508C26.356,3.437 25.059,3.1 24.204,3.754C23.818,4.049 23.597,4.499 23.53,4.999C23.258,4.646 23.024,4.326 22.834,4.058C22.792,3.998 22.757,3.947 22.719,3.892C22.718,3.879 22.719,3.866 22.718,3.852C22.672,3.047 22.945,2.287 23.539,1.833C24.553,1.057 26.092,1.457 26.975,2.727C27.536,3.533 27.695,4.494 27.479,5.289M-4.465,2.24C-3.007,1.124 -0.794,1.7 0.476,3.525C1.283,4.685 1.511,6.067 1.201,7.209C1.08,6.823 0.904,6.442 0.657,6.087C-0.414,4.548 -2.279,4.062 -3.509,5.003C-4.371,5.662 -4.678,6.847 -4.425,8.027C-4.556,7.88 -4.688,7.734 -4.805,7.566C-6.076,5.74 -5.924,3.356 -4.465,2.24M-18.152,21.273C-19.882,18.45 -19.128,13.328 -19.037,12.753C-18.94,12.143 -18.357,11.73 -17.757,11.824C-17.148,11.922 -16.731,12.494 -16.827,13.104C-16.987,14.114 -17.202,16.567 -16.822,18.482L-16.436,18.015C-16.166,17.686 -15.734,17.537 -15.319,17.636C-14.904,17.732 -14.58,18.055 -14.483,18.468C-14.175,19.773 -13.01,23.481 -11.348,24.932C-10.884,25.339 -10.836,26.045 -11.243,26.511C-11.464,26.763 -11.774,26.893 -12.085,26.893C-12.346,26.893 -12.609,26.802 -12.821,26.616C-14.368,25.263 -15.436,22.812 -16.044,21.049L-16.338,21.404C-16.567,21.682 -16.918,21.822 -17.278,21.804C-17.639,21.779 -17.963,21.58 -18.152,21.273M24.376,43.421C23.732,43.287 23.118,43.139 22.543,42.979C21.333,42.641 20.187,42.232 19.092,41.777C18.359,41.472 17.649,41.147 16.969,40.799C16.207,40.41 15.487,39.991 14.792,39.558C14.454,39.348 14.118,39.138 13.796,38.92C8.58,35.381 5.416,30.833 4.448,27.941C4.426,27.872 4.414,27.813 4.412,27.761L4.379,26.479L3.133,26.176C2.29,25.97 1.686,25.62 1.11,24.994C0.957,24.828 0.806,24.654 0.653,24.444C0.387,24.078 0.172,23.779 -0.019,23.505C-0.464,22.864 -0.724,22.408 -0.827,21.925C-0.914,21.519 -0.9,21.087 -0.812,20.486C-0.592,18.989 0.401,18.275 1.892,17.357C2.447,17.015 2.975,16.69 3.404,16.279C4.122,15.805 6.692,13.993 8.422,11.199C9.112,10.088 9.314,8.371 9.477,6.993C9.522,6.599 9.586,6.06 9.627,5.909L9.691,5.601C9.94,3.35 11.564,1.9 14.144,1.623C15.612,1.46 17.269,1.778 19.455,5.048C19.603,5.286 23.126,10.889 27.564,12.932C29.084,13.631 30.09,14.58 30.602,15.752C30.816,16.243 30.952,16.769 30.989,17.339C30.79,17.291 30.579,17.251 30.375,17.207C28.95,16.899 27.391,16.696 25.719,16.696C21.756,16.696 18.308,17.816 15.177,20.122C14.431,20.67 14.272,21.722 14.822,22.468C15.15,22.913 15.659,23.15 16.174,23.15C16.52,23.15 16.868,23.044 17.168,22.823C17.942,22.253 18.732,21.786 19.543,21.396C21.426,20.492 23.437,20.051 25.719,20.051C27.098,20.051 28.424,20.211 29.639,20.468C30.47,20.643 31.246,20.864 31.949,21.114C33.043,21.503 33.963,21.957 34.621,22.412C34.746,22.499 34.881,22.559 35.018,22.608C35.504,23.066 36.045,23.568 36.688,24.16C37.463,24.874 38.104,25.429 38.706,25.914C40.043,26.991 41.169,27.686 43.01,28.751C45.739,30.331 48.154,31.519 50.711,32.776C51.533,33.18 52.382,33.598 53.283,34.049C55.668,35.237 56.248,36.049 56.369,36.269C56.876,37.198 55.817,38.661 55.185,39.305C50.104,44.491 33.825,45.39 24.376,43.421M59.313,34.66C58.627,33.405 57.143,32.222 54.777,31.045C53.876,30.593 53.021,30.173 52.192,29.766C49.58,28.481 47.322,27.37 44.692,25.848C42.636,24.659 41.621,24.037 39.965,22.591C39.654,22.321 39.329,22.031 38.962,21.692C36.329,19.268 35.391,18.354 34.335,16.943C34.149,14.734 33.114,12.838 31.368,11.39C31.709,8.099 31.463,3.466 28.287,-1.005C30.118,-4.61 28.78,-9.757 28.591,-10.427C28.408,-11.077 27.873,-11.566 27.208,-11.692C26.549,-11.813 25.867,-11.554 25.459,-11.015C24.956,-10.349 23.639,-8.901 22.066,-7.88C21.909,-7.971 21.728,-8.034 21.561,-8.114C20.589,-11.174 18.189,-14.044 17.563,-14.749C17.075,-15.3 16.299,-15.491 15.608,-15.233C14.92,-14.975 14.461,-14.317 14.455,-13.581C14.449,-12.729 14.287,-11.458 13.943,-10.339C13.881,-10.357 13.817,-10.369 13.755,-10.387C12.713,-14.172 9.835,-17.918 9.408,-18.456C8.943,-19.045 8.157,-19.277 7.451,-19.036C6.74,-18.799 6.255,-18.14 6.238,-17.391C6.213,-16.302 5.993,-14.649 5.523,-13.26C3.121,-16.25 -0.612,-18.582 -1.145,-18.906C-1.826,-19.319 -2.695,-19.231 -3.276,-18.69C-3.86,-18.15 -4.013,-17.288 -3.653,-16.58C-3.297,-15.88 -2.876,-14.894 -2.527,-13.871C-3.871,-14.77 -5.26,-15.169 -5.528,-15.24C-6.06,-15.379 -6.626,-15.209 -6.994,-14.798C-7.361,-14.389 -7.468,-13.806 -7.27,-13.292C-7.05,-12.718 -6.619,-11.259 -6.576,-9.847C-6.625,-9.797 -6.672,-9.746 -6.716,-9.69C-7.987,-12.892 -12.042,-14.77 -12.569,-15.003C-13.079,-15.227 -13.677,-15.143 -14.105,-14.784C-14.535,-14.425 -14.723,-13.852 -14.592,-13.309C-14.413,-12.562 -14.134,-10.693 -14.376,-8.977C-16.965,-10.119 -20.429,-9.968 -20.92,-9.937C-21.521,-9.902 -22.037,-9.505 -22.228,-8.935C-22.419,-8.364 -22.244,-7.735 -21.786,-7.346C-21.33,-6.957 -20.225,-5.847 -19.652,-4.709C-20.404,-4.369 -21.079,-3.985 -21.577,-3.544C-21.969,-3.196 -22.176,-2.686 -22.137,-2.163C-22.107,-1.764 -21.934,-1.394 -21.659,-1.114C-23.607,0.108 -26.179,2.249 -27.208,5.471C-27.475,6.308 -27.046,7.194 -26.247,7.524C-28.196,10.032 -30.618,14.584 -29.881,18.372C-29.795,18.815 -29.534,19.204 -29.159,19.452C-28.781,19.7 -28.321,19.788 -27.882,19.692C-27.795,19.673 -27.7,19.656 -27.6,19.641C-27.843,21.583 -27.898,24.541 -26.488,26.647C-26.211,27.061 -25.765,27.33 -25.269,27.382C-24.947,27.418 -24.618,27.356 -24.332,27.209C-23.788,29.399 -22.732,32.22 -20.745,33.751C-20.449,33.981 -20.089,34.101 -19.72,34.101C-19.614,34.101 -19.506,34.092 -19.397,34.07C-18.924,33.977 -18.513,33.685 -18.27,33.267C-18.243,33.222 -18.214,33.173 -18.187,33.126C-15.633,35.042 -10.101,38.292 -1.901,38.292C-1.566,38.292 -1.225,38.287 -0.883,38.276C-0.875,38.276 -0.868,38.274 -0.86,38.273C0.044,39.091 1.009,39.673 1.794,40.145C4.374,41.693 6.123,41.986 9.956,42.629L10.85,42.78C11.712,42.926 12.575,42.995 13.42,42.995C13.615,42.995 13.809,42.989 14.002,42.981C15.946,44.11 18.106,45.083 20.461,45.838C20.853,45.964 21.237,46.098 21.641,46.211C25.177,47.197 29.913,47.745 34.844,47.745C43.794,47.745 53.384,45.937 57.582,41.654C59.306,39.895 60.666,37.134 59.313,34.66" style="fill:rgb(59,29,86);fill-rule:nonzero;"/>
    </g>
    <g transform="matrix(-0.729173,0.305367,0.305367,0.729173,94.6679,52.5994)">
        <path d="M0.594,-2.952C2.088,-2.952 3.299,-2.265 3.3,-1.416C3.3,-0.568 2.088,0.119 0.594,0.118C-0.901,0.118 -2.113,-0.569 -2.112,-1.417C-2.113,-2.265 -0.901,-2.952 0.594,-2.952" style="fill:rgb(59,29,86);fill-rule:nonzero;"/>
    </g>
    <g transform="matrix(0.790533,0,0,0.790533,89.0568,53.3023)">
        <path d="M0,-1.967C-0.614,-2.292 -1.408,-2.548 -2.306,-2.663C-4.375,-2.927 -6.152,-2.367 -6.273,-1.412C-6.395,-0.457 -4.817,0.532 -2.747,0.796C-2.583,0.817 -2.424,0.824 -2.263,0.835C-0.41,0.96 1.108,0.424 1.22,-0.455C1.289,-0.996 0.801,-1.542 0,-1.967" style="fill:rgb(59,29,86);fill-rule:nonzero;"/>
    </g>
</svg>
