<?xml version="1.0" encoding="UTF-8" standalone="no"?>
<!DOCTYPE svg PUBLIC "-//W3C//DTD SVG 1.1//EN" "http://www.w3.org/Graphics/SVG/1.1/DTD/svg11.dtd">
<svg width="100%" height="100%" viewBox="0 0 306 65" version="1.1" xmlns="http://www.w3.org/2000/svg" xmlns:xlink="http://www.w3.org/1999/xlink" xml:space="preserve" xmlns:serif="http://www.serif.com/" style="fill-rule:evenodd;clip-rule:evenodd;stroke-linejoin:round;stroke-miterlimit:2;">
    <g transform="matrix(1,0,0,1,0.522985,0.576037)">
        <g id="Page-1">
            <g id="Home-Day">
                <g id="Header">
                    <g id="Group">
                        <g id="Group-11" transform="matrix(1,0,0,1,87.3546,11.7823)">
                            <g id="Group-3">
                                <path id="Fill-1" d="M31.534,3.914C31.412,3.811 31.268,3.73 31.139,3.635C31.054,3.435 30.937,3.244 30.778,3.078C29.281,1.517 26.883,-0.283 23.97,0.038C23.473,0.092 23.015,0.352 22.71,0.747C22.645,0.831 22.587,0.92 22.537,1.012C21.018,0.813 18.764,0.699 16.956,1.363C16.364,1.58 15.924,2.083 15.789,2.7C15.745,2.908 15.736,3.118 15.763,3.323C14.196,4.127 12.675,5.522 12.248,7.744C12.078,8.625 12.567,9.478 13.37,9.8C13.361,10.372 13.402,10.958 13.508,11.565C13.673,12.754 14.012,13.843 14.524,14.833C15.034,15.823 15.621,16.757 16.282,17.632C16.941,18.507 17.643,19.357 18.387,20.182C19.129,21.006 19.855,21.824 20.566,22.633C21.275,23.443 21.909,24.283 22.472,25.159C23.033,26.033 23.463,26.965 23.759,27.956C23.925,28.716 24.006,29.41 24.006,30.037C24.04,30.962 23.874,31.802 23.511,32.562C23.147,33.321 22.628,33.966 21.952,34.493C21.275,35.02 20.482,35.434 19.574,35.731C18.666,36.028 17.684,36.176 16.628,36.176C15.341,36.176 14.078,35.995 12.839,35.632C11.601,35.268 10.494,34.766 9.522,34.121C8.547,33.478 7.732,32.735 7.07,31.893C6.411,31.05 6.013,30.153 5.881,29.194C5.783,28.435 5.875,27.775 6.154,27.213C6.434,26.653 6.831,26.174 7.343,25.777C7.854,25.381 8.457,25.067 9.151,24.836C9.844,24.605 10.553,24.441 11.28,24.34C12.039,24.21 12.698,24.029 13.261,23.796C13.822,23.565 14.053,23.12 13.955,22.459C13.822,21.699 13.434,21.107 12.79,20.677C12.146,20.248 11.444,19.952 10.685,19.786C10.224,19.72 9.753,19.679 9.274,19.661C8.795,19.645 8.375,19.67 8.012,19.736C6.658,19.868 5.452,20.256 4.398,20.899C3.339,21.543 2.466,22.336 1.772,23.277C1.079,24.218 0.584,25.258 0.287,26.397C-0.011,27.535 -0.077,28.666 0.089,29.789C0.287,31.176 0.807,32.504 1.648,33.775C2.491,35.046 3.595,36.176 4.965,37.168C6.336,38.157 7.963,38.949 9.844,39.544C11.726,40.138 13.838,40.436 16.182,40.436C19.187,40.436 21.761,40.064 23.908,39.321C26.053,38.579 27.778,37.588 29.082,36.35C30.387,35.111 31.286,33.676 31.782,32.041C32.278,30.407 32.391,28.699 32.128,26.916C31.864,25.399 31.08,23.805 29.776,22.138C28.471,20.47 26.73,18.466 24.551,16.121C22.933,14.305 21.77,12.869 21.061,11.813C20.35,10.756 19.929,9.831 19.797,9.04C19.732,8.578 19.797,8.156 19.996,7.777C20.193,7.397 20.475,7.068 20.837,6.786C21.2,6.506 21.629,6.29 22.124,6.143C22.62,5.994 23.131,5.92 23.66,5.92C24.915,5.92 25.847,6.143 26.458,6.588C27.069,7.034 27.44,7.488 27.572,7.95C27.307,8.412 27.036,8.785 26.755,9.065C26.475,9.345 26.218,9.592 25.988,9.807C25.756,10.021 25.549,10.22 25.369,10.401C25.188,10.582 25.063,10.772 24.997,10.971C25.029,11.301 25.236,11.639 25.617,11.985C25.995,12.332 26.441,12.638 26.954,12.903C27.465,13.166 27.994,13.389 28.538,13.571C29.082,13.753 29.519,13.843 29.851,13.843C30.279,13.843 30.767,13.703 31.311,13.422C31.855,13.141 32.343,12.746 32.772,12.233C33.2,11.722 33.532,11.103 33.762,10.376C33.994,9.651 34.043,8.842 33.911,7.95C33.646,6.366 32.855,5.021 31.534,3.914" style="fill:white;"/>
                            </g>
                            <path id="Fill-4" d="M103.461,24.267C103.181,25.505 102.909,26.767 102.644,28.055C102.48,28.649 102.322,29.219 102.174,29.765C102.024,30.308 101.827,30.787 101.579,31.2C101.331,31.614 101.001,31.944 100.589,32.191C100.175,32.437 99.623,32.579 98.93,32.612C98.434,32.612 98.039,32.487 97.741,32.239C97.445,31.992 97.246,31.539 97.148,30.878C97.048,30.086 97.139,29.128 97.42,28.006C97.7,26.885 98.113,25.777 98.657,24.688C99.202,23.599 99.863,22.641 100.638,21.816C101.414,20.99 102.247,20.479 103.14,20.282C103.734,20.215 104.113,20.297 104.278,20.529C104.013,21.784 103.74,23.029 103.461,24.267M78.478,24.019C78.742,23.244 79.064,22.568 79.444,21.988C79.823,21.412 80.237,20.959 80.682,20.627C81.128,20.297 81.581,20.132 82.043,20.132C82.505,20.132 82.844,20.263 83.059,20.529C83.273,20.793 83.413,21.122 83.48,21.519C83.579,22.114 83.487,22.731 83.207,23.377C82.928,24.019 82.53,24.588 82.018,25.084C81.507,25.578 80.896,25.967 80.187,26.247C79.476,26.528 78.742,26.62 77.983,26.519C78.049,25.629 78.214,24.795 78.478,24.019M192.349,9.089C191.969,7.835 191.532,6.736 191.037,5.795C190.542,4.854 189.988,4.112 189.378,3.568C188.767,3.022 188.147,2.75 187.522,2.75C187.059,2.784 186.556,2.841 186.011,2.923C185.465,3.007 184.971,3.154 184.524,3.371C184.079,3.584 183.724,3.881 183.461,4.261C183.196,4.641 183.114,5.127 183.213,5.722C183.245,6.415 183.411,7.092 183.709,7.752C184.004,8.413 184.334,9.139 184.698,9.931C185.061,10.724 185.416,11.623 185.763,12.631C186.109,13.637 186.366,14.832 186.53,16.221C186.729,18.398 186.729,20.511 186.53,22.559C186.333,24.606 185.986,26.43 185.49,28.03C184.995,29.633 184.377,30.912 183.633,31.868C182.891,32.827 182.073,33.305 181.182,33.305C180.62,33.305 180.076,33.057 179.547,32.561C179.019,32.067 178.689,31.539 178.557,30.977C178.326,29.492 178.335,28.089 178.582,26.767C178.83,25.448 179.234,24.276 179.795,23.252C180.356,22.229 181.049,21.379 181.875,20.702C182.7,20.025 183.575,19.555 184.5,19.291C185.061,19.093 185.275,18.645 185.143,17.952C185.077,17.524 184.864,17.202 184.5,16.987C184.137,16.773 183.691,16.666 183.163,16.666C181.612,16.666 180.11,16.987 178.657,17.631C177.204,18.275 175.94,19.24 174.869,20.529C173.795,21.816 173.02,23.433 172.54,25.381C172.215,26.708 172.108,28.2 172.188,29.832C171.621,30.461 171.059,31.053 170.511,31.571C169.602,32.429 168.802,32.859 168.108,32.859C167.415,32.859 167.069,32.628 167.069,32.166C167.135,31.769 167.2,31.374 167.268,30.977C167.333,30.58 167.4,30.202 167.465,29.838C167.696,28.717 167.944,27.726 168.209,26.866C168.472,26.008 168.728,25.233 168.976,24.54C169.224,23.847 169.447,23.219 169.644,22.658C169.842,22.097 170.007,21.536 170.14,20.975L170.14,20.454C170.14,20.272 170.106,20.066 170.041,19.834C170.041,19.803 170.056,19.786 170.09,19.786L170.041,19.786C170.172,19.457 170.156,19.043 169.99,18.547C169.824,18.184 169.488,17.845 168.976,17.532C168.463,17.219 167.629,17.062 166.474,17.062C165.748,17.062 165.113,17.277 164.568,17.705C164.024,18.135 163.553,18.696 163.157,19.389C162.762,20.082 162.43,20.875 162.167,21.765C161.903,22.658 161.68,23.541 161.498,24.416C161.316,25.29 161.176,26.133 161.077,26.942C160.978,27.751 160.896,28.435 160.829,28.996C160.665,29.261 160.515,29.508 160.384,29.74C160.251,29.971 160.102,30.169 159.939,30.332C159.112,31.391 158.337,32.15 157.61,32.612C156.884,33.074 156.24,33.305 155.679,33.305C155.185,33.305 154.772,33.214 154.442,33.032C154.111,32.851 153.913,32.545 153.848,32.116C153.814,31.984 153.79,31.843 153.772,31.696C153.756,31.546 153.781,31.374 153.848,31.175C153.913,30.548 154.029,29.796 154.195,28.922C154.358,28.049 154.565,27.114 154.813,26.124C155.06,25.133 155.34,24.11 155.655,23.053C155.967,21.998 156.306,20.941 156.669,19.884C156.999,19.852 157.355,19.834 157.735,19.834C158.115,19.834 158.469,19.818 158.799,19.786C159.262,19.752 159.755,19.67 160.285,19.538C160.812,19.406 161.283,19.209 161.696,18.943C162.109,18.679 162.439,18.325 162.686,17.879C162.934,17.434 163.009,16.881 162.909,16.221C162.777,15.957 162.554,15.65 162.241,15.303C161.928,14.957 161.589,14.784 161.226,14.784L158.799,14.784C159.163,14.026 159.526,13.364 159.889,12.803C160.251,12.242 160.598,11.715 160.928,11.219C161.226,10.955 161.407,10.707 161.474,10.476C161.539,10.244 161.539,9.997 161.474,9.734C161.375,9.072 160.994,8.469 160.335,7.925C159.673,7.381 158.964,6.976 158.205,6.713C157.61,6.482 156.967,6.366 156.274,6.366C155.019,6.631 153.913,7.562 152.956,9.163C151.997,10.765 151.173,12.671 150.48,14.883C149.193,14.883 148.178,15.007 147.434,15.255C146.691,15.503 146.403,16.138 146.569,17.161C146.634,17.723 146.922,18.175 147.434,18.523C147.946,18.868 148.564,19.141 149.291,19.341C148.995,20.627 148.73,21.9 148.5,23.152C148.268,24.408 148.077,25.588 147.93,26.694C147.861,27.204 147.799,27.692 147.741,28.167C146.695,29.673 145.708,30.896 144.785,31.819C143.828,32.777 143.002,33.255 142.309,33.255C141.946,33.255 141.69,33.198 141.542,33.082C141.393,32.966 141.285,32.777 141.22,32.512C141.088,31.62 141.22,30.605 141.616,29.467C142.012,28.328 142.449,27.164 142.928,25.976C143.407,24.788 143.787,23.624 144.067,22.484C144.348,21.345 144.307,20.297 143.943,19.341C143.678,18.614 143.225,18.036 142.582,17.607C141.937,17.177 141.122,16.962 140.13,16.962C139.106,16.962 138.051,17.277 136.96,17.904C135.872,18.532 134.765,19.356 133.643,20.379C133.643,19.356 133.288,18.532 132.58,17.904C131.868,17.277 130.887,16.962 129.632,16.962C128.543,16.962 127.305,17.368 125.919,18.175C124.532,18.986 123.277,20.066 122.156,21.42C122.22,20.925 122.336,20.488 122.502,20.107C122.667,19.728 122.824,19.389 122.971,19.093C123.12,18.795 123.252,18.532 123.368,18.301C123.483,18.07 123.525,17.854 123.492,17.656C123.424,17.293 123.195,16.987 122.799,16.74C122.401,16.492 121.94,16.303 121.412,16.171C120.983,16.039 120.545,15.948 120.099,15.898C119.654,15.849 119.25,15.824 118.886,15.824C118.325,15.857 117.772,16.228 117.227,16.938C116.682,17.648 116.188,18.547 115.742,19.637C115.296,20.727 114.916,21.956 114.603,23.326C114.289,24.696 114.066,26.058 113.935,27.412C113.868,28.039 113.803,28.723 113.736,29.467C113.729,29.561 113.729,29.66 113.721,29.754C112.948,30.647 112.216,31.405 111.532,32.017C110.757,32.71 110.005,33.057 109.28,33.057C108.587,33.057 108.224,32.777 108.19,32.214C108.322,31.225 108.519,30.219 108.785,29.194C109.644,25.695 110.262,23.072 110.641,21.32C111.021,19.57 111.228,18.482 111.262,18.053C111.128,17.656 110.881,17.293 110.518,16.962C110.155,16.634 109.742,16.352 109.28,16.121C108.817,15.891 108.322,15.709 107.795,15.576C107.265,15.445 106.787,15.378 106.358,15.378C106.094,15.378 105.813,15.445 105.516,15.576C105.219,15.709 105.038,15.873 104.972,16.071L104.526,17.409C104.261,17.309 103.973,17.219 103.658,17.137C103.345,17.054 103.007,17.012 102.644,17.012C101.159,17.012 99.615,17.5 98.014,18.473C96.412,19.448 94.969,20.694 93.68,22.212C92.394,23.731 91.385,25.406 90.661,27.238C90.386,27.932 90.204,28.616 90.071,29.293C89.272,30.158 88.409,30.94 87.465,31.62C85.865,32.777 84.075,33.387 82.094,33.452C80.707,33.355 79.732,32.95 79.171,32.239C78.61,31.53 78.281,30.614 78.18,29.492C79.699,29.492 81.144,29.261 82.514,28.799C83.884,28.337 85.073,27.717 86.079,26.942C87.086,26.167 87.854,25.257 88.382,24.217C88.911,23.177 89.092,22.063 88.927,20.875C88.695,19.586 88.077,18.556 87.07,17.78C86.063,17.005 84.619,16.616 82.737,16.616C81.416,16.616 80.212,16.757 79.123,17.036C78.033,17.318 77.067,17.698 76.226,18.175C75.383,18.654 74.656,19.209 74.046,19.834C73.436,20.463 72.933,21.122 72.535,21.816C71.777,23.136 71.29,24.622 71.075,26.271C70.945,27.272 70.914,28.245 70.96,29.196C70.858,29.327 70.756,29.455 70.655,29.59C69.895,30.648 69.077,31.489 68.204,32.116C67.327,32.744 66.594,33.074 66,33.107C65.273,33.107 64.909,32.859 64.909,32.364C64.811,31.868 64.893,31.225 65.157,30.433C65.421,29.639 65.743,28.773 66.123,27.832C66.502,26.892 66.857,25.942 67.189,24.986C67.518,24.028 67.716,23.136 67.782,22.311C67.914,21.057 67.675,20.15 67.064,19.586C66.453,19.026 65.687,18.614 64.762,18.35C64.298,18.416 63.821,18.507 63.326,18.623C62.83,18.738 62.303,18.795 61.742,18.795C61.212,18.795 60.578,18.738 59.835,18.623C59.092,18.507 58.554,18.268 58.226,17.904C58.39,17.343 58.579,16.839 58.794,16.393C59.008,15.948 59.248,15.543 59.513,15.18C60.04,14.652 60.124,14.148 59.76,13.669C59.397,13.192 58.844,12.812 58.101,12.53C57.358,12.251 56.574,12.077 55.749,12.011C54.924,11.944 54.33,12.028 53.966,12.258C53.107,12.555 52.382,13.198 51.788,14.19C51.193,15.18 50.996,16.484 51.193,18.102C51.225,18.366 51.309,18.645 51.441,18.943C51.572,19.24 51.721,19.522 51.887,19.786C52.051,20.049 52.209,20.282 52.357,20.479C52.507,20.677 52.629,20.793 52.729,20.825C52.332,22.443 51.845,24.003 51.268,25.505C50.689,27.007 50.012,28.344 49.237,29.517C48.461,30.689 47.61,31.62 46.687,32.314C45.763,33.007 44.755,33.355 43.667,33.355C43.238,33.355 42.898,33.272 42.651,33.107C42.404,32.941 42.221,32.719 42.106,32.437C41.99,32.157 41.924,31.837 41.908,31.473C41.891,31.11 41.916,30.746 41.982,30.382C42.147,29.326 42.386,28.13 42.701,26.792C43.015,25.456 43.401,24.045 43.864,22.559L45.647,22.559C46.736,22.559 47.628,22.257 48.321,21.652C49.014,21.046 49.278,20.172 49.114,19.026C49.046,18.635 48.782,18.259 48.321,17.899C47.857,17.54 46.984,17.36 45.696,17.36C46.059,16.431 46.48,15.568 46.959,14.772C47.437,13.977 47.875,13.273 48.271,12.658C48.668,12.046 48.989,11.499 49.237,11.017C49.484,10.536 49.591,10.13 49.559,9.798C49.46,9.368 49.246,8.938 48.916,8.505C48.584,8.074 48.173,7.693 47.677,7.36C47.182,7.03 46.653,6.764 46.092,6.565C45.531,6.367 44.985,6.265 44.458,6.265C44.095,6.265 43.797,6.333 43.567,6.465C42.94,6.761 42.353,7.224 41.809,7.852C41.265,8.478 40.744,9.247 40.249,10.154C39.754,11.062 39.299,12.077 38.888,13.198C38.475,14.322 38.103,15.494 37.773,16.716C37.279,16.716 36.799,16.748 36.337,16.814C35.875,16.881 35.48,16.996 35.148,17.161C34.82,17.327 34.564,17.566 34.381,17.879C34.2,18.194 34.159,18.614 34.257,19.141C34.389,19.834 34.662,20.347 35.075,20.677C35.488,21.007 36.057,21.254 36.783,21.42C36.584,22.41 36.411,23.408 36.263,24.416C36.114,25.423 35.982,26.389 35.866,27.313C35.751,28.237 35.661,29.087 35.595,29.862C35.529,30.639 35.48,31.323 35.446,31.918C35.446,32.843 35.595,33.7 35.891,34.494C36.32,35.582 36.931,36.425 37.724,37.018C38.515,37.613 39.473,37.91 40.596,37.91C42.609,37.91 44.376,37.504 45.894,36.697C47.412,35.889 48.742,34.838 49.881,33.553C51.02,32.264 52.011,30.828 52.852,29.244C53.694,27.66 54.445,26.108 55.106,24.588L56.145,21.964C56.442,22.063 56.813,22.146 57.259,22.212C57.706,22.278 58.158,22.354 58.622,22.436C59.084,22.517 59.52,22.599 59.933,22.681C60.347,22.765 60.685,22.872 60.948,23.004C60.883,23.202 60.808,23.383 60.725,23.549C60.643,23.715 60.553,23.913 60.454,24.143C60.155,24.803 59.842,25.554 59.513,26.397C59.183,27.238 58.894,28.113 58.646,29.021C58.399,29.929 58.217,30.828 58.101,31.721C57.985,32.612 57.978,33.42 58.076,34.145C58.704,36.523 60.437,37.712 63.275,37.712C64.298,37.712 65.389,37.456 66.545,36.945C67.7,36.433 68.773,35.773 69.763,34.964C70.524,34.342 71.163,33.644 71.739,32.906C71.887,33.234 72.048,33.551 72.239,33.849C72.767,34.675 73.426,35.384 74.22,35.979C75.012,36.573 75.928,37.027 76.969,37.34C78.008,37.654 79.123,37.811 80.311,37.811C81.962,37.811 83.545,37.538 85.065,36.993C86.582,36.45 87.945,35.739 89.15,34.864C89.559,34.567 89.936,34.254 90.296,33.936C90.685,35.129 91.307,36.052 92.171,36.697C93.342,37.571 94.737,38.009 96.354,38.009C97.312,37.943 98.352,37.613 99.475,37.018C100.598,36.425 101.554,35.5 102.347,34.246C102.611,35.599 103.148,36.523 103.956,37.018C104.765,37.513 105.813,37.761 107.101,37.761C108.058,37.761 109.131,37.431 110.321,36.771C111.509,36.111 112.605,35.309 113.614,34.369C113.674,34.312 113.727,34.254 113.786,34.198C113.895,34.81 114.067,35.361 114.33,35.83C114.627,36.325 114.982,36.697 115.395,36.945C115.807,37.192 116.212,37.357 116.608,37.439C117.005,37.521 117.359,37.554 117.673,37.538C117.986,37.521 118.209,37.513 118.343,37.513C118.441,37.48 118.54,37.456 118.639,37.439C118.738,37.422 118.82,37.382 118.886,37.315C119.315,37.152 119.58,36.804 119.679,36.275C119.777,35.748 119.877,35.252 119.976,34.79C120.141,33.931 120.338,32.9 120.57,31.696C120.801,30.491 121.116,29.318 121.511,28.179C121.908,27.04 122.401,26.017 122.996,25.109C123.59,24.202 124.317,23.599 125.175,23.301C125.473,23.236 125.769,23.211 126.067,23.227C126.364,23.244 126.594,23.286 126.76,23.351C126.826,23.879 126.71,24.597 126.414,25.505C126.116,26.412 125.785,27.42 125.423,28.526C125.06,29.633 124.712,30.796 124.383,32.017C124.053,33.239 123.904,34.427 123.937,35.582C124.202,36.506 124.746,37.11 125.571,37.391C126.397,37.67 127.288,37.811 128.246,37.811C128.905,37.811 129.401,37.704 129.732,37.489C130.061,37.275 130.259,36.854 130.325,36.227C130.458,35.236 130.639,34.072 130.87,32.735C131.101,31.398 131.423,30.103 131.836,28.848C132.248,27.593 132.768,26.463 133.395,25.456C134.023,24.448 134.815,23.78 135.773,23.45C136.036,23.351 136.292,23.261 136.54,23.177C136.788,23.095 136.993,23.152 137.159,23.351C137.358,23.747 137.309,24.383 137.01,25.257C136.714,26.133 136.368,27.108 135.97,28.179C135.575,29.253 135.212,30.341 134.882,31.448C134.552,32.555 134.452,33.536 134.584,34.393C134.781,35.55 135.376,36.408 136.368,36.968C137.358,37.529 138.579,37.811 140.031,37.811C141.088,37.811 142.193,37.498 143.348,36.87C144.504,36.243 145.577,35.467 146.569,34.543C146.906,34.227 147.2,33.903 147.501,33.58C147.537,33.752 147.572,33.92 147.607,34.097C148.004,35.252 148.655,36.177 149.564,36.87C150.471,37.563 151.436,37.91 152.461,37.91C153.186,37.91 153.938,37.802 154.713,37.588C155.489,37.373 156.249,37.076 156.991,36.697C157.735,36.318 158.436,35.872 159.096,35.359C159.755,34.848 160.335,34.295 160.829,33.7C160.994,35.187 161.391,36.25 162.018,36.895C162.644,37.538 163.703,37.861 165.186,37.861C165.946,37.861 166.763,37.679 167.638,37.315C168.513,36.952 169.372,36.481 170.213,35.904C171.056,35.326 171.839,34.675 172.567,33.948C172.664,33.851 172.739,33.751 172.831,33.654C173.171,34.531 173.658,35.297 174.324,35.929C175.33,36.886 176.56,37.498 178.013,37.761C178.475,37.827 178.946,37.868 179.425,37.885C179.902,37.902 180.373,37.876 180.837,37.811C182.848,37.645 184.582,37.134 186.036,36.275C187.488,35.418 188.692,34.336 189.65,33.032C190.608,31.727 191.366,30.259 191.928,28.625C192.49,26.99 192.885,25.29 193.116,23.524C193.346,21.759 193.455,19.976 193.441,18.175C193.422,16.377 193.33,14.685 193.166,13.101C193,11.681 192.728,10.344 192.349,9.089" style="fill:white;"/>
                            <g id="Group-8" transform="matrix(1,0,0,1,194.482,16.6164)">
                                <path id="Fill-6" d="M7.547,7.403C7.811,6.628 8.133,5.951 8.513,5.372C8.892,4.794 9.306,4.342 9.751,4.011C10.196,3.681 10.649,3.515 11.112,3.515C11.574,3.515 11.912,3.647 12.127,3.912C12.341,4.177 12.482,4.506 12.549,4.901C12.648,5.496 12.556,6.115 12.276,6.76C11.996,7.403 11.599,7.972 11.087,8.468C10.576,8.962 9.965,9.351 9.255,9.631C8.545,9.912 7.811,10.002 7.051,9.903C7.118,9.012 7.283,8.178 7.547,7.403M22.429,10.994C22.213,10.664 21.824,10.498 21.265,10.498C21,10.498 20.818,10.58 20.72,10.746C19.532,12.43 18.137,13.849 16.534,15.004C14.934,16.16 13.144,16.77 11.162,16.836C9.776,16.738 8.801,16.334 8.24,15.623C7.679,14.914 7.349,13.998 7.249,12.876C8.767,12.876 10.213,12.645 11.583,12.182C12.953,11.721 14.141,11.101 15.148,10.326C16.155,9.551 16.923,8.641 17.452,7.601C17.98,6.561 18.161,5.447 17.996,4.258C17.765,2.97 17.146,1.94 16.139,1.164C15.132,0.389 13.687,0 11.805,0C10.486,0 9.281,0.141 8.192,0.42C7.102,0.702 6.136,1.082 5.295,1.559C4.452,2.038 3.725,2.593 3.115,3.218C2.505,3.847 2.002,4.506 1.604,5.199C0.846,6.519 0.359,8.006 0.144,9.655C-0.07,11.307 -0.045,12.891 0.218,14.409C0.417,15.468 0.78,16.408 1.307,17.233C1.836,18.059 2.496,18.768 3.289,19.363C4.081,19.956 4.997,20.411 6.037,20.724C7.077,21.038 8.192,21.195 9.38,21.195C11.03,21.195 12.614,20.922 14.134,20.377C15.651,19.834 17.013,19.123 18.219,18.247C19.423,17.374 20.414,16.408 21.19,15.35C21.965,14.296 22.453,13.239 22.652,12.182C22.717,11.721 22.643,11.323 22.429,10.994" style="fill:white;"/>
                            </g>
                            <path id="Fill-9" d="M170.597,11.877C173.063,10.844 174.587,8.873 174.001,7.474C173.415,6.074 170.941,5.777 168.475,6.81C166.009,7.843 164.485,9.814 165.07,11.213C165.656,12.613 168.131,12.91 170.597,11.877" style="fill:white;"/>
                        </g>
                        <g id="Group-27">
                            <path id="Fill-11" serif:id="Fill-1" d="M59.162,30.601C59.162,38.525 50.729,44.948 40.324,44.948C29.92,44.948 21.487,38.525 21.487,30.601C21.487,22.677 29.92,16.254 40.324,16.254C50.729,16.254 59.162,22.677 59.162,30.601" style="fill:white;"/>
                            <g id="Group-5">
                                <path id="Fill-3" d="M41.71,57.957C41.053,57.957 40.381,57.903 39.71,57.789L39.014,57.672C36.031,57.171 34.669,56.943 32.662,55.738C32.05,55.371 31.299,54.918 30.595,54.282C30.59,54.282 30.584,54.284 30.578,54.284C30.311,54.292 30.046,54.297 29.786,54.297C23.402,54.297 19.096,51.766 17.109,50.275C17.088,50.312 17.065,50.35 17.044,50.385C16.856,50.71 16.536,50.937 16.167,51.01C16.083,51.027 15.999,51.034 15.915,51.034C15.629,51.034 15.348,50.94 15.117,50.762C13.571,49.57 12.75,47.374 12.325,45.669C12.104,45.784 11.847,45.832 11.596,45.804C11.21,45.764 10.863,45.554 10.647,45.232C9.551,43.593 9.593,41.29 9.782,39.779C9.704,39.79 9.63,39.804 9.563,39.818C9.221,39.893 8.862,39.825 8.569,39.632C8.277,39.439 8.073,39.136 8.007,38.791C7.433,35.842 9.318,32.299 10.835,30.347C10.214,30.09 9.879,29.401 10.088,28.749C10.888,26.241 12.891,24.575 14.406,23.624C14.192,23.406 14.057,23.118 14.034,22.807C14.004,22.4 14.165,22.003 14.471,21.732C14.858,21.389 15.383,21.09 15.968,20.825C15.522,19.94 14.662,19.076 14.307,18.773C13.951,18.47 13.815,17.98 13.964,17.536C14.112,17.092 14.514,16.783 14.981,16.756C15.364,16.732 18.06,16.614 20.075,17.503C20.263,16.168 20.046,14.713 19.907,14.131C19.805,13.709 19.951,13.263 20.286,12.983C20.619,12.704 21.084,12.638 21.481,12.813C21.892,12.994 25.048,14.456 26.038,16.948C26.071,16.905 26.108,16.865 26.147,16.827C26.113,15.727 25.777,14.591 25.606,14.145C25.452,13.744 25.535,13.291 25.821,12.972C26.107,12.652 26.548,12.52 26.963,12.628C27.171,12.684 28.252,12.994 29.298,13.694C29.026,12.898 28.698,12.13 28.422,11.585C28.141,11.034 28.261,10.363 28.715,9.944C29.168,9.522 29.843,9.453 30.374,9.775C30.788,10.027 33.694,11.843 35.564,14.169C35.93,13.089 36.101,11.802 36.12,10.954C36.134,10.371 36.511,9.858 37.064,9.674C37.614,9.486 38.226,9.667 38.588,10.125C38.92,10.544 41.16,13.46 41.971,16.406C42.02,16.42 42.069,16.429 42.118,16.443C42.385,15.572 42.511,14.583 42.516,13.92C42.521,13.347 42.878,12.835 43.414,12.634C43.952,12.433 44.555,12.582 44.935,13.01C45.423,13.56 47.291,15.793 48.047,18.175C48.177,18.237 48.318,18.286 48.44,18.357C49.665,17.562 50.69,16.435 51.081,15.917C51.399,15.497 51.93,15.296 52.443,15.39C52.96,15.488 53.377,15.869 53.519,16.375C53.666,16.896 54.708,20.902 53.283,23.708C55.755,27.188 55.946,30.795 55.681,33.356C57.041,34.483 57.845,35.96 57.991,37.679C58.812,38.777 59.542,39.488 61.592,41.375C61.877,41.639 62.13,41.865 62.372,42.076C63.423,38.906 64,35.522 64,32C64,14.327 49.673,0 32,0C14.327,0 -0,14.327 -0,32C-0,49.673 14.327,64 32,64C37.498,64 42.672,62.612 47.191,60.17C45.358,59.582 43.677,58.825 42.164,57.946C42.013,57.952 41.863,57.957 41.71,57.957" style="fill:rgb(164,120,249);"/>
                            </g>
                            <path id="Fill-61" serif:id="Fill-6" d="M17.443,33.695C16.977,33.621 16.523,33.943 16.447,34.418C16.377,34.865 15.79,38.851 17.136,41.049C17.283,41.288 17.536,41.443 17.816,41.463C18.096,41.476 18.369,41.367 18.548,41.151L18.776,40.875C19.25,42.247 20.081,44.155 21.285,45.208C21.45,45.352 21.655,45.423 21.859,45.423C22.1,45.423 22.341,45.323 22.514,45.126C22.831,44.764 22.794,44.214 22.432,43.897C21.139,42.767 20.232,39.882 19.992,38.866C19.916,38.544 19.664,38.292 19.341,38.218C19.018,38.141 18.682,38.257 18.471,38.513L18.171,38.876C17.875,37.386 18.042,35.477 18.167,34.691C18.242,34.216 17.918,33.77 17.443,33.695" style="fill:rgb(164,120,249);"/>
                            <path id="Fill-8" d="M37.877,54.826C34.889,52.149 32.993,49.21 32.28,47.152C31.913,47.011 31.582,46.825 31.265,46.617C30.178,51.181 32.263,52.454 34.006,53.498C35.261,54.251 36.135,54.51 37.877,54.826" style="fill:rgb(164,120,249);"/>
                            <path id="Fill-10" d="M62.916,52.054C61.843,52.503 60.766,52.374 60.511,51.765C60.256,51.156 60.919,50.299 61.993,49.849C63.065,49.4 64.142,49.529 64.397,50.137C64.651,50.747 63.988,51.605 62.916,52.054M56.019,53.132C55.895,53.124 55.771,53.118 55.643,53.101C54.032,52.896 52.803,52.127 52.898,51.384C52.993,50.64 54.376,50.204 55.987,50.41C56.686,50.499 57.304,50.698 57.782,50.952C58.405,51.282 58.785,51.707 58.731,52.128C58.644,52.812 57.462,53.229 56.019,53.132M75.141,52.722C75.047,52.55 74.596,51.918 72.739,50.994C72.037,50.643 71.377,50.317 70.737,50.003C68.747,49.024 66.867,48.1 64.743,46.87C63.31,46.041 62.433,45.5 61.392,44.662C60.924,44.284 60.425,43.852 59.822,43.296C59.321,42.836 58.9,42.445 58.522,42.088C58.415,42.05 58.31,42.003 58.213,41.935C57.701,41.582 56.985,41.227 56.133,40.925C55.586,40.731 54.982,40.559 54.335,40.422C53.389,40.223 52.357,40.098 51.284,40.098C49.508,40.098 47.942,40.441 46.477,41.145C45.845,41.448 45.23,41.812 44.628,42.255C44.394,42.428 44.124,42.509 43.854,42.509C43.453,42.509 43.058,42.326 42.802,41.979C42.375,41.399 42.498,40.58 43.078,40.153C45.515,38.358 48.199,37.487 51.284,37.487C52.585,37.487 53.799,37.645 54.908,37.884C55.067,37.919 55.231,37.95 55.386,37.987C55.358,37.543 55.251,37.134 55.085,36.752C54.687,35.84 53.904,35.101 52.721,34.557C49.265,32.967 46.524,28.605 46.408,28.42C44.707,25.874 43.417,25.627 42.274,25.754C40.266,25.97 39.002,27.098 38.809,28.851L38.758,29.09C38.726,29.208 38.676,29.627 38.641,29.933C38.515,31.007 38.357,32.343 37.82,33.207C36.474,35.383 34.473,36.793 33.914,37.161C33.58,37.482 33.17,37.735 32.738,38.001C31.577,38.716 30.805,39.271 30.633,40.437C30.564,40.904 30.553,41.241 30.621,41.557C30.702,41.933 30.904,42.288 31.25,42.786C31.399,43 31.566,43.233 31.774,43.517C31.892,43.68 32.011,43.816 32.129,43.946C32.577,44.433 33.047,44.705 33.703,44.866L34.673,45.101L34.7,46.099C34.701,46.14 34.71,46.186 34.728,46.239C35.48,48.49 37.943,52.03 42.004,54.785C42.254,54.955 42.516,55.118 42.778,55.282C43.32,55.619 43.88,55.944 44.473,56.248C45.002,56.519 45.555,56.772 46.125,57.008C46.978,57.363 47.87,57.681 48.812,57.945C49.259,58.069 49.737,58.183 50.238,58.289C57.593,59.821 70.264,59.121 74.22,55.085C74.711,54.584 75.535,53.445 75.141,52.722" style="fill:rgb(164,120,249);"/>
                            <g id="Group-14" transform="matrix(1,0,0,1,7.90109,9.57341)">
                                <path id="Fill-12" d="M23.364,37.043C23.681,37.252 24.012,37.438 24.378,37.579C25.092,39.637 26.988,42.575 29.975,45.253C28.233,44.937 27.359,44.678 26.105,43.926C24.363,42.88 22.277,41.608 23.364,37.043M44.753,19.034C44.687,18.825 44.592,18.618 44.459,18.426C43.879,17.593 42.869,17.33 42.204,17.839C41.903,18.069 41.731,18.419 41.679,18.808C41.467,18.534 41.285,18.285 41.137,18.076C41.105,18.029 41.077,17.99 41.048,17.947C41.047,17.937 41.048,17.927 41.047,17.916C41.011,17.289 41.224,16.697 41.686,16.344C42.475,15.74 43.673,16.051 44.36,17.04C44.797,17.667 44.921,18.415 44.753,19.034M19.888,16.661C21.023,15.792 22.746,16.241 23.734,17.661C24.363,18.564 24.54,19.64 24.299,20.529C24.205,20.228 24.068,19.932 23.875,19.655C23.042,18.457 21.59,18.079 20.633,18.812C19.962,19.324 19.723,20.247 19.92,21.165C19.818,21.051 19.715,20.937 19.624,20.806C18.635,19.385 18.753,17.53 19.888,16.661M9.235,31.476C7.888,29.278 8.475,25.291 8.546,24.844C8.622,24.369 9.075,24.048 9.542,24.121C10.016,24.197 10.341,24.642 10.266,25.117C10.142,25.903 9.974,27.813 10.27,29.303L10.571,28.94C10.781,28.684 11.117,28.568 11.44,28.645C11.762,28.719 12.015,28.971 12.091,29.292C12.33,30.309 13.237,33.194 14.531,34.324C14.892,34.64 14.929,35.19 14.613,35.553C14.441,35.749 14.199,35.85 13.957,35.85C13.754,35.85 13.549,35.779 13.384,35.634C12.18,34.581 11.349,32.674 10.876,31.301L10.647,31.578C10.469,31.794 10.195,31.903 9.915,31.889C9.634,31.869 9.382,31.715 9.235,31.476M42.337,48.715C41.836,48.611 41.358,48.495 40.911,48.371C39.969,48.108 39.077,47.789 38.225,47.435C37.654,47.198 37.101,46.945 36.572,46.674C35.979,46.371 35.419,46.045 34.878,45.708C34.614,45.545 34.353,45.381 34.102,45.212C30.042,42.457 27.58,38.917 26.826,36.666C26.809,36.612 26.8,36.566 26.798,36.526L26.772,35.528L25.803,35.292C25.146,35.132 24.676,34.859 24.228,34.372C24.109,34.243 23.991,34.107 23.872,33.944C23.665,33.659 23.498,33.426 23.349,33.213C23.003,32.714 22.8,32.359 22.72,31.983C22.652,31.667 22.663,31.331 22.732,30.863C22.903,29.698 23.676,29.142 24.837,28.428C25.269,28.161 25.68,27.908 26.013,27.588C26.572,27.219 28.573,25.809 29.919,23.634C30.456,22.77 30.614,21.433 30.741,20.36C30.776,20.054 30.825,19.634 30.857,19.517L30.907,19.277C31.101,17.525 32.365,16.396 34.373,16.181C35.516,16.054 36.806,16.301 38.507,18.847C38.622,19.032 41.365,23.393 44.819,24.983C46.002,25.527 46.785,26.266 47.184,27.178C47.35,27.56 47.456,27.97 47.485,28.414C47.33,28.376 47.166,28.345 47.007,28.311C45.898,28.071 44.684,27.913 43.383,27.913C40.298,27.913 37.614,28.785 35.177,30.58C34.597,31.006 34.473,31.825 34.901,32.406C35.156,32.752 35.552,32.937 35.953,32.937C36.223,32.937 36.493,32.854 36.727,32.682C37.329,32.238 37.944,31.875 38.576,31.571C40.041,30.868 41.607,30.524 43.383,30.524C44.456,30.524 45.488,30.649 46.434,30.849C47.081,30.985 47.685,31.157 48.232,31.352C49.084,31.655 49.8,32.008 50.312,32.362C50.409,32.43 50.514,32.477 50.621,32.515C50.999,32.871 51.42,33.262 51.921,33.723C52.524,34.279 53.023,34.711 53.492,35.088C54.532,35.926 55.409,36.467 56.842,37.296C58.966,38.526 60.846,39.451 62.836,40.429C63.476,40.744 64.137,41.069 64.838,41.42C66.694,42.345 67.146,42.977 67.24,43.148C67.635,43.871 66.81,45.01 66.318,45.511C62.363,49.548 49.692,50.248 42.337,48.715M69.531,41.896C68.997,40.919 67.842,39.998 66.001,39.082C65.299,38.73 64.634,38.403 63.989,38.086C61.956,37.086 60.198,36.221 58.151,35.037C56.551,34.111 55.76,33.627 54.471,32.502C54.229,32.291 53.976,32.066 53.691,31.802C51.641,29.915 50.911,29.204 50.089,28.105C49.944,26.386 49.139,24.91 47.78,23.783C48.045,21.221 47.854,17.615 45.382,14.135C46.807,11.329 45.765,7.323 45.618,6.801C45.476,6.295 45.059,5.915 44.542,5.817C44.029,5.722 43.498,5.924 43.18,6.344C42.789,6.862 41.764,7.989 40.539,8.784C40.417,8.713 40.276,8.664 40.146,8.602C39.39,6.22 37.522,3.986 37.034,3.437C36.655,3.008 36.051,2.86 35.513,3.06C34.977,3.261 34.62,3.773 34.615,4.346C34.611,5.009 34.484,5.999 34.217,6.87C34.168,6.856 34.119,6.846 34.07,6.832C33.259,3.886 31.019,0.97 30.687,0.552C30.325,0.093 29.713,-0.087 29.164,0.1C28.61,0.285 28.233,0.798 28.219,1.381C28.2,2.228 28.029,3.515 27.663,4.596C25.793,2.269 22.888,0.454 22.473,0.201C21.943,-0.12 21.266,-0.052 20.814,0.37C20.359,0.79 20.24,1.461 20.521,2.012C20.798,2.557 21.125,3.324 21.397,4.121C20.351,3.421 19.27,3.11 19.061,3.055C18.647,2.947 18.206,3.079 17.92,3.399C17.634,3.717 17.551,4.171 17.705,4.571C17.876,5.018 18.212,6.154 18.245,7.253C18.207,7.292 18.171,7.331 18.136,7.375C17.147,4.883 13.991,3.421 13.581,3.239C13.184,3.065 12.718,3.13 12.385,3.41C12.05,3.689 11.904,4.135 12.006,4.558C12.145,5.139 12.362,6.594 12.174,7.93C10.159,7.041 7.463,7.159 7.08,7.183C6.613,7.21 6.211,7.519 6.062,7.963C5.914,8.407 6.05,8.897 6.406,9.199C6.761,9.502 7.621,10.366 8.067,11.252C7.482,11.517 6.957,11.816 6.569,12.159C6.264,12.43 6.103,12.827 6.133,13.234C6.156,13.544 6.291,13.832 6.505,14.05C4.989,15.001 2.987,16.668 2.186,19.176C1.978,19.827 2.312,20.517 2.934,20.774C1.417,22.726 -0.468,26.269 0.105,29.218C0.172,29.562 0.375,29.865 0.667,30.058C0.962,30.251 1.32,30.32 1.661,30.245C1.729,30.23 1.803,30.217 1.881,30.205C1.692,31.717 1.649,34.019 2.746,35.659C2.962,35.981 3.309,36.19 3.695,36.231C3.946,36.259 4.202,36.21 4.425,36.096C4.848,37.801 5.67,39.996 7.217,41.188C7.447,41.367 7.727,41.461 8.014,41.461C8.097,41.461 8.181,41.454 8.266,41.436C8.634,41.364 8.954,41.137 9.143,40.811C9.163,40.776 9.187,40.738 9.208,40.702C11.196,42.193 15.502,44.723 21.884,44.723C22.145,44.723 22.41,44.719 22.677,44.71C22.683,44.71 22.688,44.709 22.694,44.708C23.398,45.345 24.149,45.798 24.76,46.165C26.768,47.37 28.13,47.598 31.113,48.099L31.809,48.216C32.48,48.33 33.152,48.383 33.81,48.383C33.961,48.383 34.112,48.379 34.263,48.372C35.776,49.251 37.457,50.009 39.29,50.596C39.595,50.694 39.894,50.799 40.209,50.887C42.961,51.654 46.647,52.081 50.485,52.081C57.452,52.081 64.916,50.673 68.184,47.34C69.526,45.97 70.585,43.821 69.531,41.896" style="fill:rgb(59,29,86);"/>
                            </g>
                            <path id="Fill-15" d="M61.992,49.849C60.92,50.298 60.257,51.156 60.511,51.765C60.766,52.374 61.843,52.503 62.915,52.053C63.989,51.604 64.652,50.747 64.397,50.138C64.142,49.529 63.066,49.4 61.992,49.849" style="fill:rgb(59,29,86);"/>
                            <path id="Fill-17" d="M57.782,50.951C57.304,50.698 56.686,50.499 55.987,50.409C54.376,50.204 52.993,50.64 52.899,51.383C52.804,52.127 54.032,52.896 55.643,53.102C55.771,53.118 55.895,53.124 56.02,53.132C57.462,53.23 58.644,52.812 58.731,52.128C58.785,51.707 58.405,51.282 57.782,50.951" style="fill:rgb(59,29,86);"/>
                        </g>
                    </g>
                </g>
            </g>
        </g>
    </g>
</svg>
