<?xml version="1.0" encoding="UTF-8"?>
<svg width="158px" height="166px" viewBox="0 0 158 166" version="1.1" xmlns="http://www.w3.org/2000/svg" xmlns:xlink="http://www.w3.org/1999/xlink">
    <title>Group 62</title>
    <defs>
        <polygon id="path-1" points="0 -1.42108547e-14 10.3589 -1.42108547e-14 10.3589 55.349 0 55.349"></polygon>
    </defs>
    <g id="Symbols" stroke="none" stroke-width="1" fill="none" fill-rule="evenodd">
        <g id="Footer-SignUp-Desktop" transform="translate(-1523.000000, -4.000000)">
            <g id="Group-62" transform="translate(1523.500550, 4.087400)">
                <polygon id="Fill-1" fill="#0B0B09" points="23.5967 130.8394 18.2247 135.2844 20.9377 127.6254 20.0447 126.5474 12.6127 132.6954 13.5327 133.8064 18.9467 129.3264 16.2187 137.0544 17.0837 138.1004 24.5157 131.9514"></polygon>
                <g id="Group-61">
                    <path d="M30.5215,144.0649 C29.2405,145.5649 27.0405,145.8579 25.5405,144.5769 C24.0505,143.3039 24.0045,141.0959 25.2865,139.5949 C26.5755,138.0839 28.7835,137.7609 30.2735,139.0329 C31.7735,140.3139 31.8115,142.5539 30.5215,144.0649 M24.1905,138.6599 C22.4175,140.7349 22.5825,143.8179 24.6675,145.5979 C26.7635,147.3879 29.8455,147.0759 31.6175,145.0009 C33.3975,142.9149 33.2415,139.8009 31.1445,138.0109 C29.0595,136.2309 25.9705,136.5739 24.1905,138.6599" id="Fill-2" fill="#0B0B09"></path>
                    <polygon id="Fill-4" fill="#0B0B09" points="36.3809 143.9849 38.8259 145.4909 34.4579 152.5889 35.6879 153.3439 40.0559 146.2469 42.5009 147.7519 43.1909 146.6309 37.0709 142.8639"></polygon>
                    <path d="M55.8213,155.2134 C55.5453,156.0224 54.8313,156.6804 53.7713,156.3174 L51.5583,155.5614 L52.6743,152.3024 L54.9393,153.0764 C55.9593,153.4254 56.0973,154.4044 55.8213,155.2134 M55.3913,151.8404 L51.7353,150.5904 L48.6133,159.7184 L49.9773,160.1854 L51.1333,156.8074 L53.4253,157.5904 C55.3853,158.2604 56.6873,157.1384 57.1853,155.6804 C57.6793,154.2354 57.3523,152.5114 55.3913,151.8404" id="Fill-6" fill="#0B0B09"></path>
                    <polygon id="Fill-8" fill="#0B0B09" points="63.5313 153.9829 62.1143 153.7119 60.3023 163.1889 65.5283 164.1889 65.7753 162.8959 61.9663 162.1669"></polygon>
                    <path d="M72.5244,161.1948 L74.2794,157.0728 L75.6154,161.3438 L72.5244,161.1948 Z M73.5944,155.2878 L69.4784,164.7488 L70.9894,164.8218 L72.0024,162.4298 L76.0154,162.6248 L76.7944,165.1018 L78.3044,165.1748 L75.1324,155.3618 L73.5944,155.2878 Z" id="Fill-10" fill="#0B0B09"></path>
                    <polygon id="Fill-12" fill="#0B0B09" points="87.7051 154.8442 80.5501 155.4522 80.6611 156.7642 83.5201 156.5212 84.2261 164.8192 85.6631 164.6972 84.9571 156.3982 87.8161 156.1562"></polygon>
                    <polygon id="Fill-14" fill="#0B0B09" points="97.1641 157.2417 93.8721 157.9857 93.2261 155.1317 97.3791 154.1917 97.0891 152.9077 91.5281 154.1657 93.6571 163.5777 95.0641 163.2597 94.1621 159.2697 97.4551 158.5257"></polygon>
                    <path d="M107.8506,158.1392 C106.0326,158.8682 104.0546,157.8802 103.3216,156.0492 C102.5816,154.2042 103.3226,152.0992 105.1406,151.3712 C106.9726,150.6382 108.9736,151.6452 109.7116,153.4902 C110.4456,155.3222 109.6816,157.4062 107.8506,158.1392 M104.6406,150.1242 C102.0946,151.1442 100.9626,154.0382 101.9826,156.5842 C102.9966,159.1182 105.8036,160.4062 108.3506,159.3862 C110.9096,158.3612 112.0646,155.4872 111.0496,152.9532 C110.0306,150.4082 107.2006,149.1002 104.6406,150.1242" id="Fill-16" fill="#0B0B09"></path>
                    <path d="M118.2568,148.7886 L116.6458,149.7756 L114.8328,146.8136 L116.7318,145.6526 C117.5308,145.1626 118.4248,145.4696 118.9498,146.3286 C119.4848,147.2006 119.3908,148.0946 118.2568,148.7886 M120.1808,145.5766 C119.3838,144.2746 117.8588,143.4196 116.0558,144.5226 L112.9158,146.4456 L117.9518,154.6706 L119.1808,153.9176 L117.3028,150.8506 L118.2348,150.2796 L122.2248,152.0546 L123.6938,151.1556 L119.6548,149.4106 C120.9478,148.4376 120.9038,146.7586 120.1808,145.5766" id="Fill-18" fill="#0B0B09"></path>
                    <polygon id="Fill-20" fill="#0B0B09" points="128.4336 134.8755 130.5866 142.2675 123.4826 139.2985 122.5206 140.1565 128.0746 148.1375 129.1386 147.1855 125.1106 141.3945 131.2286 143.8915 132.1476 143.0695 130.3336 136.7275 135.6356 141.3815 136.7026 140.4295 129.3946 134.0165"></polygon>
                    <path d="M142.1855,129.4312 C141.0735,128.5582 139.7935,128.8502 138.4495,129.8592 L137.4325,130.6082 C136.4265,131.3662 135.8715,131.0542 135.6285,130.8642 C134.9355,130.3182 134.9645,129.3082 135.5275,128.5932 C136.1415,127.8122 137.0775,127.6402 137.7925,128.2022 L138.6755,127.0802 C137.2895,125.9912 135.5915,126.3822 134.5185,127.7462 C133.4625,129.0892 133.4285,130.9672 134.7595,132.0132 C135.3865,132.5062 136.5515,132.9952 138.2305,131.6982 L139.2345,130.9202 C139.8835,130.4342 140.6775,130.0802 141.3495,130.6082 C141.9765,131.1012 142.1325,132.0782 141.4225,132.9812 C140.6805,133.9272 139.5775,134.0392 138.9115,133.5502 L138.0285,134.6732 C139.2495,135.6332 141.1855,135.4112 142.4565,133.7942 C143.6605,132.2652 143.4505,130.4272 142.1855,129.4312" id="Fill-22" fill="#0B0B09"></path>
                    <path d="M9.293,50.3794 C7.992,49.8264 6.832,50.4434 5.797,51.7694 L5.012,52.7584 C4.239,53.7534 3.621,53.5984 3.338,53.4774 C2.526,53.1324 2.29,52.1504 2.645,51.3124 C3.033,50.3974 3.893,49.9864 4.73,50.3424 L5.289,49.0274 C3.665,48.3384 2.129,49.1614 1.45,50.7594 C0.783,52.3304 1.241,54.1524 2.8,54.8154 C3.534,55.1274 4.787,55.2944 6.068,53.6024 L6.833,52.5894 C7.333,51.9494 8.008,51.4004 8.793,51.7334 C9.528,52.0454 9.935,52.9484 9.486,54.0054 C9.016,55.1134 7.981,55.5104 7.209,55.2134 L6.651,56.5274 C8.081,57.1354 9.893,56.4134 10.698,54.5204 C11.459,52.7294 10.774,51.0084 9.293,50.3794" id="Fill-24" fill="#0B0B09"></path>
                    <path d="M15.7598,44.7476 C16.7688,43.1146 16.5528,41.0386 14.6698,39.8756 L9.2838,36.5486 L8.5268,37.7756 L13.8998,41.0956 C15.1508,41.8686 15.1888,43.0606 14.5928,44.0256 C13.9958,44.9906 12.9208,45.4786 11.6698,44.7056 L6.2958,41.3866 L5.5368,42.6136 L10.9238,45.9406 C12.8058,47.1026 14.7518,46.3796 15.7598,44.7476" id="Fill-26" fill="#0B0B09"></path>
                    <path d="M15.0415,31.1724 L16.5995,29.3564 C17.3015,28.5374 18.2625,28.7714 18.9105,29.3264 C19.5585,29.8824 19.9065,30.7884 19.1775,31.6394 L17.6555,33.4134 L15.0415,31.1724 Z M21.3645,36.5934 L18.6545,34.2704 L20.2305,32.4314 C21.5795,30.8594 21.0175,29.2344 19.8485,28.2334 C18.6895,27.2384 16.9665,26.9044 15.6185,28.4784 L13.1045,31.4104 L20.4255,37.6884 L21.3645,36.5934 Z" id="Fill-28" fill="#0B0B09"></path>
                    <path d="M23.501,22.3394 L25.311,20.7724 C26.126,20.0664 27.042,20.4394 27.602,21.0844 C28.161,21.7304 28.371,22.6784 27.524,23.4114 L25.757,24.9434 L23.501,22.3394 Z M28.957,28.6374 L26.619,25.9384 L28.45,24.3524 C30.017,22.9944 29.701,21.3044 28.692,20.1404 C27.692,18.9864 26.037,18.4014 24.47,19.7584 L21.549,22.2894 L27.867,29.5824 L28.957,28.6374 Z" id="Fill-30" fill="#0B0B09"></path>
                    <path d="M34.5537,18.1177 C33.5187,16.4217 33.8987,14.2217 35.5727,13.2017 C37.2567,12.1747 39.3977,12.8357 40.4327,14.5327 C41.4597,16.2177 41.0537,18.3997 39.3687,19.4277 C37.6957,20.4477 35.5817,19.8027 34.5537,18.1177 M40.0687,20.5747 C42.4227,19.1387 43.0847,16.1117 41.6637,13.7817 C40.2357,11.4397 37.2267,10.6197 34.8727,12.0557 C32.5307,13.4827 31.8947,16.5267 33.3227,18.8687 C34.7437,21.1987 37.7257,22.0037 40.0687,20.5747" id="Fill-32" fill="#0B0B09"></path>
                    <path d="M47.6792,11.0132 L46.3912,7.7872 L48.4602,6.9612 C49.3312,6.6142 50.1602,7.0672 50.5342,8.0032 C50.9132,8.9522 50.6712,9.8192 49.4352,10.3122 L47.6792,11.0132 Z M48.1462,12.1832 L49.1612,11.7792 L52.7982,14.2022 L54.3982,13.5642 L50.7092,11.1602 C52.1482,10.4202 52.3882,8.7562 51.8742,7.4682 C51.3082,6.0502 49.9492,4.9502 47.9852,5.7342 L44.5642,7.0992 L48.1402,16.0622 L49.4802,15.5272 L48.1462,12.1832 Z" id="Fill-34" fill="#0B0B09"></path>
                    <polygon id="Fill-36" fill="#0B0B09" points="59.7173 3.48 62.5073 2.807 62.1983 1.528 55.2173 3.211 55.5253 4.491 58.3153 3.818 60.2683 11.917 61.6703 11.578"></polygon>
                    <polygon id="Fill-38" fill="#0B0B09" points="68.7954 0.5952 67.3644 0.7692 68.5314 10.3422 69.9624 10.1672"></polygon>
                    <polygon id="Fill-40" fill="#0B0B09" points="76.6401 2.646 80.7051 9.757 82.0631 9.785 82.2631 0.145 80.8211 0.115 80.6771 7.083 76.6521 0.029 75.2531 0 75.0531 9.64 76.4941 9.669"></polygon>
                    <path d="M96.6094,6.8364 L92.3224,6.0864 L92.1104,7.2994 L94.8394,7.7764 C94.5964,9.1684 93.0604,9.9934 91.4614,9.7144 C89.5314,9.3774 88.3434,7.4794 88.6834,5.5354 C89.0264,3.5784 90.7924,2.1684 92.7084,2.5034 C93.5894,2.6574 94.3404,3.1574 94.8374,3.8134 L95.9884,3.0764 C95.3004,2.1324 94.2324,1.4204 92.9374,1.1934 C90.2354,0.7214 87.7364,2.5854 87.2634,5.2864 C86.7934,7.9754 88.5034,10.5474 91.2464,11.0254 C93.9344,11.4964 96.0184,10.2134 96.6094,6.8364" id="Fill-42" fill="#0B0B09"></path>
                    <path d="M113.1113,11.0444 C112.7623,11.8234 111.9923,12.4144 110.9703,11.9574 L108.8363,11.0024 L110.2423,7.8584 L112.4273,8.8374 C113.4113,9.2764 113.4603,10.2654 113.1113,11.0444 M114.4273,11.6334 C115.0503,10.2404 114.8813,8.4934 112.9903,7.6474 L109.4633,6.0694 L105.5243,14.8724 L106.8403,15.4614 L108.2983,12.2034 L110.5093,13.1924 C112.4003,14.0384 113.7983,13.0384 114.4273,11.6334" id="Fill-44" fill="#0B0B09"></path>
                    <polygon id="Fill-46" fill="#0B0B09" points="121.084 21.7769 117.306 19.3729 118.786 17.0469 121.985 19.0829 122.699 17.9619 119.5 15.9239 121.07 13.4569 124.742 15.7939 125.448 14.6829 120.571 11.5809 115.395 19.7159 120.378 22.8869"></polygon>
                    <path d="M127.5718,22.2876 C128.8888,20.7976 131.1038,20.5136 132.5718,21.8116 C134.0508,23.1206 134.0498,25.3626 132.7318,26.8516 C131.4238,28.3306 129.2178,28.5856 127.7388,27.2766 C126.2708,25.9776 126.2638,23.7666 127.5718,22.2876 M126.8478,28.2836 C128.9138,30.1106 132.0028,29.8526 133.8128,27.8076 C135.6308,25.7516 135.5288,22.6336 133.4628,20.8056 C131.4068,18.9866 128.3098,19.2756 126.4908,21.3316 C124.6828,23.3766 124.7918,26.4656 126.8478,28.2836" id="Fill-48" fill="#0B0B09"></path>
                    <path d="M140.9131,30.5435 L142.4211,32.4025 C143.1001,33.2395 142.6971,34.1435 142.0341,34.6825 C141.3711,35.2195 140.4161,35.3985 139.7111,34.5285 L138.2381,32.7135 L140.9131,30.5435 Z M134.4441,35.7905 L137.2161,33.5415 L138.7421,35.4225 C140.0471,37.0315 141.7461,36.7715 142.9421,35.8015 C144.1261,34.8405 144.7651,33.2045 143.4601,31.5965 L141.0271,28.5955 L133.5361,34.6705 L134.4441,35.7905 Z" id="Fill-50" fill="#0B0B09"></path>
                    <polygon id="Fill-52" fill="#0B0B09" points="149.1606 39.7398 148.4166 38.5038 140.1526 43.4828 142.8986 48.0408 144.0256 47.3608 142.0246 44.0388"></polygon>
                    <polygon id="Fill-54" fill="#0B0B09" points="148.2896 56.5952 146.5156 52.4812 149.0476 51.3882 150.5506 54.8732 151.7716 54.3462 150.2696 50.8622 152.9566 49.7032 154.6816 53.7012 155.8896 53.1802 153.5996 47.8702 144.7416 51.6902 147.0806 57.1162"></polygon>
                    <g id="Group-58" transform="translate(0.000000, 64.748100)">
                        <mask id="mask-2" fill="white">
                            <use xlink:href="#path-1"></use>
                        </mask>
                        <g id="Clip-57"></g>
                        <path d="M3.0259,0.227 L2.0519,-1.42108547e-14 C0.6909,5.839 -0.0001,11.866 -0.0001,17.914 C-0.0001,30.989 3.2779,43.934 9.4799,55.349 L10.3589,54.873 C4.2359,43.603 0.9999,30.823 0.9999,17.914 C0.9999,11.942 1.6819,5.992 3.0259,0.227" id="Fill-56" fill="#0B0B09" mask="url(#mask-2)"></path>
                    </g>
                    <path d="M155.3677,64.7485 L154.3937,64.9755 C155.7387,70.7395 156.4197,76.6895 156.4197,82.6615 C156.4197,95.5705 153.1837,108.3515 147.0617,119.6205 L147.9407,120.0975 C154.1417,108.6825 157.4197,95.7365 157.4197,82.6615 C157.4197,76.6135 156.7297,70.5875 155.3677,64.7485" id="Fill-59" fill="#0B0B09"></path>
                </g>
            </g>
        </g>
    </g>
</svg>