<?xml version="1.0" encoding="UTF-8"?>
<svg width="41px" height="41px" viewBox="0 0 41 41" version="1.1" xmlns="http://www.w3.org/2000/svg" xmlns:xlink="http://www.w3.org/1999/xlink">
    <title>Group 6</title>
    <g id="Page-1" stroke="none" stroke-width="1" fill="none" fill-rule="evenodd">
        <rect id="Rectangle-Copy-25" fill="#f8d588" x="0" y="0" width="40" height="40" rx="6"></rect>
        <g id="Group-6" transform="translate(11.5, 13)">
            <path fill="#3b1d56" d="M 15.238281 1.246094 C 14.089844 0.71875 12.859375 0.328125 11.574219 0.105469 C 11.550781 0.101562 11.527344 0.113281 11.515625 0.132812 C 11.355469 0.417969 11.179688 0.785156 11.058594 1.074219 C 9.675781 0.867188 8.300781 0.867188 6.945312 1.074219 C 6.820312 0.777344 6.640625 0.417969 6.480469 0.132812 C 6.46875 0.113281 6.445312 0.101562 6.421875 0.105469 C 5.136719 0.328125 3.90625 0.71875 2.757812 1.246094 C 2.746094 1.25 2.738281 1.257812 2.734375 1.265625 C 0.398438 4.769531 -0.238281 8.183594 0.0742188 11.554688 C 0.0742188 11.570312 0.0859375 11.585938 0.0976562 11.597656 C 1.636719 12.730469 3.128906 13.421875 4.59375 13.878906 C 4.617188 13.886719 4.640625 13.875 4.65625 13.855469 C 5 13.382812 5.308594 12.882812 5.574219 12.355469 C 5.589844 12.324219 5.574219 12.289062 5.542969 12.277344 C 5.054688 12.089844 4.589844 11.863281 4.140625 11.605469 C 4.105469 11.582031 4.101562 11.53125 4.132812 11.507812 C 4.226562 11.4375 4.324219 11.363281 4.414062 11.289062 C 4.429688 11.273438 4.453125 11.273438 4.472656 11.28125 C 7.417969 12.628906 10.605469 12.628906 13.515625 11.28125 C 13.535156 11.269531 13.558594 11.273438 13.574219 11.289062 C 13.667969 11.363281 13.761719 11.4375 13.855469 11.507812 C 13.886719 11.53125 13.886719 11.582031 13.851562 11.605469 C 13.402344 11.867188 12.9375 12.089844 12.445312 12.273438 C 12.414062 12.285156 12.398438 12.324219 12.414062 12.355469 C 12.6875 12.882812 12.996094 13.382812 13.335938 13.855469 C 13.347656 13.875 13.375 13.886719 13.398438 13.878906 C 14.867188 13.421875 16.359375 12.730469 17.898438 11.597656 C 17.914062 11.585938 17.921875 11.570312 17.921875 11.554688 C 18.296875 7.65625 17.292969 4.269531 15.261719 1.269531 C 15.257812 1.257812 15.246094 1.25 15.238281 1.246094 Z M 6.015625 9.5 C 5.128906 9.5 4.398438 8.683594 4.398438 7.679688 C 4.398438 6.675781 5.113281 5.859375 6.015625 5.859375 C 6.921875 5.859375 7.648438 6.683594 7.632812 7.679688 C 7.632812 8.683594 6.917969 9.5 6.015625 9.5 Z M 11.996094 9.5 C 11.109375 9.5 10.378906 8.683594 10.378906 7.679688 C 10.378906 6.675781 11.09375 5.859375 11.996094 5.859375 C 12.902344 5.859375 13.628906 6.683594 13.613281 7.679688 C 13.613281 8.683594 12.902344 9.5 11.996094 9.5 Z M 11.996094 9.5 "/>
        </g>
    </g>
</svg>
