<?xml version="1.0" encoding="UTF-8"?>
<svg width="41px" height="41px" viewBox="0 0 41 41" version="1.1" xmlns="http://www.w3.org/2000/svg" xmlns:xlink="http://www.w3.org/1999/xlink">
    <title>Group 2</title>
    <g id="Page-1" stroke="none" stroke-width="1" fill="none" fill-rule="evenodd">
        <g id="Profile-Day" transform="translate(-860.000000, -493.000000)">
            <g id="Group-2" transform="translate(860.615170, 493.289950)">
                <rect id="Rectangle-Copy-28" fill="#A478F9" x="0" y="0" width="40" height="40" rx="6"></rect>
                <g id="Group-15" transform="translate(13.119048, 13.119048)" fill="#FFFFFF">
                    <path d="M6.88067401,0 C5.01227512,0 4.77733342,0.00779458964 4.04355817,0.0406432174 C3.31089638,0.074605358 2.81039262,0.19041069 2.37279979,0.359664636 C1.92128862,0.536156416 1.53714224,0.772221131 1.15410933,1.15359927 C0.772189891,1.53664767 0.536134726,1.92136635 0.360763554,2.37178228 C0.189846253,2.81050632 0.0740456059,3.30991681 0.0406415732,4.043165 C0.00723754043,4.77696994 0,5.01192114 0,6.87983887 C0,8.74942687 0.00723754043,8.98215104 0.0406415732,9.71818301 C0.0740456059,10.4492042 0.189846253,10.9502849 0.360763554,11.389009 C0.536134726,11.8410952 0.772189891,12.2241436 1.15410933,12.6077487 C1.53714224,12.9891269 1.92128862,13.2251916 2.37279979,13.4011266 C2.81039262,13.5720508 3.31089638,13.6872994 4.04355817,13.720148 C4.77733342,13.7546669 5.01227512,13.7619048 6.88067401,13.7619048 C8.74907291,13.7619048 8.98290114,13.7546669 9.71723313,13.720148 C10.4498949,13.6872994 10.9503987,13.5709373 11.3874348,13.4011266 C11.8406161,13.2251916 12.2242058,12.9891269 12.606682,12.6077487 C12.9891581,12.2241436 13.2246566,11.8410952 13.399471,11.389009 C13.570945,10.9502849 13.6867457,10.4492042 13.7207065,9.71818301 C13.7541105,8.98215104 13.7619048,8.74942687 13.7619048,6.87983887 C13.7619048,5.01192114 13.7541105,4.77696994 13.7207065,4.043165 C13.6867457,3.30991681 13.570945,2.80994956 13.399471,2.37178228 C13.2246566,1.92136635 12.9891581,1.53664767 12.606682,1.15359927 C12.2242058,0.772221131 11.8406161,0.536156416 11.3874348,0.359664636 C10.9503987,0.19041069 10.4498949,0.074605358 9.71723313,0.0406432174 C8.98290114,0.00779458964 8.74907291,0 6.88067401,0 M6.88067401,1.23933975 C8.71845255,1.23933975 8.93502203,1.24546407 9.66155974,1.2783127 C10.3324241,1.30949106 10.696528,1.4213991 10.939264,1.51493417 C11.2604994,1.64187463 11.4893171,1.78997183 11.7298261,2.02993384 C11.9703351,2.27045261 12.1200966,2.50094976 12.2448049,2.82275496 C12.338893,3.06383048 12.4519099,3.42850593 12.4819736,4.09939739 C12.5148209,4.82707801 12.5215017,5.04365625 12.5215017,6.87983887 C12.5215017,8.71880527 12.5148209,8.93538351 12.4819736,9.66139386 C12.4519099,10.3339556 12.338893,10.6958473 12.2448049,10.9391498 C12.1200966,11.2615118 11.9703351,11.4897819 11.7298261,11.7303006 C11.4893171,11.9708194 11.2604994,12.1205869 10.939264,12.2453003 C10.696528,12.3382786 10.3324241,12.4518569 9.66155974,12.4824785 C8.93502203,12.5153272 8.71845255,12.5214515 6.88067401,12.5214515 C5.04233874,12.5214515 4.82576927,12.5153272 4.09978829,12.4824785 C3.42836723,12.4518569 3.06482001,12.3382786 2.82208403,12.2453003 C2.50084859,12.1205869 2.27203096,11.9708194 2.03096519,11.7303006 C1.78989942,11.4897819 1.64125148,11.2615118 1.51598635,10.9391498 C1.42189833,10.6958473 1.30999482,10.3339556 1.27881772,9.66139386 C1.24652716,8.93538351 1.23873288,8.71880527 1.23873288,6.87983887 C1.23873288,5.04365625 1.24652716,4.82707801 1.27881772,4.09939739 C1.30999482,3.42850593 1.42189833,3.06383048 1.51598635,2.82108469 C1.64125148,2.50094976 1.78989942,2.27045261 2.03096519,2.02993384 C2.27203096,1.78997183 2.50084859,1.64187463 2.82208403,1.51493417 C3.06482001,1.4213991 3.42836723,1.30949106 4.09978829,1.27998297 C4.82576927,1.24546407 5.04289548,1.23933975 6.88067401,1.23933975" id="Fill-1"></path>
                    <path d="M6.88095238,9.22163733 C5.58846681,9.22163733 4.54130364,8.17098413 4.54130364,6.8801005 C4.54130364,5.58921687 5.58846681,4.54083535 6.88095238,4.54083535 C8.17343795,4.54083535 9.221169,5.58921687 9.221169,6.8801005 C9.221169,8.17098413 8.17343795,9.22163733 6.88095238,9.22163733 M6.88095238,3.27664399 C4.89054732,3.27664399 3.27664399,4.89067447 3.27664399,6.8801005 C3.27664399,8.87123029 4.89054732,10.4852608 6.88095238,10.4852608 C8.87135744,10.4852608 10.4852608,8.87123029 10.4852608,6.8801005 C10.4852608,4.89010655 8.87135744,3.27664399 6.88095238,3.27664399" id="Fill-4"></path>
                </g>
            </g>
        </g>
    </g>
</svg>