<?xml version="1.0" encoding="UTF-8"?>
<svg width="41px" height="41px" viewBox="0 0 41 41" version="1.1" xmlns="http://www.w3.org/2000/svg" xmlns:xlink="http://www.w3.org/1999/xlink">
    <title>Group 5</title>
    <g id="Page-1" stroke="none" stroke-width="1" fill="none" fill-rule="evenodd">
        <g id="Profile-Day" transform="translate(-716.000000, -493.000000)">
            <g id="Group-5" transform="translate(716.615170, 493.289950)">
                <rect id="Rectangle-Copy-26" fill="#f8d588" x="0" y="0" width="40" height="40" rx="6"></rect>
                <path d="M25.3758492,16.6575189 C25.96025,16.2779866 26.4091251,15.6803973 26.6214775,14.9644218 C26.0746268,15.3134871 25.4695087,15.5637521 24.8246825,15.7095586 C24.3114974,15.1110989 23.5751697,14.7380952 22.7650366,14.7380952 C21.206059,14.7380952 19.9418715,16.1091121 19.9418715,17.8039501 C19.9418715,18.0420283 19.9664733,18.277495 20.0135188,18.4990339 C17.671168,18.3771658 15.5877835,17.1519554 14.1945444,15.300865 C13.9524108,15.7522125 13.8138638,16.2779866 13.8138638,16.8416269 C13.8138638,17.9027504 14.3115109,18.8467935 15.0702823,19.3882363 C14.6067325,19.3690856 14.1712374,19.2389478 13.7909884,19.006963 L13.7909884,19.0491817 C13.7909884,20.5311856 14.7642704,21.7685828 16.0556494,22.0545377 C15.8191268,22.1241767 15.5692242,22.1559494 15.3098262,22.1559494 C15.1285498,22.1559494 14.9563371,22.1433274 14.7819664,22.101544 C15.1397716,23.3237076 16.1834061,24.211169 17.4186757,24.2294493 C16.4522996,25.0555413 15.2351576,25.541273 13.912271,25.541273 C13.6835174,25.541273 13.4582167,25.5277805 13.2380952,25.4981839 C14.4871764,26.3721528 15.968464,26.8809524 17.5662866,26.8809524 C22.758994,26.8809524 25.6002867,22.2090491 25.6002867,18.1586735 C25.6002867,18.0294062 25.5972655,17.8979627 25.5907913,17.7665192 C26.1419581,17.3286643 26.6214775,16.7880919 27,16.1748339 C26.4906995,16.4229227 25.9494597,16.5830922 25.3758492,16.6575189 Z" id="Fill-1" fill="#3b1d56"></path>
            </g>
        </g>
    </g>
</svg>