<?xml version="1.0" encoding="UTF-8"?>
<svg width="41px" height="41px" viewBox="0 0 41 41" version="1.1" xmlns="http://www.w3.org/2000/svg" xmlns:xlink="http://www.w3.org/1999/xlink">
    <title>Group</title>
    <g id="Page-1" stroke="none" stroke-width="1" fill="none" fill-rule="evenodd">
        <g id="Profile-Day" transform="translate(-933.000000, -493.000000)">
            <g id="Group" transform="translate(933.615170, 493.289950)">
                <rect id="Rectangle-Copy-29" fill="#A478F9" x="0" y="0" width="40" height="40" rx="6"></rect>
                <path d="M20.0069824,11.5 C15.3088876,11.5 11.5,15.3026316 11.5,19.9930099 C11.5,23.5929276 13.7405221,26.6685855 16.9052596,27.9058388 C16.8282416,27.2347862 16.765227,26.2002467 16.9332661,25.4662829 C17.087302,24.8022204 17.9274978,21.2442434 17.9274978,21.2442434 C17.9274978,21.2442434 17.6754391,20.7339638 17.6754391,19.9860197 C17.6754391,18.8046875 18.361599,17.9239309 19.215798,17.9239309 C19.9439677,17.9239309 20.2940493,18.4691612 20.2940493,19.1192434 C20.2940493,19.8462171 19.8319416,20.9366776 19.5868845,21.9502467 C19.3838372,22.7960526 20.013984,23.4880757 20.8471782,23.4880757 C22.3595306,23.4880757 23.5218014,21.8943257 23.5218014,19.6015625 C23.5218014,17.5674342 22.0584604,16.1484375 19.9649726,16.1484375 C17.5424081,16.1484375 16.1210769,17.9588816 16.1210769,19.8322368 C16.1210769,20.5592105 16.4011421,21.3421053 16.7512237,21.7685033 C16.82124,21.8523849 16.8282416,21.9292763 16.8072367,22.0131579 C16.7442221,22.2787829 16.5971878,22.8589638 16.5691813,22.9777961 C16.5341731,23.1315789 16.4431519,23.1665296 16.2821144,23.0896382 C15.2178664,22.5933388 14.5527114,21.0485197 14.5527114,19.7972862 C14.5527114,17.1200658 16.499165,14.6595395 20.1750215,14.6595395 C23.1227084,14.6595395 25.4192436,16.7565789 25.4192436,19.5666118 C25.4192436,22.495477 23.5708129,24.8511513 21.0082157,24.8511513 C20.147015,24.8511513 19.3348258,24.4037829 19.0617621,23.8725329 C19.0617621,23.8725329 18.6346626,25.4942434 18.5296381,25.8926809 C18.3405941,26.6336349 17.8224733,27.5563322 17.4723918,28.1225329 C18.2705778,28.3671875 19.1107735,28.5 19.9929791,28.5 C24.6910739,28.5 28.5,24.6973684 28.5,20.0069901 C28.5139648,15.3026316 24.7050772,11.5 20.0069824,11.5" id="Fill-3" fill="#FFFFFF"></path>
            </g>
        </g>
    </g>
</svg>