<?xml version="1.0" encoding="UTF-8"?>
<svg width="41px" height="41px" viewBox="0 0 41 41" version="1.1" xmlns="http://www.w3.org/2000/svg" xmlns:xlink="http://www.w3.org/1999/xlink">
    <title>Group 4</title>
    <g id="Page-1" stroke="none" stroke-width="1" fill="none" fill-rule="evenodd">
        <g id="Profile-Day" transform="translate(-789.000000, -493.000000)">
            <g id="Group-4" transform="translate(789.615170, 493.289950)">
                <rect id="Rectangle-Copy-27" fill="#f8d588" x="0" y="0" width="40" height="40" rx="6"></rect>
                <g id="Group-14" transform="translate(13.119048, 13.119048)" fill="#3b1d56">
                    <polygon id="Fill-1" points="0 12.1428571 3.27664399 12.1428571 3.27664399 3.83458647 0 3.83458647"></polygon>
                    <path d="M7.62699405,5.20556232 L7.62699405,3.91394957 L4.58730159,3.91394957 C4.62676619,4.5994375 4.58730159,12.1428571 4.58730159,12.1428571 L7.62699405,12.1428571 L7.62699405,7.69023803 C7.62699405,7.44211931 7.61552178,7.19487271 7.69353321,7.01739588 C7.9027874,6.52246661 8.35112369,6.00922279 9.15831255,6.00922279 C10.2142202,6.00922279 10.6937611,6.76971321 10.6937611,7.88472125 L10.6937611,12.1428571 L13.7619048,12.1428571 L13.7619048,7.56726883 C13.7619048,5.01849214 12.2512363,3.83458647 10.3289429,3.83458647 C8.7778921,3.83458647 7.80687923,4.6408633 7.62699405,5.20556232 Z" id="Fill-2"></path>
                    <path d="M1.64885047,0 C0.652307584,0 0,0.689663291 0,1.59945266 C0,2.4911829 0.633539436,3.19548872 1.61039865,3.19548872 L1.62962456,3.19548872 C2.64447783,3.19548872 3.27664399,2.48923056 3.27664399,1.59652415 C3.25741808,0.687710953 2.64447783,0 1.64885047,0" id="Fill-4"></path>
                </g>
            </g>
        </g>
    </g>
</svg>