<?xml version="1.0" encoding="utf-8"?>
<!-- Generator: Adobe Illustrator 23.0.1, SVG Export Plug-In . SVG Version: 6.00 Build 0)  -->
<svg version="1.1" id="Layer_1" xmlns="http://www.w3.org/2000/svg" xmlns:xlink="http://www.w3.org/1999/xlink" x="0px" y="0px"
	 viewBox="0 0 70 8" style="enable-background:new 0 0 70 8;" xml:space="preserve">
<style type="text/css">
	.st0{filter:url(#Adobe_OpacityMaskFilter);}
	.st1{fill-rule:evenodd;clip-rule:evenodd;fill:#FFFFFF;}
	.st2{mask:url(#mask-2_1_);fill-rule:evenodd;clip-rule:evenodd;fill:#A478F9;}
</style>
<title>Group 3</title>
<g id="Page-1">
	<g id="Admin---Grant-Feed-Day" transform="translate(-298.000000, -330.000000)">
		<g id="Group-3" transform="translate(298.688219, 330.455477)">
			<g id="Clip-2">
			</g>
			<defs>
				<filter id="Adobe_OpacityMaskFilter" filterUnits="userSpaceOnUse" x="-0.7" y="0" width="70" height="6.7">
					<feColorMatrix  type="matrix" values="1 0 0 0 0  0 1 0 0 0  0 0 1 0 0  0 0 0 1 0"/>
				</filter>
			</defs>
			<mask maskUnits="userSpaceOnUse" x="-0.7" y="0" width="70" height="6.7" id="mask-2_1_">
				<g class="st0">
					<polygon id="path-1_1_" class="st1" points="-0.7,0 69.3,0 69.3,7 -0.7,7 					"/>
				</g>
			</mask>
			<path id="Fill-1" class="st2" d="M47.1,2.8c0-0.1,0-0.2,0-0.3c-6.7,0.4-13.4,0.7-20,1.1c0,0.1,0,0.2,0,0.2
				C33.8,3.5,40.4,3.1,47.1,2.8 M26.2,2.3C19.5,2.5,12.9,3.4,6.2,4.8C12.9,3.9,19.5,3.1,26.2,2.3 M3.2,5.3C2.5,5.4,1.9,5.5,1.2,5.6
				C1,5.7,0.8,5.7,0.8,5c0-0.6,0.2-0.8,0.4-0.9C3.5,3.7,5.7,3.2,8,2.7c-0.5,0-1,0-1.6,0C4.3,2.7,2.1,2.8,0,2.9c-0.1,0-0.1,0-0.2,0
				c-0.2,0-0.5-0.1-0.5-0.7c0-0.7,0.2-0.8,0.4-0.8C0.9,1.2,2,1,3.1,1c6.6-0.3,13.2-0.6,19.8-0.9C26.4,0,30,0,33.6,0
				c7.1,0.2,14.2,0.4,21.4,0.8c2.3,0.1,4.7,0.8,7,1.1c1.9,0.3,3.7,0.6,5.6,0.9C68,3,68.4,3.2,68.9,3.4c0.2,0.1,0.5,0.3,0.4,0.9
				c0,0.3-0.3,0.6-0.5,0.6c-2.1,0-4.3,0-6.4,0c-5.7-0.1-11.5-0.5-17.2-0.4c-5.3,0-10.6,0.4-15.9,0.7c-6.5,0.4-12.9,1-19.4,1.4
				c-2,0.1-4.1,0.1-6.2,0.1C3.2,6.7,3.1,6.5,3.2,5.3"/>
		</g>
	</g>
</g>
</svg>
