<?xml version="1.0" encoding="UTF-8"?>
<svg width="165px" height="8px" viewBox="0 0 165 8" version="1.1" xmlns="http://www.w3.org/2000/svg" xmlns:xlink="http://www.w3.org/1999/xlink">
    <title>Group 3</title>
    <defs>
        <polygon id="path-1" points="0 7.13696144e-14 164 7.13696144e-14 164 7 0 7"></polygon>
    </defs>
    <g id="Page-1" stroke="none" stroke-width="1" fill="none" fill-rule="evenodd">
        <g id="Admin---Grant-Feed-Day" transform="translate(-298.000000, -330.000000)">
            <g id="Group-3" transform="translate(298.688219, 330.455477)">
                <mask id="mask-2" fill="white">
                    <use xlink:href="#path-1"></use>
                </mask>
                <g id="Clip-2"></g>
                <path d="M111.964742,2.77490198 C111.969856,2.67961868 111.975823,2.58433537 111.980937,2.48825136 C96.3346985,2.85176919 80.6884603,3.21448631 65.042222,3.57800414 C65.0439267,3.65567204 65.0456315,3.73333995 65.0473363,3.81100785 C80.6867555,3.46590613 96.3253224,3.12000371 111.964742,2.77490198 M62.9385547,2.29688405 C47.3264116,2.50106256 31.7568873,3.44588863 16.2069676,4.75583391 C31.7841633,3.93671776 47.361359,3.11680091 62.9385547,2.29688405 M8.99670779,5.26187635 C7.45646196,5.38998836 5.99804435,5.50929266 4.53962674,5.63260047 C4.00007189,5.67824038 3.45881228,5.69825788 3.41448866,5.00725373 C3.37442693,4.38350839 3.8116965,4.20575298 4.39387021,4.15610957 C9.72037615,3.70051124 15.0451773,3.23530451 20.3750928,2.67801728 C19.1596027,2.67801728 17.944965,2.66680748 16.7303273,2.67961868 C11.6518632,2.73566768 6.57339905,2.79892298 1.49578729,2.85897549 C1.35940692,2.86057689 1.22302655,2.85817479 1.08664617,2.86137759 C0.530896154,2.87498949 0.025436397,2.79572018 -0.000123503989,2.13834544 C-0.0231491109,1.4833728 0.464410722,1.37287619 1.02697976,1.34645309 C3.61394496,1.22794948 6.1992054,1.03978497 8.78787535,0.988540165 C24.2576715,0.677868544 39.7274677,0.355987123 55.1981162,0.126186207 C63.5480045,0.00287839924 71.9013024,-0.0443629039 80.2503383,0.0493190023 C96.9390341,0.236682815 113.626877,0.46888583 130.311311,0.845214855 C135.783574,0.968522663 141.243051,1.60267711 146.710199,1.98621243 C151.058175,2.29127915 155.410414,2.54910457 159.756686,2.87498949 C160.837501,2.9558602 161.902972,3.21768911 162.975263,3.39704592 C163.545503,3.49232923 164.172001,3.68049374 163.956349,4.32425659 C163.855769,4.62291771 163.2037,4.93919423 162.800526,4.94079563 C157.790252,4.96241453 152.779978,4.95200543 147.769704,4.90076062 C134.308961,4.76223952 120.848218,4.44516229 107.388328,4.4924036 C94.9853852,4.5364421 82.5815903,4.89995992 70.1812049,5.23385185 C55.0557692,5.63980677 39.933743,6.19389121 24.8083073,6.61586014 C20.0060134,6.75037775 15.1977529,6.67431124 10.3920495,6.67831474 C9.13735005,6.67911544 8.98221738,6.50216073 8.99670779,5.26187635" id="Fill-1" fill="#A478F9" mask="url(#mask-2)"></path>
            </g>
        </g>
    </g>
</svg>