<?xml version="1.0" standalone="no"?>
<!DOCTYPE svg PUBLIC "-//W3C//DTD SVG 1.1//EN" "http://www.w3.org/Graphics/SVG/1.1/DTD/svg11.dtd">
<svg xmlns="http://www.w3.org/2000/svg" xmlns:xlink="http://www.w3.org/1999/xlink" xmlns:serif="http://www.serif.com/" width="500" height="500" viewBox="0 0 500 500" version="1.1" xml:space="preserve" style="fill-rule:evenodd;clip-rule:evenodd;stroke-linejoin:round;stroke-miterlimit:2;">
    <g>
        <g transform="matrix(1.90177,0,0,1.90177,-319.583,-114.295)">
            <circle cx="299.502" cy="191.556" r="131.456" style="fill:rgb(164,120,249);"/>
        </g>
        <g transform="matrix(1.42771,0,0,1.35967,45.1237,-121.042)">
            <path d="M42.851,423.331L42.851,375.152C42.851,332.958 78.93,298.702 123.37,298.702L163.63,298.702C208.069,298.702 244.149,332.958 244.149,375.152L244.149,423.331C215.667,444.39 180.948,456.76 143.5,456.76C106.051,456.76 71.332,444.39 42.851,423.331Z" style="fill:rgb(59,29,86);"/>
        </g>
        <g transform="matrix(0.767414,0,0,0.767414,69.6672,44.1121)">
            <g transform="matrix(0,-4.16667,-4.16667,0,279.55,92.4932)">
                <path d="M-24.202,-24.202C-34.382,-24.202 -42.634,-13.366 -42.634,0C-42.634,13.367 -34.382,24.202 -24.202,24.202C-14.022,24.202 -5.77,13.367 -5.77,0C-5.77,-13.366 -14.022,-24.202 -24.202,-24.202" style="fill:white;fill-rule:nonzero;"/>
            </g>
            <g transform="matrix(4.16667,0,0,4.16667,286.969,61.8732)">
                <path d="M0,66.695C-0.845,66.695 -1.708,66.626 -2.57,66.48L-3.464,66.329C-7.297,65.686 -9.046,65.393 -11.625,63.845C-12.411,63.373 -13.376,62.791 -14.28,61.974C-14.287,61.974 -14.294,61.976 -14.302,61.977C-14.645,61.987 -14.986,61.992 -15.32,61.992C-23.521,61.992 -29.053,58.742 -31.606,56.826C-31.634,56.873 -31.663,56.922 -31.69,56.967C-31.932,57.385 -32.343,57.677 -32.817,57.77C-32.925,57.792 -33.033,57.801 -33.14,57.801C-33.508,57.801 -33.869,57.681 -34.165,57.452C-36.152,55.92 -37.207,53.099 -37.752,50.909C-38.037,51.056 -38.367,51.118 -38.689,51.082C-39.185,51.03 -39.631,50.761 -39.908,50.347C-41.317,48.241 -41.263,45.283 -41.02,43.341C-41.12,43.356 -41.215,43.373 -41.301,43.392C-41.74,43.488 -42.201,43.4 -42.578,43.152C-42.953,42.904 -43.215,42.515 -43.3,42.072C-44.038,38.284 -41.616,33.732 -39.667,31.224C-40.465,30.894 -40.895,30.008 -40.627,29.171C-39.599,25.949 -37.026,23.808 -35.079,22.586C-35.354,22.306 -35.527,21.936 -35.557,21.537C-35.595,21.014 -35.389,20.504 -34.996,20.156C-34.498,19.715 -33.824,19.331 -33.072,18.991C-33.645,17.853 -34.75,16.743 -35.206,16.354C-35.663,15.965 -35.838,15.336 -35.647,14.765C-35.457,14.195 -34.94,13.798 -34.34,13.763C-33.848,13.732 -30.385,13.581 -27.796,14.723C-27.554,13.007 -27.833,11.138 -28.012,10.391C-28.143,9.848 -27.955,9.275 -27.525,8.916C-27.097,8.557 -26.499,8.473 -25.989,8.697C-25.462,8.93 -21.407,10.808 -20.135,14.01C-20.092,13.954 -20.045,13.903 -19.995,13.854C-20.039,12.441 -20.47,10.982 -20.69,10.408C-20.888,9.894 -20.781,9.311 -20.414,8.902C-20.046,8.491 -19.48,8.321 -18.947,8.46C-18.68,8.531 -17.291,8.93 -15.947,9.829C-16.296,8.806 -16.717,7.82 -17.072,7.12C-17.433,6.412 -17.279,5.55 -16.696,5.011C-16.114,4.469 -15.246,4.381 -14.565,4.794C-14.032,5.118 -10.299,7.451 -7.897,10.44C-7.427,9.052 -7.207,7.398 -7.182,6.309C-7.164,5.56 -6.68,4.901 -5.969,4.664C-5.263,4.423 -4.477,4.656 -4.011,5.244C-3.585,5.782 -0.707,9.528 0.335,13.313C0.398,13.331 0.461,13.343 0.524,13.361C0.867,12.242 1.029,10.971 1.035,10.119C1.041,9.383 1.5,8.725 2.188,8.467C2.88,8.209 3.655,8.4 4.143,8.951C4.769,9.657 7.169,12.526 8.141,15.586C8.308,15.666 8.489,15.729 8.646,15.82C10.219,14.799 11.536,13.351 12.039,12.685C12.447,12.146 13.129,11.887 13.788,12.008C14.453,12.134 14.988,12.623 15.171,13.273C15.36,13.943 16.698,19.09 14.868,22.695C18.043,27.166 18.289,31.799 17.948,35.09C19.695,36.538 20.729,38.435 20.916,40.643C21.971,42.054 22.909,42.968 25.542,45.392C25.909,45.731 26.234,46.021 26.545,46.292C27.895,42.22 28.636,37.872 28.636,33.347C28.636,10.642 10.23,-7.764 -12.475,-7.764C-35.181,-7.764 -53.587,10.642 -53.587,33.347C-53.587,56.053 -35.181,74.459 -12.475,74.459C-5.412,74.459 1.235,72.676 7.041,69.538C4.686,68.783 2.526,67.81 0.583,66.681C0.389,66.689 0.196,66.695 0,66.695" style="fill:rgb(164,120,249);fill-rule:nonzero;"/>
            </g>
            <g transform="matrix(4.16667,0,0,4.16667,157.064,272.279)">
                <path d="M0,-14.973C-0.599,-15.068 -1.182,-14.654 -1.28,-14.044C-1.37,-13.469 -2.124,-8.348 -0.395,-5.524C-0.206,-5.217 0.119,-5.018 0.479,-4.993C0.839,-4.976 1.19,-5.116 1.42,-5.393L1.713,-5.748C2.322,-3.986 3.389,-1.534 4.936,-0.181C5.148,0.004 5.411,0.095 5.673,0.095C5.983,0.095 6.293,-0.034 6.515,-0.286C6.922,-0.752 6.874,-1.458 6.409,-1.865C4.748,-3.317 3.583,-7.024 3.275,-8.329C3.177,-8.743 2.853,-9.066 2.438,-9.162C2.023,-9.26 1.592,-9.111 1.321,-8.783L0.935,-8.316C0.555,-10.231 0.77,-12.683 0.93,-13.693C1.026,-14.303 0.61,-14.876 0,-14.973" style="fill:rgb(164,120,249);fill-rule:nonzero;"/>
            </g>
            <g transform="matrix(3.24514,-2.61346,-2.61346,-3.24514,275.671,305.227)">
                <path d="M-4.401,-1.936C-5.234,3.151 -4.762,7.62 -3.818,10.253C-4.072,10.69 -4.253,11.142 -4.401,11.606C-9.168,7.916 -8.107,4.962 -7.205,2.512C-6.556,0.748 -5.89,-0.216 -4.401,-1.936" style="fill:rgb(164,120,249);fill-rule:nonzero;"/>
            </g>
            <g transform="matrix(4.16667,0,0,4.16667,400.482,208.287)">
                <path d="M0,23.972C-1.378,24.549 -2.762,24.383 -3.089,23.601C-3.417,22.819 -2.565,21.717 -1.186,21.14C0.192,20.562 1.575,20.728 1.903,21.51C2.23,22.293 1.378,23.395 0,23.972M-8.86,25.358C-9.02,25.347 -9.179,25.339 -9.344,25.318C-11.413,25.054 -12.992,24.066 -12.87,23.111C-12.748,22.156 -10.971,21.596 -8.902,21.86C-8.004,21.974 -7.21,22.23 -6.596,22.556C-5.795,22.98 -5.307,23.527 -5.376,24.067C-5.488,24.946 -7.006,25.482 -8.86,25.358M15.706,24.83C15.585,24.61 15.006,23.798 12.62,22.61C11.719,22.159 10.87,21.741 10.048,21.337C7.492,20.08 5.076,18.892 2.347,17.312C0.507,16.247 -0.62,15.552 -1.957,14.475C-2.559,13.99 -3.2,13.435 -3.975,12.721C-4.618,12.129 -5.159,11.627 -5.645,11.168C-5.782,11.12 -5.917,11.059 -6.042,10.972C-6.7,10.518 -7.62,10.063 -8.714,9.675C-9.417,9.425 -10.193,9.204 -11.024,9.028C-12.239,8.772 -13.565,8.612 -14.944,8.612C-17.226,8.612 -19.237,9.053 -21.119,9.957C-21.931,10.347 -22.721,10.814 -23.495,11.383C-23.795,11.605 -24.143,11.71 -24.489,11.71C-25.004,11.71 -25.512,11.474 -25.841,11.029C-26.39,10.283 -26.232,9.231 -25.486,8.683C-22.355,6.377 -18.907,5.257 -14.944,5.257C-13.272,5.257 -11.713,5.46 -10.288,5.768C-10.083,5.812 -9.873,5.852 -9.674,5.9C-9.71,5.33 -9.847,4.804 -10.061,4.313C-10.572,3.141 -11.578,2.192 -13.098,1.493C-17.537,-0.55 -21.059,-6.153 -21.208,-6.391C-23.393,-9.662 -25.051,-9.979 -26.519,-9.816C-29.099,-9.539 -30.723,-8.09 -30.971,-5.838L-31.036,-5.53C-31.077,-5.379 -31.141,-4.84 -31.186,-4.447C-31.349,-3.068 -31.551,-1.351 -32.241,-0.241C-33.971,2.554 -36.541,4.366 -37.259,4.839C-37.688,5.251 -38.216,5.576 -38.771,5.918C-40.262,6.836 -41.254,7.55 -41.475,9.047C-41.563,9.648 -41.577,10.08 -41.49,10.486C-41.386,10.969 -41.127,11.425 -40.682,12.065C-40.491,12.34 -40.276,12.639 -40.009,13.005C-39.857,13.215 -39.705,13.389 -39.553,13.555C-38.977,14.181 -38.373,14.531 -37.53,14.737L-36.284,15.04L-36.25,16.322C-36.249,16.374 -36.237,16.433 -36.214,16.502C-35.247,19.394 -32.083,23.942 -26.866,27.481C-26.545,27.699 -26.208,27.909 -25.871,28.119C-25.175,28.552 -24.456,28.97 -23.694,29.36C-23.014,29.708 -22.304,30.033 -21.571,30.337C-20.476,30.793 -19.33,31.202 -18.12,31.54C-17.545,31.7 -16.931,31.847 -16.287,31.982C-6.838,33.951 9.441,33.052 14.523,27.866C15.154,27.222 16.213,25.759 15.706,24.83" style="fill:rgb(164,120,249);fill-rule:nonzero;"/>
            </g>
            <g transform="matrix(4.16667,0,0,4.16667,231.053,160.624)">
                <path d="M0,28.426C0.407,28.694 0.833,28.933 1.303,29.114C2.22,31.758 4.656,35.533 8.494,38.973C6.256,38.567 5.133,38.234 3.521,37.268C1.283,35.925 -1.397,34.29 0,28.426M27.479,5.289C27.395,5.02 27.273,4.755 27.101,4.508C26.356,3.437 25.059,3.1 24.204,3.754C23.818,4.049 23.597,4.499 23.53,4.999C23.258,4.646 23.024,4.326 22.834,4.058C22.792,3.998 22.757,3.947 22.719,3.892C22.718,3.879 22.719,3.866 22.718,3.852C22.672,3.047 22.945,2.287 23.539,1.833C24.553,1.057 26.092,1.457 26.975,2.727C27.536,3.533 27.695,4.494 27.479,5.289M-4.465,2.24C-3.007,1.124 -0.794,1.7 0.476,3.525C1.283,4.685 1.511,6.067 1.201,7.209C1.08,6.823 0.904,6.442 0.657,6.087C-0.414,4.548 -2.279,4.062 -3.509,5.003C-4.371,5.662 -4.678,6.847 -4.425,8.027C-4.556,7.88 -4.688,7.734 -4.805,7.566C-6.076,5.74 -5.924,3.356 -4.465,2.24M-18.152,21.273C-19.882,18.45 -19.128,13.328 -19.037,12.753C-18.94,12.143 -18.357,11.73 -17.757,11.824C-17.148,11.922 -16.731,12.494 -16.827,13.104C-16.987,14.114 -17.202,16.567 -16.822,18.482L-16.436,18.015C-16.166,17.686 -15.734,17.537 -15.319,17.636C-14.904,17.732 -14.58,18.055 -14.483,18.468C-14.175,19.773 -13.01,23.481 -11.348,24.932C-10.884,25.339 -10.836,26.045 -11.243,26.511C-11.464,26.763 -11.774,26.893 -12.085,26.893C-12.346,26.893 -12.609,26.802 -12.821,26.616C-14.368,25.263 -15.436,22.812 -16.044,21.049L-16.338,21.404C-16.567,21.682 -16.918,21.822 -17.278,21.804C-17.639,21.779 -17.963,21.58 -18.152,21.273M24.376,43.421C23.732,43.287 23.118,43.139 22.543,42.979C21.333,42.641 20.187,42.232 19.092,41.777C18.359,41.472 17.649,41.147 16.969,40.799C16.207,40.41 15.487,39.991 14.792,39.558C14.454,39.348 14.118,39.138 13.796,38.92C8.58,35.381 5.416,30.833 4.448,27.941C4.426,27.872 4.414,27.813 4.412,27.761L4.379,26.479L3.133,26.176C2.29,25.97 1.686,25.62 1.11,24.994C0.957,24.828 0.806,24.654 0.653,24.444C0.387,24.078 0.172,23.779 -0.019,23.505C-0.464,22.864 -0.724,22.408 -0.827,21.925C-0.914,21.519 -0.9,21.087 -0.812,20.486C-0.592,18.989 0.401,18.275 1.892,17.357C2.447,17.015 2.975,16.69 3.404,16.279C4.122,15.805 6.692,13.993 8.422,11.199C9.112,10.088 9.314,8.371 9.477,6.993C9.522,6.599 9.586,6.06 9.627,5.909L9.691,5.601C9.94,3.35 11.564,1.9 14.144,1.623C15.612,1.46 17.269,1.778 19.455,5.048C19.603,5.286 23.126,10.889 27.564,12.932C29.084,13.631 30.09,14.58 30.602,15.752C30.816,16.243 30.952,16.769 30.989,17.339C30.79,17.291 30.579,17.251 30.375,17.207C28.95,16.899 27.391,16.696 25.719,16.696C21.756,16.696 18.308,17.816 15.177,20.122C14.431,20.67 14.272,21.722 14.822,22.468C15.15,22.913 15.659,23.15 16.174,23.15C16.52,23.15 16.868,23.044 17.168,22.823C17.942,22.253 18.732,21.786 19.543,21.396C21.426,20.492 23.437,20.051 25.719,20.051C27.098,20.051 28.424,20.211 29.639,20.468C30.47,20.643 31.246,20.864 31.949,21.114C33.043,21.503 33.963,21.957 34.621,22.412C34.746,22.499 34.881,22.559 35.018,22.608C35.504,23.066 36.045,23.568 36.688,24.16C37.463,24.874 38.104,25.429 38.706,25.914C40.043,26.991 41.169,27.686 43.01,28.751C45.739,30.331 48.154,31.519 50.711,32.776C51.533,33.18 52.382,33.598 53.283,34.049C55.668,35.237 56.248,36.049 56.369,36.269C56.876,37.198 55.817,38.661 55.185,39.305C50.104,44.491 33.825,45.39 24.376,43.421M59.313,34.66C58.627,33.405 57.143,32.222 54.777,31.045C53.876,30.593 53.021,30.173 52.192,29.766C49.58,28.481 47.322,27.37 44.692,25.848C42.636,24.659 41.621,24.037 39.965,22.591C39.654,22.321 39.329,22.031 38.962,21.692C36.329,19.268 35.391,18.354 34.335,16.943C34.149,14.734 33.114,12.838 31.368,11.39C31.709,8.099 31.463,3.466 28.287,-1.005C30.118,-4.61 28.78,-9.757 28.591,-10.427C28.408,-11.077 27.873,-11.566 27.208,-11.692C26.549,-11.813 25.867,-11.554 25.459,-11.015C24.956,-10.349 23.639,-8.901 22.066,-7.88C21.909,-7.971 21.728,-8.034 21.561,-8.114C20.589,-11.174 18.189,-14.044 17.563,-14.749C17.075,-15.3 16.299,-15.491 15.608,-15.233C14.92,-14.975 14.461,-14.317 14.455,-13.581C14.449,-12.729 14.287,-11.458 13.943,-10.339C13.881,-10.357 13.817,-10.369 13.755,-10.387C12.713,-14.172 9.835,-17.918 9.408,-18.456C8.943,-19.045 8.157,-19.277 7.451,-19.037C6.74,-18.799 6.255,-18.14 6.238,-17.391C6.213,-16.302 5.993,-14.649 5.523,-13.26C3.121,-16.25 -0.612,-18.582 -1.145,-18.906C-1.826,-19.319 -2.695,-19.231 -3.276,-18.69C-3.86,-18.15 -4.013,-17.288 -3.653,-16.58C-3.297,-15.88 -2.876,-14.894 -2.527,-13.871C-3.871,-14.77 -5.26,-15.169 -5.528,-15.24C-6.06,-15.379 -6.626,-15.209 -6.994,-14.798C-7.361,-14.389 -7.468,-13.806 -7.27,-13.292C-7.05,-12.718 -6.619,-11.259 -6.576,-9.847C-6.625,-9.797 -6.672,-9.746 -6.716,-9.69C-7.987,-12.892 -12.042,-14.77 -12.569,-15.003C-13.079,-15.227 -13.677,-15.143 -14.105,-14.784C-14.535,-14.425 -14.723,-13.852 -14.592,-13.309C-14.413,-12.562 -14.134,-10.693 -14.376,-8.977C-16.965,-10.119 -20.429,-9.968 -20.92,-9.937C-21.521,-9.902 -22.037,-9.505 -22.228,-8.935C-22.419,-8.364 -22.244,-7.735 -21.786,-7.346C-21.33,-6.958 -20.225,-5.847 -19.652,-4.709C-20.404,-4.369 -21.079,-3.985 -21.577,-3.544C-21.969,-3.196 -22.176,-2.686 -22.137,-2.163C-22.107,-1.764 -21.934,-1.394 -21.659,-1.114C-23.607,0.108 -26.179,2.249 -27.208,5.471C-27.475,6.308 -27.046,7.194 -26.247,7.524C-28.196,10.032 -30.618,14.584 -29.881,18.372C-29.795,18.815 -29.534,19.204 -29.159,19.452C-28.781,19.7 -28.321,19.788 -27.882,19.692C-27.795,19.673 -27.7,19.656 -27.6,19.641C-27.843,21.583 -27.898,24.541 -26.488,26.647C-26.211,27.061 -25.765,27.33 -25.269,27.382C-24.947,27.418 -24.618,27.356 -24.332,27.209C-23.788,29.399 -22.732,32.22 -20.745,33.751C-20.449,33.981 -20.089,34.101 -19.72,34.101C-19.614,34.101 -19.506,34.092 -19.397,34.07C-18.924,33.977 -18.513,33.685 -18.27,33.267C-18.243,33.222 -18.214,33.173 -18.187,33.126C-15.633,35.042 -10.101,38.292 -1.901,38.292C-1.566,38.292 -1.225,38.287 -0.883,38.276C-0.875,38.276 -0.868,38.274 -0.86,38.273C0.044,39.091 1.009,39.673 1.794,40.145C4.374,41.693 6.123,41.986 9.956,42.629L10.85,42.78C11.712,42.926 12.575,42.995 13.42,42.995C13.615,42.995 13.809,42.989 14.002,42.981C15.946,44.11 18.106,45.083 20.461,45.838C20.853,45.964 21.237,46.098 21.641,46.211C25.177,47.197 29.913,47.745 34.844,47.745C43.794,47.745 53.384,45.937 57.582,41.654C59.306,39.895 60.666,37.134 59.313,34.66" style="fill:rgb(59,29,86);fill-rule:nonzero;"/>
            </g>
            <g transform="matrix(-3.84326,1.6095,1.6095,3.84326,402.573,306.759)">
                <path d="M0.594,-2.952C2.088,-2.952 3.299,-2.265 3.3,-1.416C3.3,-0.568 2.088,0.119 0.594,0.118C-0.901,0.118 -2.113,-0.569 -2.112,-1.417C-2.113,-2.265 -0.901,-2.952 0.594,-2.952" style="fill:rgb(59,29,86);fill-rule:nonzero;"/>
            </g>
            <g transform="matrix(4.16667,0,0,4.16667,372.998,310.464)">
                <path d="M0,-1.967C-0.614,-2.293 -1.408,-2.548 -2.306,-2.663C-4.375,-2.927 -6.152,-2.367 -6.273,-1.412C-6.395,-0.457 -4.817,0.532 -2.747,0.796C-2.583,0.817 -2.424,0.824 -2.263,0.835C-0.41,0.96 1.108,0.424 1.22,-0.455C1.289,-0.996 0.801,-1.542 0,-1.967" style="fill:rgb(59,29,86);fill-rule:nonzero;"/>
            </g>
        </g>
    </g>
</svg>