<?xml version="1.0" encoding="UTF-8"?>
<svg width="210px" height="173px" viewBox="0 0 210 173" version="1.1" xmlns="http://www.w3.org/2000/svg" xmlns:xlink="http://www.w3.org/1999/xlink">
    <title>Group 27 Copy 4</title>
    <defs>
        <polygon id="path-1" points="0 0 171.999791 0 171.999791 172 0 172"></polygon>
        <polygon id="path-3" points="7.43182264e-15 0 188.015781 0 188.015781 139.96676 7.43182264e-15 139.96676"></polygon>
    </defs>
    <g id="Page-1" stroke="none" stroke-width="1" fill="none" fill-rule="evenodd">
        <g id="UI-Kit" transform="translate(-54.000000, -80.000000)">
            <g id="Group-27-Copy-4" transform="translate(54.250430, 80.139465)">
                <path d="M158.998596,82.2402783 C158.998596,103.535536 136.333162,120.797665 108.371108,120.797665 C80.4111453,120.797665 57.7457111,103.535536 57.7457111,82.2402783 C57.7457111,60.9450202 80.4111453,43.6828916 108.371108,43.6828916 C136.333162,43.6828916 158.998596,60.9450202 158.998596,82.2402783" id="Fill-1" fill="#FFFFFF"></path>
                <g id="Group-5">
                    <mask id="mask-2" fill="white">
                        <use xlink:href="#path-1"></use>
                    </mask>
                    <g id="Clip-4"></g>
                    <path d="M112.096941,155.758705 C110.329309,155.758705 108.524024,155.614366 106.72083,155.308952 L104.850696,154.99308 C96.8325505,153.648006 93.1738662,153.035088 87.778928,149.796869 C86.1347166,148.809506 84.11606,147.592036 82.2250076,145.882977 C82.2103645,145.882977 82.1957214,145.887161 82.1789864,145.889252 C81.4614743,145.910171 80.7481459,145.922722 80.0494606,145.922722 C62.8940175,145.922722 51.321781,139.122046 45.9812315,135.114019 C45.9226591,135.212337 45.8619948,135.314839 45.8055143,135.408973 C45.2992812,136.283376 44.4395218,136.894202 43.4479744,137.088746 C43.2220522,137.134768 42.99613,137.153594 42.7722997,137.153594 C42.0024908,137.153594 41.247325,136.90257 40.6281308,136.423531 C36.4715809,133.218783 34.2646559,127.317612 33.1245856,122.736412 C32.528402,123.043917 31.8380842,123.173613 31.1645014,123.098306 C30.1269329,122.989528 29.1939579,122.426815 28.6145093,121.56078 C25.6670615,117.155297 25.7800226,110.967539 26.2883475,106.905124 C26.0791603,106.936502 25.8804325,106.974156 25.7005315,107.011809 C24.7821996,107.212629 23.8178466,107.028544 23.0292108,106.50976 C22.2447588,105.990976 21.6966883,105.177238 21.5188791,104.250538 C19.9750775,96.3265266 25.0415918,86.8043248 29.1186505,81.5579096 C27.4493366,80.8675918 26.5498316,79.0141931 27.1104533,77.2632962 C29.2608978,70.5232842 34.6432847,66.0445861 38.7161597,63.4883184 C38.1408949,62.9025942 37.779001,62.1286015 37.7162448,61.2939445 C37.6367537,60.1998954 38.0676794,59.1330406 38.8897851,58.4050691 C39.9315374,57.4825535 41.3414592,56.6792747 42.914547,55.9680381 C41.7159043,53.5874877 39.4043856,51.2655097 38.450492,50.4517714 C37.4945064,49.6380332 37.1284288,48.3222456 37.5279764,47.1277866 C37.9254321,45.9354195 39.0069299,45.1049463 40.2620532,45.0317308 C41.2912543,44.9668827 48.5354074,44.6510101 53.9512642,47.039928 C54.4574973,43.4502755 53.873865,39.5405665 53.4994199,37.977938 C53.2253846,36.8420515 53.6186566,35.6434088 54.5181616,34.8924267 C55.4134828,34.1414446 56.6644224,33.9657274 57.7312771,34.4343067 C58.8336937,34.9217129 67.3162351,38.8502487 69.9770964,45.5484232 C70.0670469,45.4312784 70.1653649,45.3245929 70.2699585,45.2220911 C70.1779162,42.2662759 69.2763193,39.2142345 68.8161074,38.0134999 C68.4019167,36.9382776 68.6257471,35.7187162 69.3934641,34.8631405 C70.1632731,34.003381 71.3472727,33.6477628 72.4622405,33.938533 C73.0207703,34.0870559 75.9263807,34.9217129 78.7378568,36.8023059 C78.0077934,34.6623208 77.1271153,32.5997349 76.3845007,31.1354244 C75.6293349,29.6543789 75.9514832,27.8511852 77.1710446,26.7236661 C78.3885142,25.5898714 80.2042591,25.4057867 81.6288241,26.2697299 C82.7437919,26.9474964 90.5527504,31.8278341 95.5774272,38.0804398 C96.5606071,35.1769213 97.020819,31.7169648 97.0731158,29.4389161 C97.1107695,27.8721039 98.1232356,26.4935602 99.6105567,25.9977865 C101.087418,25.4936453 102.73163,25.9810515 103.706442,27.2110723 C104.59758,28.3364995 110.617988,36.1726524 112.797718,44.0903883 C112.929506,44.128042 113.061294,44.1531445 113.193082,44.1907982 C113.910594,41.8499933 114.249478,39.1912239 114.262029,37.4089488 C114.27458,35.869331 115.234749,34.494971 116.673957,33.9531761 C118.121533,33.4134731 119.742734,33.8130207 120.763567,34.9656422 C122.073079,36.4425039 127.093572,42.444085 129.126872,48.8452136 C129.476215,49.0125634 129.854844,49.1443513 130.183267,49.3347117 C133.473782,47.1989103 136.228778,44.1698795 137.28099,42.7766927 C138.134473,41.6491736 139.56113,41.1073787 140.939674,41.3604952 C142.330769,41.6240711 143.44992,42.6469966 143.832733,44.0067135 C144.228097,45.4082678 147.027022,56.1751335 143.198896,63.7163324 C149.84059,73.0690926 150.35519,82.760736 149.641862,89.6450871 C153.296362,92.6741179 155.459358,96.6423993 155.850538,101.261253 C158.057463,104.212884 160.019639,106.124856 165.527539,111.195554 C166.295256,111.904698 166.975114,112.511341 167.625686,113.078238 C170.449714,104.560135 171.999791,95.4646753 171.999791,85.9989541 C171.999791,38.5029979 133.496793,0 86.0008367,0 C38.5027888,0 -0.00020918721,38.5029979 -0.00020918721,85.9989541 C-0.00020918721,133.497002 38.5027888,172 86.0008367,172 C100.775729,172 114.680403,168.270192 126.825813,161.705897 C121.899454,160.126534 117.38101,158.091142 113.316503,155.729419 C112.910679,155.746154 112.506948,155.758705 112.096941,155.758705" id="Fill-3" fill="#A478F9" mask="url(#mask-2)"></path>
                </g>
                <path d="M46.8782263,90.5540056 C45.6251949,90.3552777 44.4056335,91.2213128 44.20063,92.4973548 C44.0123615,93.7001812 42.4350899,104.412658 46.0519368,110.320105 C46.4473006,110.96231 47.1271591,111.378592 47.880233,111.430889 C48.633307,111.466451 49.3675541,111.173589 49.8486847,110.59414 L50.4616032,109.851526 C51.7355533,113.539496 53.9675808,118.666675 57.203707,121.496978 C57.6471839,121.883974 58.1973462,122.074334 58.7454167,122.074334 C59.3938971,122.074334 60.0423774,121.804483 60.506773,121.277331 C61.358165,120.302519 61.2577551,118.825657 60.2850346,117.974265 C56.810435,114.936867 54.373404,107.182297 53.7291074,104.452404 C53.524104,103.586369 52.8463374,102.910694 51.9782105,102.709874 C51.1100836,102.504871 50.2084867,102.81656 49.6415893,103.502694 L48.8341267,104.479598 C48.0392153,100.473663 48.4889678,95.3443927 48.8236673,93.2316019 C49.0244871,91.9555599 48.1542683,90.7569172 46.8782263,90.5540056" id="Fill-6" fill="#A478F9"></path>
                <path d="M101.793844,147.345823 C93.7631466,140.149783 88.669438,132.250874 86.7511913,126.722056 C85.7659195,126.341335 84.8768739,125.84347 84.0254819,125.282848 C81.1031366,137.549586 86.707262,140.969797 91.3909636,143.777089 C94.7630614,145.799929 97.1122338,146.496523 101.793844,147.345823" id="Fill-8" fill="#A478F9"></path>
                <path d="M169.086022,139.894575 C166.203422,141.101585 163.308271,140.754334 162.624229,139.11849 C161.938095,137.482646 163.72037,135.177403 166.605062,133.970393 C169.487662,132.761291 172.380721,133.108541 173.066855,134.744385 C173.750897,136.382321 171.968622,138.687564 169.086022,139.894575 M150.552035,142.791817 C150.217336,142.770899 149.884728,142.754164 149.539569,142.710234 C145.211486,142.15798 141.90842,140.09121 142.163628,138.093473 C142.418837,136.095735 146.136093,134.924286 150.464177,135.476541 C152.342678,135.715014 154.003624,136.250533 155.288034,136.932484 C156.963623,137.819437 157.984457,138.963691 157.840118,140.093302 C157.605828,141.932058 154.430366,143.053301 150.552035,142.791817 M201.940965,141.689401 C201.687849,141.229189 200.476655,139.530589 195.485448,137.045445 C193.600671,136.10201 191.824672,135.227608 190.105153,134.382492 C184.758328,131.753008 179.704365,129.267864 173.995646,125.962706 C170.146601,123.734863 167.789061,122.281011 164.992228,120.028065 C163.732921,119.013507 162.392031,117.852518 160.770831,116.358921 C159.425757,115.120533 158.294054,114.070413 157.277404,113.110244 C156.990818,113.009834 156.708415,112.88223 156.446931,112.700237 C155.070479,111.750527 153.145957,110.798725 150.857449,109.987079 C149.386863,109.464111 147.76357,109.001807 146.025224,108.633638 C143.483599,108.098119 140.709777,107.763419 137.825085,107.763419 C133.051433,107.763419 128.844678,108.685935 124.907775,110.576987 C123.209175,111.392817 121.556596,112.369721 119.937487,113.559997 C119.309925,114.024392 118.581954,114.244039 117.858166,114.244039 C116.780852,114.244039 115.718181,113.750357 115.029955,112.819474 C113.881517,111.258937 114.212033,109.058288 115.77257,107.911942 C122.322221,103.088085 129.534996,100.745188 137.825085,100.745188 C141.322696,100.745188 144.583924,101.169838 147.564842,101.814135 C147.993676,101.906177 148.432969,101.989852 148.849251,102.090262 C148.773944,100.897895 148.487358,99.79757 148.039697,98.7704608 C146.97075,96.3187867 144.866327,94.3336001 141.686681,92.8713815 C132.400861,88.5976868 125.033288,76.8769274 124.721599,76.3790618 C120.150858,69.5365482 116.682534,68.8734247 113.611666,69.2143999 C108.214636,69.7938484 104.817436,72.8249711 104.298651,77.5358671 L104.16268,78.1801637 C104.076913,78.4960364 103.943033,79.6235555 103.848899,80.4456612 C103.507924,83.3303528 103.085365,86.9220972 101.641974,89.2440753 C98.0230349,95.0908578 92.6469236,98.88133 91.1449594,99.8707855 C90.2475463,100.732637 89.1430378,101.412495 87.9820488,102.127916 C84.8630675,104.048254 82.7879304,105.541851 82.3256266,108.673383 C82.1415419,109.928507 82.1122557,110.834287 82.2942486,111.683587 C82.5118033,112.693962 83.0535981,113.647855 83.9844812,114.986653 C84.3840288,115.561918 84.8337813,116.187388 85.3923112,116.953013 C85.7102757,117.390214 86.0282403,117.756292 86.3462048,118.103543 C87.5511232,119.413055 88.8146139,120.14521 90.5780621,120.576136 L93.1845347,121.209973 L93.2556584,123.891753 C93.2577503,124.00053 93.2828527,124.123951 93.3309658,124.26829 C95.3538061,130.317984 101.972489,139.831818 112.885786,147.234954 C113.557277,147.690982 114.262238,148.130275 114.967199,148.569568 C116.423142,149.475349 117.927198,150.349751 119.521205,151.165581 C120.943678,151.893553 122.428907,152.573411 123.962249,153.20934 C126.252849,154.163234 128.650134,155.01881 131.1813,155.725863 C132.384126,156.060562 133.668536,156.368067 135.015701,156.65047 C154.781801,160.769366 188.835387,158.888773 199.466281,148.040324 C200.786252,146.693159 203.001545,143.63275 201.940965,141.689401" id="Fill-10" fill="#A478F9"></path>
                <g id="Group-14" transform="translate(21.234186, 25.728547)">
                    <mask id="mask-4" fill="white">
                        <use xlink:href="#path-3"></use>
                    </mask>
                    <g id="Clip-13"></g>
                    <path d="M62.7904595,99.5538829 C63.6418514,100.114505 64.532989,100.614462 65.5161688,100.993091 C67.4344156,106.524001 72.530216,114.420818 80.5588211,121.616858 C75.8772114,120.767558 73.528039,120.070964 70.1559412,118.050216 C65.4743314,115.240832 59.8681142,111.820621 62.7904595,99.5538829 M120.273013,51.154238 C120.097296,50.5915244 119.842087,50.0371783 119.482285,49.5204859 C117.923841,47.2800909 115.210683,46.57513 113.422132,47.9432144 C112.614669,48.5603166 112.152366,49.5016591 112.01221,50.5475951 C111.443221,49.8091643 110.953723,49.1397652 110.556267,48.5791435 C110.468408,48.4536311 110.395193,48.3469457 110.315702,48.2318927 C110.31361,48.2046984 110.315702,48.177504 110.31361,48.1482178 C110.217384,46.4642608 110.788465,44.874438 112.031037,43.924728 C114.152195,42.3014353 117.371586,43.1381841 119.218709,45.7948617 C120.39225,47.4809106 120.724857,49.4911997 120.273013,51.154238 M53.4502505,44.77612 C56.5002001,42.4415907 61.129513,43.6465091 63.7861906,47.4641756 C65.4743314,49.8907473 65.9512782,52.7817145 65.3027979,55.1727243 C65.0496814,54.3631698 64.6815119,53.5661666 64.1648195,52.823552 C61.9244244,49.6041608 58.023083,48.587511 55.4500803,50.5559626 C53.6468865,51.9345063 53.0046818,54.4133748 53.5339254,56.8817839 C53.2598902,56.5742787 52.9837631,56.2688653 52.739014,55.9174308 C50.0802446,52.0976724 50.3982091,47.1106493 53.4502505,44.77612 M24.8187971,84.5907217 C21.1998583,78.6853668 22.7771299,67.9707979 22.9674902,66.7679714 C23.1704018,65.4919294 24.3899633,64.6279863 25.6450865,64.8246222 C26.9190367,65.0296257 27.7913473,66.2261765 27.5905276,67.5022185 C27.2558281,69.6150093 26.8060756,74.7463716 27.600987,78.7523067 L28.4084496,77.7754024 C28.9732551,77.0871765 29.8769438,76.7754876 30.7450707,76.9825829 C31.6111058,77.1834026 32.2909642,77.8590773 32.4938758,78.7230205 C33.1381724,81.4550055 35.5752034,89.2095753 39.0518949,92.2448818 C40.0225235,93.0962737 40.1229334,94.5731354 39.2715414,95.5479478 C38.8092377,96.0750996 38.1607573,96.347043 37.5101851,96.347043 C36.9642065,96.347043 36.4140441,96.1566826 35.9705672,95.7675944 C32.7344411,92.9372914 30.5003217,87.8101129 29.2284635,84.1221424 L28.6134531,84.864757 C28.1344143,85.4462974 27.4001672,85.7391595 26.6470933,85.7015058 C25.8919275,85.649209 25.2141609,85.2329265 24.8187971,84.5907217 M113.781934,130.921505 C112.434768,130.641194 111.150359,130.331597 109.947532,129.996898 C107.416367,129.289845 105.019082,128.434269 102.728482,127.482467 C101.195139,126.844446 99.7099103,126.164588 98.2874372,125.436616 C96.6934307,124.622878 95.1872828,123.746384 93.7334317,122.840603 C93.0263789,122.40131 92.3235099,121.962017 91.649927,121.505989 C80.7387221,114.102853 74.1200388,104.589019 72.0951066,98.5393249 C72.0490854,98.3949858 72.023983,98.2715653 72.0197992,98.162788 L71.9507674,95.4810079 L69.3442948,94.8471707 C67.5808466,94.416245 66.3173559,93.6840898 65.1124375,92.3745778 C64.7923811,92.0273271 64.4765084,91.6633413 64.156452,91.2240482 C63.600014,90.458423 63.1502615,89.8329532 62.7507139,89.2597803 C61.8198308,87.9188903 61.2759441,86.9649966 61.0604813,85.9546224 C60.8784884,85.1053223 60.9077746,84.2016335 61.0918593,82.9444184 C61.5520712,79.8128859 63.6293002,78.3192892 66.7482815,76.3989506 C67.9092705,75.6835303 69.013779,75.0036719 69.9111921,74.1439125 C71.4131563,73.1523651 76.7892676,69.3618928 80.4082064,63.5172022 C81.8515981,61.1931323 82.2741563,57.6013879 82.6151314,54.7187881 C82.7092657,53.8945905 82.8431455,52.7670714 82.9289122,52.4511987 L83.0627921,51.8069021 C83.5836682,47.098098 86.9808685,44.0648835 92.3778985,43.4854349 C95.4487668,43.1444597 98.9149989,43.8096751 103.487831,50.6500969 C103.797428,51.1479624 111.167094,62.8687218 120.450822,67.1424165 C123.630468,68.6046351 125.734891,70.5898217 126.80593,73.0414959 C127.25359,74.0686051 127.538085,75.1689298 127.615484,76.3612969 C127.199202,76.260887 126.757817,76.1772121 126.331075,76.0851698 C123.350157,75.4408732 120.088928,75.0162231 116.591318,75.0162231 C108.301229,75.0162231 101.088454,77.3591199 94.5388024,82.1829769 C92.9782658,83.3293229 92.6456582,85.5299723 93.7961878,87.0905089 C94.4823219,88.021392 95.5470848,88.5171657 96.6243989,88.5171657 C97.3481866,88.5171657 98.0761581,88.2954272 98.7037198,87.8331235 C100.322829,86.6407564 101.975408,85.6638521 103.671916,84.848022 C107.610911,82.9569696 111.817666,82.034454 116.591318,82.034454 C119.47601,82.034454 122.249832,82.3691536 124.791457,82.9067647 C126.529802,83.2728423 128.153095,83.735146 129.623681,84.2581141 C131.912189,85.0718523 133.836712,86.0215623 135.213164,86.9733641 C135.474648,87.1553569 135.75705,87.2808693 136.043637,87.383371 C137.060287,88.3414484 138.191989,89.3915682 139.537063,90.6299565 C141.158264,92.1235532 142.499154,93.2845422 143.758461,94.2991002 C146.555294,96.5520464 148.910742,98.0058975 152.761879,100.233741 C158.470598,103.538899 163.522469,106.024043 168.871386,108.653527 C170.590905,109.498643 172.366904,110.373045 174.251681,111.31648 C179.240796,113.801624 180.454082,115.500224 180.707198,115.960436 C181.767777,117.903785 179.552485,120.964194 178.230422,122.31136 C167.601619,133.159808 133.548033,135.040401 113.781934,130.921505 M186.86567,112.594614 C185.430645,109.969314 182.326307,107.494629 177.376938,105.032496 C175.492161,104.08697 173.70361,103.208383 171.969448,102.356992 C166.505478,99.6689359 161.782031,97.344866 156.280408,94.1610366 C151.979519,91.6738007 149.856268,90.3726562 146.392128,87.3478092 C145.741556,86.7830037 145.061697,86.1763608 144.29398,85.4672162 C138.786081,80.3965182 136.823905,78.4845471 134.614888,75.5329155 C134.2258,70.9119701 132.060712,66.9457805 128.408304,63.9167497 C129.121632,57.0323986 128.607031,47.3407552 121.963246,37.987995 C125.793464,30.4467961 122.994539,19.6799304 122.599175,18.278376 C122.216362,16.9186592 121.097211,15.8957337 119.706116,15.6321578 C118.327572,15.3790413 116.900915,15.9208362 116.047431,17.0483552 C114.99522,18.4415421 112.240224,21.4705729 108.949709,23.6063743 C108.621285,23.4160139 108.242657,23.284226 107.893314,23.1168762 C105.860014,16.7157476 100.839521,10.7120746 99.5300093,9.23730481 C98.5091757,8.08468328 96.8858829,7.68513571 95.4403993,8.22483872 C94.0011913,8.76454172 93.041022,10.1409936 93.0284708,11.6806114 C93.0159195,13.4628865 92.6770362,16.1216559 91.9574322,18.4624608 C91.8277362,18.4248071 91.6938564,18.3997046 91.5641603,18.3620509 C89.3844295,10.444315 83.3640216,2.60816212 82.4707922,1.48273492 C81.4980717,0.250622255 79.8538602,-0.234692073 78.3769985,0.269449104 C76.8896775,0.765222792 75.8751195,2.14376651 75.8395577,3.71057871 C75.7872609,5.98862744 75.327049,9.44649202 74.3438691,12.3521024 C69.3191923,6.09740479 61.5102338,1.21915904 60.3952659,0.541392477 C58.970701,-0.322550702 57.1528642,-0.138465956 55.9374865,0.993236852 C54.7158332,2.12284779 54.3957767,3.92604154 55.1488507,5.40708699 C55.8935572,6.87139746 56.7742353,8.93398336 57.5042987,11.0739685 C54.6928226,9.1933755 51.7872122,8.35871853 51.2265905,8.21019561 C50.1137145,7.91942539 48.9297149,8.27504365 48.159906,9.13480308 C47.3921889,9.99037877 47.1683586,11.2099402 47.5825493,12.2851625 C48.0427612,13.4858971 48.944358,16.5379385 49.0343085,19.4916619 C48.9318068,19.5962555 48.8334888,19.7029409 48.7414464,19.8200858 C46.082677,13.1219113 37.6001356,9.1933755 36.497719,8.7059693 C35.4308642,8.23738995 34.1799247,8.4131072 33.2846035,9.16408929 C32.3850985,9.91507137 31.9918265,11.1137141 32.2658618,12.2496006 C32.6403069,13.8122291 33.2239392,17.7219381 32.7177061,21.3115906 C27.3018492,18.9226727 20.0556043,19.2385453 19.0284951,19.3033934 C17.7712799,19.3766089 16.6918739,20.2070821 16.2923264,21.3994492 C15.8927788,22.5939082 16.2588564,23.9096958 17.2169338,24.723434 C18.1708275,25.5371722 20.4823462,27.8591503 21.6809889,30.2397007 C20.1079011,30.9509373 18.6958874,31.7542161 17.6541351,32.6767317 C16.8341212,33.4047032 16.4011037,34.471558 16.4826867,35.5656071 C16.5454429,36.4002641 16.9073368,37.1742568 17.4826016,37.759981 C13.4076347,40.3162487 8.02733968,44.7949468 5.87480329,51.5349588 C5.31627344,53.2858557 6.21368657,55.1392544 7.88509238,55.8295722 C3.80803365,61.0759874 -1.25848059,70.5981892 0.283229155,78.5222008 C0.463130156,79.4489001 1.00910877,80.2626384 1.79356081,80.7814226 C2.58428847,81.3002069 3.54654964,81.4842917 4.46488149,81.2834719 C4.64687436,81.2437264 4.84560221,81.2081645 5.05478942,81.1767865 C4.5464645,85.2392021 4.43141154,91.4269598 7.3809512,95.8324424 C7.96039978,96.6984775 8.89337473,97.2611911 9.9309433,97.3699684 C10.6045261,97.4452758 11.292752,97.3155797 11.8910275,97.0080745 C13.0290059,101.589274 15.2380228,107.490446 19.3945727,110.693102 C20.0137668,111.174232 20.7668408,111.425257 21.5387416,111.425257 C21.76048,111.425257 21.9864022,111.40643 22.2144163,111.360409 C23.2038718,111.165865 24.0636312,110.555038 24.5719562,109.680636 C24.6263448,109.586502 24.689101,109.484 24.7455815,109.385682 C30.0882229,113.393709 41.6604594,120.192293 58.8138106,120.192293 C59.5145878,120.192293 60.2279162,120.181834 60.9433364,120.158823 C60.9600714,120.158823 60.9747145,120.154639 60.9914495,120.152548 C62.8825019,121.863699 64.9011584,123.081168 66.543278,124.068532 C71.9403081,127.30675 75.5989924,127.919669 83.6171382,129.264742 L85.4872718,129.580615 C87.2904656,129.886028 89.0957512,130.030368 90.8633831,130.030368 C91.2712982,130.030368 91.6771214,130.017816 92.0808527,130.001081 C96.1474521,132.362805 100.665896,134.398197 105.592255,135.97756 C106.412268,136.241136 107.215547,136.521447 108.060664,136.757828 C115.457523,138.820414 125.36463,139.96676 135.679651,139.96676 C154.401906,139.96676 174.46296,136.184655 183.244639,127.225167 C186.851026,123.545564 189.695973,117.769905 186.86567,112.594614" id="Fill-12" fill="#3B1D56" mask="url(#mask-4)"></path>
                </g>
                <path d="M166.604434,133.969347 C163.721835,135.176357 161.939559,137.4816 162.623602,139.119536 C163.309736,140.75538 166.202795,141.102631 169.085395,139.893529 C171.970086,138.686518 173.752361,136.381275 173.066227,134.745431 C172.382185,133.109587 169.489126,132.762337 166.604434,133.969347" id="Fill-15" fill="#3B1D56"></path>
                <path d="M155.287825,136.931438 C154.003415,136.251579 152.342469,135.71606 150.463968,135.475495 C146.135884,134.92324 142.418627,136.094689 142.165511,138.092427 C141.910302,140.090165 145.211277,142.159026 149.541452,142.71128 C149.884519,142.75521 150.217127,142.769853 150.553918,142.792863 C154.430157,143.054347 157.605619,141.933104 157.839909,140.094348 C157.984248,138.962645 156.963414,137.820483 155.287825,136.931438" id="Fill-17" fill="#3B1D56"></path>
                <path d="M79.9438211,59.6796468 C71.3504105,59.6796468 64.3593739,67.0472204 64.3593739,76.1071184 C64.3593739,85.1649247 71.3504105,92.5324982 79.9438211,92.5324982 C88.5372317,92.5324982 95.5282682,85.1649247 95.5282682,76.1071184 C95.5282682,67.0472204 88.5372317,59.6796468 79.9438211,59.6796468 M79.9438211,96.7162424 C69.0430755,96.7162424 60.1756297,87.4701677 60.1756297,76.1071184 C60.1756297,64.7419773 69.0430755,55.4959026 79.9438211,55.4959026 C90.8445666,55.4959026 99.7120125,64.7419773 99.7120125,76.1071184 C99.7120125,87.4701677 90.8445666,96.7162424 79.9438211,96.7162424" id="Fill-19" fill="#FBD888"></path>
                <path d="M138.851358,82.2135023 C143.108318,80.4040329 146.053674,75.5718084 146.053674,71.586792 C146.053674,65.4785255 141.390891,60.5082374 135.657069,60.5082374 C130.396011,60.5082374 127.000902,63.8552327 125.69139,66.7190056 C125.21026,67.7712173 123.967688,68.2293373 122.91966,67.7523905 C121.867448,67.2733517 121.405145,66.0307797 121.886275,64.9806599 C124.289836,59.7216934 129.695234,56.3244931 135.657069,56.3244931 C143.696134,56.3244931 150.237418,63.1711905 150.237418,71.586792 C150.237418,77.0298432 147.436401,82.1005412 142.926325,84.8199749" id="Fill-21" fill="#FBD888"></path>
                <path d="M34.2600538,101.005835 C33.3500894,101.005835 32.5321674,100.336436 32.3313477,99.3553483 C30.1474332,88.6428712 36.774484,84.0888656 40.585875,83.1768094 L61.3477056,76.9765005 C62.3915498,76.6627197 63.4876908,77.3112 63.7826448,78.424076 C64.0775987,79.5348601 63.4667721,80.6916653 62.4166523,81.0033543 L41.5544118,87.2308575 C40.732306,87.4421366 34.3311774,89.3478321 36.1929436,98.4725782 C36.4230495,99.6021892 35.745283,100.715065 34.6784282,100.959814 C34.5382727,100.991192 34.3981173,101.005835 34.2600538,101.005835" id="Fill-23" fill="#FBD888"></path>
                <path d="M97.9004512,69.1830218 L95.009484,66.1581747 C100.322839,61.083293 113.336375,53.9479172 124.563453,63.25884 L122.10132,67.0869659 C117.503385,62.7714338 111.828136,61.8635613 105.826555,64.2441117 C101.16168,66.0954186 97.9318293,69.1516437 97.9004512,69.1830218" id="Fill-25" fill="#FBD888"></path>
            </g>
        </g>
    </g>
</svg>